<?xml version="1.0" encoding="UTF-8" standalone="no"?>
<!DOCTYPE svg PUBLIC "-//W3C//DTD SVG 1.1//EN"
 "http://www.w3.org/Graphics/SVG/1.1/DTD/svg11.dtd">
<!-- Generated by graphviz version 2.44.0 (0)
 -->
<!-- Title: ATAS.Indicators.BaseDataSeries&lt; T &gt; Pages: 1 -->
<svg width="382pt" height="148pt"
 viewBox="0.00 0.00 382.00 148.00" xmlns="http://www.w3.org/2000/svg" xmlns:xlink="http://www.w3.org/1999/xlink">
<g id="graph0" class="graph" transform="scale(1 1) rotate(0) translate(4 144)">
<title>ATAS.Indicators.BaseDataSeries&lt; T &gt;</title>
<!-- Node1 -->
<g id="Node000001" class="node">
<title>Node1</title>
<g id="a_Node000001"><a xlink:title="Base generic data series class providing common functionality.">
<polygon fill="#999999" stroke="#666666" points="281,-30 147,-30 147,0 281,0 281,-30"/>
<text text-anchor="start" x="155" y="-18" font-family="Helvetica" font-size="10.00">ATAS.Indicators.BaseData</text>
<text text-anchor="middle" x="214" y="-7" font-family="Helvetica" font-size="10.00">Series&lt; T &gt;</text>
</a>
</g>
</g>
<!-- Node2 -->
<g id="Node000002" class="node">
<title>Node2</title>
<g id="a_Node000002"><a xlink:href="interfaceATAS_1_1Indicators_1_1IDataSeries.html" target="_top" xlink:title="Interface for data series, providing essential properties and methods.">
<polygon fill="white" stroke="#666666" points="260,-85 168,-85 168,-66 260,-66 260,-85"/>
<text text-anchor="middle" x="214" y="-73" font-family="Helvetica" font-size="10.00">IDataSeries&lt; T &gt;</text>
</a>
</g>
</g>
<!-- Node2&#45;&gt;Node1 -->
<g id="edge1_Node000001_Node000002" class="edge">
<title>Node2&#45;&gt;Node1</title>
<g id="a_edge1_Node000001_Node000002"><a xlink:title=" ">
<path fill="none" stroke="#63b8ff" d="M214,-55.65C214,-47.36 214,-37.78 214,-30.11"/>
<polygon fill="#63b8ff" stroke="#63b8ff" points="210.5,-55.87 214,-65.87 217.5,-55.87 210.5,-55.87"/>
</a>
</g>
</g>
<!-- Node3 -->
<g id="Node000003" class="node">
<title>Node3</title>
<g id="a_Node000003"><a xlink:title=" ">
<polygon fill="white" stroke="#666666" points="122,-140 0,-140 0,-121 122,-121 122,-140"/>
<text text-anchor="middle" x="61" y="-128" font-family="Helvetica" font-size="10.00">INotifyPropertyChanged</text>
</a>
</g>
</g>
<!-- Node3&#45;&gt;Node2 -->
<g id="edge2_Node000002_Node000003" class="edge">
<title>Node3&#45;&gt;Node2</title>
<g id="a_edge2_Node000002_Node000003"><a xlink:title=" ">
<path fill="none" stroke="#63b8ff" d="M95.15,-117.67C123.68,-107.79 163.69,-93.93 189.23,-85.08"/>
<polygon fill="#63b8ff" stroke="#63b8ff" points="93.89,-114.4 85.58,-120.98 96.18,-121.02 93.89,-114.4"/>
</a>
</g>
</g>
<!-- Node4 -->
<g id="Node000004" class="node">
<title>Node4</title>
<g id="a_Node000004"><a xlink:href="interfaceATAS_1_1Indicators_1_1INotifyPanelPropertyChanged.html" target="_top" xlink:title="Notifies clients that a panel property value has changed.">
<polygon fill="white" stroke="#666666" points="287.5,-140 140.5,-140 140.5,-121 287.5,-121 287.5,-140"/>
<text text-anchor="middle" x="214" y="-128" font-family="Helvetica" font-size="10.00">INotifyPanelPropertyChanged</text>
</a>
</g>
</g>
<!-- Node4&#45;&gt;Node2 -->
<g id="edge3_Node000002_Node000004" class="edge">
<title>Node4&#45;&gt;Node2</title>
<g id="a_edge3_Node000002_Node000004"><a xlink:title=" ">
<path fill="none" stroke="#63b8ff" d="M214,-110.66C214,-101.93 214,-91.99 214,-85.09"/>
<polygon fill="#63b8ff" stroke="#63b8ff" points="210.5,-110.75 214,-120.75 217.5,-110.75 210.5,-110.75"/>
</a>
</g>
</g>
<!-- Node5 -->
<g id="Node000005" class="node">
<title>Node5</title>
<g id="a_Node000005"><a xlink:title=" ">
<polygon fill="white" stroke="#666666" points="374,-140 306,-140 306,-121 374,-121 374,-140"/>
<text text-anchor="middle" x="340" y="-128" font-family="Helvetica" font-size="10.00">IDataSeries</text>
</a>
</g>
</g>
<!-- Node5&#45;&gt;Node2 -->
<g id="edge4_Node000002_Node000005" class="edge">
<title>Node5&#45;&gt;Node2</title>
<g id="a_edge4_Node000002_Node000005"><a xlink:title=" ">
<path fill="none" stroke="#63b8ff" d="M310.35,-117.03C287.05,-107.23 255.2,-93.83 234.61,-85.17"/>
<polygon fill="#63b8ff" stroke="#63b8ff" points="309.18,-120.33 319.76,-120.98 311.9,-113.88 309.18,-120.33"/>
</a>
</g>
</g>
</g>
</svg>
