<?xml version="1.0" encoding="UTF-8" standalone="no"?>
<!DOCTYPE svg PUBLIC "-//W3C//DTD SVG 1.1//EN"
 "http://www.w3.org/Graphics/SVG/1.1/DTD/svg11.dtd">
<!-- Generated by graphviz version 2.44.0 (0)
 -->
<!-- Title: ATAS.DataFeedsCore.Database.Cache&lt; TConnection &gt; Pages: 1 -->
<svg width="238pt" height="148pt"
 viewBox="0.00 0.00 237.50 148.00" xmlns="http://www.w3.org/2000/svg" xmlns:xlink="http://www.w3.org/1999/xlink">
<g id="graph0" class="graph" transform="scale(1 1) rotate(0) translate(4 144)">
<title>ATAS.DataFeedsCore.Database.Cache&lt; TConnection &gt;</title>
<!-- Node1 -->
<g id="Node000001" class="node">
<title>Node1</title>
<g id="a_Node000001"><a xlink:title=" ">
<polygon fill="#999999" stroke="#666666" points="174.5,-30 14.5,-30 14.5,0 174.5,0 174.5,-30"/>
<text text-anchor="start" x="22.5" y="-18" font-family="Helvetica" font-size="10.00">ATAS.DataFeedsCore.Database.</text>
<text text-anchor="middle" x="94.5" y="-7" font-family="Helvetica" font-size="10.00">Cache&lt; TConnection &gt;</text>
</a>
</g>
</g>
<!-- Node2 -->
<g id="Node000002" class="node">
<title>Node2</title>
<g id="a_Node000002"><a xlink:title=" ">
<polygon fill="white" stroke="#666666" points="99,-85 0,-85 0,-66 99,-66 99,-85"/>
<text text-anchor="middle" x="49.5" y="-73" font-family="Helvetica" font-size="10.00">BaseLoggerSource</text>
</a>
</g>
</g>
<!-- Node2&#45;&gt;Node1 -->
<g id="edge1_Node000001_Node000002" class="edge">
<title>Node2&#45;&gt;Node1</title>
<g id="a_edge1_Node000001_Node000002"><a xlink:title=" ">
<path fill="none" stroke="#63b8ff" d="M62.28,-57.88C69.03,-49.11 77.21,-38.48 83.64,-30.11"/>
<polygon fill="#63b8ff" stroke="#63b8ff" points="59.46,-55.81 56.14,-65.87 65.01,-60.08 59.46,-55.81"/>
</a>
</g>
</g>
<!-- Node3 -->
<g id="Node000003" class="node">
<title>Node3</title>
<g id="a_Node000003"><a xlink:href="interfaceATAS_1_1DataFeedsCore_1_1Database_1_1ICache.html" target="_top" xlink:title=" ">
<polygon fill="white" stroke="#666666" points="164,-85 117,-85 117,-66 164,-66 164,-85"/>
<text text-anchor="middle" x="140.5" y="-73" font-family="Helvetica" font-size="10.00">ICache</text>
</a>
</g>
</g>
<!-- Node3&#45;&gt;Node1 -->
<g id="edge2_Node000001_Node000003" class="edge">
<title>Node3&#45;&gt;Node1</title>
<g id="a_edge2_Node000001_Node000003"><a xlink:title=" ">
<path fill="none" stroke="#63b8ff" d="M127.43,-57.88C120.54,-49.11 112.17,-38.48 105.6,-30.11"/>
<polygon fill="#63b8ff" stroke="#63b8ff" points="124.78,-60.17 133.71,-65.87 130.28,-55.84 124.78,-60.17"/>
</a>
</g>
</g>
<!-- Node4 -->
<g id="Node000004" class="node">
<title>Node4</title>
<g id="a_Node000004"><a xlink:href="interfaceATAS_1_1DataFeedsCore_1_1IEntityFactory.html" target="_top" xlink:title=" ">
<polygon fill="white" stroke="#666666" points="131,-140 52,-140 52,-121 131,-121 131,-140"/>
<text text-anchor="middle" x="91.5" y="-128" font-family="Helvetica" font-size="10.00">IEntityFactory</text>
</a>
</g>
</g>
<!-- Node4&#45;&gt;Node3 -->
<g id="edge3_Node000003_Node000004" class="edge">
<title>Node4&#45;&gt;Node3</title>
<g id="a_edge3_Node000003_Node000004"><a xlink:title=" ">
<path fill="none" stroke="#63b8ff" d="M106.53,-113.24C115.12,-103.95 125.54,-92.68 132.56,-85.09"/>
<polygon fill="#63b8ff" stroke="#63b8ff" points="103.81,-111.03 99.59,-120.75 108.95,-115.78 103.81,-111.03"/>
</a>
</g>
</g>
<!-- Node5 -->
<g id="Node000005" class="node">
<title>Node5</title>
<g id="a_Node000005"><a xlink:title=" ">
<polygon fill="white" stroke="#666666" points="229.5,-140 149.5,-140 149.5,-121 229.5,-121 229.5,-140"/>
<text text-anchor="middle" x="189.5" y="-128" font-family="Helvetica" font-size="10.00">ILoggerSource</text>
</a>
</g>
</g>
<!-- Node5&#45;&gt;Node3 -->
<g id="edge4_Node000003_Node000005" class="edge">
<title>Node5&#45;&gt;Node3</title>
<g id="a_edge4_Node000003_Node000005"><a xlink:title=" ">
<path fill="none" stroke="#63b8ff" d="M174.47,-113.24C165.88,-103.95 155.46,-92.68 148.44,-85.09"/>
<polygon fill="#63b8ff" stroke="#63b8ff" points="172.05,-115.78 181.41,-120.75 177.19,-111.03 172.05,-115.78"/>
</a>
</g>
</g>
</g>
</svg>
