<?xml version="1.0" encoding="UTF-8" standalone="no"?>
<!DOCTYPE svg PUBLIC "-//W3C//DTD SVG 1.1//EN"
 "http://www.w3.org/Graphics/SVG/1.1/DTD/svg11.dtd">
<!-- Generated by graphviz version 2.44.0 (0)
 -->
<!-- Title: ATAS.DataFeedsCore.MarketDepth Pages: 1 -->
<svg width="159pt" height="93pt"
 viewBox="0.00 0.00 159.00 93.00" xmlns="http://www.w3.org/2000/svg" xmlns:xlink="http://www.w3.org/1999/xlink">
<g id="graph0" class="graph" transform="scale(1 1) rotate(0) translate(4 89)">
<title>ATAS.DataFeedsCore.MarketDepth</title>
<!-- Node1 -->
<g id="Node000001" class="node">
<title>Node1</title>
<g id="a_Node000001"><a xlink:title="Represents a market depth entry.">
<polygon fill="#999999" stroke="#666666" points="146,-30 0,-30 0,0 146,0 146,-30"/>
<text text-anchor="start" x="8" y="-18" font-family="Helvetica" font-size="10.00">ATAS.DataFeedsCore.Market</text>
<text text-anchor="middle" x="73" y="-7" font-family="Helvetica" font-size="10.00">Depth</text>
</a>
</g>
</g>
<!-- Node2 -->
<g id="Node000002" class="node">
<title>Node2</title>
<g id="a_Node000002"><a xlink:href="interfaceATAS_1_1DataFeedsCore_1_1IEntity.html" target="_top" xlink:title="Represents an entity in the application.">
<polygon fill="white" stroke="#666666" points="56.5,-85 11.5,-85 11.5,-66 56.5,-66 56.5,-85"/>
<text text-anchor="middle" x="34" y="-73" font-family="Helvetica" font-size="10.00">IEntity</text>
</a>
</g>
</g>
<!-- Node2&#45;&gt;Node1 -->
<g id="edge1_Node000001_Node000002" class="edge">
<title>Node2&#45;&gt;Node1</title>
<g id="a_edge1_Node000001_Node000002"><a xlink:title=" ">
<path fill="none" stroke="#63b8ff" d="M45.45,-57.33C51.22,-48.67 58.13,-38.3 63.59,-30.11"/>
<polygon fill="#63b8ff" stroke="#63b8ff" points="42.39,-55.61 39.75,-65.87 48.21,-59.49 42.39,-55.61"/>
</a>
</g>
</g>
<!-- Node3 -->
<g id="Node000003" class="node">
<title>Node3</title>
<g id="a_Node000003"><a xlink:href="interfaceATAS_1_1DataFeedsCore_1_1IMarketDepth.html" target="_top" xlink:title="Represents a market depth entry.">
<polygon fill="white" stroke="#666666" points="151,-85 75,-85 75,-66 151,-66 151,-85"/>
<text text-anchor="middle" x="113" y="-73" font-family="Helvetica" font-size="10.00">IMarketDepth</text>
</a>
</g>
</g>
<!-- Node3&#45;&gt;Node1 -->
<g id="edge2_Node000001_Node000003" class="edge">
<title>Node3&#45;&gt;Node1</title>
<g id="a_edge2_Node000001_Node000003"><a xlink:title=" ">
<path fill="none" stroke="#63b8ff" d="M101.45,-57.61C95.49,-48.89 88.31,-38.39 82.65,-30.11"/>
<polygon fill="#63b8ff" stroke="#63b8ff" points="98.56,-59.59 107.1,-65.87 104.34,-55.64 98.56,-59.59"/>
</a>
</g>
</g>
</g>
</svg>
