<?xml version="1.0" encoding="UTF-8" standalone="no"?>
<!DOCTYPE svg PUBLIC "-//W3C//DTD SVG 1.1//EN"
 "http://www.w3.org/Graphics/SVG/1.1/DTD/svg11.dtd">
<!-- Generated by graphviz version 2.44.0 (0)
 -->
<!-- Title: ATAS.DataFeedsCore.MyTrade Pages: 1 -->
<svg width="197pt" height="82pt"
 viewBox="0.00 0.00 196.50 82.00" xmlns="http://www.w3.org/2000/svg" xmlns:xlink="http://www.w3.org/1999/xlink">
<g id="graph0" class="graph" transform="scale(1 1) rotate(0) translate(4 78)">
<title>ATAS.DataFeedsCore.MyTrade</title>
<!-- Node1 -->
<g id="Node000001" class="node">
<title>Node1</title>
<g id="a_Node000001"><a xlink:title="Represents a trade entity in the system.">
<polygon fill="#999999" stroke="#666666" points="153,-19 0,-19 0,0 153,0 153,-19"/>
<text text-anchor="middle" x="76.5" y="-7" font-family="Helvetica" font-size="10.00">ATAS.DataFeedsCore.MyTrade</text>
</a>
</g>
</g>
<!-- Node2 -->
<g id="Node000002" class="node">
<title>Node2</title>
<g id="a_Node000002"><a xlink:href="interfaceATAS_1_1DataFeedsCore_1_1IEntity.html" target="_top" xlink:title="Represents an entity in the application.">
<polygon fill="white" stroke="#666666" points="48,-74 3,-74 3,-55 48,-55 48,-74"/>
<text text-anchor="middle" x="25.5" y="-62" font-family="Helvetica" font-size="10.00">IEntity</text>
</a>
</g>
</g>
<!-- Node2&#45;&gt;Node1 -->
<g id="edge1_Node000001_Node000002" class="edge">
<title>Node2&#45;&gt;Node1</title>
<g id="a_edge1_Node000001_Node000002"><a xlink:title=" ">
<path fill="none" stroke="#63b8ff" d="M40.88,-47.52C49.87,-38.18 60.86,-26.75 68.24,-19.09"/>
<polygon fill="#63b8ff" stroke="#63b8ff" points="38.33,-45.12 33.92,-54.75 43.38,-49.97 38.33,-45.12"/>
</a>
</g>
</g>
<!-- Node3 -->
<g id="Node000003" class="node">
<title>Node3</title>
<g id="a_Node000003"><a xlink:title=" ">
<polygon fill="white" stroke="#666666" points="188.5,-74 66.5,-74 66.5,-55 188.5,-55 188.5,-74"/>
<text text-anchor="middle" x="127.5" y="-62" font-family="Helvetica" font-size="10.00">INotifyPropertyChanged</text>
</a>
</g>
</g>
<!-- Node3&#45;&gt;Node1 -->
<g id="edge2_Node000001_Node000003" class="edge">
<title>Node3&#45;&gt;Node1</title>
<g id="a_edge2_Node000001_Node000003"><a xlink:title=" ">
<path fill="none" stroke="#63b8ff" d="M112.12,-47.52C103.13,-38.18 92.14,-26.75 84.76,-19.09"/>
<polygon fill="#63b8ff" stroke="#63b8ff" points="109.62,-49.97 119.08,-54.75 114.67,-45.12 109.62,-49.97"/>
</a>
</g>
</g>
</g>
</svg>
