<?xml version="1.0" encoding="UTF-8" standalone="no"?>
<!DOCTYPE svg PUBLIC "-//W3C//DTD SVG 1.1//EN"
 "http://www.w3.org/Graphics/SVG/1.1/DTD/svg11.dtd">
<!-- Generated by graphviz version 2.44.0 (0)
 -->
<!-- Title: ATAS.DataFeedsCore.Commissions.CommissionRule Pages: 1 -->
<svg width="244pt" height="93pt"
 viewBox="0.00 0.00 243.50 93.00" xmlns="http://www.w3.org/2000/svg" xmlns:xlink="http://www.w3.org/1999/xlink">
<g id="graph0" class="graph" transform="scale(1 1) rotate(0) translate(4 89)">
<title>ATAS.DataFeedsCore.Commissions.CommissionRule</title>
<!-- Node1 -->
<g id="Node000001" class="node">
<title>Node1</title>
<g id="a_Node000001"><a xlink:title=" ">
<polygon fill="#999999" stroke="#666666" points="200,-30 21,-30 21,0 200,0 200,-30"/>
<text text-anchor="start" x="29" y="-18" font-family="Helvetica" font-size="10.00">ATAS.DataFeedsCore.Commissions.</text>
<text text-anchor="middle" x="110.5" y="-7" font-family="Helvetica" font-size="10.00">CommissionRule</text>
</a>
</g>
</g>
<!-- Node2 -->
<g id="Node000002" class="node">
<title>Node2</title>
<g id="a_Node000002"><a xlink:href="interfaceATAS_1_1DataFeedsCore_1_1Commissions_1_1ICommissionRule.html" target="_top" xlink:title=" ">
<polygon fill="white" stroke="#666666" points="95,-85 0,-85 0,-66 95,-66 95,-85"/>
<text text-anchor="middle" x="47.5" y="-73" font-family="Helvetica" font-size="10.00">ICommissionRule</text>
</a>
</g>
</g>
<!-- Node2&#45;&gt;Node1 -->
<g id="edge1_Node000001_Node000002" class="edge">
<title>Node2&#45;&gt;Node1</title>
<g id="a_edge1_Node000001_Node000002"><a xlink:title=" ">
<path fill="none" stroke="#63b8ff" d="M64.23,-58.97C73.88,-50.01 85.92,-38.82 95.3,-30.11"/>
<polygon fill="#63b8ff" stroke="#63b8ff" points="61.74,-56.5 56.8,-65.87 66.51,-61.63 61.74,-56.5"/>
</a>
</g>
</g>
<!-- Node3 -->
<g id="Node000003" class="node">
<title>Node3</title>
<g id="a_Node000003"><a xlink:title=" ">
<polygon fill="white" stroke="#666666" points="235.5,-85 113.5,-85 113.5,-66 235.5,-66 235.5,-85"/>
<text text-anchor="middle" x="174.5" y="-73" font-family="Helvetica" font-size="10.00">INotifyPropertyChanged</text>
</a>
</g>
</g>
<!-- Node3&#45;&gt;Node1 -->
<g id="edge2_Node000001_Node000003" class="edge">
<title>Node3&#45;&gt;Node1</title>
<g id="a_edge2_Node000001_Node000003"><a xlink:title=" ">
<path fill="none" stroke="#63b8ff" d="M157.51,-58.97C147.7,-50.01 135.47,-38.82 125.94,-30.11"/>
<polygon fill="#63b8ff" stroke="#63b8ff" points="155.31,-61.7 165.06,-65.87 160.04,-56.54 155.31,-61.7"/>
</a>
</g>
</g>
</g>
</svg>
