<?xml version="1.0" encoding="UTF-8" standalone="no"?>
<!DOCTYPE svg PUBLIC "-//W3C//DTD SVG 1.1//EN"
 "http://www.w3.org/Graphics/SVG/1.1/DTD/svg11.dtd">
<!-- Generated by graphviz version 2.44.0 (0)
 -->
<!-- Title: ATAS.DataFeedsCore.TradingOptions Pages: 1 -->
<svg width="194pt" height="93pt"
 viewBox="0.00 0.00 193.50 93.00" xmlns="http://www.w3.org/2000/svg" xmlns:xlink="http://www.w3.org/1999/xlink">
<g id="graph0" class="graph" transform="scale(1 1) rotate(0) translate(4 89)">
<title>ATAS.DataFeedsCore.TradingOptions</title>
<!-- Node1 -->
<g id="Node000001" class="node">
<title>Node1</title>
<g id="a_Node000001"><a xlink:title=" ">
<polygon fill="#999999" stroke="#666666" points="147,-30 0,-30 0,0 147,0 147,-30"/>
<text text-anchor="start" x="8" y="-18" font-family="Helvetica" font-size="10.00">ATAS.DataFeedsCore.Trading</text>
<text text-anchor="middle" x="73.5" y="-7" font-family="Helvetica" font-size="10.00">Options</text>
</a>
</g>
</g>
<!-- Node2 -->
<g id="Node000002" class="node">
<title>Node2</title>
<g id="a_Node000002"><a xlink:href="interfaceATAS_1_1DataFeedsCore_1_1IEntity.html" target="_top" xlink:title="Represents an entity in the application.">
<polygon fill="white" stroke="#666666" points="45,-85 0,-85 0,-66 45,-66 45,-85"/>
<text text-anchor="middle" x="22.5" y="-73" font-family="Helvetica" font-size="10.00">IEntity</text>
</a>
</g>
</g>
<!-- Node2&#45;&gt;Node1 -->
<g id="edge1_Node000001_Node000002" class="edge">
<title>Node2&#45;&gt;Node1</title>
<g id="a_edge1_Node000001_Node000002"><a xlink:title=" ">
<path fill="none" stroke="#63b8ff" d="M36.75,-58.15C44.44,-49.34 53.83,-38.56 61.19,-30.11"/>
<polygon fill="#63b8ff" stroke="#63b8ff" points="33.96,-56.03 30.03,-65.87 39.23,-60.63 33.96,-56.03"/>
</a>
</g>
</g>
<!-- Node3 -->
<g id="Node000003" class="node">
<title>Node3</title>
<g id="a_Node000003"><a xlink:title=" ">
<polygon fill="white" stroke="#666666" points="185.5,-85 63.5,-85 63.5,-66 185.5,-66 185.5,-85"/>
<text text-anchor="middle" x="124.5" y="-73" font-family="Helvetica" font-size="10.00">INotifyPropertyChanged</text>
</a>
</g>
</g>
<!-- Node3&#45;&gt;Node1 -->
<g id="edge2_Node000001_Node000003" class="edge">
<title>Node3&#45;&gt;Node1</title>
<g id="a_edge2_Node000001_Node000003"><a xlink:title=" ">
<path fill="none" stroke="#63b8ff" d="M110.25,-58.15C102.56,-49.34 93.17,-38.56 85.81,-30.11"/>
<polygon fill="#63b8ff" stroke="#63b8ff" points="107.77,-60.63 116.97,-65.87 113.04,-56.03 107.77,-60.63"/>
</a>
</g>
</g>
</g>
</svg>
