<?xml version="1.0" encoding="UTF-8" standalone="no"?>
<!DOCTYPE svg PUBLIC "-//W3C//DTD SVG 1.1//EN"
 "http://www.w3.org/Graphics/SVG/1.1/DTD/svg11.dtd">
<!-- Generated by graphviz version 2.44.0 (0)
 -->
<!-- Title: ATAS.Indicators.NotifyPropertyChangedBase Pages: 1 -->
<svg width="302pt" height="225pt"
 viewBox="0.00 0.00 301.50 225.00" xmlns="http://www.w3.org/2000/svg" xmlns:xlink="http://www.w3.org/1999/xlink">
<g id="graph0" class="graph" transform="scale(1 1) rotate(0) translate(4 221)">
<title>ATAS.Indicators.NotifyPropertyChangedBase</title>
<!-- Node1 -->
<g id="Node000001" class="node">
<title>Node1</title>
<g id="a_Node000001"><a xlink:title="Base class for implementing the INotifyPropertyChanged interface.">
<polygon fill="#999999" stroke="#666666" points="223,-162 68,-162 68,-132 223,-132 223,-162"/>
<text text-anchor="start" x="76" y="-150" font-family="Helvetica" font-size="10.00">ATAS.Indicators.NotifyProperty</text>
<text text-anchor="middle" x="145.5" y="-139" font-family="Helvetica" font-size="10.00">ChangedBase</text>
</a>
</g>
</g>
<!-- Node3 -->
<g id="Node000003" class="node">
<title>Node3</title>
<g id="a_Node000003"><a xlink:href="classATAS_1_1Indicators_1_1FilterBase.html" target="_top" xlink:title="Base class for filters implementing the IFilter interface.">
<polygon fill="white" stroke="#666666" points="135,-90.5 0,-90.5 0,-71.5 135,-71.5 135,-90.5"/>
<text text-anchor="middle" x="67.5" y="-78.5" font-family="Helvetica" font-size="10.00">ATAS.Indicators.FilterBase</text>
</a>
</g>
</g>
<!-- Node1&#45;&gt;Node3 -->
<g id="edge2_Node000001_Node000003" class="edge">
<title>Node1&#45;&gt;Node3</title>
<g id="a_edge2_Node000001_Node000003"><a xlink:title=" ">
<path fill="none" stroke="#63b8ff" d="M120.22,-125.26C106.03,-113.61 89.06,-99.69 78.28,-90.84"/>
<polygon fill="#63b8ff" stroke="#63b8ff" points="118.24,-128.16 128.19,-131.8 122.68,-122.75 118.24,-128.16"/>
</a>
</g>
</g>
<!-- Node5 -->
<g id="Node000005" class="node">
<title>Node5</title>
<g id="a_Node000005"><a xlink:href="classATAS_1_1Indicators_1_1FilterRangeValue.html" target="_top" xlink:title="Represents a range of values of type TValue &#160;with support for property change notifications.">
<polygon fill="white" stroke="#666666" points="293.5,-96 153.5,-96 153.5,-66 293.5,-66 293.5,-96"/>
<text text-anchor="start" x="161.5" y="-84" font-family="Helvetica" font-size="10.00">ATAS.Indicators.FilterRange</text>
<text text-anchor="middle" x="223.5" y="-73" font-family="Helvetica" font-size="10.00">Value&lt; TValue &gt;</text>
</a>
</g>
</g>
<!-- Node1&#45;&gt;Node5 -->
<g id="edge4_Node000001_Node000005" class="edge">
<title>Node1&#45;&gt;Node5</title>
<g id="a_edge4_Node000001_Node000005"><a xlink:title=" ">
<path fill="none" stroke="#63b8ff" d="M170.85,-125.2C182.43,-115.7 195.85,-104.69 206.24,-96.16"/>
<polygon fill="#63b8ff" stroke="#63b8ff" points="168.32,-122.75 162.81,-131.8 172.76,-128.16 168.32,-122.75"/>
</a>
</g>
</g>
<!-- Node2 -->
<g id="Node000002" class="node">
<title>Node2</title>
<g id="a_Node000002"><a xlink:title=" ">
<polygon fill="white" stroke="#666666" points="206.5,-217 84.5,-217 84.5,-198 206.5,-198 206.5,-217"/>
<text text-anchor="middle" x="145.5" y="-205" font-family="Helvetica" font-size="10.00">INotifyPropertyChanged</text>
</a>
</g>
</g>
<!-- Node2&#45;&gt;Node1 -->
<g id="edge1_Node000001_Node000002" class="edge">
<title>Node2&#45;&gt;Node1</title>
<g id="a_edge1_Node000001_Node000002"><a xlink:title=" ">
<path fill="none" stroke="#63b8ff" d="M145.5,-187.65C145.5,-179.36 145.5,-169.78 145.5,-162.11"/>
<polygon fill="#63b8ff" stroke="#63b8ff" points="142,-187.87 145.5,-197.87 149,-187.87 142,-187.87"/>
</a>
</g>
</g>
<!-- Node4 -->
<g id="Node000004" class="node">
<title>Node4</title>
<g id="a_Node000004"><a xlink:href="classATAS_1_1Indicators_1_1Filter.html" target="_top" xlink:title="Generic filter class that implements the IFilterValue interface.">
<polygon fill="white" stroke="#666666" points="124,-30 11,-30 11,0 124,0 124,-30"/>
<text text-anchor="start" x="19" y="-18" font-family="Helvetica" font-size="10.00">ATAS.Indicators.Filter</text>
<text text-anchor="middle" x="67.5" y="-7" font-family="Helvetica" font-size="10.00">&lt; TValue &gt;</text>
</a>
</g>
</g>
<!-- Node3&#45;&gt;Node4 -->
<g id="edge3_Node000003_Node000004" class="edge">
<title>Node3&#45;&gt;Node4</title>
<g id="a_edge3_Node000003_Node000004"><a xlink:title=" ">
<path fill="none" stroke="#63b8ff" d="M67.5,-61.35C67.5,-51.47 67.5,-39.51 67.5,-30.36"/>
<polygon fill="#63b8ff" stroke="#63b8ff" points="64,-61.37 67.5,-71.37 71,-61.37 64,-61.37"/>
</a>
</g>
</g>
</g>
</svg>
