<?xml version="1.0" encoding="UTF-8" standalone="no"?>
<!DOCTYPE svg PUBLIC "-//W3C//DTD SVG 1.1//EN"
 "http://www.w3.org/Graphics/SVG/1.1/DTD/svg11.dtd">
<!-- Generated by graphviz version 2.44.0 (0)
 -->
<!-- Title: ATAS.Indicators.BaseIndicator Pages: 1 -->
<svg width="388pt" height="192pt"
 viewBox="0.00 0.00 387.50 192.00" xmlns="http://www.w3.org/2000/svg" xmlns:xlink="http://www.w3.org/1999/xlink">
<g id="graph0" class="graph" transform="scale(1 1) rotate(0) translate(4 188)">
<title>ATAS.Indicators.BaseIndicator</title>
<!-- Node1 -->
<g id="Node000001" class="node">
<title>Node1</title>
<g id="a_Node000001"><a xlink:title="Base class for custom indicators in a chart.">
<polygon fill="#999999" stroke="#666666" points="211.5,-19 60.5,-19 60.5,0 211.5,0 211.5,-19"/>
<text text-anchor="middle" x="136" y="-7" font-family="Helvetica" font-size="10.00">ATAS.Indicators.BaseIndicator</text>
</a>
</g>
</g>
<!-- Node2 -->
<g id="Node000002" class="node">
<title>Node2</title>
<g id="a_Node000002"><a xlink:href="classATAS_1_1Indicators_1_1ChartObject.html" target="_top" xlink:title="Base class for objects in a chart.">
<polygon fill="white" stroke="#666666" points="128,-74 58,-74 58,-55 128,-55 128,-74"/>
<text text-anchor="middle" x="93" y="-62" font-family="Helvetica" font-size="10.00">ChartObject</text>
</a>
</g>
</g>
<!-- Node2&#45;&gt;Node1 -->
<g id="edge1_Node000001_Node000002" class="edge">
<title>Node2&#45;&gt;Node1</title>
<g id="a_edge1_Node000001_Node000002"><a xlink:title=" ">
<path fill="none" stroke="#63b8ff" d="M106.42,-46.96C113.91,-37.72 122.94,-26.6 129.03,-19.09"/>
<polygon fill="#63b8ff" stroke="#63b8ff" points="103.68,-44.78 100.1,-54.75 109.12,-49.19 103.68,-44.78"/>
</a>
</g>
</g>
<!-- Node3 -->
<g id="Node000003" class="node">
<title>Node3</title>
<g id="a_Node000003"><a xlink:href="classATAS_1_1Indicators_1_1Filters_1_1TrackedPropertyBase.html" target="_top" xlink:title="A base class for tracking property changes and notifying subscribers when a property value is modifie...">
<polygon fill="white" stroke="#666666" points="158,-129 48,-129 48,-110 158,-110 158,-129"/>
<text text-anchor="middle" x="103" y="-117" font-family="Helvetica" font-size="10.00">TrackedPropertyBase</text>
</a>
</g>
</g>
<!-- Node3&#45;&gt;Node2 -->
<g id="edge2_Node000002_Node000003" class="edge">
<title>Node3&#45;&gt;Node2</title>
<g id="a_edge2_Node000002_Node000003"><a xlink:title=" ">
<path fill="none" stroke="#63b8ff" d="M99.45,-99.66C97.8,-90.93 95.92,-80.99 94.62,-74.09"/>
<polygon fill="#63b8ff" stroke="#63b8ff" points="96.06,-100.57 101.35,-109.75 102.93,-99.27 96.06,-100.57"/>
</a>
</g>
</g>
<!-- Node4 -->
<g id="Node000004" class="node">
<title>Node4</title>
<g id="a_Node000004"><a xlink:title=" ">
<polygon fill="white" stroke="#666666" points="122,-184 0,-184 0,-165 122,-165 122,-184"/>
<text text-anchor="middle" x="61" y="-172" font-family="Helvetica" font-size="10.00">INotifyPropertyChanged</text>
</a>
</g>
</g>
<!-- Node4&#45;&gt;Node1 -->
<g id="edge4_Node000001_Node000004" class="edge">
<title>Node4&#45;&gt;Node1</title>
<g id="a_edge4_Node000001_Node000004"><a xlink:title=" ">
<path fill="none" stroke="#63b8ff" d="M50.07,-156.09C45.71,-148.15 41.2,-138.43 39,-129 33.81,-106.77 48.56,-55.59 49,-55 62.35,-37.02 85.07,-25.75 103.94,-19.05"/>
<polygon fill="#63b8ff" stroke="#63b8ff" points="47.08,-157.91 55.16,-164.76 53.12,-154.36 47.08,-157.91"/>
</a>
</g>
</g>
<!-- Node4&#45;&gt;Node3 -->
<g id="edge3_Node000003_Node000004" class="edge">
<title>Node4&#45;&gt;Node3</title>
<g id="a_edge3_Node000003_Node000004"><a xlink:title=" ">
<path fill="none" stroke="#63b8ff" d="M74.33,-156.67C81.61,-147.5 90.3,-136.52 96.19,-129.09"/>
<polygon fill="#63b8ff" stroke="#63b8ff" points="71.4,-154.74 67.94,-164.75 76.89,-159.08 71.4,-154.74"/>
</a>
</g>
</g>
<!-- Node5 -->
<g id="Node000005" class="node">
<title>Node5</title>
<g id="a_Node000005"><a xlink:title=" ">
<polygon fill="white" stroke="#666666" points="214,-74 146,-74 146,-55 214,-55 214,-74"/>
<text text-anchor="middle" x="180" y="-62" font-family="Helvetica" font-size="10.00">IDisposable</text>
</a>
</g>
</g>
<!-- Node5&#45;&gt;Node1 -->
<g id="edge5_Node000001_Node000005" class="edge">
<title>Node5&#45;&gt;Node1</title>
<g id="a_edge5_Node000001_Node000005"><a xlink:title=" ">
<path fill="none" stroke="#63b8ff" d="M166.27,-46.96C158.6,-37.72 149.37,-26.6 143.13,-19.09"/>
<polygon fill="#63b8ff" stroke="#63b8ff" points="163.65,-49.29 172.73,-54.75 169.04,-44.82 163.65,-49.29"/>
</a>
</g>
</g>
<!-- Node6 -->
<g id="Node000006" class="node">
<title>Node6</title>
<g id="a_Node000006"><a xlink:href="interfaceATAS_1_1Indicators_1_1INotifyPanelPropertyChanged.html" target="_top" xlink:title="Notifies clients that a panel property value has changed.">
<polygon fill="white" stroke="#666666" points="379.5,-74 232.5,-74 232.5,-55 379.5,-55 379.5,-74"/>
<text text-anchor="middle" x="306" y="-62" font-family="Helvetica" font-size="10.00">INotifyPanelPropertyChanged</text>
</a>
</g>
</g>
<!-- Node6&#45;&gt;Node1 -->
<g id="edge6_Node000001_Node000006" class="edge">
<title>Node6&#45;&gt;Node1</title>
<g id="a_edge6_Node000001_Node000006"><a xlink:title=" ">
<path fill="none" stroke="#63b8ff" d="M268.88,-51.93C237.13,-42.03 192.15,-28.01 163.53,-19.08"/>
<polygon fill="#63b8ff" stroke="#63b8ff" points="268.1,-55.35 278.69,-54.98 270.18,-48.67 268.1,-55.35"/>
</a>
</g>
</g>
</g>
</svg>
