<?xml version="1.0" encoding="UTF-8" standalone="no"?>
<!DOCTYPE svg PUBLIC "-//W3C//DTD SVG 1.1//EN"
 "http://www.w3.org/Graphics/SVG/1.1/DTD/svg11.dtd">
<!-- Generated by graphviz version 2.44.0 (0)
 -->
<!-- Title: ATAS.DataFeedsCore.TradeStatistics.Matching.TradesMatchingProcessor Pages: 1 -->
<svg width="250pt" height="214pt"
 viewBox="0.00 0.00 249.50 214.00" xmlns="http://www.w3.org/2000/svg" xmlns:xlink="http://www.w3.org/1999/xlink">
<g id="graph0" class="graph" transform="scale(1 1) rotate(0) translate(4 210)">
<title>ATAS.DataFeedsCore.TradeStatistics.Matching.TradesMatchingProcessor</title>
<!-- Node1 -->
<g id="Node000001" class="node">
<title>Node1</title>
<g id="a_Node000001"><a xlink:title=" ">
<polygon fill="#999999" stroke="#666666" points="229,-41 56,-41 56,0 229,0 229,-41"/>
<text text-anchor="start" x="64" y="-29" font-family="Helvetica" font-size="10.00">ATAS.DataFeedsCore.Trade</text>
<text text-anchor="start" x="64" y="-18" font-family="Helvetica" font-size="10.00">Statistics.Matching.TradesMatching</text>
<text text-anchor="middle" x="142.5" y="-7" font-family="Helvetica" font-size="10.00">Processor</text>
</a>
</g>
</g>
<!-- Node2 -->
<g id="Node000002" class="node">
<title>Node2</title>
<g id="a_Node000002"><a xlink:href="classATAS_1_1DataFeedsCore_1_1TradeStatistics_1_1Matching_1_1TradesProcessingUnit.html" target="_top" xlink:title=" ">
<polygon fill="white" stroke="#666666" points="199,-96 86,-96 86,-77 199,-77 199,-96"/>
<text text-anchor="middle" x="142.5" y="-84" font-family="Helvetica" font-size="10.00">TradesProcessingUnit</text>
</a>
</g>
</g>
<!-- Node2&#45;&gt;Node1 -->
<g id="edge1_Node000001_Node000002" class="edge">
<title>Node2&#45;&gt;Node1</title>
<g id="a_edge1_Node000001_Node000002"><a xlink:title=" ">
<path fill="none" stroke="#63b8ff" d="M142.5,-66.63C142.5,-58.56 142.5,-49.15 142.5,-41.01"/>
<polygon fill="#63b8ff" stroke="#63b8ff" points="139,-66.87 142.5,-76.87 146,-66.87 139,-66.87"/>
</a>
</g>
</g>
<!-- Node3 -->
<g id="Node000003" class="node">
<title>Node3</title>
<g id="a_Node000003"><a xlink:href="classATAS_1_1DataFeedsCore_1_1TradeStatistics_1_1Matching_1_1TradesProcessingLoggerSource.html" target="_top" xlink:title=" ">
<polygon fill="white" stroke="#666666" points="155,-151 0,-151 0,-132 155,-132 155,-151"/>
<text text-anchor="middle" x="77.5" y="-139" font-family="Helvetica" font-size="10.00">TradesProcessingLoggerSource</text>
</a>
</g>
</g>
<!-- Node3&#45;&gt;Node2 -->
<g id="edge2_Node000002_Node000003" class="edge">
<title>Node3&#45;&gt;Node2</title>
<g id="a_edge2_Node000002_Node000003"><a xlink:title=" ">
<path fill="none" stroke="#63b8ff" d="M95.77,-125.6C107.42,-116.11 122.1,-104.13 131.87,-96.17"/>
<polygon fill="#63b8ff" stroke="#63b8ff" points="93.48,-122.95 87.94,-131.98 97.91,-128.38 93.48,-122.95"/>
</a>
</g>
</g>
<!-- Node4 -->
<g id="Node000004" class="node">
<title>Node4</title>
<g id="a_Node000004"><a xlink:title=" ">
<polygon fill="white" stroke="#666666" points="127,-206 28,-206 28,-187 127,-187 127,-206"/>
<text text-anchor="middle" x="77.5" y="-194" font-family="Helvetica" font-size="10.00">BaseLoggerSource</text>
</a>
</g>
</g>
<!-- Node4&#45;&gt;Node3 -->
<g id="edge3_Node000003_Node000004" class="edge">
<title>Node4&#45;&gt;Node3</title>
<g id="a_edge3_Node000003_Node000004"><a xlink:title=" ">
<path fill="none" stroke="#63b8ff" d="M77.5,-176.66C77.5,-167.93 77.5,-157.99 77.5,-151.09"/>
<polygon fill="#63b8ff" stroke="#63b8ff" points="74,-176.75 77.5,-186.75 81,-176.75 74,-176.75"/>
</a>
</g>
</g>
<!-- Node5 -->
<g id="Node000005" class="node">
<title>Node5</title>
<g id="a_Node000005"><a xlink:title=" ">
<polygon fill="white" stroke="#666666" points="241.5,-151 173.5,-151 173.5,-132 241.5,-132 241.5,-151"/>
<text text-anchor="middle" x="207.5" y="-139" font-family="Helvetica" font-size="10.00">IDisposable</text>
</a>
</g>
</g>
<!-- Node5&#45;&gt;Node2 -->
<g id="edge4_Node000002_Node000005" class="edge">
<title>Node5&#45;&gt;Node2</title>
<g id="a_edge4_Node000002_Node000005"><a xlink:title=" ">
<path fill="none" stroke="#63b8ff" d="M189.23,-125.6C177.58,-116.11 162.9,-104.13 153.13,-96.17"/>
<polygon fill="#63b8ff" stroke="#63b8ff" points="187.09,-128.38 197.06,-131.98 191.52,-122.95 187.09,-128.38"/>
</a>
</g>
</g>
</g>
</svg>
