<?xml version="1.0" encoding="UTF-8" standalone="no"?>
<!DOCTYPE svg PUBLIC "-//W3C//DTD SVG 1.1//EN"
 "http://www.w3.org/Graphics/SVG/1.1/DTD/svg11.dtd">
<!-- Generated by graphviz version 2.44.0 (0)
 -->
<!-- Title: ATAS.Strategies.ATM.BaseStopProfitStrategy&lt; TStrategy, TSettings &gt; Pages: 1 -->
<svg width="260pt" height="280pt"
 viewBox="0.00 0.00 260.00 280.00" xmlns="http://www.w3.org/2000/svg" xmlns:xlink="http://www.w3.org/1999/xlink">
<g id="graph0" class="graph" transform="scale(1 1) rotate(0) translate(4 276)">
<title>ATAS.Strategies.ATM.BaseStopProfitStrategy&lt; TStrategy, TSettings &gt;</title>
<!-- Node1 -->
<g id="Node000001" class="node">
<title>Node1</title>
<g id="a_Node000001"><a xlink:title=" ">
<polygon fill="#999999" stroke="#666666" points="209.5,-41 58.5,-41 58.5,0 209.5,0 209.5,-41"/>
<text text-anchor="start" x="66.5" y="-29" font-family="Helvetica" font-size="10.00">ATAS.Strategies.ATM.Base</text>
<text text-anchor="start" x="66.5" y="-18" font-family="Helvetica" font-size="10.00">StopProfitStrategy&lt; TStrategy,</text>
<text text-anchor="middle" x="134" y="-7" font-family="Helvetica" font-size="10.00"> TSettings &gt;</text>
</a>
</g>
</g>
<!-- Node2 -->
<g id="Node000002" class="node">
<title>Node2</title>
<g id="a_Node000002"><a xlink:href="classATAS_1_1Strategies_1_1ATM_1_1ATMStrategy.html" target="_top" xlink:title=" ">
<polygon fill="white" stroke="#666666" points="134,-101.5 0,-101.5 0,-82.5 134,-82.5 134,-101.5"/>
<text text-anchor="middle" x="67" y="-89.5" font-family="Helvetica" font-size="10.00">ATMStrategy&lt; TStrategy &gt;</text>
</a>
</g>
</g>
<!-- Node2&#45;&gt;Node1 -->
<g id="edge1_Node000001_Node000002" class="edge">
<title>Node2&#45;&gt;Node1</title>
<g id="a_edge1_Node000001_Node000002"><a xlink:title=" ">
<path fill="none" stroke="#63b8ff" d="M82.28,-75.15C92.01,-65.06 104.67,-51.92 115.04,-41.17"/>
<polygon fill="#63b8ff" stroke="#63b8ff" points="79.64,-72.85 75.22,-82.48 84.68,-77.71 79.64,-72.85"/>
</a>
</g>
</g>
<!-- Node3 -->
<g id="Node000003" class="node">
<title>Node3</title>
<g id="a_Node000003"><a xlink:href="classATAS_1_1Strategies_1_1Strategy.html" target="_top" xlink:title="Base class for implementing trading strategies.">
<polygon fill="white" stroke="#666666" points="93.5,-162 40.5,-162 40.5,-143 93.5,-143 93.5,-162"/>
<text text-anchor="middle" x="67" y="-150" font-family="Helvetica" font-size="10.00">Strategy</text>
</a>
</g>
</g>
<!-- Node3&#45;&gt;Node2 -->
<g id="edge2_Node000002_Node000003" class="edge">
<title>Node3&#45;&gt;Node2</title>
<g id="a_edge2_Node000002_Node000003"><a xlink:title=" ">
<path fill="none" stroke="#63b8ff" d="M67,-132.66C67,-122.24 67,-109.8 67,-101.67"/>
<polygon fill="#63b8ff" stroke="#63b8ff" points="63.5,-132.87 67,-142.87 70.5,-132.87 63.5,-132.87"/>
</a>
</g>
</g>
<!-- Node4 -->
<g id="Node000004" class="node">
<title>Node4</title>
<g id="a_Node000004"><a xlink:title=" ">
<polygon fill="white" stroke="#666666" points="109.5,-217 10.5,-217 10.5,-198 109.5,-198 109.5,-217"/>
<text text-anchor="middle" x="60" y="-205" font-family="Helvetica" font-size="10.00">BaseLoggerSource</text>
</a>
</g>
</g>
<!-- Node4&#45;&gt;Node3 -->
<g id="edge3_Node000003_Node000004" class="edge">
<title>Node4&#45;&gt;Node3</title>
<g id="a_edge3_Node000003_Node000004"><a xlink:title=" ">
<path fill="none" stroke="#63b8ff" d="M62.49,-187.66C63.64,-178.93 64.95,-168.99 65.87,-162.09"/>
<polygon fill="#63b8ff" stroke="#63b8ff" points="59,-187.38 61.16,-197.75 65.94,-188.29 59,-187.38"/>
</a>
</g>
</g>
<!-- Node5 -->
<g id="Node000005" class="node">
<title>Node5</title>
<g id="a_Node000005"><a xlink:href="interfaceATAS_1_1Strategies_1_1IStrategy.html" target="_top" xlink:title="Represents a trading strategy.">
<polygon fill="white" stroke="#666666" points="184,-217 128,-217 128,-198 184,-198 184,-217"/>
<text text-anchor="middle" x="156" y="-205" font-family="Helvetica" font-size="10.00">IStrategy</text>
</a>
</g>
</g>
<!-- Node5&#45;&gt;Node3 -->
<g id="edge4_Node000003_Node000005" class="edge">
<title>Node5&#45;&gt;Node3</title>
<g id="a_edge4_Node000003_Node000005"><a xlink:title=" ">
<path fill="none" stroke="#63b8ff" d="M132.82,-192.7C116.61,-183.04 95.45,-170.44 81.56,-162.17"/>
<polygon fill="#63b8ff" stroke="#63b8ff" points="131.32,-195.88 141.7,-197.98 134.9,-189.86 131.32,-195.88"/>
</a>
</g>
</g>
<!-- Node7 -->
<g id="Node000007" class="node">
<title>Node7</title>
<g id="a_Node000007"><a xlink:href="interfaceATAS_1_1Strategies_1_1ATM_1_1IATMStrategy.html" target="_top" xlink:title=" ">
<polygon fill="white" stroke="#666666" points="194.5,-162 117.5,-162 117.5,-143 194.5,-143 194.5,-162"/>
<text text-anchor="middle" x="156" y="-150" font-family="Helvetica" font-size="10.00">IATMStrategy</text>
</a>
</g>
</g>
<!-- Node5&#45;&gt;Node7 -->
<g id="edge7_Node000007_Node000005" class="edge">
<title>Node5&#45;&gt;Node7</title>
<g id="a_edge7_Node000007_Node000005"><a xlink:title=" ">
<path fill="none" stroke="#63b8ff" d="M156,-187.66C156,-178.93 156,-168.99 156,-162.09"/>
<polygon fill="#63b8ff" stroke="#63b8ff" points="152.5,-187.75 156,-197.75 159.5,-187.75 152.5,-187.75"/>
</a>
</g>
</g>
<!-- Node6 -->
<g id="Node000006" class="node">
<title>Node6</title>
<g id="a_Node000006"><a xlink:title=" ">
<polygon fill="white" stroke="#666666" points="217,-272 95,-272 95,-253 217,-253 217,-272"/>
<text text-anchor="middle" x="156" y="-260" font-family="Helvetica" font-size="10.00">INotifyPropertyChanged</text>
</a>
</g>
</g>
<!-- Node6&#45;&gt;Node5 -->
<g id="edge5_Node000005_Node000006" class="edge">
<title>Node6&#45;&gt;Node5</title>
<g id="a_edge5_Node000005_Node000006"><a xlink:title=" ">
<path fill="none" stroke="#63b8ff" d="M156,-242.66C156,-233.93 156,-223.99 156,-217.09"/>
<polygon fill="#63b8ff" stroke="#63b8ff" points="152.5,-242.75 156,-252.75 159.5,-242.75 152.5,-242.75"/>
</a>
</g>
</g>
<!-- Node7&#45;&gt;Node2 -->
<g id="edge6_Node000002_Node000007" class="edge">
<title>Node7&#45;&gt;Node2</title>
<g id="a_edge6_Node000002_Node000007"><a xlink:title=" ">
<path fill="none" stroke="#63b8ff" d="M134.18,-137.16C117.27,-126.05 94.41,-111.01 80.19,-101.67"/>
<polygon fill="#63b8ff" stroke="#63b8ff" points="132.59,-140.3 142.87,-142.87 136.43,-134.45 132.59,-140.3"/>
</a>
</g>
</g>
<!-- Node8 -->
<g id="Node000008" class="node">
<title>Node8</title>
<g id="a_Node000008"><a xlink:href="interfaceATAS_1_1Strategies_1_1ATM_1_1IStopProfitStrategy.html" target="_top" xlink:title=" ">
<polygon fill="white" stroke="#666666" points="252,-107 152,-107 152,-77 252,-77 252,-107"/>
<text text-anchor="start" x="160" y="-95" font-family="Helvetica" font-size="10.00">IStopProfitStrategy</text>
<text text-anchor="middle" x="202" y="-84" font-family="Helvetica" font-size="10.00">&lt; TSettings &gt;</text>
</a>
</g>
</g>
<!-- Node7&#45;&gt;Node8 -->
<g id="edge9_Node000008_Node000007" class="edge">
<title>Node7&#45;&gt;Node8</title>
<g id="a_edge9_Node000008_Node000007"><a xlink:title=" ">
<path fill="none" stroke="#63b8ff" d="M169.07,-134.88C175.96,-126.11 184.33,-115.48 190.9,-107.11"/>
<polygon fill="#63b8ff" stroke="#63b8ff" points="166.22,-132.84 162.79,-142.87 171.72,-137.17 166.22,-132.84"/>
</a>
</g>
</g>
<!-- Node8&#45;&gt;Node1 -->
<g id="edge8_Node000001_Node000008" class="edge">
<title>Node8&#45;&gt;Node1</title>
<g id="a_edge8_Node000001_Node000008"><a xlink:title=" ">
<path fill="none" stroke="#63b8ff" d="M181.15,-69.69C172.23,-60.57 161.88,-49.99 153.15,-41.07"/>
<polygon fill="#63b8ff" stroke="#63b8ff" points="178.74,-72.24 188.24,-76.94 183.75,-67.34 178.74,-72.24"/>
</a>
</g>
</g>
</g>
</svg>
