<?xml version="1.0" encoding="UTF-8" standalone="no"?>
<!DOCTYPE svg PUBLIC "-//W3C//DTD SVG 1.1//EN"
 "http://www.w3.org/Graphics/SVG/1.1/DTD/svg11.dtd">
<!-- Generated by graphviz version 2.44.0 (0)
 -->
<!-- Title: OFT.Core.BaseConnectorSettings&lt; T &gt; Pages: 1 -->
<svg width="388pt" height="82pt"
 viewBox="0.00 0.00 387.50 82.00" xmlns="http://www.w3.org/2000/svg" xmlns:xlink="http://www.w3.org/1999/xlink">
<g id="graph0" class="graph" transform="scale(1 1) rotate(0) translate(4 78)">
<title>OFT.Core.BaseConnectorSettings&lt; T &gt;</title>
<!-- Node1 -->
<g id="Node000001" class="node">
<title>Node1</title>
<g id="a_Node000001"><a xlink:title=" ">
<polygon fill="#999999" stroke="#666666" points="275.5,-19 85.5,-19 85.5,0 275.5,0 275.5,-19"/>
<text text-anchor="middle" x="180.5" y="-7" font-family="Helvetica" font-size="10.00">OFT.Core.BaseConnectorSettings&lt; T &gt;</text>
</a>
</g>
</g>
<!-- Node2 -->
<g id="Node000002" class="node">
<title>Node2</title>
<g id="a_Node000002"><a xlink:href="interfaceOFT_1_1Core_1_1IConnectorSettings.html" target="_top" xlink:title=" ">
<polygon fill="white" stroke="#666666" points="101,-74 0,-74 0,-55 101,-55 101,-74"/>
<text text-anchor="middle" x="50.5" y="-62" font-family="Helvetica" font-size="10.00">IConnectorSettings</text>
</a>
</g>
</g>
<!-- Node2&#45;&gt;Node1 -->
<g id="edge1_Node000001_Node000002" class="edge">
<title>Node2&#45;&gt;Node1</title>
<g id="a_edge1_Node000001_Node000002"><a xlink:title=" ">
<path fill="none" stroke="#63b8ff" d="M80.77,-51.16C104.84,-41.35 137.9,-27.87 159.23,-19.17"/>
<polygon fill="#63b8ff" stroke="#63b8ff" points="79.33,-47.97 71.39,-54.98 81.97,-54.45 79.33,-47.97"/>
</a>
</g>
</g>
<!-- Node3 -->
<g id="Node000003" class="node">
<title>Node3</title>
<g id="a_Node000003"><a xlink:title=" ">
<polygon fill="white" stroke="#666666" points="241.5,-74 119.5,-74 119.5,-55 241.5,-55 241.5,-74"/>
<text text-anchor="middle" x="180.5" y="-62" font-family="Helvetica" font-size="10.00">INotifyPropertyChanged</text>
</a>
</g>
</g>
<!-- Node3&#45;&gt;Node1 -->
<g id="edge2_Node000001_Node000003" class="edge">
<title>Node3&#45;&gt;Node1</title>
<g id="a_edge2_Node000001_Node000003"><a xlink:title=" ">
<path fill="none" stroke="#63b8ff" d="M180.5,-44.66C180.5,-35.93 180.5,-25.99 180.5,-19.09"/>
<polygon fill="#63b8ff" stroke="#63b8ff" points="177,-44.75 180.5,-54.75 184,-44.75 177,-44.75"/>
</a>
</g>
</g>
<!-- Node4 -->
<g id="Node000004" class="node">
<title>Node4</title>
<g id="a_Node000004"><a xlink:title=" ">
<polygon fill="white" stroke="#666666" points="379.5,-74 259.5,-74 259.5,-55 379.5,-55 379.5,-74"/>
<text text-anchor="middle" x="319.5" y="-62" font-family="Helvetica" font-size="10.00">BaseConnectorSettings</text>
</a>
</g>
</g>
<!-- Node4&#45;&gt;Node1 -->
<g id="edge3_Node000001_Node000004" class="edge">
<title>Node4&#45;&gt;Node1</title>
<g id="a_edge3_Node000001_Node000004"><a xlink:title=" ">
<path fill="none" stroke="#63b8ff" d="M287.82,-51.42C262.03,-41.59 226.26,-27.95 203.24,-19.17"/>
<polygon fill="#63b8ff" stroke="#63b8ff" points="286.58,-54.69 297.17,-54.98 289.07,-48.15 286.58,-54.69"/>
</a>
</g>
</g>
</g>
</svg>
