<?xml version="1.0" encoding="UTF-8" standalone="no"?>
<!DOCTYPE svg PUBLIC "-//W3C//DTD SVG 1.1//EN"
 "http://www.w3.org/Graphics/SVG/1.1/DTD/svg11.dtd">
<!-- Generated by graphviz version 2.44.0 (0)
 -->
<!-- Title: ATAS.Indicators.ExtendedIndicator Pages: 1 -->
<svg width="447pt" height="445pt"
 viewBox="0.00 0.00 446.50 445.00" xmlns="http://www.w3.org/2000/svg" xmlns:xlink="http://www.w3.org/1999/xlink">
<g id="graph0" class="graph" transform="scale(1 1) rotate(0) translate(4 441)">
<title>ATAS.Indicators.ExtendedIndicator</title>
<!-- Node1 -->
<g id="Node000001" class="node">
<title>Node1</title>
<g id="a_Node000001"><a xlink:title="An extended base class for custom indicators that provide additional functionality for drawing,...">
<polygon fill="#999999" stroke="#666666" points="319,-217 187,-217 187,-187 319,-187 319,-217"/>
<text text-anchor="start" x="195" y="-205" font-family="Helvetica" font-size="10.00">ATAS.Indicators.Extended</text>
<text text-anchor="middle" x="253" y="-194" font-family="Helvetica" font-size="10.00">Indicator</text>
</a>
</g>
</g>
<!-- Node10 -->
<g id="Node000010" class="node">
<title>Node10</title>
<g id="a_Node000010"><a xlink:href="classATAS_1_1Indicators_1_1Indicator.html" target="_top" xlink:title="Base class for custom indicators.">
<polygon fill="white" stroke="#666666" points="317,-151 189,-151 189,-132 317,-132 317,-151"/>
<text text-anchor="middle" x="253" y="-139" font-family="Helvetica" font-size="10.00">ATAS.Indicators.Indicator</text>
</a>
</g>
</g>
<!-- Node1&#45;&gt;Node10 -->
<g id="edge10_Node000001_Node000010" class="edge">
<title>Node1&#45;&gt;Node10</title>
<g id="a_edge10_Node000001_Node000010"><a xlink:title=" ">
<path fill="none" stroke="#63b8ff" d="M253,-176.75C253,-167.72 253,-158.03 253,-151.27"/>
<polygon fill="#63b8ff" stroke="#63b8ff" points="249.5,-176.84 253,-186.84 256.5,-176.84 249.5,-176.84"/>
</a>
</g>
</g>
<!-- Node2 -->
<g id="Node000002" class="node">
<title>Node2</title>
<g id="a_Node000002"><a xlink:href="classATAS_1_1Indicators_1_1BaseIndicator.html" target="_top" xlink:title="Base class for custom indicators in a chart.">
<polygon fill="white" stroke="#666666" points="174.5,-272 97.5,-272 97.5,-253 174.5,-253 174.5,-272"/>
<text text-anchor="middle" x="136" y="-260" font-family="Helvetica" font-size="10.00">BaseIndicator</text>
</a>
</g>
</g>
<!-- Node2&#45;&gt;Node1 -->
<g id="edge1_Node000001_Node000002" class="edge">
<title>Node2&#45;&gt;Node1</title>
<g id="a_edge1_Node000001_Node000002"><a xlink:title=" ">
<path fill="none" stroke="#63b8ff" d="M162.08,-248.46C180.65,-239.18 205.58,-226.71 224.64,-217.18"/>
<polygon fill="#63b8ff" stroke="#63b8ff" points="160.39,-245.39 153.01,-252.99 163.52,-251.65 160.39,-245.39"/>
</a>
</g>
</g>
<!-- Node3 -->
<g id="Node000003" class="node">
<title>Node3</title>
<g id="a_Node000003"><a xlink:href="classATAS_1_1Indicators_1_1ChartObject.html" target="_top" xlink:title="Base class for objects in a chart.">
<polygon fill="white" stroke="#666666" points="128,-327 58,-327 58,-308 128,-308 128,-327"/>
<text text-anchor="middle" x="93" y="-315" font-family="Helvetica" font-size="10.00">ChartObject</text>
</a>
</g>
</g>
<!-- Node3&#45;&gt;Node2 -->
<g id="edge2_Node000002_Node000003" class="edge">
<title>Node3&#45;&gt;Node2</title>
<g id="a_edge2_Node000002_Node000003"><a xlink:title=" ">
<path fill="none" stroke="#63b8ff" d="M106.42,-299.96C113.91,-290.72 122.94,-279.6 129.03,-272.09"/>
<polygon fill="#63b8ff" stroke="#63b8ff" points="103.68,-297.78 100.1,-307.75 109.12,-302.19 103.68,-297.78"/>
</a>
</g>
</g>
<!-- Node4 -->
<g id="Node000004" class="node">
<title>Node4</title>
<g id="a_Node000004"><a xlink:href="classATAS_1_1Indicators_1_1Filters_1_1TrackedPropertyBase.html" target="_top" xlink:title="A base class for tracking property changes and notifying subscribers when a property value is modifie...">
<polygon fill="white" stroke="#666666" points="158,-382 48,-382 48,-363 158,-363 158,-382"/>
<text text-anchor="middle" x="103" y="-370" font-family="Helvetica" font-size="10.00">TrackedPropertyBase</text>
</a>
</g>
</g>
<!-- Node4&#45;&gt;Node3 -->
<g id="edge3_Node000003_Node000004" class="edge">
<title>Node4&#45;&gt;Node3</title>
<g id="a_edge3_Node000003_Node000004"><a xlink:title=" ">
<path fill="none" stroke="#63b8ff" d="M99.45,-352.66C97.8,-343.93 95.92,-333.99 94.62,-327.09"/>
<polygon fill="#63b8ff" stroke="#63b8ff" points="96.06,-353.57 101.35,-362.75 102.93,-352.27 96.06,-353.57"/>
</a>
</g>
</g>
<!-- Node5 -->
<g id="Node000005" class="node">
<title>Node5</title>
<g id="a_Node000005"><a xlink:title=" ">
<polygon fill="white" stroke="#666666" points="122,-437 0,-437 0,-418 122,-418 122,-437"/>
<text text-anchor="middle" x="61" y="-425" font-family="Helvetica" font-size="10.00">INotifyPropertyChanged</text>
</a>
</g>
</g>
<!-- Node5&#45;&gt;Node2 -->
<g id="edge5_Node000002_Node000005" class="edge">
<title>Node5&#45;&gt;Node2</title>
<g id="a_edge5_Node000002_Node000005"><a xlink:title=" ">
<path fill="none" stroke="#63b8ff" d="M50.07,-409.09C45.71,-401.15 41.2,-391.43 39,-382 33.81,-359.77 48.56,-308.59 49,-308 62.35,-290.02 85.07,-278.75 103.94,-272.05"/>
<polygon fill="#63b8ff" stroke="#63b8ff" points="47.08,-410.91 55.16,-417.76 53.12,-407.36 47.08,-410.91"/>
</a>
</g>
</g>
<!-- Node5&#45;&gt;Node4 -->
<g id="edge4_Node000004_Node000005" class="edge">
<title>Node5&#45;&gt;Node4</title>
<g id="a_edge4_Node000004_Node000005"><a xlink:title=" ">
<path fill="none" stroke="#63b8ff" d="M74.33,-409.67C81.61,-400.5 90.3,-389.52 96.19,-382.09"/>
<polygon fill="#63b8ff" stroke="#63b8ff" points="71.4,-407.74 67.94,-417.75 76.89,-412.08 71.4,-407.74"/>
</a>
</g>
</g>
<!-- Node6 -->
<g id="Node000006" class="node">
<title>Node6</title>
<g id="a_Node000006"><a xlink:title=" ">
<polygon fill="white" stroke="#666666" points="214,-327 146,-327 146,-308 214,-308 214,-327"/>
<text text-anchor="middle" x="180" y="-315" font-family="Helvetica" font-size="10.00">IDisposable</text>
</a>
</g>
</g>
<!-- Node6&#45;&gt;Node2 -->
<g id="edge6_Node000002_Node000006" class="edge">
<title>Node6&#45;&gt;Node2</title>
<g id="a_edge6_Node000002_Node000006"><a xlink:title=" ">
<path fill="none" stroke="#63b8ff" d="M166.27,-299.96C158.6,-290.72 149.37,-279.6 143.13,-272.09"/>
<polygon fill="#63b8ff" stroke="#63b8ff" points="163.65,-302.29 172.73,-307.75 169.04,-297.82 163.65,-302.29"/>
</a>
</g>
</g>
<!-- Node7 -->
<g id="Node000007" class="node">
<title>Node7</title>
<g id="a_Node000007"><a xlink:href="interfaceATAS_1_1Indicators_1_1INotifyPanelPropertyChanged.html" target="_top" xlink:title="Notifies clients that a panel property value has changed.">
<polygon fill="white" stroke="#666666" points="379.5,-327 232.5,-327 232.5,-308 379.5,-308 379.5,-327"/>
<text text-anchor="middle" x="306" y="-315" font-family="Helvetica" font-size="10.00">INotifyPanelPropertyChanged</text>
</a>
</g>
</g>
<!-- Node7&#45;&gt;Node2 -->
<g id="edge7_Node000002_Node000007" class="edge">
<title>Node7&#45;&gt;Node2</title>
<g id="a_edge7_Node000002_Node000007"><a xlink:title=" ">
<path fill="none" stroke="#63b8ff" d="M268.88,-304.93C237.13,-295.03 192.15,-281.01 163.53,-272.08"/>
<polygon fill="#63b8ff" stroke="#63b8ff" points="268.1,-308.35 278.69,-307.98 270.18,-301.67 268.1,-308.35"/>
</a>
</g>
</g>
<!-- Node8 -->
<g id="Node000008" class="node">
<title>Node8</title>
<g id="a_Node000008"><a xlink:title=" ">
<polygon fill="white" stroke="#666666" points="313,-272 193,-272 193,-253 313,-253 313,-272"/>
<text text-anchor="middle" x="253" y="-260" font-family="Helvetica" font-size="10.00">ICustomTypeDescriptor</text>
</a>
</g>
</g>
<!-- Node8&#45;&gt;Node1 -->
<g id="edge8_Node000001_Node000008" class="edge">
<title>Node8&#45;&gt;Node1</title>
<g id="a_edge8_Node000001_Node000008"><a xlink:title=" ">
<path fill="none" stroke="#63b8ff" d="M253,-242.65C253,-234.36 253,-224.78 253,-217.11"/>
<polygon fill="#63b8ff" stroke="#63b8ff" points="249.5,-242.87 253,-252.87 256.5,-242.87 249.5,-242.87"/>
</a>
</g>
</g>
<!-- Node9 -->
<g id="Node000009" class="node">
<title>Node9</title>
<g id="a_Node000009"><a xlink:href="interfaceATAS_1_1Indicators_1_1IMarketTimeProvider.html" target="_top" xlink:title=" ">
<polygon fill="white" stroke="#666666" points="438.5,-272 331.5,-272 331.5,-253 438.5,-253 438.5,-272"/>
<text text-anchor="middle" x="385" y="-260" font-family="Helvetica" font-size="10.00">IMarketTimeProvider</text>
</a>
</g>
</g>
<!-- Node9&#45;&gt;Node1 -->
<g id="edge9_Node000001_Node000009" class="edge">
<title>Node9&#45;&gt;Node1</title>
<g id="a_edge9_Node000001_Node000009"><a xlink:title=" ">
<path fill="none" stroke="#63b8ff" d="M356.41,-248.83C335.29,-239.47 306.56,-226.74 284.73,-217.06"/>
<polygon fill="#63b8ff" stroke="#63b8ff" points="355.25,-252.14 365.81,-252.99 358.08,-245.74 355.25,-252.14"/>
</a>
</g>
</g>
<!-- Node11 -->
<g id="Node000011" class="node">
<title>Node11</title>
<g id="a_Node000011"><a xlink:href="classATAS_1_1Strategies_1_1Chart_1_1ChartStrategy.html" target="_top" xlink:title="Represents an abstract class for a chart strategy that extends the functionality of an Indicator and ...">
<polygon fill="white" stroke="#666666" points="324.5,-96 181.5,-96 181.5,-66 324.5,-66 324.5,-96"/>
<text text-anchor="start" x="189.5" y="-84" font-family="Helvetica" font-size="10.00">ATAS.Strategies.Chart.Chart</text>
<text text-anchor="middle" x="253" y="-73" font-family="Helvetica" font-size="10.00">Strategy</text>
</a>
</g>
</g>
<!-- Node10&#45;&gt;Node11 -->
<g id="edge11_Node000010_Node000011" class="edge">
<title>Node10&#45;&gt;Node11</title>
<g id="a_edge11_Node000010_Node000011"><a xlink:title=" ">
<path fill="none" stroke="#63b8ff" d="M253,-121.65C253,-113.36 253,-103.78 253,-96.11"/>
<polygon fill="#63b8ff" stroke="#63b8ff" points="249.5,-121.87 253,-131.87 256.5,-121.87 249.5,-121.87"/>
</a>
</g>
</g>
<!-- Node12 -->
<g id="Node000012" class="node">
<title>Node12</title>
<g id="a_Node000012"><a xlink:href="classATAS_1_1Strategies_1_1Chart_1_1SmaChartStrategy.html" target="_top" xlink:title=" ">
<polygon fill="white" stroke="#666666" points="322.5,-30 183.5,-30 183.5,0 322.5,0 322.5,-30"/>
<text text-anchor="start" x="191.5" y="-18" font-family="Helvetica" font-size="10.00">ATAS.Strategies.Chart.Sma</text>
<text text-anchor="middle" x="253" y="-7" font-family="Helvetica" font-size="10.00">ChartStrategy</text>
</a>
</g>
</g>
<!-- Node11&#45;&gt;Node12 -->
<g id="edge12_Node000011_Node000012" class="edge">
<title>Node11&#45;&gt;Node12</title>
<g id="a_edge12_Node000011_Node000012"><a xlink:title=" ">
<path fill="none" stroke="#63b8ff" d="M253,-55.54C253,-46.96 253,-37.61 253,-30.16"/>
<polygon fill="#63b8ff" stroke="#63b8ff" points="249.5,-55.8 253,-65.8 256.5,-55.8 249.5,-55.8"/>
</a>
</g>
</g>
</g>
</svg>
