<?xml version="1.0" encoding="UTF-8" standalone="no"?>
<!DOCTYPE svg PUBLIC "-//W3C//DTD SVG 1.1//EN"
 "http://www.w3.org/Graphics/SVG/1.1/DTD/svg11.dtd">
<!-- Generated by graphviz version 2.44.0 (0)
 -->
<!-- Title: ATAS.DataFeedsCore.BasketConnectorSettings&lt; TDataFeedSettings, TTradingSettings &gt; Pages: 1 -->
<svg width="250pt" height="159pt"
 viewBox="0.00 0.00 249.50 159.00" xmlns="http://www.w3.org/2000/svg" xmlns:xlink="http://www.w3.org/1999/xlink">
<g id="graph0" class="graph" transform="scale(1 1) rotate(0) translate(4 155)">
<title>ATAS.DataFeedsCore.BasketConnectorSettings&lt; TDataFeedSettings, TTradingSettings &gt;</title>
<!-- Node1 -->
<g id="Node000001" class="node">
<title>Node1</title>
<g id="a_Node000001"><a xlink:title=" ">
<polygon fill="#999999" stroke="#666666" points="212.5,-41 18.5,-41 18.5,0 212.5,0 212.5,-41"/>
<text text-anchor="start" x="26.5" y="-29" font-family="Helvetica" font-size="10.00">ATAS.DataFeedsCore.Basket</text>
<text text-anchor="start" x="26.5" y="-18" font-family="Helvetica" font-size="10.00">ConnectorSettings&lt; TDataFeedSettings,</text>
<text text-anchor="middle" x="115.5" y="-7" font-family="Helvetica" font-size="10.00"> TTradingSettings &gt;</text>
</a>
</g>
</g>
<!-- Node2 -->
<g id="Node000002" class="node">
<title>Node2</title>
<g id="a_Node000002"><a xlink:href="classOFT_1_1Core_1_1BaseConnectorSettings.html" target="_top" xlink:title=" ">
<polygon fill="white" stroke="#666666" points="175.5,-96 55.5,-96 55.5,-77 175.5,-77 175.5,-96"/>
<text text-anchor="middle" x="115.5" y="-84" font-family="Helvetica" font-size="10.00">BaseConnectorSettings</text>
</a>
</g>
</g>
<!-- Node2&#45;&gt;Node1 -->
<g id="edge1_Node000001_Node000002" class="edge">
<title>Node2&#45;&gt;Node1</title>
<g id="a_edge1_Node000001_Node000002"><a xlink:title=" ">
<path fill="none" stroke="#63b8ff" d="M115.5,-66.63C115.5,-58.56 115.5,-49.15 115.5,-41.01"/>
<polygon fill="#63b8ff" stroke="#63b8ff" points="112,-66.87 115.5,-76.87 119,-66.87 112,-66.87"/>
</a>
</g>
</g>
<!-- Node2&#45;&gt;Node2 -->
<g id="edge4_Node000002_Node000002" class="edge">
<title>Node2&#45;&gt;Node2</title>
<g id="a_edge4_Node000002_Node000002"><a xlink:title=" ">
<path fill="none" stroke="#63b8ff" d="M162.36,-96.61C179.48,-96.88 193.5,-93.51 193.5,-86.5 193.5,-78.12 173.44,-74.94 152.01,-76.97"/>
<polygon fill="#63b8ff" stroke="#63b8ff" points="162.19,-93.09 152.01,-96.03 161.8,-100.08 162.19,-93.09"/>
</a>
</g>
</g>
<!-- Node3 -->
<g id="Node000003" class="node">
<title>Node3</title>
<g id="a_Node000003"><a xlink:href="interfaceOFT_1_1Core_1_1IConnectorSettings.html" target="_top" xlink:title=" ">
<polygon fill="white" stroke="#666666" points="101,-151 0,-151 0,-132 101,-132 101,-151"/>
<text text-anchor="middle" x="50.5" y="-139" font-family="Helvetica" font-size="10.00">IConnectorSettings</text>
</a>
</g>
</g>
<!-- Node3&#45;&gt;Node2 -->
<g id="edge2_Node000002_Node000003" class="edge">
<title>Node3&#45;&gt;Node2</title>
<g id="a_edge2_Node000002_Node000003"><a xlink:title=" ">
<path fill="none" stroke="#63b8ff" d="M68.77,-125.6C80.42,-116.11 95.1,-104.13 104.87,-96.17"/>
<polygon fill="#63b8ff" stroke="#63b8ff" points="66.48,-122.95 60.94,-131.98 70.91,-128.38 66.48,-122.95"/>
</a>
</g>
</g>
<!-- Node4 -->
<g id="Node000004" class="node">
<title>Node4</title>
<g id="a_Node000004"><a xlink:title=" ">
<polygon fill="white" stroke="#666666" points="241.5,-151 119.5,-151 119.5,-132 241.5,-132 241.5,-151"/>
<text text-anchor="middle" x="180.5" y="-139" font-family="Helvetica" font-size="10.00">INotifyPropertyChanged</text>
</a>
</g>
</g>
<!-- Node4&#45;&gt;Node2 -->
<g id="edge3_Node000002_Node000004" class="edge">
<title>Node4&#45;&gt;Node2</title>
<g id="a_edge3_Node000002_Node000004"><a xlink:title=" ">
<path fill="none" stroke="#63b8ff" d="M162.23,-125.6C150.58,-116.11 135.9,-104.13 126.13,-96.17"/>
<polygon fill="#63b8ff" stroke="#63b8ff" points="160.09,-128.38 170.06,-131.98 164.52,-122.95 160.09,-128.38"/>
</a>
</g>
</g>
</g>
</svg>
