<?xml version="1.0" encoding="UTF-8" standalone="no"?>
<!DOCTYPE svg PUBLIC "-//W3C//DTD SVG 1.1//EN"
 "http://www.w3.org/Graphics/SVG/1.1/DTD/svg11.dtd">
<!-- Generated by graphviz version 2.44.0 (0)
 -->
<!-- Title: ATAS.DataFeedsCore.BaseMarketDataOnlyConnectorSettings&lt; T &gt; Pages: 1 -->
<svg width="404pt" height="148pt"
 viewBox="0.00 0.00 404.00 148.00" xmlns="http://www.w3.org/2000/svg" xmlns:xlink="http://www.w3.org/1999/xlink">
<g id="graph0" class="graph" transform="scale(1 1) rotate(0) translate(4 144)">
<title>ATAS.DataFeedsCore.BaseMarketDataOnlyConnectorSettings&lt; T &gt;</title>
<!-- Node1 -->
<g id="Node000001" class="node">
<title>Node1</title>
<g id="a_Node000001"><a xlink:title=" ">
<polygon fill="#999999" stroke="#666666" points="340.5,-30 172.5,-30 172.5,0 340.5,0 340.5,-30"/>
<text text-anchor="start" x="180.5" y="-18" font-family="Helvetica" font-size="10.00">ATAS.DataFeedsCore.BaseMarket</text>
<text text-anchor="middle" x="256.5" y="-7" font-family="Helvetica" font-size="10.00">DataOnlyConnectorSettings&lt; T &gt;</text>
</a>
</g>
</g>
<!-- Node2 -->
<g id="Node000002" class="node">
<title>Node2</title>
<g id="a_Node000002"><a xlink:href="classOFT_1_1Core_1_1BaseConnectorSettings.html" target="_top" xlink:title=" ">
<polygon fill="white" stroke="#666666" points="252.5,-85 108.5,-85 108.5,-66 252.5,-66 252.5,-85"/>
<text text-anchor="middle" x="180.5" y="-73" font-family="Helvetica" font-size="10.00">BaseConnectorSettings&lt; T &gt;</text>
</a>
</g>
</g>
<!-- Node2&#45;&gt;Node1 -->
<g id="edge1_Node000001_Node000002" class="edge">
<title>Node2&#45;&gt;Node1</title>
<g id="a_edge1_Node000001_Node000002"><a xlink:title=" ">
<path fill="none" stroke="#63b8ff" d="M199.64,-59.77C211.45,-50.68 226.51,-39.09 238.16,-30.11"/>
<polygon fill="#63b8ff" stroke="#63b8ff" points="197.5,-56.99 191.71,-65.87 201.77,-62.54 197.5,-56.99"/>
</a>
</g>
</g>
<!-- Node3 -->
<g id="Node000003" class="node">
<title>Node3</title>
<g id="a_Node000003"><a xlink:href="interfaceOFT_1_1Core_1_1IConnectorSettings.html" target="_top" xlink:title=" ">
<polygon fill="white" stroke="#666666" points="101,-140 0,-140 0,-121 101,-121 101,-140"/>
<text text-anchor="middle" x="50.5" y="-128" font-family="Helvetica" font-size="10.00">IConnectorSettings</text>
</a>
</g>
</g>
<!-- Node3&#45;&gt;Node2 -->
<g id="edge2_Node000002_Node000003" class="edge">
<title>Node3&#45;&gt;Node2</title>
<g id="a_edge2_Node000002_Node000003"><a xlink:title=" ">
<path fill="none" stroke="#63b8ff" d="M80.77,-117.16C104.84,-107.35 137.9,-93.87 159.23,-85.17"/>
<polygon fill="#63b8ff" stroke="#63b8ff" points="79.33,-113.97 71.39,-120.98 81.97,-120.45 79.33,-113.97"/>
</a>
</g>
</g>
<!-- Node4 -->
<g id="Node000004" class="node">
<title>Node4</title>
<g id="a_Node000004"><a xlink:title=" ">
<polygon fill="white" stroke="#666666" points="241.5,-140 119.5,-140 119.5,-121 241.5,-121 241.5,-140"/>
<text text-anchor="middle" x="180.5" y="-128" font-family="Helvetica" font-size="10.00">INotifyPropertyChanged</text>
</a>
</g>
</g>
<!-- Node4&#45;&gt;Node2 -->
<g id="edge3_Node000002_Node000004" class="edge">
<title>Node4&#45;&gt;Node2</title>
<g id="a_edge3_Node000002_Node000004"><a xlink:title=" ">
<path fill="none" stroke="#63b8ff" d="M180.5,-110.66C180.5,-101.93 180.5,-91.99 180.5,-85.09"/>
<polygon fill="#63b8ff" stroke="#63b8ff" points="177,-110.75 180.5,-120.75 184,-110.75 177,-110.75"/>
</a>
</g>
</g>
<!-- Node5 -->
<g id="Node000005" class="node">
<title>Node5</title>
<g id="a_Node000005"><a xlink:title=" ">
<polygon fill="white" stroke="#666666" points="379.5,-140 259.5,-140 259.5,-121 379.5,-121 379.5,-140"/>
<text text-anchor="middle" x="319.5" y="-128" font-family="Helvetica" font-size="10.00">BaseConnectorSettings</text>
</a>
</g>
</g>
<!-- Node5&#45;&gt;Node2 -->
<g id="edge4_Node000002_Node000005" class="edge">
<title>Node5&#45;&gt;Node2</title>
<g id="a_edge4_Node000002_Node000005"><a xlink:title=" ">
<path fill="none" stroke="#63b8ff" d="M287.82,-117.42C262.03,-107.59 226.26,-93.95 203.24,-85.17"/>
<polygon fill="#63b8ff" stroke="#63b8ff" points="286.58,-120.69 297.17,-120.98 289.07,-114.15 286.58,-120.69"/>
</a>
</g>
</g>
<!-- Node6 -->
<g id="Node000006" class="node">
<title>Node6</title>
<g id="a_Node000006"><a xlink:href="interfaceATAS_1_1DataFeedsCore_1_1ISupportMarketDataOnly.html" target="_top" xlink:title=" ">
<polygon fill="white" stroke="#666666" points="396,-85 271,-85 271,-66 396,-66 396,-85"/>
<text text-anchor="middle" x="333.5" y="-73" font-family="Helvetica" font-size="10.00">ISupportMarketDataOnly</text>
</a>
</g>
</g>
<!-- Node6&#45;&gt;Node1 -->
<g id="edge5_Node000001_Node000006" class="edge">
<title>Node6&#45;&gt;Node1</title>
<g id="a_edge5_Node000001_Node000006"><a xlink:title=" ">
<path fill="none" stroke="#63b8ff" d="M314.11,-59.77C302.15,-50.68 286.89,-39.09 275.08,-30.11"/>
<polygon fill="#63b8ff" stroke="#63b8ff" points="312.06,-62.61 322.14,-65.87 316.29,-57.03 312.06,-62.61"/>
</a>
</g>
</g>
</g>
</svg>
