<?xml version="1.0" encoding="UTF-8" standalone="no"?>
<!DOCTYPE svg PUBLIC "-//W3C//DTD SVG 1.1//EN"
 "http://www.w3.org/Graphics/SVG/1.1/DTD/svg11.dtd">
<!-- Generated by graphviz version 2.44.0 (0)
 -->
<!-- Title: ATAS.DataFeedsCore.Exchange Pages: 1 -->
<svg width="292pt" height="82pt"
 viewBox="0.00 0.00 291.50 82.00" xmlns="http://www.w3.org/2000/svg" xmlns:xlink="http://www.w3.org/1999/xlink">
<g id="graph0" class="graph" transform="scale(1 1) rotate(0) translate(4 78)">
<title>ATAS.DataFeedsCore.Exchange</title>
<!-- Node1 -->
<g id="Node000001" class="node">
<title>Node1</title>
<g id="a_Node000001"><a xlink:title=" ">
<polygon fill="#999999" stroke="#666666" points="203.5,-19 45.5,-19 45.5,0 203.5,0 203.5,-19"/>
<text text-anchor="middle" x="124.5" y="-7" font-family="Helvetica" font-size="10.00">ATAS.DataFeedsCore.Exchange</text>
</a>
</g>
</g>
<!-- Node2 -->
<g id="Node000002" class="node">
<title>Node2</title>
<g id="a_Node000002"><a xlink:href="interfaceATAS_1_1DataFeedsCore_1_1IEntity.html" target="_top" xlink:title="Represents an entity in the application.">
<polygon fill="white" stroke="#666666" points="45,-74 0,-74 0,-55 45,-55 45,-74"/>
<text text-anchor="middle" x="22.5" y="-62" font-family="Helvetica" font-size="10.00">IEntity</text>
</a>
</g>
</g>
<!-- Node2&#45;&gt;Node1 -->
<g id="edge1_Node000001_Node000002" class="edge">
<title>Node2&#45;&gt;Node1</title>
<g id="a_edge1_Node000001_Node000002"><a xlink:title=" ">
<path fill="none" stroke="#63b8ff" d="M47.77,-50.37C66.51,-40.63 91.52,-27.64 107.81,-19.17"/>
<polygon fill="#63b8ff" stroke="#63b8ff" points="46.15,-47.27 38.89,-54.98 49.38,-53.48 46.15,-47.27"/>
</a>
</g>
</g>
<!-- Node3 -->
<g id="Node000003" class="node">
<title>Node3</title>
<g id="a_Node000003"><a xlink:title=" ">
<polygon fill="white" stroke="#666666" points="185.5,-74 63.5,-74 63.5,-55 185.5,-55 185.5,-74"/>
<text text-anchor="middle" x="124.5" y="-62" font-family="Helvetica" font-size="10.00">INotifyPropertyChanged</text>
</a>
</g>
</g>
<!-- Node3&#45;&gt;Node1 -->
<g id="edge2_Node000001_Node000003" class="edge">
<title>Node3&#45;&gt;Node1</title>
<g id="a_edge2_Node000001_Node000003"><a xlink:title=" ">
<path fill="none" stroke="#63b8ff" d="M124.5,-44.66C124.5,-35.93 124.5,-25.99 124.5,-19.09"/>
<polygon fill="#63b8ff" stroke="#63b8ff" points="121,-44.75 124.5,-54.75 128,-44.75 121,-44.75"/>
</a>
</g>
</g>
<!-- Node4 -->
<g id="Node000004" class="node">
<title>Node4</title>
<g id="a_Node000004"><a xlink:href="interfaceATAS_1_1DataFeedsCore_1_1IKnowSession.html" target="_top" xlink:title=" ">
<polygon fill="white" stroke="#666666" points="283.5,-74 203.5,-74 203.5,-55 283.5,-55 283.5,-74"/>
<text text-anchor="middle" x="243.5" y="-62" font-family="Helvetica" font-size="10.00">IKnowSession</text>
</a>
</g>
</g>
<!-- Node4&#45;&gt;Node1 -->
<g id="edge3_Node000001_Node000004" class="edge">
<title>Node4&#45;&gt;Node1</title>
<g id="a_edge3_Node000001_Node000004"><a xlink:title=" ">
<path fill="none" stroke="#63b8ff" d="M215.2,-50.9C193.22,-41.11 163.32,-27.79 143.97,-19.17"/>
<polygon fill="#63b8ff" stroke="#63b8ff" points="213.82,-54.11 224.38,-54.98 216.67,-47.72 213.82,-54.11"/>
</a>
</g>
</g>
</g>
</svg>
