<?xml version="1.0" encoding="UTF-8" standalone="no"?>
<!DOCTYPE svg PUBLIC "-//W3C//DTD SVG 1.1//EN"
 "http://www.w3.org/Graphics/SVG/1.1/DTD/svg11.dtd">
<!-- Generated by graphviz version 2.44.0 (0)
 -->
<!-- Title: ATAS.DataFeedsCore.CryptoBaseConnector&lt; TMessage, TPortfolioKey, TSecurityKey &gt; Pages: 1 -->
<svg width="318pt" height="225pt"
 viewBox="0.00 0.00 318.00 225.00" xmlns="http://www.w3.org/2000/svg" xmlns:xlink="http://www.w3.org/1999/xlink">
<g id="graph0" class="graph" transform="scale(1 1) rotate(0) translate(4 221)">
<title>ATAS.DataFeedsCore.CryptoBaseConnector&lt; TMessage, TPortfolioKey, TSecurityKey &gt;</title>
<!-- Node1 -->
<g id="Node000001" class="node">
<title>Node1</title>
<g id="a_Node000001"><a xlink:title=" ">
<polygon fill="#999999" stroke="#666666" points="234,-41 82,-41 82,0 234,0 234,-41"/>
<text text-anchor="start" x="90" y="-29" font-family="Helvetica" font-size="10.00">ATAS.DataFeedsCore.Crypto</text>
<text text-anchor="start" x="90" y="-18" font-family="Helvetica" font-size="10.00">BaseConnector&lt; TMessage,</text>
<text text-anchor="middle" x="158" y="-7" font-family="Helvetica" font-size="10.00"> TPortfolioKey, TSecurityKey &gt;</text>
</a>
</g>
</g>
<!-- Node2 -->
<g id="Node000002" class="node">
<title>Node2</title>
<g id="a_Node000002"><a xlink:href="classATAS_1_1DataFeedsCore_1_1BaseConnector.html" target="_top" xlink:title=" ">
<polygon fill="white" stroke="#666666" points="152,-107 0,-107 0,-77 152,-77 152,-107"/>
<text text-anchor="start" x="8" y="-95" font-family="Helvetica" font-size="10.00">BaseConnector&lt; TMessage,</text>
<text text-anchor="middle" x="76" y="-84" font-family="Helvetica" font-size="10.00"> TPortfolioKey, TSecurityKey &gt;</text>
</a>
</g>
</g>
<!-- Node2&#45;&gt;Node1 -->
<g id="edge1_Node000001_Node000002" class="edge">
<title>Node2&#45;&gt;Node1</title>
<g id="a_edge1_Node000001_Node000002"><a xlink:title=" ">
<path fill="none" stroke="#63b8ff" d="M100.5,-70.23C111.4,-60.99 124.17,-50.17 134.91,-41.07"/>
<polygon fill="#63b8ff" stroke="#63b8ff" points="97.96,-67.8 92.59,-76.94 102.49,-73.14 97.96,-67.8"/>
</a>
</g>
</g>
<!-- Node3 -->
<g id="Node000003" class="node">
<title>Node3</title>
<g id="a_Node000003"><a xlink:href="interfaceATAS_1_1DataFeedsCore_1_1ICryptoKeySecretConnector.html" target="_top" xlink:title=" ">
<polygon fill="white" stroke="#666666" points="310,-101.5 170,-101.5 170,-82.5 310,-82.5 310,-101.5"/>
<text text-anchor="middle" x="240" y="-89.5" font-family="Helvetica" font-size="10.00">ICryptoKeySecretConnector</text>
</a>
</g>
</g>
<!-- Node3&#45;&gt;Node1 -->
<g id="edge2_Node000001_Node000003" class="edge">
<title>Node3&#45;&gt;Node1</title>
<g id="a_edge2_Node000001_Node000003"><a xlink:title=" ">
<path fill="none" stroke="#63b8ff" d="M222,-75.74C210.01,-65.58 194.15,-52.14 181.21,-41.17"/>
<polygon fill="#63b8ff" stroke="#63b8ff" points="220.05,-78.68 229.95,-82.48 224.58,-73.34 220.05,-78.68"/>
</a>
</g>
</g>
<!-- Node4 -->
<g id="Node000004" class="node">
<title>Node4</title>
<g id="a_Node000004"><a xlink:href="interfaceATAS_1_1DataFeedsCore_1_1IDataFeedConnector.html" target="_top" xlink:title=" ">
<polygon fill="white" stroke="#666666" points="293.5,-162 186.5,-162 186.5,-143 293.5,-143 293.5,-162"/>
<text text-anchor="middle" x="240" y="-150" font-family="Helvetica" font-size="10.00">IDataFeedConnector</text>
</a>
</g>
</g>
<!-- Node4&#45;&gt;Node3 -->
<g id="edge3_Node000003_Node000004" class="edge">
<title>Node4&#45;&gt;Node3</title>
<g id="a_edge3_Node000003_Node000004"><a xlink:title=" ">
<path fill="none" stroke="#63b8ff" d="M240,-132.66C240,-122.24 240,-109.8 240,-101.67"/>
<polygon fill="#63b8ff" stroke="#63b8ff" points="236.5,-132.87 240,-142.87 243.5,-132.87 236.5,-132.87"/>
</a>
</g>
</g>
<!-- Node5 -->
<g id="Node000005" class="node">
<title>Node5</title>
<g id="a_Node000005"><a xlink:title=" ">
<polygon fill="white" stroke="#666666" points="280,-217 200,-217 200,-198 280,-198 280,-217"/>
<text text-anchor="middle" x="240" y="-205" font-family="Helvetica" font-size="10.00">ILoggerSource</text>
</a>
</g>
</g>
<!-- Node5&#45;&gt;Node4 -->
<g id="edge4_Node000004_Node000005" class="edge">
<title>Node5&#45;&gt;Node4</title>
<g id="a_edge4_Node000004_Node000005"><a xlink:title=" ">
<path fill="none" stroke="#63b8ff" d="M240,-187.66C240,-178.93 240,-168.99 240,-162.09"/>
<polygon fill="#63b8ff" stroke="#63b8ff" points="236.5,-187.75 240,-197.75 243.5,-187.75 236.5,-187.75"/>
</a>
</g>
</g>
</g>
</svg>
