<?xml version="1.0" encoding="UTF-8" standalone="no"?>
<!DOCTYPE svg PUBLIC "-//W3C//DTD SVG 1.1//EN"
 "http://www.w3.org/Graphics/SVG/1.1/DTD/svg11.dtd">
<!-- Generated by graphviz version 2.44.0 (0)
 -->
<!-- Title: ATAS.Indicators.Attributies.FeatureId Pages: 1 -->
<svg width="146pt" height="159pt"
 viewBox="0.00 0.00 146.00 159.00" xmlns="http://www.w3.org/2000/svg" xmlns:xlink="http://www.w3.org/1999/xlink">
<g id="graph0" class="graph" transform="scale(1 1) rotate(0) translate(4 155)">
<title>ATAS.Indicators.Attributies.FeatureId</title>
<!-- Node1 -->
<g id="Node000001" class="node">
<title>Node1</title>
<g id="a_Node000001"><a xlink:title=" ">
<polygon fill="#999999" stroke="#666666" points="138,-30 0,-30 0,0 138,0 138,-30"/>
<text text-anchor="start" x="8" y="-18" font-family="Helvetica" font-size="10.00">ATAS.Indicators.Attributies.</text>
<text text-anchor="middle" x="69" y="-7" font-family="Helvetica" font-size="10.00">FeatureId</text>
</a>
</g>
</g>
<!-- Node2 -->
<g id="Node000002" class="node">
<title>Node2</title>
<g id="a_Node000002"><a xlink:href="classOFT_1_1Attributes_1_1FeatureIdAttribute.html" target="_top" xlink:title=" ">
<polygon fill="white" stroke="#666666" points="116.5,-85 21.5,-85 21.5,-66 116.5,-66 116.5,-85"/>
<text text-anchor="middle" x="69" y="-73" font-family="Helvetica" font-size="10.00">FeatureIdAttribute</text>
</a>
</g>
</g>
<!-- Node2&#45;&gt;Node1 -->
<g id="edge1_Node000001_Node000002" class="edge">
<title>Node2&#45;&gt;Node1</title>
<g id="a_edge1_Node000001_Node000002"><a xlink:title=" ">
<path fill="none" stroke="#63b8ff" d="M69,-55.65C69,-47.36 69,-37.78 69,-30.11"/>
<polygon fill="#63b8ff" stroke="#63b8ff" points="65.5,-55.87 69,-65.87 72.5,-55.87 65.5,-55.87"/>
</a>
</g>
</g>
<!-- Node3 -->
<g id="Node000003" class="node">
<title>Node3</title>
<g id="a_Node000003"><a xlink:title=" ">
<polygon fill="white" stroke="#666666" points="134.5,-151 3.5,-151 3.5,-121 134.5,-121 134.5,-151"/>
<text text-anchor="start" x="11.5" y="-139" font-family="Helvetica" font-size="10.00">Utils::Common::Attributes</text>
<text text-anchor="middle" x="69" y="-128" font-family="Helvetica" font-size="10.00">::FeatureIdAttribute</text>
</a>
</g>
</g>
<!-- Node3&#45;&gt;Node2 -->
<g id="edge2_Node000002_Node000003" class="edge">
<title>Node3&#45;&gt;Node2</title>
<g id="a_edge2_Node000002_Node000003"><a xlink:title=" ">
<path fill="none" stroke="#63b8ff" d="M69,-110.75C69,-101.72 69,-92.03 69,-85.27"/>
<polygon fill="#63b8ff" stroke="#63b8ff" points="65.5,-110.84 69,-120.84 72.5,-110.84 65.5,-110.84"/>
</a>
</g>
</g>
</g>
</svg>
