<?xml version="1.0" encoding="UTF-8" standalone="no"?>
<!DOCTYPE svg PUBLIC "-//W3C//DTD SVG 1.1//EN"
 "http://www.w3.org/Graphics/SVG/1.1/DTD/svg11.dtd">
<!-- Generated by graphviz version 2.44.0 (0)
 -->
<!-- Title: ATAS.Strategies.ATM.ATMStrategy&lt; TStrategy &gt; Pages: 1 -->
<svg width="215pt" height="203pt"
 viewBox="0.00 0.00 214.50 203.00" xmlns="http://www.w3.org/2000/svg" xmlns:xlink="http://www.w3.org/1999/xlink">
<g id="graph0" class="graph" transform="scale(1 1) rotate(0) translate(4 199)">
<title>ATAS.Strategies.ATM.ATMStrategy&lt; TStrategy &gt;</title>
<!-- Node1 -->
<g id="Node000001" class="node">
<title>Node1</title>
<g id="a_Node000001"><a xlink:title=" ">
<polygon fill="#999999" stroke="#666666" points="189.5,-30 17.5,-30 17.5,0 189.5,0 189.5,-30"/>
<text text-anchor="start" x="25.5" y="-18" font-family="Helvetica" font-size="10.00">ATAS.Strategies.ATM.ATMStrategy</text>
<text text-anchor="middle" x="103.5" y="-7" font-family="Helvetica" font-size="10.00">&lt; TStrategy &gt;</text>
</a>
</g>
</g>
<!-- Node2 -->
<g id="Node000002" class="node">
<title>Node2</title>
<g id="a_Node000002"><a xlink:href="classATAS_1_1Strategies_1_1Strategy.html" target="_top" xlink:title="Base class for implementing trading strategies.">
<polygon fill="white" stroke="#666666" points="89,-85 36,-85 36,-66 89,-66 89,-85"/>
<text text-anchor="middle" x="62.5" y="-73" font-family="Helvetica" font-size="10.00">Strategy</text>
</a>
</g>
</g>
<!-- Node2&#45;&gt;Node1 -->
<g id="edge1_Node000001_Node000002" class="edge">
<title>Node2&#45;&gt;Node1</title>
<g id="a_edge1_Node000001_Node000002"><a xlink:title=" ">
<path fill="none" stroke="#63b8ff" d="M74.34,-57.61C80.45,-48.89 87.81,-38.39 93.61,-30.11"/>
<polygon fill="#63b8ff" stroke="#63b8ff" points="71.42,-55.67 68.55,-65.87 77.16,-59.69 71.42,-55.67"/>
</a>
</g>
</g>
<!-- Node3 -->
<g id="Node000003" class="node">
<title>Node3</title>
<g id="a_Node000003"><a xlink:title=" ">
<polygon fill="white" stroke="#666666" points="99,-140 0,-140 0,-121 99,-121 99,-140"/>
<text text-anchor="middle" x="49.5" y="-128" font-family="Helvetica" font-size="10.00">BaseLoggerSource</text>
</a>
</g>
</g>
<!-- Node3&#45;&gt;Node2 -->
<g id="edge2_Node000002_Node000003" class="edge">
<title>Node3&#45;&gt;Node2</title>
<g id="a_edge2_Node000002_Node000003"><a xlink:title=" ">
<path fill="none" stroke="#63b8ff" d="M54.05,-110.95C56.21,-102.15 58.68,-92.06 60.39,-85.09"/>
<polygon fill="#63b8ff" stroke="#63b8ff" points="50.63,-110.2 51.65,-120.75 57.43,-111.87 50.63,-110.2"/>
</a>
</g>
</g>
<!-- Node4 -->
<g id="Node000004" class="node">
<title>Node4</title>
<g id="a_Node000004"><a xlink:href="interfaceATAS_1_1Strategies_1_1IStrategy.html" target="_top" xlink:title="Represents a trading strategy.">
<polygon fill="white" stroke="#666666" points="173.5,-140 117.5,-140 117.5,-121 173.5,-121 173.5,-140"/>
<text text-anchor="middle" x="145.5" y="-128" font-family="Helvetica" font-size="10.00">IStrategy</text>
</a>
</g>
</g>
<!-- Node4&#45;&gt;Node2 -->
<g id="edge3_Node000002_Node000004" class="edge">
<title>Node4&#45;&gt;Node2</title>
<g id="a_edge3_Node000002_Node000004"><a xlink:title=" ">
<path fill="none" stroke="#63b8ff" d="M123.46,-115.42C108.39,-105.81 88.91,-93.37 76.08,-85.17"/>
<polygon fill="#63b8ff" stroke="#63b8ff" points="121.85,-118.55 132.16,-120.98 125.62,-112.65 121.85,-118.55"/>
</a>
</g>
</g>
<!-- Node6 -->
<g id="Node000006" class="node">
<title>Node6</title>
<g id="a_Node000006"><a xlink:href="interfaceATAS_1_1Strategies_1_1ATM_1_1IATMStrategy.html" target="_top" xlink:title=" ">
<polygon fill="white" stroke="#666666" points="184,-85 107,-85 107,-66 184,-66 184,-85"/>
<text text-anchor="middle" x="145.5" y="-73" font-family="Helvetica" font-size="10.00">IATMStrategy</text>
</a>
</g>
</g>
<!-- Node4&#45;&gt;Node6 -->
<g id="edge6_Node000006_Node000004" class="edge">
<title>Node4&#45;&gt;Node6</title>
<g id="a_edge6_Node000006_Node000004"><a xlink:title=" ">
<path fill="none" stroke="#63b8ff" d="M145.5,-110.66C145.5,-101.93 145.5,-91.99 145.5,-85.09"/>
<polygon fill="#63b8ff" stroke="#63b8ff" points="142,-110.75 145.5,-120.75 149,-110.75 142,-110.75"/>
</a>
</g>
</g>
<!-- Node5 -->
<g id="Node000005" class="node">
<title>Node5</title>
<g id="a_Node000005"><a xlink:title=" ">
<polygon fill="white" stroke="#666666" points="206.5,-195 84.5,-195 84.5,-176 206.5,-176 206.5,-195"/>
<text text-anchor="middle" x="145.5" y="-183" font-family="Helvetica" font-size="10.00">INotifyPropertyChanged</text>
</a>
</g>
</g>
<!-- Node5&#45;&gt;Node4 -->
<g id="edge4_Node000004_Node000005" class="edge">
<title>Node5&#45;&gt;Node4</title>
<g id="a_edge4_Node000004_Node000005"><a xlink:title=" ">
<path fill="none" stroke="#63b8ff" d="M145.5,-165.66C145.5,-156.93 145.5,-146.99 145.5,-140.09"/>
<polygon fill="#63b8ff" stroke="#63b8ff" points="142,-165.75 145.5,-175.75 149,-165.75 142,-165.75"/>
</a>
</g>
</g>
<!-- Node6&#45;&gt;Node1 -->
<g id="edge5_Node000001_Node000006" class="edge">
<title>Node6&#45;&gt;Node1</title>
<g id="a_edge5_Node000001_Node000006"><a xlink:title=" ">
<path fill="none" stroke="#63b8ff" d="M133.37,-57.61C127.12,-48.89 119.57,-38.39 113.63,-30.11"/>
<polygon fill="#63b8ff" stroke="#63b8ff" points="130.63,-59.79 139.3,-65.87 136.31,-55.7 130.63,-59.79"/>
</a>
</g>
</g>
</g>
</svg>
