<?xml version="1.0" encoding="UTF-8" standalone="no"?>
<!DOCTYPE svg PUBLIC "-//W3C//DTD SVG 1.1//EN"
 "http://www.w3.org/Graphics/SVG/1.1/DTD/svg11.dtd">
<!-- Generated by graphviz version 2.44.0 (0)
 -->
<!-- Title: ATAS.Indicators.ChartObject Pages: 1 -->
<svg width="159pt" height="445pt"
 viewBox="0.00 0.00 159.00 445.00" xmlns="http://www.w3.org/2000/svg" xmlns:xlink="http://www.w3.org/1999/xlink">
<g id="graph0" class="graph" transform="scale(1 1) rotate(0) translate(4 441)">
<title>ATAS.Indicators.ChartObject</title>
<!-- Node1 -->
<g id="Node000001" class="node">
<title>Node1</title>
<g id="a_Node000001"><a xlink:title="Base class for objects in a chart.">
<polygon fill="#999999" stroke="#666666" points="147.5,-327 3.5,-327 3.5,-308 147.5,-308 147.5,-327"/>
<text text-anchor="middle" x="75.5" y="-315" font-family="Helvetica" font-size="10.00">ATAS.Indicators.ChartObject</text>
</a>
</g>
</g>
<!-- Node4 -->
<g id="Node000004" class="node">
<title>Node4</title>
<g id="a_Node000004"><a xlink:href="classATAS_1_1Indicators_1_1BaseIndicator.html" target="_top" xlink:title="Base class for custom indicators in a chart.">
<polygon fill="white" stroke="#666666" points="151,-272 0,-272 0,-253 151,-253 151,-272"/>
<text text-anchor="middle" x="75.5" y="-260" font-family="Helvetica" font-size="10.00">ATAS.Indicators.BaseIndicator</text>
</a>
</g>
</g>
<!-- Node1&#45;&gt;Node4 -->
<g id="edge3_Node000001_Node000004" class="edge">
<title>Node1&#45;&gt;Node4</title>
<g id="a_edge3_Node000001_Node000004"><a xlink:title=" ">
<path fill="none" stroke="#63b8ff" d="M75.5,-297.66C75.5,-288.93 75.5,-278.99 75.5,-272.09"/>
<polygon fill="#63b8ff" stroke="#63b8ff" points="72,-297.75 75.5,-307.75 79,-297.75 72,-297.75"/>
</a>
</g>
</g>
<!-- Node2 -->
<g id="Node000002" class="node">
<title>Node2</title>
<g id="a_Node000002"><a xlink:href="classATAS_1_1Indicators_1_1Filters_1_1TrackedPropertyBase.html" target="_top" xlink:title="A base class for tracking property changes and notifying subscribers when a property value is modifie...">
<polygon fill="white" stroke="#666666" points="130.5,-382 20.5,-382 20.5,-363 130.5,-363 130.5,-382"/>
<text text-anchor="middle" x="75.5" y="-370" font-family="Helvetica" font-size="10.00">TrackedPropertyBase</text>
</a>
</g>
</g>
<!-- Node2&#45;&gt;Node1 -->
<g id="edge1_Node000001_Node000002" class="edge">
<title>Node2&#45;&gt;Node1</title>
<g id="a_edge1_Node000001_Node000002"><a xlink:title=" ">
<path fill="none" stroke="#63b8ff" d="M75.5,-352.66C75.5,-343.93 75.5,-333.99 75.5,-327.09"/>
<polygon fill="#63b8ff" stroke="#63b8ff" points="72,-352.75 75.5,-362.75 79,-352.75 72,-352.75"/>
</a>
</g>
</g>
<!-- Node3 -->
<g id="Node000003" class="node">
<title>Node3</title>
<g id="a_Node000003"><a xlink:title=" ">
<polygon fill="white" stroke="#666666" points="136.5,-437 14.5,-437 14.5,-418 136.5,-418 136.5,-437"/>
<text text-anchor="middle" x="75.5" y="-425" font-family="Helvetica" font-size="10.00">INotifyPropertyChanged</text>
</a>
</g>
</g>
<!-- Node3&#45;&gt;Node2 -->
<g id="edge2_Node000002_Node000003" class="edge">
<title>Node3&#45;&gt;Node2</title>
<g id="a_edge2_Node000002_Node000003"><a xlink:title=" ">
<path fill="none" stroke="#63b8ff" d="M75.5,-407.66C75.5,-398.93 75.5,-388.99 75.5,-382.09"/>
<polygon fill="#63b8ff" stroke="#63b8ff" points="72,-407.75 75.5,-417.75 79,-407.75 72,-407.75"/>
</a>
</g>
</g>
<!-- Node5 -->
<g id="Node000005" class="node">
<title>Node5</title>
<g id="a_Node000005"><a xlink:href="classATAS_1_1Indicators_1_1ExtendedIndicator.html" target="_top" xlink:title="An extended base class for custom indicators that provide additional functionality for drawing,...">
<polygon fill="white" stroke="#666666" points="141.5,-217 9.5,-217 9.5,-187 141.5,-187 141.5,-217"/>
<text text-anchor="start" x="17.5" y="-205" font-family="Helvetica" font-size="10.00">ATAS.Indicators.Extended</text>
<text text-anchor="middle" x="75.5" y="-194" font-family="Helvetica" font-size="10.00">Indicator</text>
</a>
</g>
</g>
<!-- Node4&#45;&gt;Node5 -->
<g id="edge4_Node000004_Node000005" class="edge">
<title>Node4&#45;&gt;Node5</title>
<g id="a_edge4_Node000004_Node000005"><a xlink:title=" ">
<path fill="none" stroke="#63b8ff" d="M75.5,-242.65C75.5,-234.36 75.5,-224.78 75.5,-217.11"/>
<polygon fill="#63b8ff" stroke="#63b8ff" points="72,-242.87 75.5,-252.87 79,-242.87 72,-242.87"/>
</a>
</g>
</g>
<!-- Node6 -->
<g id="Node000006" class="node">
<title>Node6</title>
<g id="a_Node000006"><a xlink:href="classATAS_1_1Indicators_1_1Indicator.html" target="_top" xlink:title="Base class for custom indicators.">
<polygon fill="white" stroke="#666666" points="139.5,-151 11.5,-151 11.5,-132 139.5,-132 139.5,-151"/>
<text text-anchor="middle" x="75.5" y="-139" font-family="Helvetica" font-size="10.00">ATAS.Indicators.Indicator</text>
</a>
</g>
</g>
<!-- Node5&#45;&gt;Node6 -->
<g id="edge5_Node000005_Node000006" class="edge">
<title>Node5&#45;&gt;Node6</title>
<g id="a_edge5_Node000005_Node000006"><a xlink:title=" ">
<path fill="none" stroke="#63b8ff" d="M75.5,-176.75C75.5,-167.72 75.5,-158.03 75.5,-151.27"/>
<polygon fill="#63b8ff" stroke="#63b8ff" points="72,-176.84 75.5,-186.84 79,-176.84 72,-176.84"/>
</a>
</g>
</g>
<!-- Node7 -->
<g id="Node000007" class="node">
<title>Node7</title>
<g id="a_Node000007"><a xlink:href="classATAS_1_1Strategies_1_1Chart_1_1ChartStrategy.html" target="_top" xlink:title="Represents an abstract class for a chart strategy that extends the functionality of an Indicator and ...">
<polygon fill="white" stroke="#666666" points="147,-96 4,-96 4,-66 147,-66 147,-96"/>
<text text-anchor="start" x="12" y="-84" font-family="Helvetica" font-size="10.00">ATAS.Strategies.Chart.Chart</text>
<text text-anchor="middle" x="75.5" y="-73" font-family="Helvetica" font-size="10.00">Strategy</text>
</a>
</g>
</g>
<!-- Node6&#45;&gt;Node7 -->
<g id="edge6_Node000006_Node000007" class="edge">
<title>Node6&#45;&gt;Node7</title>
<g id="a_edge6_Node000006_Node000007"><a xlink:title=" ">
<path fill="none" stroke="#63b8ff" d="M75.5,-121.65C75.5,-113.36 75.5,-103.78 75.5,-96.11"/>
<polygon fill="#63b8ff" stroke="#63b8ff" points="72,-121.87 75.5,-131.87 79,-121.87 72,-121.87"/>
</a>
</g>
</g>
<!-- Node8 -->
<g id="Node000008" class="node">
<title>Node8</title>
<g id="a_Node000008"><a xlink:href="classATAS_1_1Strategies_1_1Chart_1_1SmaChartStrategy.html" target="_top" xlink:title=" ">
<polygon fill="white" stroke="#666666" points="145,-30 6,-30 6,0 145,0 145,-30"/>
<text text-anchor="start" x="14" y="-18" font-family="Helvetica" font-size="10.00">ATAS.Strategies.Chart.Sma</text>
<text text-anchor="middle" x="75.5" y="-7" font-family="Helvetica" font-size="10.00">ChartStrategy</text>
</a>
</g>
</g>
<!-- Node7&#45;&gt;Node8 -->
<g id="edge7_Node000007_Node000008" class="edge">
<title>Node7&#45;&gt;Node8</title>
<g id="a_edge7_Node000007_Node000008"><a xlink:title=" ">
<path fill="none" stroke="#63b8ff" d="M75.5,-55.54C75.5,-46.96 75.5,-37.61 75.5,-30.16"/>
<polygon fill="#63b8ff" stroke="#63b8ff" points="72,-55.8 75.5,-65.8 79,-55.8 72,-55.8"/>
</a>
</g>
</g>
</g>
</svg>
