<?xml version="1.0" encoding="UTF-8" standalone="no"?>
<!DOCTYPE svg PUBLIC "-//W3C//DTD SVG 1.1//EN"
 "http://www.w3.org/Graphics/SVG/1.1/DTD/svg11.dtd">
<!-- Generated by graphviz version 2.44.0 (0)
 -->
<!-- Title: ATAS.DataFeedsCore.Statistics.StatisticsParameter Pages: 1 -->
<svg width="524pt" height="806pt"
 viewBox="0.00 0.00 524.00 806.00" xmlns="http://www.w3.org/2000/svg" xmlns:xlink="http://www.w3.org/1999/xlink">
<g id="graph0" class="graph" transform="scale(1 1) rotate(0) translate(4 802)">
<title>ATAS.DataFeedsCore.Statistics.StatisticsParameter</title>
<!-- Node1 -->
<g id="Node000001" class="node">
<title>Node1</title>
<g id="a_Node000001"><a xlink:title=" ">
<polygon fill="#999999" stroke="#666666" points="318,-414 158,-414 158,-384 318,-384 318,-414"/>
<text text-anchor="start" x="166" y="-402" font-family="Helvetica" font-size="10.00">ATAS.DataFeedsCore.Statistics.</text>
<text text-anchor="middle" x="238" y="-391" font-family="Helvetica" font-size="10.00">StatisticsParameter</text>
</a>
</g>
</g>
<!-- Node3 -->
<g id="Node000003" class="node">
<title>Node3</title>
<g id="a_Node000003"><a xlink:href="classATAS_1_1DataFeedsCore_1_1Statistics_1_1AvgLossParameter.html" target="_top" xlink:title=" ">
<polygon fill="white" stroke="#666666" points="515,-798 355,-798 355,-768 515,-768 515,-798"/>
<text text-anchor="start" x="363" y="-786" font-family="Helvetica" font-size="10.00">ATAS.DataFeedsCore.Statistics.</text>
<text text-anchor="middle" x="435" y="-775" font-family="Helvetica" font-size="10.00">AvgLossParameter</text>
</a>
</g>
</g>
<!-- Node1&#45;&gt;Node3 -->
<g id="edge2_Node000001_Node000003" class="edge">
<title>Node1&#45;&gt;Node3</title>
<g id="a_edge2_Node000001_Node000003"><a xlink:title=" ">
<path fill="none" stroke="#63b8ff" d="M239.43,-424.37C241.93,-489.56 257.77,-664.46 354,-759 357.52,-762.46 361.51,-765.42 365.79,-767.95"/>
<polygon fill="#63b8ff" stroke="#63b8ff" points="242.92,-424.08 239.11,-414.19 235.92,-424.3 242.92,-424.08"/>
</a>
</g>
</g>
<!-- Node4 -->
<g id="Node000004" class="node">
<title>Node4</title>
<g id="a_Node000004"><a xlink:href="classATAS_1_1DataFeedsCore_1_1Statistics_1_1AvgPnLParameter.html" target="_top" xlink:title=" ">
<polygon fill="white" stroke="#666666" points="515,-750 355,-750 355,-720 515,-720 515,-750"/>
<text text-anchor="start" x="363" y="-738" font-family="Helvetica" font-size="10.00">ATAS.DataFeedsCore.Statistics.</text>
<text text-anchor="middle" x="435" y="-727" font-family="Helvetica" font-size="10.00">AvgPnLParameter</text>
</a>
</g>
</g>
<!-- Node1&#45;&gt;Node4 -->
<g id="edge3_Node000001_Node000004" class="edge">
<title>Node1&#45;&gt;Node4</title>
<g id="a_edge3_Node000001_Node000004"><a xlink:title=" ">
<path fill="none" stroke="#63b8ff" d="M240.89,-424.56C246.66,-483.76 269.24,-631.32 354,-711 357.7,-714.48 361.88,-717.45 366.34,-720"/>
<polygon fill="#63b8ff" stroke="#63b8ff" points="244.35,-423.9 239.97,-414.25 237.38,-424.52 244.35,-423.9"/>
</a>
</g>
</g>
<!-- Node5 -->
<g id="Node000005" class="node">
<title>Node5</title>
<g id="a_Node000005"><a xlink:href="classATAS_1_1DataFeedsCore_1_1Statistics_1_1AvgProfitParameter.html" target="_top" xlink:title=" ">
<polygon fill="white" stroke="#666666" points="515,-702 355,-702 355,-672 515,-672 515,-702"/>
<text text-anchor="start" x="363" y="-690" font-family="Helvetica" font-size="10.00">ATAS.DataFeedsCore.Statistics.</text>
<text text-anchor="middle" x="435" y="-679" font-family="Helvetica" font-size="10.00">AvgProfitParameter</text>
</a>
</g>
</g>
<!-- Node1&#45;&gt;Node5 -->
<g id="edge4_Node000001_Node000005" class="edge">
<title>Node1&#45;&gt;Node5</title>
<g id="a_edge4_Node000001_Node000005"><a xlink:title=" ">
<path fill="none" stroke="#63b8ff" d="M242.77,-424.2C251.95,-476.55 280.33,-597.64 354,-663 357.9,-666.46 362.29,-669.43 366.95,-671.97"/>
<polygon fill="#63b8ff" stroke="#63b8ff" points="246.19,-423.41 241.1,-414.11 239.28,-424.55 246.19,-423.41"/>
</a>
</g>
</g>
<!-- Node6 -->
<g id="Node000006" class="node">
<title>Node6</title>
<g id="a_Node000006"><a xlink:href="classATAS_1_1DataFeedsCore_1_1Statistics_1_1CommissionParameter.html" target="_top" xlink:title=" ">
<polygon fill="white" stroke="#666666" points="515,-654 355,-654 355,-624 515,-624 515,-654"/>
<text text-anchor="start" x="363" y="-642" font-family="Helvetica" font-size="10.00">ATAS.DataFeedsCore.Statistics.</text>
<text text-anchor="middle" x="435" y="-631" font-family="Helvetica" font-size="10.00">CommissionParameter</text>
</a>
</g>
</g>
<!-- Node1&#45;&gt;Node6 -->
<g id="edge5_Node000001_Node000006" class="edge">
<title>Node1&#45;&gt;Node6</title>
<g id="a_edge5_Node000001_Node000006"><a xlink:title=" ">
<path fill="none" stroke="#63b8ff" d="M245.4,-423.96C258.21,-468.93 291.33,-563.65 354,-615 358.15,-618.4 362.77,-621.32 367.64,-623.83"/>
<polygon fill="#63b8ff" stroke="#63b8ff" points="248.73,-422.87 242.7,-414.15 241.98,-424.72 248.73,-422.87"/>
</a>
</g>
</g>
<!-- Node7 -->
<g id="Node000007" class="node">
<title>Node7</title>
<g id="a_Node000007"><a xlink:href="classATAS_1_1DataFeedsCore_1_1Statistics_1_1LossDaysParameter.html" target="_top" xlink:title=" ">
<polygon fill="white" stroke="#666666" points="515,-606 355,-606 355,-576 515,-576 515,-606"/>
<text text-anchor="start" x="363" y="-594" font-family="Helvetica" font-size="10.00">ATAS.DataFeedsCore.Statistics.</text>
<text text-anchor="middle" x="435" y="-583" font-family="Helvetica" font-size="10.00">LossDaysParameter</text>
</a>
</g>
</g>
<!-- Node1&#45;&gt;Node7 -->
<g id="edge6_Node000001_Node000007" class="edge">
<title>Node1&#45;&gt;Node7</title>
<g id="a_edge6_Node000001_Node000007"><a xlink:title=" ">
<path fill="none" stroke="#63b8ff" d="M249.28,-423.55C265.89,-460.22 302.09,-529.07 354,-567 358.68,-570.42 363.86,-573.36 369.25,-575.88"/>
<polygon fill="#63b8ff" stroke="#63b8ff" points="252.35,-421.84 245.12,-414.11 245.95,-424.67 252.35,-421.84"/>
</a>
</g>
</g>
<!-- Node8 -->
<g id="Node000008" class="node">
<title>Node8</title>
<g id="a_Node000008"><a xlink:href="classATAS_1_1DataFeedsCore_1_1Statistics_1_1LossPnLParameter.html" target="_top" xlink:title=" ">
<polygon fill="white" stroke="#666666" points="515,-558 355,-558 355,-528 515,-528 515,-558"/>
<text text-anchor="start" x="363" y="-546" font-family="Helvetica" font-size="10.00">ATAS.DataFeedsCore.Statistics.</text>
<text text-anchor="middle" x="435" y="-535" font-family="Helvetica" font-size="10.00">LossPnLParameter</text>
</a>
</g>
</g>
<!-- Node1&#45;&gt;Node8 -->
<g id="edge7_Node000001_Node000008" class="edge">
<title>Node1&#45;&gt;Node8</title>
<g id="a_edge7_Node000001_Node000008"><a xlink:title=" ">
<path fill="none" stroke="#63b8ff" d="M255.5,-422.47C275.72,-449.54 312.47,-493.59 354,-519 359.57,-522.41 365.65,-525.36 371.89,-527.9"/>
<polygon fill="#63b8ff" stroke="#63b8ff" points="258.26,-420.31 249.53,-414.32 252.62,-424.45 258.26,-420.31"/>
</a>
</g>
</g>
<!-- Node9 -->
<g id="Node000009" class="node">
<title>Node9</title>
<g id="a_Node000009"><a xlink:href="classATAS_1_1DataFeedsCore_1_1Statistics_1_1LossTradesParameter.html" target="_top" xlink:title=" ">
<polygon fill="white" stroke="#666666" points="515,-510 355,-510 355,-480 515,-480 515,-510"/>
<text text-anchor="start" x="363" y="-498" font-family="Helvetica" font-size="10.00">ATAS.DataFeedsCore.Statistics.</text>
<text text-anchor="middle" x="435" y="-487" font-family="Helvetica" font-size="10.00">LossTradesParameter</text>
</a>
</g>
</g>
<!-- Node1&#45;&gt;Node9 -->
<g id="edge8_Node000001_Node000009" class="edge">
<title>Node1&#45;&gt;Node9</title>
<g id="a_edge8_Node000001_Node000009"><a xlink:title=" ">
<path fill="none" stroke="#63b8ff" d="M267.67,-419.99C290.23,-435.74 322.94,-456.93 354,-471 361.26,-474.29 369.1,-477.28 376.93,-479.93"/>
<polygon fill="#63b8ff" stroke="#63b8ff" points="269.43,-416.95 259.25,-414.04 265.39,-422.67 269.43,-416.95"/>
</a>
</g>
</g>
<!-- Node10 -->
<g id="Node000010" class="node">
<title>Node10</title>
<g id="a_Node000010"><a xlink:href="classATAS_1_1DataFeedsCore_1_1Statistics_1_1MaxDrawdownParameter.html" target="_top" xlink:title=" ">
<polygon fill="white" stroke="#666666" points="515,-462 355,-462 355,-432 515,-432 515,-462"/>
<text text-anchor="start" x="363" y="-450" font-family="Helvetica" font-size="10.00">ATAS.DataFeedsCore.Statistics.</text>
<text text-anchor="middle" x="435" y="-439" font-family="Helvetica" font-size="10.00">MaxDrawdownParameter</text>
</a>
</g>
</g>
<!-- Node1&#45;&gt;Node10 -->
<g id="edge9_Node000001_Node000010" class="edge">
<title>Node1&#45;&gt;Node10</title>
<g id="a_edge9_Node000001_Node000010"><a xlink:title=" ">
<path fill="none" stroke="#63b8ff" d="M310.14,-416.51C330.77,-421.59 353.1,-427.09 373.05,-432"/>
<polygon fill="#63b8ff" stroke="#63b8ff" points="310.71,-413.05 300.16,-414.06 309.04,-419.84 310.71,-413.05"/>
</a>
</g>
</g>
<!-- Node11 -->
<g id="Node000011" class="node">
<title>Node11</title>
<g id="a_Node000011"><a xlink:href="classATAS_1_1DataFeedsCore_1_1Statistics_1_1MaxRelativeDrawdownParameter.html" target="_top" xlink:title=" ">
<polygon fill="white" stroke="#666666" points="516,-414 354,-414 354,-384 516,-384 516,-414"/>
<text text-anchor="start" x="362" y="-402" font-family="Helvetica" font-size="10.00">ATAS.DataFeedsCore.Statistics.</text>
<text text-anchor="middle" x="435" y="-391" font-family="Helvetica" font-size="10.00">MaxRelativeDrawdownParameter</text>
</a>
</g>
</g>
<!-- Node1&#45;&gt;Node11 -->
<g id="edge10_Node000001_Node000011" class="edge">
<title>Node1&#45;&gt;Node11</title>
<g id="a_edge10_Node000001_Node000011"><a xlink:title=" ">
<path fill="none" stroke="#63b8ff" d="M328.08,-399C336.69,-399 345.39,-399 353.9,-399"/>
<polygon fill="#63b8ff" stroke="#63b8ff" points="328.03,-395.5 318.03,-399 328.03,-402.5 328.03,-395.5"/>
</a>
</g>
</g>
<!-- Node12 -->
<g id="Node000012" class="node">
<title>Node12</title>
<g id="a_Node000012"><a xlink:href="classATAS_1_1DataFeedsCore_1_1Statistics_1_1ProfitDaysParameter.html" target="_top" xlink:title=" ">
<polygon fill="white" stroke="#666666" points="515,-366 355,-366 355,-336 515,-336 515,-366"/>
<text text-anchor="start" x="363" y="-354" font-family="Helvetica" font-size="10.00">ATAS.DataFeedsCore.Statistics.</text>
<text text-anchor="middle" x="435" y="-343" font-family="Helvetica" font-size="10.00">ProfitDaysParameter</text>
</a>
</g>
</g>
<!-- Node1&#45;&gt;Node12 -->
<g id="edge11_Node000001_Node000012" class="edge">
<title>Node1&#45;&gt;Node12</title>
<g id="a_edge11_Node000001_Node000012"><a xlink:title=" ">
<path fill="none" stroke="#63b8ff" d="M310.14,-381.49C330.77,-376.41 353.1,-370.91 373.05,-366"/>
<polygon fill="#63b8ff" stroke="#63b8ff" points="309.04,-378.16 300.16,-383.94 310.71,-384.95 309.04,-378.16"/>
</a>
</g>
</g>
<!-- Node13 -->
<g id="Node000013" class="node">
<title>Node13</title>
<g id="a_Node000013"><a xlink:href="classATAS_1_1DataFeedsCore_1_1Statistics_1_1ProfitFactorParameter.html" target="_top" xlink:title=" ">
<polygon fill="white" stroke="#666666" points="515,-318 355,-318 355,-288 515,-288 515,-318"/>
<text text-anchor="start" x="363" y="-306" font-family="Helvetica" font-size="10.00">ATAS.DataFeedsCore.Statistics.</text>
<text text-anchor="middle" x="435" y="-295" font-family="Helvetica" font-size="10.00">ProfitFactorParameter</text>
</a>
</g>
</g>
<!-- Node1&#45;&gt;Node13 -->
<g id="edge12_Node000001_Node000013" class="edge">
<title>Node1&#45;&gt;Node13</title>
<g id="a_edge12_Node000001_Node000013"><a xlink:title=" ">
<path fill="none" stroke="#63b8ff" d="M267.67,-378.01C290.23,-362.26 322.94,-341.07 354,-327 361.26,-323.71 369.1,-320.72 376.93,-318.07"/>
<polygon fill="#63b8ff" stroke="#63b8ff" points="265.39,-375.33 259.25,-383.96 269.43,-381.05 265.39,-375.33"/>
</a>
</g>
</g>
<!-- Node14 -->
<g id="Node000014" class="node">
<title>Node14</title>
<g id="a_Node000014"><a xlink:href="classATAS_1_1DataFeedsCore_1_1Statistics_1_1ProfitPnLParameter.html" target="_top" xlink:title=" ">
<polygon fill="white" stroke="#666666" points="515,-270 355,-270 355,-240 515,-240 515,-270"/>
<text text-anchor="start" x="363" y="-258" font-family="Helvetica" font-size="10.00">ATAS.DataFeedsCore.Statistics.</text>
<text text-anchor="middle" x="435" y="-247" font-family="Helvetica" font-size="10.00">ProfitPnLParameter</text>
</a>
</g>
</g>
<!-- Node1&#45;&gt;Node14 -->
<g id="edge13_Node000001_Node000014" class="edge">
<title>Node1&#45;&gt;Node14</title>
<g id="a_edge13_Node000001_Node000014"><a xlink:title=" ">
<path fill="none" stroke="#63b8ff" d="M255.5,-375.53C275.72,-348.46 312.47,-304.41 354,-279 359.57,-275.59 365.65,-272.64 371.89,-270.1"/>
<polygon fill="#63b8ff" stroke="#63b8ff" points="252.62,-373.55 249.53,-383.68 258.26,-377.69 252.62,-373.55"/>
</a>
</g>
</g>
<!-- Node15 -->
<g id="Node000015" class="node">
<title>Node15</title>
<g id="a_Node000015"><a xlink:href="classATAS_1_1DataFeedsCore_1_1Statistics_1_1ProfitTradesParameter.html" target="_top" xlink:title=" ">
<polygon fill="white" stroke="#666666" points="515,-222 355,-222 355,-192 515,-192 515,-222"/>
<text text-anchor="start" x="363" y="-210" font-family="Helvetica" font-size="10.00">ATAS.DataFeedsCore.Statistics.</text>
<text text-anchor="middle" x="435" y="-199" font-family="Helvetica" font-size="10.00">ProfitTradesParameter</text>
</a>
</g>
</g>
<!-- Node1&#45;&gt;Node15 -->
<g id="edge14_Node000001_Node000015" class="edge">
<title>Node1&#45;&gt;Node15</title>
<g id="a_edge14_Node000001_Node000015"><a xlink:title=" ">
<path fill="none" stroke="#63b8ff" d="M249.28,-374.45C265.89,-337.78 302.09,-268.93 354,-231 358.68,-227.58 363.86,-224.64 369.25,-222.12"/>
<polygon fill="#63b8ff" stroke="#63b8ff" points="245.95,-373.33 245.12,-383.89 252.35,-376.16 245.95,-373.33"/>
</a>
</g>
</g>
<!-- Node16 -->
<g id="Node000016" class="node">
<title>Node16</title>
<g id="a_Node000016"><a xlink:href="classATAS_1_1DataFeedsCore_1_1Statistics_1_1RecoveryFactorParameter.html" target="_top" xlink:title=" ">
<polygon fill="white" stroke="#666666" points="515,-174 355,-174 355,-144 515,-144 515,-174"/>
<text text-anchor="start" x="363" y="-162" font-family="Helvetica" font-size="10.00">ATAS.DataFeedsCore.Statistics.</text>
<text text-anchor="middle" x="435" y="-151" font-family="Helvetica" font-size="10.00">RecoveryFactorParameter</text>
</a>
</g>
</g>
<!-- Node1&#45;&gt;Node16 -->
<g id="edge15_Node000001_Node000016" class="edge">
<title>Node1&#45;&gt;Node16</title>
<g id="a_edge15_Node000001_Node000016"><a xlink:title=" ">
<path fill="none" stroke="#63b8ff" d="M245.4,-374.04C258.21,-329.07 291.33,-234.35 354,-183 358.15,-179.6 362.77,-176.68 367.64,-174.17"/>
<polygon fill="#63b8ff" stroke="#63b8ff" points="241.98,-373.28 242.7,-383.85 248.73,-375.13 241.98,-373.28"/>
</a>
</g>
</g>
<!-- Node17 -->
<g id="Node000017" class="node">
<title>Node17</title>
<g id="a_Node000017"><a xlink:href="classATAS_1_1DataFeedsCore_1_1Statistics_1_1TotalDaysParameter.html" target="_top" xlink:title=" ">
<polygon fill="white" stroke="#666666" points="515,-126 355,-126 355,-96 515,-96 515,-126"/>
<text text-anchor="start" x="363" y="-114" font-family="Helvetica" font-size="10.00">ATAS.DataFeedsCore.Statistics.</text>
<text text-anchor="middle" x="435" y="-103" font-family="Helvetica" font-size="10.00">TotalDaysParameter</text>
</a>
</g>
</g>
<!-- Node1&#45;&gt;Node17 -->
<g id="edge16_Node000001_Node000017" class="edge">
<title>Node1&#45;&gt;Node17</title>
<g id="a_edge16_Node000001_Node000017"><a xlink:title=" ">
<path fill="none" stroke="#63b8ff" d="M242.77,-373.8C251.95,-321.45 280.33,-200.36 354,-135 357.9,-131.54 362.29,-128.57 366.95,-126.03"/>
<polygon fill="#63b8ff" stroke="#63b8ff" points="239.28,-373.45 241.1,-383.89 246.19,-374.59 239.28,-373.45"/>
</a>
</g>
</g>
<!-- Node18 -->
<g id="Node000018" class="node">
<title>Node18</title>
<g id="a_Node000018"><a xlink:href="classATAS_1_1DataFeedsCore_1_1Statistics_1_1TotalPnLParameter.html" target="_top" xlink:title=" ">
<polygon fill="white" stroke="#666666" points="515,-78 355,-78 355,-48 515,-48 515,-78"/>
<text text-anchor="start" x="363" y="-66" font-family="Helvetica" font-size="10.00">ATAS.DataFeedsCore.Statistics.</text>
<text text-anchor="middle" x="435" y="-55" font-family="Helvetica" font-size="10.00">TotalPnLParameter</text>
</a>
</g>
</g>
<!-- Node1&#45;&gt;Node18 -->
<g id="edge17_Node000001_Node000018" class="edge">
<title>Node1&#45;&gt;Node18</title>
<g id="a_edge17_Node000001_Node000018"><a xlink:title=" ">
<path fill="none" stroke="#63b8ff" d="M240.89,-373.44C246.66,-314.24 269.24,-166.68 354,-87 357.7,-83.52 361.88,-80.55 366.34,-78"/>
<polygon fill="#63b8ff" stroke="#63b8ff" points="237.38,-373.48 239.97,-383.75 244.35,-374.1 237.38,-373.48"/>
</a>
</g>
</g>
<!-- Node19 -->
<g id="Node000019" class="node">
<title>Node19</title>
<g id="a_Node000019"><a xlink:href="classATAS_1_1DataFeedsCore_1_1Statistics_1_1TotalTradesParameter.html" target="_top" xlink:title=" ">
<polygon fill="white" stroke="#666666" points="515,-30 355,-30 355,0 515,0 515,-30"/>
<text text-anchor="start" x="363" y="-18" font-family="Helvetica" font-size="10.00">ATAS.DataFeedsCore.Statistics.</text>
<text text-anchor="middle" x="435" y="-7" font-family="Helvetica" font-size="10.00">TotalTradesParameter</text>
</a>
</g>
</g>
<!-- Node1&#45;&gt;Node19 -->
<g id="edge18_Node000001_Node000019" class="edge">
<title>Node1&#45;&gt;Node19</title>
<g id="a_edge18_Node000001_Node000019"><a xlink:title=" ">
<path fill="none" stroke="#63b8ff" d="M239.43,-373.63C241.93,-308.44 257.77,-133.54 354,-39 357.52,-35.54 361.51,-32.58 365.79,-30.05"/>
<polygon fill="#63b8ff" stroke="#63b8ff" points="235.92,-373.7 239.11,-383.81 242.92,-373.92 235.92,-373.7"/>
</a>
</g>
</g>
<!-- Node2 -->
<g id="Node000002" class="node">
<title>Node2</title>
<g id="a_Node000002"><a xlink:title=" ">
<polygon fill="white" stroke="#666666" points="122,-408.5 0,-408.5 0,-389.5 122,-389.5 122,-408.5"/>
<text text-anchor="middle" x="61" y="-396.5" font-family="Helvetica" font-size="10.00">INotifyPropertyChanged</text>
</a>
</g>
</g>
<!-- Node2&#45;&gt;Node1 -->
<g id="edge1_Node000001_Node000002" class="edge">
<title>Node2&#45;&gt;Node1</title>
<g id="a_edge1_Node000001_Node000002"><a xlink:title=" ">
<path fill="none" stroke="#63b8ff" d="M132.32,-399C140.71,-399 149.31,-399 157.81,-399"/>
<polygon fill="#63b8ff" stroke="#63b8ff" points="132.23,-395.5 122.23,-399 132.23,-402.5 132.23,-395.5"/>
</a>
</g>
</g>
</g>
</svg>
