<?xml version="1.0" encoding="UTF-8" standalone="no"?>
<!DOCTYPE svg PUBLIC "-//W3C//DTD SVG 1.1//EN"
 "http://www.w3.org/Graphics/SVG/1.1/DTD/svg11.dtd">
<!-- Generated by graphviz version 2.44.0 (0)
 -->
<!-- Title: OFT.Attributes.ParameterAttribute Pages: 1 -->
<svg width="144pt" height="170pt"
 viewBox="0.00 0.00 144.00 170.00" xmlns="http://www.w3.org/2000/svg" xmlns:xlink="http://www.w3.org/1999/xlink">
<g id="graph0" class="graph" transform="scale(1 1) rotate(0) translate(4 166)">
<title>OFT.Attributes.ParameterAttribute</title>
<!-- Node1 -->
<g id="Node000001" class="node">
<title>Node1</title>
<g id="a_Node000001"><a xlink:title=" ">
<polygon fill="#999999" stroke="#666666" points="132,-96 4,-96 4,-66 132,-66 132,-96"/>
<text text-anchor="start" x="12" y="-84" font-family="Helvetica" font-size="10.00">OFT.Attributes.Parameter</text>
<text text-anchor="middle" x="68" y="-73" font-family="Helvetica" font-size="10.00">Attribute</text>
</a>
</g>
</g>
<!-- Node3 -->
<g id="Node000003" class="node">
<title>Node3</title>
<g id="a_Node000003"><a xlink:href="classATAS_1_1Indicators_1_1ParameterAttribute.html" target="_top" xlink:title=" ">
<polygon fill="white" stroke="#666666" points="136,-30 0,-30 0,0 136,0 136,-30"/>
<text text-anchor="start" x="8" y="-18" font-family="Helvetica" font-size="10.00">ATAS.Indicators.Parameter</text>
<text text-anchor="middle" x="68" y="-7" font-family="Helvetica" font-size="10.00">Attribute</text>
</a>
</g>
</g>
<!-- Node1&#45;&gt;Node3 -->
<g id="edge2_Node000001_Node000003" class="edge">
<title>Node1&#45;&gt;Node3</title>
<g id="a_edge2_Node000001_Node000003"><a xlink:title=" ">
<path fill="none" stroke="#63b8ff" d="M68,-55.54C68,-46.96 68,-37.61 68,-30.16"/>
<polygon fill="#63b8ff" stroke="#63b8ff" points="64.5,-55.8 68,-65.8 71.5,-55.8 64.5,-55.8"/>
</a>
</g>
</g>
<!-- Node2 -->
<g id="Node000002" class="node">
<title>Node2</title>
<g id="a_Node000002"><a xlink:title=" ">
<polygon fill="white" stroke="#666666" points="133.5,-162 2.5,-162 2.5,-132 133.5,-132 133.5,-162"/>
<text text-anchor="start" x="10.5" y="-150" font-family="Helvetica" font-size="10.00">Utils::Common::Attributes</text>
<text text-anchor="middle" x="68" y="-139" font-family="Helvetica" font-size="10.00">::ParameterAttribute</text>
</a>
</g>
</g>
<!-- Node2&#45;&gt;Node1 -->
<g id="edge1_Node000001_Node000002" class="edge">
<title>Node2&#45;&gt;Node1</title>
<g id="a_edge1_Node000001_Node000002"><a xlink:title=" ">
<path fill="none" stroke="#63b8ff" d="M68,-121.54C68,-112.96 68,-103.61 68,-96.16"/>
<polygon fill="#63b8ff" stroke="#63b8ff" points="64.5,-121.8 68,-131.8 71.5,-121.8 64.5,-121.8"/>
</a>
</g>
</g>
</g>
</svg>
