<?xml version="1.0" encoding="UTF-8" standalone="no"?>
<!DOCTYPE svg PUBLIC "-//W3C//DTD SVG 1.1//EN"
 "http://www.w3.org/Graphics/SVG/1.1/DTD/svg11.dtd">
<!-- Generated by graphviz version 2.44.0 (0)
 -->
<!-- Title: ATAS.Strategies.Chart.ChartStrategy Pages: 1 -->
<svg width="448pt" height="368pt"
 viewBox="0.00 0.00 447.57 368.00" xmlns="http://www.w3.org/2000/svg" xmlns:xlink="http://www.w3.org/1999/xlink">
<g id="graph0" class="graph" transform="scale(1 1) rotate(0) translate(4 364)">
<title>ATAS.Strategies.Chart.ChartStrategy</title>
<!-- Node1 -->
<g id="Node000001" class="node">
<title>Node1</title>
<g id="a_Node000001"><a xlink:title="Represents an abstract class for a chart strategy that extends the functionality of an Indicator and ...">
<polygon fill="#999999" stroke="#666666" points="403.07,-30 260.07,-30 260.07,0 403.07,0 403.07,-30"/>
<text text-anchor="start" x="268.07" y="-18" font-family="Helvetica" font-size="10.00">ATAS.Strategies.Chart.Chart</text>
<text text-anchor="middle" x="331.57" y="-7" font-family="Helvetica" font-size="10.00">Strategy</text>
</a>
</g>
</g>
<!-- Node2 -->
<g id="Node000002" class="node">
<title>Node2</title>
<g id="a_Node000002"><a xlink:href="classATAS_1_1Indicators_1_1Indicator.html" target="_top" xlink:title="Base class for custom indicators.">
<polygon fill="white" stroke="#666666" points="277.57,-85 223.57,-85 223.57,-66 277.57,-66 277.57,-85"/>
<text text-anchor="middle" x="250.57" y="-73" font-family="Helvetica" font-size="10.00">Indicator</text>
</a>
</g>
</g>
<!-- Node2&#45;&gt;Node1 -->
<g id="edge1_Node000001_Node000002" class="edge">
<title>Node2&#45;&gt;Node1</title>
<g id="a_edge1_Node000001_Node000002"><a xlink:title=" ">
<path fill="none" stroke="#63b8ff" d="M270.97,-59.77C283.56,-50.68 299.61,-39.09 312.03,-30.11"/>
<polygon fill="#63b8ff" stroke="#63b8ff" points="268.58,-57.18 262.52,-65.87 272.68,-62.85 268.58,-57.18"/>
</a>
</g>
</g>
<!-- Node3 -->
<g id="Node000003" class="node">
<title>Node3</title>
<g id="a_Node000003"><a xlink:href="classATAS_1_1Indicators_1_1ExtendedIndicator.html" target="_top" xlink:title="An extended base class for custom indicators that provide additional functionality for drawing,...">
<polygon fill="white" stroke="#666666" points="273.07,-140 178.07,-140 178.07,-121 273.07,-121 273.07,-140"/>
<text text-anchor="middle" x="225.57" y="-128" font-family="Helvetica" font-size="10.00">ExtendedIndicator</text>
</a>
</g>
</g>
<!-- Node3&#45;&gt;Node2 -->
<g id="edge2_Node000002_Node000003" class="edge">
<title>Node3&#45;&gt;Node2</title>
<g id="a_edge2_Node000002_Node000003"><a xlink:title=" ">
<path fill="none" stroke="#63b8ff" d="M234.05,-111.53C238.26,-102.6 243.16,-92.22 246.52,-85.09"/>
<polygon fill="#63b8ff" stroke="#63b8ff" points="230.8,-110.21 229.7,-120.75 237.13,-113.2 230.8,-110.21"/>
</a>
</g>
</g>
<!-- Node4 -->
<g id="Node000004" class="node">
<title>Node4</title>
<g id="a_Node000004"><a xlink:href="classATAS_1_1Indicators_1_1BaseIndicator.html" target="_top" xlink:title="Base class for custom indicators in a chart.">
<polygon fill="white" stroke="#666666" points="93.07,-195 16.07,-195 16.07,-176 93.07,-176 93.07,-195"/>
<text text-anchor="middle" x="54.57" y="-183" font-family="Helvetica" font-size="10.00">BaseIndicator</text>
</a>
</g>
</g>
<!-- Node4&#45;&gt;Node3 -->
<g id="edge3_Node000003_Node000004" class="edge">
<title>Node4&#45;&gt;Node3</title>
<g id="a_edge3_Node000003_Node000004"><a xlink:title=" ">
<path fill="none" stroke="#63b8ff" d="M91.91,-172.93C123.85,-163.03 169.09,-149.01 197.88,-140.08"/>
<polygon fill="#63b8ff" stroke="#63b8ff" points="90.56,-169.68 82.05,-175.98 92.63,-176.37 90.56,-169.68"/>
</a>
</g>
</g>
<!-- Node5 -->
<g id="Node000005" class="node">
<title>Node5</title>
<g id="a_Node000005"><a xlink:href="classATAS_1_1Indicators_1_1ChartObject.html" target="_top" xlink:title="Base class for objects in a chart.">
<polygon fill="white" stroke="#666666" points="89.57,-250 19.57,-250 19.57,-231 89.57,-231 89.57,-250"/>
<text text-anchor="middle" x="54.57" y="-238" font-family="Helvetica" font-size="10.00">ChartObject</text>
</a>
</g>
</g>
<!-- Node5&#45;&gt;Node4 -->
<g id="edge4_Node000004_Node000005" class="edge">
<title>Node5&#45;&gt;Node4</title>
<g id="a_edge4_Node000004_Node000005"><a xlink:title=" ">
<path fill="none" stroke="#63b8ff" d="M54.57,-220.66C54.57,-211.93 54.57,-201.99 54.57,-195.09"/>
<polygon fill="#63b8ff" stroke="#63b8ff" points="51.07,-220.75 54.57,-230.75 58.07,-220.75 51.07,-220.75"/>
</a>
</g>
</g>
<!-- Node6 -->
<g id="Node000006" class="node">
<title>Node6</title>
<g id="a_Node000006"><a xlink:href="classATAS_1_1Indicators_1_1Filters_1_1TrackedPropertyBase.html" target="_top" xlink:title="A base class for tracking property changes and notifying subscribers when a property value is modifie...">
<polygon fill="white" stroke="#666666" points="129.57,-305 19.57,-305 19.57,-286 129.57,-286 129.57,-305"/>
<text text-anchor="middle" x="74.57" y="-293" font-family="Helvetica" font-size="10.00">TrackedPropertyBase</text>
</a>
</g>
</g>
<!-- Node6&#45;&gt;Node5 -->
<g id="edge5_Node000005_Node000006" class="edge">
<title>Node6&#45;&gt;Node5</title>
<g id="a_edge5_Node000005_Node000006"><a xlink:title=" ">
<path fill="none" stroke="#63b8ff" d="M67.68,-276.24C64.34,-267.37 60.47,-257.14 57.81,-250.09"/>
<polygon fill="#63b8ff" stroke="#63b8ff" points="64.46,-277.63 71.27,-285.75 71.01,-275.16 64.46,-277.63"/>
</a>
</g>
</g>
<!-- Node7 -->
<g id="Node000007" class="node">
<title>Node7</title>
<g id="a_Node000007"><a xlink:title=" ">
<polygon fill="white" stroke="#666666" points="135.57,-360 13.57,-360 13.57,-341 135.57,-341 135.57,-360"/>
<text text-anchor="middle" x="74.57" y="-348" font-family="Helvetica" font-size="10.00">INotifyPropertyChanged</text>
</a>
</g>
</g>
<!-- Node7&#45;&gt;Node4 -->
<g id="edge7_Node000004_Node000007" class="edge">
<title>Node7&#45;&gt;Node4</title>
<g id="a_edge7_Node000004_Node000007"><a xlink:title=" ">
<path fill="none" stroke="#63b8ff" d="M43.76,-336.13C31.06,-328.9 17.68,-318.61 10.57,-305 -4.66,-275.85 -1.93,-261.42 10.57,-231 16.85,-215.73 31.18,-202.9 41.79,-195"/>
<polygon fill="#63b8ff" stroke="#63b8ff" points="42.3,-339.32 52.78,-340.87 45.55,-333.12 42.3,-339.32"/>
</a>
</g>
</g>
<!-- Node7&#45;&gt;Node6 -->
<g id="edge6_Node000006_Node000007" class="edge">
<title>Node7&#45;&gt;Node6</title>
<g id="a_edge6_Node000006_Node000007"><a xlink:title=" ">
<path fill="none" stroke="#63b8ff" d="M74.57,-330.66C74.57,-321.93 74.57,-311.99 74.57,-305.09"/>
<polygon fill="#63b8ff" stroke="#63b8ff" points="71.07,-330.75 74.57,-340.75 78.07,-330.75 71.07,-330.75"/>
</a>
</g>
</g>
<!-- Node13 -->
<g id="Node000013" class="node">
<title>Node13</title>
<g id="a_Node000013"><a xlink:href="interfaceATAS_1_1Strategies_1_1IStrategy.html" target="_top" xlink:title="Represents a trading strategy.">
<polygon fill="white" stroke="#666666" points="308.57,-305 252.57,-305 252.57,-286 308.57,-286 308.57,-305"/>
<text text-anchor="middle" x="280.57" y="-293" font-family="Helvetica" font-size="10.00">IStrategy</text>
</a>
</g>
</g>
<!-- Node7&#45;&gt;Node13 -->
<g id="edge14_Node000013_Node000007" class="edge">
<title>Node7&#45;&gt;Node13</title>
<g id="a_edge14_Node000013_Node000007"><a xlink:title=" ">
<path fill="none" stroke="#63b8ff" d="M117.54,-338.44C158.1,-328.01 217.74,-312.67 252.52,-303.72"/>
<polygon fill="#63b8ff" stroke="#63b8ff" points="116.48,-335.1 107.67,-340.98 118.23,-341.88 116.48,-335.1"/>
</a>
</g>
</g>
<!-- Node8 -->
<g id="Node000008" class="node">
<title>Node8</title>
<g id="a_Node000008"><a xlink:title=" ">
<polygon fill="white" stroke="#666666" points="175.57,-250 107.57,-250 107.57,-231 175.57,-231 175.57,-250"/>
<text text-anchor="middle" x="141.57" y="-238" font-family="Helvetica" font-size="10.00">IDisposable</text>
</a>
</g>
</g>
<!-- Node8&#45;&gt;Node4 -->
<g id="edge8_Node000004_Node000008" class="edge">
<title>Node8&#45;&gt;Node4</title>
<g id="a_edge8_Node000004_Node000008"><a xlink:title=" ">
<path fill="none" stroke="#63b8ff" d="M118.91,-225.7C103.06,-216.04 82.38,-203.44 68.8,-195.17"/>
<polygon fill="#63b8ff" stroke="#63b8ff" points="117.23,-228.77 127.59,-230.98 120.87,-222.79 117.23,-228.77"/>
</a>
</g>
</g>
<!-- Node9 -->
<g id="Node000009" class="node">
<title>Node9</title>
<g id="a_Node000009"><a xlink:href="interfaceATAS_1_1Indicators_1_1INotifyPanelPropertyChanged.html" target="_top" xlink:title="Notifies clients that a panel property value has changed.">
<polygon fill="white" stroke="#666666" points="341.07,-250 194.07,-250 194.07,-231 341.07,-231 341.07,-250"/>
<text text-anchor="middle" x="267.57" y="-238" font-family="Helvetica" font-size="10.00">INotifyPanelPropertyChanged</text>
</a>
</g>
</g>
<!-- Node9&#45;&gt;Node4 -->
<g id="edge9_Node000004_Node000009" class="edge">
<title>Node9&#45;&gt;Node4</title>
<g id="a_edge9_Node000004_Node000009"><a xlink:title=" ">
<path fill="none" stroke="#63b8ff" d="M223.62,-228.56C183.73,-218.64 125.7,-204.2 89.06,-195.08"/>
<polygon fill="#63b8ff" stroke="#63b8ff" points="222.8,-231.97 233.35,-230.98 224.49,-225.17 222.8,-231.97"/>
</a>
</g>
</g>
<!-- Node10 -->
<g id="Node000010" class="node">
<title>Node10</title>
<g id="a_Node000010"><a xlink:title=" ">
<polygon fill="white" stroke="#666666" points="231.57,-195 111.57,-195 111.57,-176 231.57,-176 231.57,-195"/>
<text text-anchor="middle" x="171.57" y="-183" font-family="Helvetica" font-size="10.00">ICustomTypeDescriptor</text>
</a>
</g>
</g>
<!-- Node10&#45;&gt;Node3 -->
<g id="edge10_Node000003_Node000010" class="edge">
<title>Node10&#45;&gt;Node3</title>
<g id="a_edge10_Node000003_Node000010"><a xlink:title=" ">
<path fill="none" stroke="#63b8ff" d="M187.85,-168.52C197.37,-159.18 209.01,-147.75 216.82,-140.09"/>
<polygon fill="#63b8ff" stroke="#63b8ff" points="185.17,-166.25 180.49,-175.75 190.08,-171.24 185.17,-166.25"/>
</a>
</g>
</g>
<!-- Node11 -->
<g id="Node000011" class="node">
<title>Node11</title>
<g id="a_Node000011"><a xlink:href="interfaceATAS_1_1Indicators_1_1IMarketTimeProvider.html" target="_top" xlink:title=" ">
<polygon fill="white" stroke="#666666" points="357.07,-195 250.07,-195 250.07,-176 357.07,-176 357.07,-195"/>
<text text-anchor="middle" x="303.57" y="-183" font-family="Helvetica" font-size="10.00">IMarketTimeProvider</text>
</a>
</g>
</g>
<!-- Node11&#45;&gt;Node3 -->
<g id="edge11_Node000003_Node000011" class="edge">
<title>Node11&#45;&gt;Node3</title>
<g id="a_edge11_Node000003_Node000011"><a xlink:title=" ">
<path fill="none" stroke="#63b8ff" d="M282.45,-170.15C268.36,-160.57 250.28,-148.29 238.33,-140.17"/>
<polygon fill="#63b8ff" stroke="#63b8ff" points="280.8,-173.26 291.04,-175.98 284.74,-167.47 280.8,-173.26"/>
</a>
</g>
</g>
<!-- Node12 -->
<g id="Node000012" class="node">
<title>Node12</title>
<g id="a_Node000012"><a xlink:href="interfaceATAS_1_1Strategies_1_1Chart_1_1IChartStrategy.html" target="_top" xlink:title="Represents a chart strategy that extends the basic functionality of an IStrategy with additional char...">
<polygon fill="white" stroke="#666666" points="399.07,-140 318.07,-140 318.07,-121 399.07,-121 399.07,-140"/>
<text text-anchor="middle" x="358.57" y="-128" font-family="Helvetica" font-size="10.00">IChartStrategy</text>
</a>
</g>
</g>
<!-- Node12&#45;&gt;Node1 -->
<g id="edge12_Node000001_Node000012" class="edge">
<title>Node12&#45;&gt;Node1</title>
<g id="a_edge12_Node000001_Node000012"><a xlink:title=" ">
<path fill="none" stroke="#63b8ff" d="M354.16,-110.96C348.78,-88.34 339.8,-50.61 334.94,-30.18"/>
<polygon fill="#63b8ff" stroke="#63b8ff" points="350.82,-112.05 356.54,-120.97 357.63,-110.43 350.82,-112.05"/>
</a>
</g>
</g>
<!-- Node13&#45;&gt;Node12 -->
<g id="edge13_Node000012_Node000013" class="edge">
<title>Node13&#45;&gt;Node12</title>
<g id="a_edge13_Node000012_Node000013"><a xlink:title=" ">
<path fill="none" stroke="#63b8ff" d="M310.69,-281.22C324.34,-273.82 339.6,-263.37 349.57,-250 374.73,-216.25 365.51,-161.04 360.72,-140"/>
<polygon fill="#63b8ff" stroke="#63b8ff" points="308.91,-278.19 301.59,-285.85 312.09,-284.43 308.91,-278.19"/>
</a>
</g>
</g>
<!-- Node14 -->
<g id="Node000014" class="node">
<title>Node14</title>
<g id="a_Node000014"><a xlink:title=" ">
<polygon fill="white" stroke="#666666" points="439.57,-85 359.57,-85 359.57,-66 439.57,-66 439.57,-85"/>
<text text-anchor="middle" x="399.57" y="-73" font-family="Helvetica" font-size="10.00">ILoggerSource</text>
</a>
</g>
</g>
<!-- Node14&#45;&gt;Node1 -->
<g id="edge15_Node000001_Node000014" class="edge">
<title>Node14&#45;&gt;Node1</title>
<g id="a_edge15_Node000001_Node000014"><a xlink:title=" ">
<path fill="none" stroke="#63b8ff" d="M381.83,-59.23C371.36,-50.23 358.2,-38.91 347.98,-30.11"/>
<polygon fill="#63b8ff" stroke="#63b8ff" points="379.67,-62 389.54,-65.87 384.24,-56.69 379.67,-62"/>
</a>
</g>
</g>
</g>
</svg>
