<?xml version="1.0" encoding="UTF-8" standalone="no"?>
<!DOCTYPE svg PUBLIC "-//W3C//DTD SVG 1.1//EN"
 "http://www.w3.org/Graphics/SVG/1.1/DTD/svg11.dtd">
<!-- Generated by graphviz version 2.44.0 (0)
 -->
<!-- Title: ATAS.DataFeedsCore.BasketConnector Pages: 1 -->
<svg width="232pt" height="148pt"
 viewBox="0.00 0.00 232.00 148.00" xmlns="http://www.w3.org/2000/svg" xmlns:xlink="http://www.w3.org/1999/xlink">
<g id="graph0" class="graph" transform="scale(1 1) rotate(0) translate(4 144)">
<title>ATAS.DataFeedsCore.BasketConnector</title>
<!-- Node1 -->
<g id="Node000001" class="node">
<title>Node1</title>
<g id="a_Node000001"><a xlink:title=" ">
<polygon fill="#999999" stroke="#666666" points="182.5,-30 36.5,-30 36.5,0 182.5,0 182.5,-30"/>
<text text-anchor="start" x="44.5" y="-18" font-family="Helvetica" font-size="10.00">ATAS.DataFeedsCore.Basket</text>
<text text-anchor="middle" x="109.5" y="-7" font-family="Helvetica" font-size="10.00">Connector</text>
</a>
</g>
</g>
<!-- Node2 -->
<g id="Node000002" class="node">
<title>Node2</title>
<g id="a_Node000002"><a xlink:title=" ">
<polygon fill="white" stroke="#666666" points="99,-85 0,-85 0,-66 99,-66 99,-85"/>
<text text-anchor="middle" x="49.5" y="-73" font-family="Helvetica" font-size="10.00">BaseLoggerSource</text>
</a>
</g>
</g>
<!-- Node2&#45;&gt;Node1 -->
<g id="edge1_Node000001_Node000002" class="edge">
<title>Node2&#45;&gt;Node1</title>
<g id="a_edge1_Node000001_Node000002"><a xlink:title=" ">
<path fill="none" stroke="#63b8ff" d="M65.71,-58.7C74.85,-49.78 86.18,-38.74 95.02,-30.11"/>
<polygon fill="#63b8ff" stroke="#63b8ff" points="63.07,-56.38 58.35,-65.87 67.96,-61.39 63.07,-56.38"/>
</a>
</g>
</g>
<!-- Node3 -->
<g id="Node000003" class="node">
<title>Node3</title>
<g id="a_Node000003"><a xlink:href="interfaceATAS_1_1DataFeedsCore_1_1IDataFeedConnector.html" target="_top" xlink:title=" ">
<polygon fill="white" stroke="#666666" points="224,-85 117,-85 117,-66 224,-66 224,-85"/>
<text text-anchor="middle" x="170.5" y="-73" font-family="Helvetica" font-size="10.00">IDataFeedConnector</text>
</a>
</g>
</g>
<!-- Node3&#45;&gt;Node1 -->
<g id="edge2_Node000001_Node000003" class="edge">
<title>Node3&#45;&gt;Node1</title>
<g id="a_edge2_Node000001_Node000003"><a xlink:title=" ">
<path fill="none" stroke="#63b8ff" d="M154.02,-58.7C144.73,-49.78 133.21,-38.74 124.22,-30.11"/>
<polygon fill="#63b8ff" stroke="#63b8ff" points="151.86,-61.47 161.5,-65.87 156.7,-56.42 151.86,-61.47"/>
</a>
</g>
</g>
<!-- Node4 -->
<g id="Node000004" class="node">
<title>Node4</title>
<g id="a_Node000004"><a xlink:title=" ">
<polygon fill="white" stroke="#666666" points="210.5,-140 130.5,-140 130.5,-121 210.5,-121 210.5,-140"/>
<text text-anchor="middle" x="170.5" y="-128" font-family="Helvetica" font-size="10.00">ILoggerSource</text>
</a>
</g>
</g>
<!-- Node4&#45;&gt;Node3 -->
<g id="edge3_Node000003_Node000004" class="edge">
<title>Node4&#45;&gt;Node3</title>
<g id="a_edge3_Node000003_Node000004"><a xlink:title=" ">
<path fill="none" stroke="#63b8ff" d="M170.5,-110.66C170.5,-101.93 170.5,-91.99 170.5,-85.09"/>
<polygon fill="#63b8ff" stroke="#63b8ff" points="167,-110.75 170.5,-120.75 174,-110.75 167,-110.75"/>
</a>
</g>
</g>
</g>
</svg>
