<?xml version="1.0" encoding="UTF-8" standalone="no"?>
<!DOCTYPE svg PUBLIC "-//W3C//DTD SVG 1.1//EN"
 "http://www.w3.org/Graphics/SVG/1.1/DTD/svg11.dtd">
<!-- Generated by graphviz version 2.44.0 (0)
 -->
<!-- Title: ATAS.DataFeedsCore.TradeStatistics.Matching.TradesProcessingUnit Pages: 1 -->
<svg width="251pt" height="148pt"
 viewBox="0.00 0.00 250.50 148.00" xmlns="http://www.w3.org/2000/svg" xmlns:xlink="http://www.w3.org/1999/xlink">
<g id="graph0" class="graph" transform="scale(1 1) rotate(0) translate(4 144)">
<title>ATAS.DataFeedsCore.TradeStatistics.Matching.TradesProcessingUnit</title>
<!-- Node1 -->
<g id="Node000001" class="node">
<title>Node1</title>
<g id="a_Node000001"><a xlink:title=" ">
<polygon fill="#999999" stroke="#666666" points="242.5,-30 42.5,-30 42.5,0 242.5,0 242.5,-30"/>
<text text-anchor="start" x="50.5" y="-18" font-family="Helvetica" font-size="10.00">ATAS.DataFeedsCore.Trade</text>
<text text-anchor="middle" x="142.5" y="-7" font-family="Helvetica" font-size="10.00">Statistics.Matching.TradesProcessingUnit</text>
</a>
</g>
</g>
<!-- Node2 -->
<g id="Node000002" class="node">
<title>Node2</title>
<g id="a_Node000002"><a xlink:href="classATAS_1_1DataFeedsCore_1_1TradeStatistics_1_1Matching_1_1TradesProcessingLoggerSource.html" target="_top" xlink:title=" ">
<polygon fill="white" stroke="#666666" points="155,-85 0,-85 0,-66 155,-66 155,-85"/>
<text text-anchor="middle" x="77.5" y="-73" font-family="Helvetica" font-size="10.00">TradesProcessingLoggerSource</text>
</a>
</g>
</g>
<!-- Node2&#45;&gt;Node1 -->
<g id="edge1_Node000001_Node000002" class="edge">
<title>Node2&#45;&gt;Node1</title>
<g id="a_edge1_Node000001_Node000002"><a xlink:title=" ">
<path fill="none" stroke="#63b8ff" d="M94.76,-58.97C104.72,-50.01 117.14,-38.82 126.82,-30.11"/>
<polygon fill="#63b8ff" stroke="#63b8ff" points="92.18,-56.58 87.09,-65.87 96.87,-61.78 92.18,-56.58"/>
</a>
</g>
</g>
<!-- Node3 -->
<g id="Node000003" class="node">
<title>Node3</title>
<g id="a_Node000003"><a xlink:title=" ">
<polygon fill="white" stroke="#666666" points="127,-140 28,-140 28,-121 127,-121 127,-140"/>
<text text-anchor="middle" x="77.5" y="-128" font-family="Helvetica" font-size="10.00">BaseLoggerSource</text>
</a>
</g>
</g>
<!-- Node3&#45;&gt;Node2 -->
<g id="edge2_Node000002_Node000003" class="edge">
<title>Node3&#45;&gt;Node2</title>
<g id="a_edge2_Node000002_Node000003"><a xlink:title=" ">
<path fill="none" stroke="#63b8ff" d="M77.5,-110.66C77.5,-101.93 77.5,-91.99 77.5,-85.09"/>
<polygon fill="#63b8ff" stroke="#63b8ff" points="74,-110.75 77.5,-120.75 81,-110.75 74,-110.75"/>
</a>
</g>
</g>
<!-- Node4 -->
<g id="Node000004" class="node">
<title>Node4</title>
<g id="a_Node000004"><a xlink:title=" ">
<polygon fill="white" stroke="#666666" points="241.5,-85 173.5,-85 173.5,-66 241.5,-66 241.5,-85"/>
<text text-anchor="middle" x="207.5" y="-73" font-family="Helvetica" font-size="10.00">IDisposable</text>
</a>
</g>
</g>
<!-- Node4&#45;&gt;Node1 -->
<g id="edge3_Node000001_Node000004" class="edge">
<title>Node4&#45;&gt;Node1</title>
<g id="a_edge3_Node000001_Node000004"><a xlink:title=" ">
<path fill="none" stroke="#63b8ff" d="M190.24,-58.97C180.28,-50.01 167.86,-38.82 158.18,-30.11"/>
<polygon fill="#63b8ff" stroke="#63b8ff" points="188.13,-61.78 197.91,-65.87 192.82,-56.58 188.13,-61.78"/>
</a>
</g>
</g>
</g>
</svg>
