<?xml version="1.0" encoding="UTF-8" standalone="no"?>
<!DOCTYPE svg PUBLIC "-//W3C//DTD SVG 1.1//EN"
 "http://www.w3.org/Graphics/SVG/1.1/DTD/svg11.dtd">
<!-- Generated by graphviz version 2.44.0 (0)
 -->
<!-- Title: ATAS.Indicators.FilterBase Pages: 1 -->
<svg width="222pt" height="137pt"
 viewBox="0.00 0.00 221.50 137.00" xmlns="http://www.w3.org/2000/svg" xmlns:xlink="http://www.w3.org/1999/xlink">
<g id="graph0" class="graph" transform="scale(1 1) rotate(0) translate(4 133)">
<title>ATAS.Indicators.FilterBase</title>
<!-- Node1 -->
<g id="Node000001" class="node">
<title>Node1</title>
<g id="a_Node000001"><a xlink:title="Base class for filters implementing the IFilter interface.">
<polygon fill="#999999" stroke="#666666" points="193.5,-19 58.5,-19 58.5,0 193.5,0 193.5,-19"/>
<text text-anchor="middle" x="126" y="-7" font-family="Helvetica" font-size="10.00">ATAS.Indicators.FilterBase</text>
</a>
</g>
</g>
<!-- Node2 -->
<g id="Node000002" class="node">
<title>Node2</title>
<g id="a_Node000002"><a xlink:href="classATAS_1_1Indicators_1_1NotifyPropertyChangedBase.html" target="_top" xlink:title="Base class for implementing the INotifyPropertyChanged interface.">
<polygon fill="white" stroke="#666666" points="142,-74 0,-74 0,-55 142,-55 142,-74"/>
<text text-anchor="middle" x="71" y="-62" font-family="Helvetica" font-size="10.00">NotifyPropertyChangedBase</text>
</a>
</g>
</g>
<!-- Node2&#45;&gt;Node1 -->
<g id="edge1_Node000001_Node000002" class="edge">
<title>Node2&#45;&gt;Node1</title>
<g id="a_edge1_Node000001_Node000002"><a xlink:title=" ">
<path fill="none" stroke="#63b8ff" d="M87.29,-47.8C97.04,-38.41 109.05,-26.83 117.09,-19.09"/>
<polygon fill="#63b8ff" stroke="#63b8ff" points="84.85,-45.29 80.08,-54.75 89.71,-50.33 84.85,-45.29"/>
</a>
</g>
</g>
<!-- Node3 -->
<g id="Node000003" class="node">
<title>Node3</title>
<g id="a_Node000003"><a xlink:title=" ">
<polygon fill="white" stroke="#666666" points="132,-129 10,-129 10,-110 132,-110 132,-129"/>
<text text-anchor="middle" x="71" y="-117" font-family="Helvetica" font-size="10.00">INotifyPropertyChanged</text>
</a>
</g>
</g>
<!-- Node3&#45;&gt;Node2 -->
<g id="edge2_Node000002_Node000003" class="edge">
<title>Node3&#45;&gt;Node2</title>
<g id="a_edge2_Node000002_Node000003"><a xlink:title=" ">
<path fill="none" stroke="#63b8ff" d="M71,-99.66C71,-90.93 71,-80.99 71,-74.09"/>
<polygon fill="#63b8ff" stroke="#63b8ff" points="67.5,-99.75 71,-109.75 74.5,-99.75 67.5,-99.75"/>
</a>
</g>
</g>
<!-- Node4 -->
<g id="Node000004" class="node">
<title>Node4</title>
<g id="a_Node000004"><a xlink:href="interfaceATAS_1_1Indicators_1_1IFilter.html" target="_top" xlink:title="Represents a filter with common properties and functionality.">
<polygon fill="white" stroke="#666666" points="201.5,-74 160.5,-74 160.5,-55 201.5,-55 201.5,-74"/>
<text text-anchor="middle" x="181" y="-62" font-family="Helvetica" font-size="10.00">IFilter</text>
</a>
</g>
</g>
<!-- Node3&#45;&gt;Node4 -->
<g id="edge4_Node000004_Node000003" class="edge">
<title>Node3&#45;&gt;Node4</title>
<g id="a_edge4_Node000004_Node000003"><a xlink:title=" ">
<path fill="none" stroke="#63b8ff" d="M97.7,-105.63C117.97,-95.87 145.27,-82.71 163.01,-74.17"/>
<polygon fill="#63b8ff" stroke="#63b8ff" points="96.16,-102.49 88.67,-109.98 99.2,-108.8 96.16,-102.49"/>
</a>
</g>
</g>
<!-- Node4&#45;&gt;Node1 -->
<g id="edge3_Node000001_Node000004" class="edge">
<title>Node4&#45;&gt;Node1</title>
<g id="a_edge3_Node000001_Node000004"><a xlink:title=" ">
<path fill="none" stroke="#63b8ff" d="M164.71,-47.8C154.96,-38.41 142.95,-26.83 134.91,-19.09"/>
<polygon fill="#63b8ff" stroke="#63b8ff" points="162.29,-50.33 171.92,-54.75 167.15,-45.29 162.29,-50.33"/>
</a>
</g>
</g>
<!-- Node5 -->
<g id="Node000005" class="node">
<title>Node5</title>
<g id="a_Node000005"><a xlink:title=" ">
<polygon fill="white" stroke="#666666" points="213.5,-129 150.5,-129 150.5,-110 213.5,-110 213.5,-129"/>
<text text-anchor="middle" x="182" y="-117" font-family="Helvetica" font-size="10.00">ICloneable</text>
</a>
</g>
</g>
<!-- Node5&#45;&gt;Node4 -->
<g id="edge5_Node000004_Node000005" class="edge">
<title>Node5&#45;&gt;Node4</title>
<g id="a_edge5_Node000004_Node000005"><a xlink:title=" ">
<path fill="none" stroke="#63b8ff" d="M181.64,-99.66C181.48,-90.93 181.29,-80.99 181.16,-74.09"/>
<polygon fill="#63b8ff" stroke="#63b8ff" points="178.15,-99.82 181.83,-109.75 185.15,-99.68 178.15,-99.82"/>
</a>
</g>
</g>
</g>
</svg>
