<?xml version="1.0" encoding="UTF-8" standalone="no"?>
<!DOCTYPE svg PUBLIC "-//W3C//DTD SVG 1.1//EN"
 "http://www.w3.org/Graphics/SVG/1.1/DTD/svg11.dtd">
<!-- Generated by graphviz version 2.44.0 (0)
 -->
<!-- Title: ATAS.DataFeedsCore.Statistics.StatisticsParameterGroup&lt; T &gt; Pages: 1 -->
<svg width="280pt" height="93pt"
 viewBox="0.00 0.00 280.00 93.00" xmlns="http://www.w3.org/2000/svg" xmlns:xlink="http://www.w3.org/1999/xlink">
<g id="graph0" class="graph" transform="scale(1 1) rotate(0) translate(4 89)">
<title>ATAS.DataFeedsCore.Statistics.StatisticsParameterGroup&lt; T &gt;</title>
<!-- Node1 -->
<g id="Node000001" class="node">
<title>Node1</title>
<g id="a_Node000001"><a xlink:title=" ">
<polygon fill="#999999" stroke="#666666" points="218,-30 58,-30 58,0 218,0 218,-30"/>
<text text-anchor="start" x="66" y="-18" font-family="Helvetica" font-size="10.00">ATAS.DataFeedsCore.Statistics.</text>
<text text-anchor="middle" x="138" y="-7" font-family="Helvetica" font-size="10.00">StatisticsParameterGroup&lt; T &gt;</text>
</a>
</g>
</g>
<!-- Node2 -->
<g id="Node000002" class="node">
<title>Node2</title>
<g id="a_Node000002"><a xlink:href="interfaceATAS_1_1DataFeedsCore_1_1Statistics_1_1IStatisticsParameterGroup.html" target="_top" xlink:title=" ">
<polygon fill="white" stroke="#666666" points="132,-85 0,-85 0,-66 132,-66 132,-85"/>
<text text-anchor="middle" x="66" y="-73" font-family="Helvetica" font-size="10.00">IStatisticsParameterGroup</text>
</a>
</g>
</g>
<!-- Node2&#45;&gt;Node1 -->
<g id="edge1_Node000001_Node000002" class="edge">
<title>Node2&#45;&gt;Node1</title>
<g id="a_edge1_Node000001_Node000002"><a xlink:title=" ">
<path fill="none" stroke="#63b8ff" d="M84.46,-59.5C95.6,-50.45 109.69,-39 120.63,-30.11"/>
<polygon fill="#63b8ff" stroke="#63b8ff" points="82.18,-56.85 76.62,-65.87 86.59,-62.28 82.18,-56.85"/>
</a>
</g>
</g>
<!-- Node3 -->
<g id="Node000003" class="node">
<title>Node3</title>
<g id="a_Node000003"><a xlink:title=" ">
<polygon fill="white" stroke="#666666" points="272,-85 150,-85 150,-66 272,-66 272,-85"/>
<text text-anchor="middle" x="211" y="-73" font-family="Helvetica" font-size="10.00">INotifyPropertyChanged</text>
</a>
</g>
</g>
<!-- Node3&#45;&gt;Node1 -->
<g id="edge2_Node000001_Node000003" class="edge">
<title>Node3&#45;&gt;Node1</title>
<g id="a_edge2_Node000001_Node000003"><a xlink:title=" ">
<path fill="none" stroke="#63b8ff" d="M192.28,-59.5C180.99,-50.45 166.7,-39 155.61,-30.11"/>
<polygon fill="#63b8ff" stroke="#63b8ff" points="190.24,-62.35 200.23,-65.87 194.61,-56.88 190.24,-62.35"/>
</a>
</g>
</g>
</g>
</svg>
