<?xml version="1.0" encoding="UTF-8" standalone="no"?>
<!DOCTYPE svg PUBLIC "-//W3C//DTD SVG 1.1//EN"
 "http://www.w3.org/Graphics/SVG/1.1/DTD/svg11.dtd">
<!-- Generated by graphviz version 2.44.0 (0)
 -->
<!-- Title: OFT.Core.BaseConnectorSettings&lt; T &gt; Pages: 1 -->
<svg width="586pt" height="102pt"
 viewBox="0.00 0.00 586.00 102.00" xmlns="http://www.w3.org/2000/svg" xmlns:xlink="http://www.w3.org/1999/xlink">
<g id="graph0" class="graph" transform="scale(1 1) rotate(0) translate(4 98)">
<title>OFT.Core.BaseConnectorSettings&lt; T &gt;</title>
<!-- Node1 -->
<g id="Node000001" class="node">
<title>Node1</title>
<g id="a_Node000001"><a xlink:title=" ">
<polygon fill="#999999" stroke="#666666" points="348,-57 158,-57 158,-38 348,-38 348,-57"/>
<text text-anchor="middle" x="253" y="-45" font-family="Helvetica" font-size="10.00">OFT.Core.BaseConnectorSettings&lt; T &gt;</text>
</a>
</g>
</g>
<!-- Node5 -->
<g id="Node000005" class="node">
<title>Node5</title>
<g id="a_Node000005"><a xlink:href="classATAS_1_1DataFeedsCore_1_1BaseMarketDataOnlyConnectorSettings.html" target="_top" xlink:title=" ">
<polygon fill="white" stroke="#666666" points="565,-89.5 397,-89.5 397,-59.5 565,-59.5 565,-89.5"/>
<text text-anchor="start" x="405" y="-77.5" font-family="Helvetica" font-size="10.00">ATAS.DataFeedsCore.BaseMarket</text>
<text text-anchor="middle" x="481" y="-66.5" font-family="Helvetica" font-size="10.00">DataOnlyConnectorSettings&lt; T &gt;</text>
</a>
</g>
</g>
<!-- Node1&#45;&gt;Node5 -->
<g id="edge4_Node000001_Node000005" class="edge">
<title>Node1&#45;&gt;Node5</title>
<g id="a_edge4_Node000001_Node000005"><a xlink:title=" ">
<path fill="none" stroke="#63b8ff" d="M343.87,-58.24C361.34,-60.32 379.59,-62.5 396.83,-64.56"/>
<polygon fill="#63b8ff" stroke="#63b8ff" points="344.02,-54.73 333.68,-57.02 343.19,-61.68 344.02,-54.73"/>
</a>
</g>
</g>
<!-- Node6 -->
<g id="Node000006" class="node">
<title>Node6</title>
<g id="a_Node000006"><a xlink:href="classATAS_1_1DataFeedsCore_1_1BasketConnectorSettings.html" target="_top" xlink:title=" ">
<polygon fill="white" stroke="#666666" points="578,-41 384,-41 384,0 578,0 578,-41"/>
<text text-anchor="start" x="392" y="-29" font-family="Helvetica" font-size="10.00">ATAS.DataFeedsCore.Basket</text>
<text text-anchor="start" x="392" y="-18" font-family="Helvetica" font-size="10.00">ConnectorSettings&lt; TDataFeedSettings,</text>
<text text-anchor="middle" x="481" y="-7" font-family="Helvetica" font-size="10.00"> TTradingSettings &gt;</text>
</a>
</g>
</g>
<!-- Node1&#45;&gt;Node6 -->
<g id="edge5_Node000001_Node000006" class="edge">
<title>Node1&#45;&gt;Node6</title>
<g id="a_edge5_Node000001_Node000006"><a xlink:title=" ">
<path fill="none" stroke="#63b8ff" d="M343.7,-36.78C356.94,-35.2 370.63,-33.57 383.99,-31.97"/>
<polygon fill="#63b8ff" stroke="#63b8ff" points="343.19,-33.32 333.68,-37.98 344.02,-40.27 343.19,-33.32"/>
</a>
</g>
</g>
<!-- Node2 -->
<g id="Node000002" class="node">
<title>Node2</title>
<g id="a_Node000002"><a xlink:href="interfaceOFT_1_1Core_1_1IConnectorSettings.html" target="_top" xlink:title=" ">
<polygon fill="white" stroke="#666666" points="111.5,-94 10.5,-94 10.5,-75 111.5,-75 111.5,-94"/>
<text text-anchor="middle" x="61" y="-82" font-family="Helvetica" font-size="10.00">IConnectorSettings</text>
</a>
</g>
</g>
<!-- Node2&#45;&gt;Node1 -->
<g id="edge1_Node000001_Node000002" class="edge">
<title>Node2&#45;&gt;Node1</title>
<g id="a_edge1_Node000001_Node000002"><a xlink:title=" ">
<path fill="none" stroke="#63b8ff" d="M120.79,-73.05C147.12,-67.92 177.82,-61.94 202.91,-57.06"/>
<polygon fill="#63b8ff" stroke="#63b8ff" points="120.08,-69.62 110.93,-74.97 121.41,-76.5 120.08,-69.62"/>
</a>
</g>
</g>
<!-- Node3 -->
<g id="Node000003" class="node">
<title>Node3</title>
<g id="a_Node000003"><a xlink:title=" ">
<polygon fill="white" stroke="#666666" points="122,-57 0,-57 0,-38 122,-38 122,-57"/>
<text text-anchor="middle" x="61" y="-45" font-family="Helvetica" font-size="10.00">INotifyPropertyChanged</text>
</a>
</g>
</g>
<!-- Node3&#45;&gt;Node1 -->
<g id="edge2_Node000001_Node000003" class="edge">
<title>Node3&#45;&gt;Node1</title>
<g id="a_edge2_Node000001_Node000003"><a xlink:title=" ">
<path fill="none" stroke="#63b8ff" d="M132.19,-47.5C140.58,-47.5 149.25,-47.5 157.9,-47.5"/>
<polygon fill="#63b8ff" stroke="#63b8ff" points="132.12,-44 122.12,-47.5 132.12,-51 132.12,-44"/>
</a>
</g>
</g>
<!-- Node4 -->
<g id="Node000004" class="node">
<title>Node4</title>
<g id="a_Node000004"><a xlink:title=" ">
<polygon fill="white" stroke="#666666" points="121,-20 1,-20 1,-1 121,-1 121,-20"/>
<text text-anchor="middle" x="61" y="-8" font-family="Helvetica" font-size="10.00">BaseConnectorSettings</text>
</a>
</g>
</g>
<!-- Node4&#45;&gt;Node1 -->
<g id="edge3_Node000001_Node000004" class="edge">
<title>Node4&#45;&gt;Node1</title>
<g id="a_edge3_Node000001_Node000004"><a xlink:title=" ">
<path fill="none" stroke="#63b8ff" d="M120.79,-21.95C147.12,-27.08 177.82,-33.06 202.91,-37.94"/>
<polygon fill="#63b8ff" stroke="#63b8ff" points="121.41,-18.5 110.93,-20.03 120.08,-25.38 121.41,-18.5"/>
</a>
</g>
</g>
</g>
</svg>
