<?xml version="1.0" encoding="UTF-8" standalone="no"?>
<!DOCTYPE svg PUBLIC "-//W3C//DTD SVG 1.1//EN"
 "http://www.w3.org/Graphics/SVG/1.1/DTD/svg11.dtd">
<!-- Generated by graphviz version 2.44.0 (0)
 -->
<!-- Title: ATAS.DataFeedsCore.SessionServer.SessionServer&lt; TSession, TMessage &gt; Pages: 1 -->
<svg width="208pt" height="104pt"
 viewBox="0.00 0.00 208.00 104.00" xmlns="http://www.w3.org/2000/svg" xmlns:xlink="http://www.w3.org/1999/xlink">
<g id="graph0" class="graph" transform="scale(1 1) rotate(0) translate(4 100)">
<title>ATAS.DataFeedsCore.SessionServer.SessionServer&lt; TSession, TMessage &gt;</title>
<!-- Node1 -->
<g id="Node000001" class="node">
<title>Node1</title>
<g id="a_Node000001"><a xlink:title=" ">
<polygon fill="#999999" stroke="#666666" points="186,-41 21,-41 21,0 186,0 186,-41"/>
<text text-anchor="start" x="29" y="-29" font-family="Helvetica" font-size="10.00">ATAS.DataFeedsCore.Session</text>
<text text-anchor="start" x="29" y="-18" font-family="Helvetica" font-size="10.00">Server.SessionServer&lt; TSession,</text>
<text text-anchor="middle" x="103.5" y="-7" font-family="Helvetica" font-size="10.00"> TMessage &gt;</text>
</a>
</g>
</g>
<!-- Node2 -->
<g id="Node000002" class="node">
<title>Node2</title>
<g id="a_Node000002"><a xlink:title=" ">
<polygon fill="white" stroke="#666666" points="99,-96 0,-96 0,-77 99,-77 99,-96"/>
<text text-anchor="middle" x="49.5" y="-84" font-family="Helvetica" font-size="10.00">BaseLoggerSource</text>
</a>
</g>
</g>
<!-- Node2&#45;&gt;Node1 -->
<g id="edge1_Node000001_Node000002" class="edge">
<title>Node2&#45;&gt;Node1</title>
<g id="a_edge1_Node000001_Node000002"><a xlink:title=" ">
<path fill="none" stroke="#63b8ff" d="M63.34,-69.09C70.57,-60.53 79.46,-49.99 87.04,-41.01"/>
<polygon fill="#63b8ff" stroke="#63b8ff" points="60.56,-66.97 56.78,-76.87 65.91,-71.48 60.56,-66.97"/>
</a>
</g>
</g>
<!-- Node3 -->
<g id="Node000003" class="node">
<title>Node3</title>
<g id="a_Node000003"><a xlink:href="interfaceATAS_1_1DataFeedsCore_1_1SessionServer_1_1ISessionServer.html" target="_top" xlink:title=" ">
<polygon fill="white" stroke="#666666" points="200,-96 117,-96 117,-77 200,-77 200,-96"/>
<text text-anchor="middle" x="158.5" y="-84" font-family="Helvetica" font-size="10.00">ISessionServer</text>
</a>
</g>
</g>
<!-- Node3&#45;&gt;Node1 -->
<g id="edge2_Node000001_Node000003" class="edge">
<title>Node3&#45;&gt;Node1</title>
<g id="a_edge2_Node000001_Node000003"><a xlink:title=" ">
<path fill="none" stroke="#63b8ff" d="M144.4,-69.09C137.04,-60.53 127.98,-49.99 120.27,-41.01"/>
<polygon fill="#63b8ff" stroke="#63b8ff" points="141.91,-71.57 151.08,-76.87 147.22,-67 141.91,-71.57"/>
</a>
</g>
</g>
</g>
</svg>
