<?xml version="1.0" encoding="UTF-8" standalone="no"?>
<!DOCTYPE svg PUBLIC "-//W3C//DTD SVG 1.1//EN"
 "http://www.w3.org/Graphics/SVG/1.1/DTD/svg11.dtd">
<!-- Generated by graphviz version 2.44.0 (0)
 -->
<!-- Title: ATAS.Indicators.FilterRenderPen Pages: 1 -->
<svg width="250pt" height="93pt"
 viewBox="0.00 0.00 249.50 93.00" xmlns="http://www.w3.org/2000/svg" xmlns:xlink="http://www.w3.org/1999/xlink">
<g id="graph0" class="graph" transform="scale(1 1) rotate(0) translate(4 89)">
<title>ATAS.Indicators.FilterRenderPen</title>
<!-- Node1 -->
<g id="Node000001" class="node">
<title>Node1</title>
<g id="a_Node000001"><a xlink:title="Represents a filter for PenSettings objects with support for property change notifications.">
<polygon fill="#999999" stroke="#666666" points="196.5,-19 36.5,-19 36.5,0 196.5,0 196.5,-19"/>
<text text-anchor="middle" x="116.5" y="-7" font-family="Helvetica" font-size="10.00">ATAS.Indicators.FilterRenderPen</text>
</a>
</g>
</g>
<!-- Node2 -->
<g id="Node000002" class="node">
<title>Node2</title>
<g id="a_Node000002"><a xlink:href="classATAS_1_1Indicators_1_1Filter.html" target="_top" xlink:title=" ">
<polygon fill="white" stroke="#666666" points="103,-85 0,-85 0,-55 103,-55 103,-85"/>
<text text-anchor="start" x="8" y="-73" font-family="Helvetica" font-size="10.00">Filter&lt; PenSettings,</text>
<text text-anchor="middle" x="51.5" y="-62" font-family="Helvetica" font-size="10.00"> FilterRenderPen &gt;</text>
</a>
</g>
</g>
<!-- Node2&#45;&gt;Node1 -->
<g id="edge1_Node000001_Node000002" class="edge">
<title>Node2&#45;&gt;Node1</title>
<g id="a_edge1_Node000001_Node000002"><a xlink:title=" ">
<path fill="none" stroke="#63b8ff" d="M74.88,-47.96C85.86,-38.07 98.35,-26.83 106.76,-19.27"/>
<polygon fill="#63b8ff" stroke="#63b8ff" points="72.33,-45.55 67.23,-54.84 77.01,-50.75 72.33,-45.55"/>
</a>
</g>
</g>
<!-- Node3 -->
<g id="Node000003" class="node">
<title>Node3</title>
<g id="a_Node000003"><a xlink:title=" ">
<polygon fill="white" stroke="#666666" points="241.5,-79.5 121.5,-79.5 121.5,-60.5 241.5,-60.5 241.5,-79.5"/>
<text text-anchor="middle" x="181.5" y="-67.5" font-family="Helvetica" font-size="10.00">ICustomTypeDescriptor</text>
</a>
</g>
</g>
<!-- Node3&#45;&gt;Node1 -->
<g id="edge2_Node000001_Node000003" class="edge">
<title>Node3&#45;&gt;Node1</title>
<g id="a_edge2_Node000001_Node000003"><a xlink:title=" ">
<path fill="none" stroke="#63b8ff" d="M164.18,-53.41C151.99,-42.44 136.13,-28.17 126.13,-19.17"/>
<polygon fill="#63b8ff" stroke="#63b8ff" points="162.13,-56.28 171.91,-60.37 166.82,-51.08 162.13,-56.28"/>
</a>
</g>
</g>
</g>
</svg>
