<?xml version="1.0" encoding="UTF-8" standalone="no"?>
<!DOCTYPE svg PUBLIC "-//W3C//DTD SVG 1.1//EN"
 "http://www.w3.org/Graphics/SVG/1.1/DTD/svg11.dtd">
<!-- Generated by graphviz version 2.44.0 (0)
 -->
<!-- Title: ATAS.Indicators.Filter&lt; TValue &gt; Pages: 1 -->
<svg width="275pt" height="214pt"
 viewBox="0.00 0.00 275.00 214.00" xmlns="http://www.w3.org/2000/svg" xmlns:xlink="http://www.w3.org/1999/xlink">
<g id="graph0" class="graph" transform="scale(1 1) rotate(0) translate(4 210)">
<title>ATAS.Indicators.Filter&lt; TValue &gt;</title>
<!-- Node1 -->
<g id="Node000001" class="node">
<title>Node1</title>
<g id="a_Node000001"><a xlink:title="Generic filter class that implements the IFilterValue interface.">
<polygon fill="#999999" stroke="#666666" points="210,-30 97,-30 97,0 210,0 210,-30"/>
<text text-anchor="start" x="105" y="-18" font-family="Helvetica" font-size="10.00">ATAS.Indicators.Filter</text>
<text text-anchor="middle" x="153.5" y="-7" font-family="Helvetica" font-size="10.00">&lt; TValue &gt;</text>
</a>
</g>
</g>
<!-- Node2 -->
<g id="Node000002" class="node">
<title>Node2</title>
<g id="a_Node000002"><a xlink:href="classATAS_1_1Indicators_1_1Filter.html" target="_top" xlink:title=" ">
<polygon fill="white" stroke="#666666" points="105,-96 0,-96 0,-66 105,-66 105,-96"/>
<text text-anchor="start" x="8" y="-84" font-family="Helvetica" font-size="10.00">Filter&lt; TValue, Filter</text>
<text text-anchor="middle" x="52.5" y="-73" font-family="Helvetica" font-size="10.00">&lt; TValue &gt; &gt;</text>
</a>
</g>
</g>
<!-- Node2&#45;&gt;Node1 -->
<g id="edge1_Node000001_Node000002" class="edge">
<title>Node2&#45;&gt;Node1</title>
<g id="a_edge1_Node000001_Node000002"><a xlink:title=" ">
<path fill="none" stroke="#63b8ff" d="M83.59,-60.3C98.96,-50.56 117.17,-39.02 131.15,-30.16"/>
<polygon fill="#63b8ff" stroke="#63b8ff" points="81.49,-57.49 74.92,-65.8 85.24,-63.4 81.49,-57.49"/>
</a>
</g>
</g>
<!-- Node3 -->
<g id="Node000003" class="node">
<title>Node3</title>
<g id="a_Node000003"><a xlink:href="classATAS_1_1Indicators_1_1FilterBase.html" target="_top" xlink:title="Base class for filters implementing the IFilter interface.">
<polygon fill="white" stroke="#666666" points="184,-90.5 123,-90.5 123,-71.5 184,-71.5 184,-90.5"/>
<text text-anchor="middle" x="153.5" y="-78.5" font-family="Helvetica" font-size="10.00">FilterBase</text>
</a>
</g>
</g>
<!-- Node3&#45;&gt;Node1 -->
<g id="edge2_Node000001_Node000003" class="edge">
<title>Node3&#45;&gt;Node1</title>
<g id="a_edge2_Node000001_Node000003"><a xlink:title=" ">
<path fill="none" stroke="#63b8ff" d="M153.5,-61.35C153.5,-51.47 153.5,-39.51 153.5,-30.36"/>
<polygon fill="#63b8ff" stroke="#63b8ff" points="150,-61.37 153.5,-71.37 157,-61.37 150,-61.37"/>
</a>
</g>
</g>
<!-- Node4 -->
<g id="Node000004" class="node">
<title>Node4</title>
<g id="a_Node000004"><a xlink:href="classATAS_1_1Indicators_1_1NotifyPropertyChangedBase.html" target="_top" xlink:title="Base class for implementing the INotifyPropertyChanged interface.">
<polygon fill="white" stroke="#666666" points="195.5,-151 53.5,-151 53.5,-132 195.5,-132 195.5,-151"/>
<text text-anchor="middle" x="124.5" y="-139" font-family="Helvetica" font-size="10.00">NotifyPropertyChangedBase</text>
</a>
</g>
</g>
<!-- Node4&#45;&gt;Node3 -->
<g id="edge3_Node000003_Node000004" class="edge">
<title>Node4&#45;&gt;Node3</title>
<g id="a_edge3_Node000003_Node000004"><a xlink:title=" ">
<path fill="none" stroke="#63b8ff" d="M133.35,-122.65C138.61,-112.04 145.04,-99.06 149.2,-90.67"/>
<polygon fill="#63b8ff" stroke="#63b8ff" points="130.08,-121.35 128.78,-131.87 136.36,-124.46 130.08,-121.35"/>
</a>
</g>
</g>
<!-- Node5 -->
<g id="Node000005" class="node">
<title>Node5</title>
<g id="a_Node000005"><a xlink:title=" ">
<polygon fill="white" stroke="#666666" points="185.5,-206 63.5,-206 63.5,-187 185.5,-187 185.5,-206"/>
<text text-anchor="middle" x="124.5" y="-194" font-family="Helvetica" font-size="10.00">INotifyPropertyChanged</text>
</a>
</g>
</g>
<!-- Node5&#45;&gt;Node4 -->
<g id="edge4_Node000004_Node000005" class="edge">
<title>Node5&#45;&gt;Node4</title>
<g id="a_edge4_Node000004_Node000005"><a xlink:title=" ">
<path fill="none" stroke="#63b8ff" d="M124.5,-176.66C124.5,-167.93 124.5,-157.99 124.5,-151.09"/>
<polygon fill="#63b8ff" stroke="#63b8ff" points="121,-176.75 124.5,-186.75 128,-176.75 121,-176.75"/>
</a>
</g>
</g>
<!-- Node6 -->
<g id="Node000006" class="node">
<title>Node6</title>
<g id="a_Node000006"><a xlink:href="interfaceATAS_1_1Indicators_1_1IFilter.html" target="_top" xlink:title="Represents a filter with common properties and functionality.">
<polygon fill="white" stroke="#666666" points="255,-151 214,-151 214,-132 255,-132 255,-151"/>
<text text-anchor="middle" x="234.5" y="-139" font-family="Helvetica" font-size="10.00">IFilter</text>
</a>
</g>
</g>
<!-- Node5&#45;&gt;Node6 -->
<g id="edge6_Node000006_Node000005" class="edge">
<title>Node5&#45;&gt;Node6</title>
<g id="a_edge6_Node000006_Node000005"><a xlink:title=" ">
<path fill="none" stroke="#63b8ff" d="M151.2,-182.63C171.47,-172.87 198.77,-159.71 216.51,-151.17"/>
<polygon fill="#63b8ff" stroke="#63b8ff" points="149.66,-179.49 142.17,-186.98 152.7,-185.8 149.66,-179.49"/>
</a>
</g>
</g>
<!-- Node6&#45;&gt;Node3 -->
<g id="edge5_Node000003_Node000006" class="edge">
<title>Node6&#45;&gt;Node3</title>
<g id="a_edge5_Node000003_Node000006"><a xlink:title=" ">
<path fill="none" stroke="#63b8ff" d="M214.21,-125.85C198.87,-114.77 178.32,-99.93 165.5,-90.67"/>
<polygon fill="#63b8ff" stroke="#63b8ff" points="212.39,-128.85 222.55,-131.87 216.49,-123.18 212.39,-128.85"/>
</a>
</g>
</g>
<!-- Node8 -->
<g id="Node000008" class="node">
<title>Node8</title>
<g id="a_Node000008"><a xlink:href="interfaceATAS_1_1Indicators_1_1IFilterValue.html" target="_top" xlink:title="Represents a filter with a flexible value that can hold data of any type. Inherits the properties of ...">
<polygon fill="white" stroke="#666666" points="267,-90.5 202,-90.5 202,-71.5 267,-71.5 267,-90.5"/>
<text text-anchor="middle" x="234.5" y="-78.5" font-family="Helvetica" font-size="10.00">IFilterValue</text>
</a>
</g>
</g>
<!-- Node6&#45;&gt;Node8 -->
<g id="edge9_Node000008_Node000006" class="edge">
<title>Node6&#45;&gt;Node8</title>
<g id="a_edge9_Node000008_Node000006"><a xlink:title=" ">
<path fill="none" stroke="#63b8ff" d="M234.5,-121.66C234.5,-111.24 234.5,-98.8 234.5,-90.67"/>
<polygon fill="#63b8ff" stroke="#63b8ff" points="231,-121.87 234.5,-131.87 238,-121.87 231,-121.87"/>
</a>
</g>
</g>
<!-- Node7 -->
<g id="Node000007" class="node">
<title>Node7</title>
<g id="a_Node000007"><a xlink:title=" ">
<polygon fill="white" stroke="#666666" points="267,-206 204,-206 204,-187 267,-187 267,-206"/>
<text text-anchor="middle" x="235.5" y="-194" font-family="Helvetica" font-size="10.00">ICloneable</text>
</a>
</g>
</g>
<!-- Node7&#45;&gt;Node6 -->
<g id="edge7_Node000006_Node000007" class="edge">
<title>Node7&#45;&gt;Node6</title>
<g id="a_edge7_Node000006_Node000007"><a xlink:title=" ">
<path fill="none" stroke="#63b8ff" d="M235.14,-176.66C234.98,-167.93 234.79,-157.99 234.66,-151.09"/>
<polygon fill="#63b8ff" stroke="#63b8ff" points="231.65,-176.82 235.33,-186.75 238.65,-176.68 231.65,-176.82"/>
</a>
</g>
</g>
<!-- Node8&#45;&gt;Node1 -->
<g id="edge8_Node000001_Node000008" class="edge">
<title>Node8&#45;&gt;Node1</title>
<g id="a_edge8_Node000001_Node000008"><a xlink:title=" ">
<path fill="none" stroke="#63b8ff" d="M215.54,-65.02C202.2,-54.48 184.46,-40.46 171.37,-30.12"/>
<polygon fill="#63b8ff" stroke="#63b8ff" points="213.56,-67.92 223.58,-71.37 217.9,-62.42 213.56,-67.92"/>
</a>
</g>
</g>
</g>
</svg>
