<?xml version="1.0" encoding="UTF-8" standalone="no"?>
<!DOCTYPE svg PUBLIC "-//W3C//DTD SVG 1.1//EN"
 "http://www.w3.org/Graphics/SVG/1.1/DTD/svg11.dtd">
<!-- Generated by graphviz version 2.44.0 (0)
 -->
<!-- Title: ATAS.Strategies.Strategy Pages: 1 -->
<svg width="215pt" height="280pt"
 viewBox="0.00 0.00 214.50 280.00" xmlns="http://www.w3.org/2000/svg" xmlns:xlink="http://www.w3.org/1999/xlink">
<g id="graph0" class="graph" transform="scale(1 1) rotate(0) translate(4 276)">
<title>ATAS.Strategies.Strategy</title>
<!-- Node1 -->
<g id="Node000001" class="node">
<title>Node1</title>
<g id="a_Node000001"><a xlink:title="Base class for implementing trading strategies.">
<polygon fill="#999999" stroke="#666666" points="161.5,-162 33.5,-162 33.5,-143 161.5,-143 161.5,-162"/>
<text text-anchor="middle" x="97.5" y="-150" font-family="Helvetica" font-size="10.00">ATAS.Strategies.Strategy</text>
</a>
</g>
</g>
<!-- Node5 -->
<g id="Node000005" class="node">
<title>Node5</title>
<g id="a_Node000005"><a xlink:href="classATAS_1_1Strategies_1_1ATM_1_1ATMStrategy.html" target="_top" xlink:title=" ">
<polygon fill="white" stroke="#666666" points="183.5,-107 11.5,-107 11.5,-77 183.5,-77 183.5,-107"/>
<text text-anchor="start" x="19.5" y="-95" font-family="Helvetica" font-size="10.00">ATAS.Strategies.ATM.ATMStrategy</text>
<text text-anchor="middle" x="97.5" y="-84" font-family="Helvetica" font-size="10.00">&lt; TStrategy &gt;</text>
</a>
</g>
</g>
<!-- Node1&#45;&gt;Node5 -->
<g id="edge4_Node000001_Node000005" class="edge">
<title>Node1&#45;&gt;Node5</title>
<g id="a_edge4_Node000001_Node000005"><a xlink:title=" ">
<path fill="none" stroke="#63b8ff" d="M97.5,-132.65C97.5,-124.36 97.5,-114.78 97.5,-107.11"/>
<polygon fill="#63b8ff" stroke="#63b8ff" points="94,-132.87 97.5,-142.87 101,-132.87 94,-132.87"/>
</a>
</g>
</g>
<!-- Node2 -->
<g id="Node000002" class="node">
<title>Node2</title>
<g id="a_Node000002"><a xlink:title=" ">
<polygon fill="white" stroke="#666666" points="99,-217 0,-217 0,-198 99,-198 99,-217"/>
<text text-anchor="middle" x="49.5" y="-205" font-family="Helvetica" font-size="10.00">BaseLoggerSource</text>
</a>
</g>
</g>
<!-- Node2&#45;&gt;Node1 -->
<g id="edge1_Node000001_Node000002" class="edge">
<title>Node2&#45;&gt;Node1</title>
<g id="a_edge1_Node000001_Node000002"><a xlink:title=" ">
<path fill="none" stroke="#63b8ff" d="M64.23,-190.24C72.64,-180.95 82.85,-169.68 89.72,-162.09"/>
<polygon fill="#63b8ff" stroke="#63b8ff" points="61.54,-187.99 57.43,-197.75 66.73,-192.69 61.54,-187.99"/>
</a>
</g>
</g>
<!-- Node3 -->
<g id="Node000003" class="node">
<title>Node3</title>
<g id="a_Node000003"><a xlink:href="interfaceATAS_1_1Strategies_1_1IStrategy.html" target="_top" xlink:title="Represents a trading strategy.">
<polygon fill="white" stroke="#666666" points="173.5,-217 117.5,-217 117.5,-198 173.5,-198 173.5,-217"/>
<text text-anchor="middle" x="145.5" y="-205" font-family="Helvetica" font-size="10.00">IStrategy</text>
</a>
</g>
</g>
<!-- Node3&#45;&gt;Node1 -->
<g id="edge2_Node000001_Node000003" class="edge">
<title>Node3&#45;&gt;Node1</title>
<g id="a_edge2_Node000001_Node000003"><a xlink:title=" ">
<path fill="none" stroke="#63b8ff" d="M130.77,-190.24C122.36,-180.95 112.15,-169.68 105.28,-162.09"/>
<polygon fill="#63b8ff" stroke="#63b8ff" points="128.27,-192.69 137.57,-197.75 133.46,-187.99 128.27,-192.69"/>
</a>
</g>
</g>
<!-- Node4 -->
<g id="Node000004" class="node">
<title>Node4</title>
<g id="a_Node000004"><a xlink:title=" ">
<polygon fill="white" stroke="#666666" points="206.5,-272 84.5,-272 84.5,-253 206.5,-253 206.5,-272"/>
<text text-anchor="middle" x="145.5" y="-260" font-family="Helvetica" font-size="10.00">INotifyPropertyChanged</text>
</a>
</g>
</g>
<!-- Node4&#45;&gt;Node3 -->
<g id="edge3_Node000003_Node000004" class="edge">
<title>Node4&#45;&gt;Node3</title>
<g id="a_edge3_Node000003_Node000004"><a xlink:title=" ">
<path fill="none" stroke="#63b8ff" d="M145.5,-242.66C145.5,-233.93 145.5,-223.99 145.5,-217.09"/>
<polygon fill="#63b8ff" stroke="#63b8ff" points="142,-242.75 145.5,-252.75 149,-242.75 142,-242.75"/>
</a>
</g>
</g>
<!-- Node6 -->
<g id="Node000006" class="node">
<title>Node6</title>
<g id="a_Node000006"><a xlink:href="classATAS_1_1Strategies_1_1ATM_1_1BaseStopProfitStrategy.html" target="_top" xlink:title=" ">
<polygon fill="white" stroke="#666666" points="173,-41 22,-41 22,0 173,0 173,-41"/>
<text text-anchor="start" x="30" y="-29" font-family="Helvetica" font-size="10.00">ATAS.Strategies.ATM.Base</text>
<text text-anchor="start" x="30" y="-18" font-family="Helvetica" font-size="10.00">StopProfitStrategy&lt; TStrategy,</text>
<text text-anchor="middle" x="97.5" y="-7" font-family="Helvetica" font-size="10.00"> TSettings &gt;</text>
</a>
</g>
</g>
<!-- Node5&#45;&gt;Node6 -->
<g id="edge5_Node000005_Node000006" class="edge">
<title>Node5&#45;&gt;Node6</title>
<g id="a_edge5_Node000005_Node000006"><a xlink:title=" ">
<path fill="none" stroke="#63b8ff" d="M97.5,-66.91C97.5,-58.47 97.5,-49.1 97.5,-41.07"/>
<polygon fill="#63b8ff" stroke="#63b8ff" points="94,-66.94 97.5,-76.94 101,-66.94 94,-66.94"/>
</a>
</g>
</g>
</g>
</svg>
