<?xml version="1.0" encoding="UTF-8" standalone="no"?>
<!DOCTYPE svg PUBLIC "-//W3C//DTD SVG 1.1//EN"
 "http://www.w3.org/Graphics/SVG/1.1/DTD/svg11.dtd">
<!-- Generated by graphviz version 2.44.0 (0)
 -->
<!-- Title: Graphical Class Hierarchy Pages: 1 -->
<svg width="254pt" height="641pt"
 viewBox="0.00 0.00 254.00 641.00" xmlns="http://www.w3.org/2000/svg" xmlns:xlink="http://www.w3.org/1999/xlink">
<g id="graph0" class="graph" transform="scale(1 1) rotate(0) translate(4 637)">
<title>Graphical Class Hierarchy</title>
<!-- Node0 -->
<g id="Node000000" class="node">
<title>Node0</title>
<g id="a_Node000000"><a xlink:title=" ">
<polygon fill="#e0e0e0" stroke="#999999" points="53,-315.5 0,-315.5 0,-296.5 53,-296.5 53,-315.5"/>
<text text-anchor="middle" x="26.5" y="-303.5" font-family="Helvetica" font-size="10.00">Attribute</text>
</a>
</g>
</g>
<!-- Node1 -->
<g id="Node000001" class="node">
<title>Node1</title>
<g id="a_Node000001"><a xlink:href="classOFT_1_1Attributes_1_1Editors_1_1CheckEditorAttribute.html" target="_top" xlink:title="Check box editor for object.">
<polygon fill="white" stroke="#666666" points="240.5,-633 94.5,-633 94.5,-603 240.5,-603 240.5,-633"/>
<text text-anchor="start" x="102.5" y="-621" font-family="Helvetica" font-size="10.00">OFT.Attributes.Editors.Check</text>
<text text-anchor="middle" x="167.5" y="-610" font-family="Helvetica" font-size="10.00">EditorAttribute</text>
</a>
</g>
</g>
<!-- Node0&#45;&gt;Node1 -->
<g id="edge227_Node000000_Node000001" class="edge">
<title>Node0&#45;&gt;Node1</title>
<g id="a_edge227_Node000000_Node000001"><a xlink:title=" ">
<path fill="none" stroke="#63b8ff" d="M29.16,-325.93C34.44,-384.45 52.62,-554.2 89,-594 92.14,-597.43 95.75,-600.38 99.67,-602.9"/>
<polygon fill="#63b8ff" stroke="#63b8ff" points="32.63,-325.44 28.28,-315.78 25.66,-326.04 32.63,-325.44"/>
</a>
</g>
</g>
<!-- Node2 -->
<g id="Node000002" class="node">
<title>Node2</title>
<g id="a_Node000002"><a xlink:href="classOFT_1_1Attributes_1_1Editors_1_1ComboBoxEditorAttribute.html" target="_top" xlink:title=" ">
<polygon fill="white" stroke="#666666" points="242,-585 93,-585 93,-555 242,-555 242,-585"/>
<text text-anchor="start" x="101" y="-573" font-family="Helvetica" font-size="10.00">OFT.Attributes.Editors.Combo</text>
<text text-anchor="middle" x="167.5" y="-562" font-family="Helvetica" font-size="10.00">BoxEditorAttribute</text>
</a>
</g>
</g>
<!-- Node0&#45;&gt;Node2 -->
<g id="edge228_Node000000_Node000002" class="edge">
<title>Node0&#45;&gt;Node2</title>
<g id="a_edge228_Node000000_Node000002"><a xlink:title=" ">
<path fill="none" stroke="#63b8ff" d="M30.09,-325.92C37.17,-377.54 58.4,-513.85 89,-546 92.3,-549.47 96.09,-552.44 100.19,-554.98"/>
<polygon fill="#63b8ff" stroke="#63b8ff" points="33.52,-325.19 28.72,-315.75 26.58,-326.12 33.52,-325.19"/>
</a>
</g>
</g>
<!-- Node3 -->
<g id="Node000003" class="node">
<title>Node3</title>
<g id="a_Node000003"><a xlink:href="classOFT_1_1Attributes_1_1Editors_1_1DataSeriesEditorAttribute.html" target="_top" xlink:title=" ">
<polygon fill="white" stroke="#666666" points="236.5,-537 98.5,-537 98.5,-507 236.5,-507 236.5,-537"/>
<text text-anchor="start" x="106.5" y="-525" font-family="Helvetica" font-size="10.00">OFT.Attributes.Editors.Data</text>
<text text-anchor="middle" x="167.5" y="-514" font-family="Helvetica" font-size="10.00">SeriesEditorAttribute</text>
</a>
</g>
</g>
<!-- Node0&#45;&gt;Node3 -->
<g id="edge229_Node000000_Node000003" class="edge">
<title>Node0&#45;&gt;Node3</title>
<g id="a_edge229_Node000000_Node000003"><a xlink:title=" ">
<path fill="none" stroke="#63b8ff" d="M28.09,-325.96C30.32,-364.65 40.77,-450.23 89,-498 92.5,-501.47 96.5,-504.44 100.78,-506.98"/>
<polygon fill="#63b8ff" stroke="#63b8ff" points="31.57,-325.39 27.63,-315.55 24.57,-325.7 31.57,-325.39"/>
</a>
</g>
</g>
<!-- Node4 -->
<g id="Node000004" class="node">
<title>Node4</title>
<g id="a_Node000004"><a xlink:href="classOFT_1_1Attributes_1_1Editors_1_1IsExpandedAttribute.html" target="_top" xlink:title=" ">
<polygon fill="white" stroke="#666666" points="230.5,-489 104.5,-489 104.5,-459 230.5,-459 230.5,-489"/>
<text text-anchor="start" x="112.5" y="-477" font-family="Helvetica" font-size="10.00">OFT.Attributes.Editors.Is</text>
<text text-anchor="middle" x="167.5" y="-466" font-family="Helvetica" font-size="10.00">ExpandedAttribute</text>
</a>
</g>
</g>
<!-- Node0&#45;&gt;Node4 -->
<g id="edge230_Node000000_Node000004" class="edge">
<title>Node0&#45;&gt;Node4</title>
<g id="a_edge230_Node000000_Node000004"><a xlink:title=" ">
<path fill="none" stroke="#63b8ff" d="M30.51,-325.63C36.27,-356.53 51.78,-416.44 89,-450 93.5,-454.06 98.67,-457.43 104.17,-460.23"/>
<polygon fill="#63b8ff" stroke="#63b8ff" points="33.94,-324.93 28.8,-315.67 27.04,-326.11 33.94,-324.93"/>
</a>
</g>
</g>
<!-- Node5 -->
<g id="Node000005" class="node">
<title>Node5</title>
<g id="a_Node000005"><a xlink:href="classOFT_1_1Attributes_1_1Editors_1_1MaskAttribute.html" target="_top" xlink:title=" ">
<polygon fill="white" stroke="#666666" points="238.5,-441 96.5,-441 96.5,-411 238.5,-411 238.5,-441"/>
<text text-anchor="start" x="104.5" y="-429" font-family="Helvetica" font-size="10.00">OFT.Attributes.Editors.Mask</text>
<text text-anchor="middle" x="167.5" y="-418" font-family="Helvetica" font-size="10.00">Attribute</text>
</a>
</g>
</g>
<!-- Node0&#45;&gt;Node5 -->
<g id="edge231_Node000000_Node000005" class="edge">
<title>Node0&#45;&gt;Node5</title>
<g id="a_edge231_Node000000_Node000005"><a xlink:title=" ">
<path fill="none" stroke="#63b8ff" d="M35,-325.26C44.42,-346.98 62.61,-381.91 89,-402 93.48,-405.41 98.46,-408.34 103.66,-410.86"/>
<polygon fill="#63b8ff" stroke="#63b8ff" points="38.13,-323.68 31.08,-315.77 31.66,-326.35 38.13,-323.68"/>
</a>
</g>
</g>
<!-- Node6 -->
<g id="Node000006" class="node">
<title>Node6</title>
<g id="a_Node000006"><a xlink:href="classOFT_1_1Attributes_1_1Editors_1_1NumericEditorAttribute.html" target="_top" xlink:title=" ">
<polygon fill="white" stroke="#666666" points="245,-393 90,-393 90,-363 245,-363 245,-393"/>
<text text-anchor="start" x="98" y="-381" font-family="Helvetica" font-size="10.00">OFT.Attributes.Editors.Numeric</text>
<text text-anchor="middle" x="167.5" y="-370" font-family="Helvetica" font-size="10.00">EditorAttribute</text>
</a>
</g>
</g>
<!-- Node0&#45;&gt;Node6 -->
<g id="edge232_Node000000_Node000006" class="edge">
<title>Node0&#45;&gt;Node6</title>
<g id="a_edge232_Node000000_Node000006"><a xlink:title=" ">
<path fill="none" stroke="#63b8ff" d="M45.24,-322.68C56.92,-332.92 72.97,-345.62 89,-354 95.37,-357.33 102.27,-360.28 109.25,-362.88"/>
<polygon fill="#63b8ff" stroke="#63b8ff" points="47.34,-319.86 37.57,-315.77 42.65,-325.06 47.34,-319.86"/>
</a>
</g>
</g>
<!-- Node7 -->
<g id="Node000007" class="node">
<title>Node7</title>
<g id="a_Node000007"><a xlink:href="classOFT_1_1Attributes_1_1Editors_1_1PostValueModeAttribute.html" target="_top" xlink:title=" ">
<polygon fill="white" stroke="#666666" points="236.5,-345 98.5,-345 98.5,-315 236.5,-315 236.5,-345"/>
<text text-anchor="start" x="106.5" y="-333" font-family="Helvetica" font-size="10.00">OFT.Attributes.Editors.Post</text>
<text text-anchor="middle" x="167.5" y="-322" font-family="Helvetica" font-size="10.00">ValueModeAttribute</text>
</a>
</g>
</g>
<!-- Node0&#45;&gt;Node7 -->
<g id="edge233_Node000000_Node000007" class="edge">
<title>Node0&#45;&gt;Node7</title>
<g id="a_edge233_Node000000_Node000007"><a xlink:title=" ">
<path fill="none" stroke="#63b8ff" d="M63.49,-312.21C74.17,-314.06 86.24,-316.14 98.27,-318.22"/>
<polygon fill="#63b8ff" stroke="#63b8ff" points="63.77,-308.71 53.32,-310.46 62.58,-315.61 63.77,-308.71"/>
</a>
</g>
</g>
<!-- Node8 -->
<g id="Node000008" class="node">
<title>Node8</title>
<g id="a_Node000008"><a xlink:href="classOFT_1_1Attributes_1_1Editors_1_1SelectDirectoryEditorAttribute.html" target="_top" xlink:title=" ">
<polygon fill="white" stroke="#666666" points="240.5,-297 94.5,-297 94.5,-267 240.5,-267 240.5,-297"/>
<text text-anchor="start" x="102.5" y="-285" font-family="Helvetica" font-size="10.00">OFT.Attributes.Editors.Select</text>
<text text-anchor="middle" x="167.5" y="-274" font-family="Helvetica" font-size="10.00">DirectoryEditorAttribute</text>
</a>
</g>
</g>
<!-- Node0&#45;&gt;Node8 -->
<g id="edge234_Node000000_Node000008" class="edge">
<title>Node0&#45;&gt;Node8</title>
<g id="a_edge234_Node000000_Node000008"><a xlink:title=" ">
<path fill="none" stroke="#63b8ff" d="M63.25,-299.83C72.86,-298.17 83.6,-296.31 94.43,-294.44"/>
<polygon fill="#63b8ff" stroke="#63b8ff" points="62.58,-296.39 53.32,-301.54 63.77,-303.29 62.58,-296.39"/>
</a>
</g>
</g>
<!-- Node9 -->
<g id="Node000009" class="node">
<title>Node9</title>
<g id="a_Node000009"><a xlink:href="classOFT_1_1Attributes_1_1Editors_1_1SelectFileEditorAttribute.html" target="_top" xlink:title=" ">
<polygon fill="white" stroke="#666666" points="240.5,-249 94.5,-249 94.5,-219 240.5,-219 240.5,-249"/>
<text text-anchor="start" x="102.5" y="-237" font-family="Helvetica" font-size="10.00">OFT.Attributes.Editors.Select</text>
<text text-anchor="middle" x="167.5" y="-226" font-family="Helvetica" font-size="10.00">FileEditorAttribute</text>
</a>
</g>
</g>
<!-- Node0&#45;&gt;Node9 -->
<g id="edge235_Node000000_Node000009" class="edge">
<title>Node0&#45;&gt;Node9</title>
<g id="a_edge235_Node000000_Node000009"><a xlink:title=" ">
<path fill="none" stroke="#63b8ff" d="M45.24,-289.32C56.92,-279.08 72.97,-266.38 89,-258 95.37,-254.67 102.27,-251.72 109.25,-249.12"/>
<polygon fill="#63b8ff" stroke="#63b8ff" points="42.65,-286.94 37.57,-296.23 47.34,-292.14 42.65,-286.94"/>
</a>
</g>
</g>
<!-- Node10 -->
<g id="Node000010" class="node">
<title>Node10</title>
<g id="a_Node000010"><a xlink:href="classOFT_1_1Attributes_1_1Editors_1_1TextEditorAttribute.html" target="_top" xlink:title="Represents an attribute that provides additional metadata for controlling text editors.">
<polygon fill="white" stroke="#666666" points="236,-201 99,-201 99,-171 236,-171 236,-201"/>
<text text-anchor="start" x="107" y="-189" font-family="Helvetica" font-size="10.00">OFT.Attributes.Editors.Text</text>
<text text-anchor="middle" x="167.5" y="-178" font-family="Helvetica" font-size="10.00">EditorAttribute</text>
</a>
</g>
</g>
<!-- Node0&#45;&gt;Node10 -->
<g id="edge236_Node000000_Node000010" class="edge">
<title>Node0&#45;&gt;Node10</title>
<g id="a_edge236_Node000000_Node000010"><a xlink:title=" ">
<path fill="none" stroke="#63b8ff" d="M35,-286.74C44.42,-265.02 62.61,-230.09 89,-210 93.48,-206.59 98.46,-203.66 103.66,-201.14"/>
<polygon fill="#63b8ff" stroke="#63b8ff" points="31.66,-285.65 31.08,-296.23 38.13,-288.32 31.66,-285.65"/>
</a>
</g>
</g>
<!-- Node11 -->
<g id="Node000011" class="node">
<title>Node11</title>
<g id="a_Node000011"><a xlink:href="classOFT_1_1Attributes_1_1IgnoreCloneAttribute.html" target="_top" xlink:title="Ignore clone property or field.">
<polygon fill="white" stroke="#666666" points="235.5,-153 99.5,-153 99.5,-123 235.5,-123 235.5,-153"/>
<text text-anchor="start" x="107.5" y="-141" font-family="Helvetica" font-size="10.00">OFT.Attributes.IgnoreClone</text>
<text text-anchor="middle" x="167.5" y="-130" font-family="Helvetica" font-size="10.00">Attribute</text>
</a>
</g>
</g>
<!-- Node0&#45;&gt;Node11 -->
<g id="edge237_Node000000_Node000011" class="edge">
<title>Node0&#45;&gt;Node11</title>
<g id="a_edge237_Node000000_Node000011"><a xlink:title=" ">
<path fill="none" stroke="#63b8ff" d="M30.51,-286.37C36.27,-255.47 51.78,-195.56 89,-162 92.77,-158.6 97.01,-155.69 101.51,-153.19"/>
<polygon fill="#63b8ff" stroke="#63b8ff" points="27.04,-285.89 28.8,-296.33 33.94,-287.07 27.04,-285.89"/>
</a>
</g>
</g>
<!-- Node12 -->
<g id="Node000012" class="node">
<title>Node12</title>
<g id="a_Node000012"><a xlink:href="classOFT_1_1Attributes_1_1LogoAttribute.html" target="_top" xlink:title=" ">
<polygon fill="white" stroke="#666666" points="238,-104.5 97,-104.5 97,-85.5 238,-85.5 238,-104.5"/>
<text text-anchor="middle" x="167.5" y="-92.5" font-family="Helvetica" font-size="10.00">OFT.Attributes.LogoAttribute</text>
</a>
</g>
</g>
<!-- Node0&#45;&gt;Node12 -->
<g id="edge238_Node000000_Node000012" class="edge">
<title>Node0&#45;&gt;Node12</title>
<g id="a_edge238_Node000000_Node000012"><a xlink:title=" ">
<path fill="none" stroke="#63b8ff" d="M27.82,-286.29C29.55,-247.39 39.15,-160.5 89,-114 93.05,-110.22 97.73,-107.16 102.74,-104.68"/>
<polygon fill="#63b8ff" stroke="#63b8ff" points="24.32,-286.21 27.5,-296.32 31.31,-286.43 24.32,-286.21"/>
</a>
</g>
</g>
<!-- Node13 -->
<g id="Node000013" class="node">
<title>Node13</title>
<g id="a_Node000013"><a xlink:href="classOFT_1_1Attributes_1_1MappingAttribute.html" target="_top" xlink:title=" ">
<polygon fill="white" stroke="#666666" points="246,-67.5 89,-67.5 89,-48.5 246,-48.5 246,-67.5"/>
<text text-anchor="middle" x="167.5" y="-55.5" font-family="Helvetica" font-size="10.00">OFT.Attributes.MappingAttribute</text>
</a>
</g>
</g>
<!-- Node0&#45;&gt;Node13 -->
<g id="edge239_Node000000_Node000013" class="edge">
<title>Node0&#45;&gt;Node13</title>
<g id="a_edge239_Node000000_Node000013"><a xlink:title=" ">
<path fill="none" stroke="#63b8ff" d="M26.59,-285.93C25.73,-241.55 30.26,-134.47 89,-77 92.86,-73.22 97.35,-70.15 102.17,-67.67"/>
<polygon fill="#63b8ff" stroke="#63b8ff" points="23.09,-286.14 26.9,-296.02 30.09,-285.92 23.09,-286.14"/>
</a>
</g>
</g>
<!-- Node14 -->
<g id="Node000014" class="node">
<title>Node14</title>
<g id="a_Node000014"><a xlink:href="classOFT_1_1Attributes_1_1ReferralLinkAttribute.html" target="_top" xlink:title=" ">
<polygon fill="white" stroke="#666666" points="235,-30 100,-30 100,0 235,0 235,-30"/>
<text text-anchor="start" x="108" y="-18" font-family="Helvetica" font-size="10.00">OFT.Attributes.ReferralLink</text>
<text text-anchor="middle" x="167.5" y="-7" font-family="Helvetica" font-size="10.00">Attribute</text>
</a>
</g>
</g>
<!-- Node0&#45;&gt;Node14 -->
<g id="edge240_Node000000_Node000014" class="edge">
<title>Node0&#45;&gt;Node14</title>
<g id="a_edge240_Node000000_Node000014"><a xlink:title=" ">
<path fill="none" stroke="#63b8ff" d="M29.56,-286.18C35.68,-230.87 55.47,-76.5 89,-40 92.54,-36.15 96.67,-32.89 101.16,-30.13"/>
<polygon fill="#63b8ff" stroke="#63b8ff" points="26.05,-286.09 28.46,-296.4 33.01,-286.83 26.05,-286.09"/>
</a>
</g>
</g>
</g>
</svg>
