<?xml version="1.0" encoding="UTF-8" standalone="no"?>
<!DOCTYPE svg PUBLIC "-//W3C//DTD SVG 1.1//EN"
 "http://www.w3.org/Graphics/SVG/1.1/DTD/svg11.dtd">
<!-- Generated by graphviz version 2.44.0 (0)
 -->
<!-- Title: Graphical Class Hierarchy Pages: 1 -->
<svg width="271pt" height="134pt"
 viewBox="0.00 0.00 271.00 134.00" xmlns="http://www.w3.org/2000/svg" xmlns:xlink="http://www.w3.org/1999/xlink">
<g id="graph0" class="graph" transform="scale(1 1) rotate(0) translate(4 130)">
<title>Graphical Class Hierarchy</title>
<!-- Node0 -->
<g id="Node000000" class="node">
<title>Node0</title>
<g id="a_Node000000"><a xlink:title=" ">
<polygon fill="#e0e0e0" stroke="#999999" points="62,-72.5 0,-72.5 0,-53.5 62,-53.5 62,-72.5"/>
<text text-anchor="middle" x="31" y="-60.5" font-family="Helvetica" font-size="10.00">EventArgs</text>
</a>
</g>
</g>
<!-- Node1 -->
<g id="Node000001" class="node">
<title>Node1</title>
<g id="a_Node000001"><a xlink:href="classATAS_1_1DataFeedsCore_1_1ConnectionStateEventArgs.html" target="_top" xlink:title=" ">
<polygon fill="white" stroke="#666666" points="263,-126 98,-126 98,-96 263,-96 263,-126"/>
<text text-anchor="start" x="106" y="-114" font-family="Helvetica" font-size="10.00">ATAS.DataFeedsCore.Connection</text>
<text text-anchor="middle" x="180.5" y="-103" font-family="Helvetica" font-size="10.00">StateEventArgs</text>
</a>
</g>
</g>
<!-- Node0&#45;&gt;Node1 -->
<g id="edge241_Node000000_Node000001" class="edge">
<title>Node0&#45;&gt;Node1</title>
<g id="a_edge241_Node000000_Node000001"><a xlink:title=" ">
<path fill="none" stroke="#63b8ff" d="M66.88,-76.14C76.89,-79.79 87.84,-83.66 98,-87 107.25,-90.04 117.14,-93.11 126.74,-95.99"/>
<polygon fill="#63b8ff" stroke="#63b8ff" points="67.85,-72.77 57.26,-72.6 65.43,-79.34 67.85,-72.77"/>
</a>
</g>
</g>
<!-- Node2 -->
<g id="Node000002" class="node">
<title>Node2</title>
<g id="a_Node000002"><a xlink:href="classATAS_1_1Strategies_1_1StrategyNotificationEventArgs.html" target="_top" xlink:title="Provides data for the StrategyNotification event.">
<polygon fill="white" stroke="#666666" points="244.5,-78 116.5,-78 116.5,-48 244.5,-48 244.5,-78"/>
<text text-anchor="start" x="124.5" y="-66" font-family="Helvetica" font-size="10.00">ATAS.Strategies.Strategy</text>
<text text-anchor="middle" x="180.5" y="-55" font-family="Helvetica" font-size="10.00">NotificationEventArgs</text>
</a>
</g>
</g>
<!-- Node0&#45;&gt;Node2 -->
<g id="edge242_Node000000_Node000002" class="edge">
<title>Node0&#45;&gt;Node2</title>
<g id="a_edge242_Node000000_Node000002"><a xlink:title=" ">
<path fill="none" stroke="#63b8ff" d="M72.22,-63C85.87,-63 101.47,-63 116.46,-63"/>
<polygon fill="#63b8ff" stroke="#63b8ff" points="72.2,-59.5 62.2,-63 72.2,-66.5 72.2,-59.5"/>
</a>
</g>
</g>
<!-- Node3 -->
<g id="Node000003" class="node">
<title>Node3</title>
<g id="a_Node000003"><a xlink:href="classATAS_1_1Strategies_1_1StrategyStateChangedEventArgs.html" target="_top" xlink:title="Provides data for the StrategyStateChanged event.">
<polygon fill="white" stroke="#666666" points="244.5,-30 116.5,-30 116.5,0 244.5,0 244.5,-30"/>
<text text-anchor="start" x="124.5" y="-18" font-family="Helvetica" font-size="10.00">ATAS.Strategies.Strategy</text>
<text text-anchor="middle" x="180.5" y="-7" font-family="Helvetica" font-size="10.00">StateChangedEventArgs</text>
</a>
</g>
</g>
<!-- Node0&#45;&gt;Node3 -->
<g id="edge243_Node000000_Node000003" class="edge">
<title>Node0&#45;&gt;Node3</title>
<g id="a_edge243_Node000000_Node000003"><a xlink:title=" ">
<path fill="none" stroke="#63b8ff" d="M66.88,-49.86C76.89,-46.21 87.84,-42.34 98,-39 107.25,-35.96 117.14,-32.89 126.74,-30.01"/>
<polygon fill="#63b8ff" stroke="#63b8ff" points="65.43,-46.66 57.26,-53.4 67.85,-53.23 65.43,-46.66"/>
</a>
</g>
</g>
</g>
</svg>
