<?xml version="1.0" encoding="UTF-8" standalone="no"?>
<!DOCTYPE svg PUBLIC "-//W3C//DTD SVG 1.1//EN"
 "http://www.w3.org/Graphics/SVG/1.1/DTD/svg11.dtd">
<!-- Generated by graphviz version 2.44.0 (0)
 -->
<!-- Title: Graphical Class Hierarchy Pages: 1 -->
<svg width="270pt" height="230pt"
 viewBox="0.00 0.00 270.00 230.00" xmlns="http://www.w3.org/2000/svg" xmlns:xlink="http://www.w3.org/1999/xlink">
<g id="graph0" class="graph" transform="scale(1 1) rotate(0) translate(4 226)">
<title>Graphical Class Hierarchy</title>
<!-- Node0 -->
<g id="Node000000" class="node">
<title>Node0</title>
<g id="a_Node000000"><a xlink:title=" ">
<polygon fill="#e0e0e0" stroke="#999999" points="59,-120.5 0,-120.5 0,-101.5 59,-101.5 59,-120.5"/>
<text text-anchor="middle" x="29.5" y="-108.5" font-family="Helvetica" font-size="10.00">Exception</text>
</a>
</g>
</g>
<!-- Node1 -->
<g id="Node000001" class="node">
<title>Node1</title>
<g id="a_Node000001"><a xlink:href="classATAS_1_1DataFeedsCore_1_1ConnectorWebsocket_1_1WebsocketException.html" target="_top" xlink:title=" ">
<polygon fill="white" stroke="#666666" points="259,-222 98,-222 98,-192 259,-192 259,-222"/>
<text text-anchor="start" x="106" y="-210" font-family="Helvetica" font-size="10.00">ATAS.DataFeedsCore.Connector</text>
<text text-anchor="middle" x="178.5" y="-199" font-family="Helvetica" font-size="10.00">Websocket.WebsocketException</text>
</a>
</g>
</g>
<!-- Node0&#45;&gt;Node1 -->
<g id="edge244_Node000000_Node000001" class="edge">
<title>Node0&#45;&gt;Node1</title>
<g id="a_edge244_Node000000_Node000001"><a xlink:title=" ">
<path fill="none" stroke="#63b8ff" d="M42.68,-129.69C54.27,-146.03 73.15,-169.25 95,-183 100.43,-186.42 106.36,-189.36 112.48,-191.9"/>
<polygon fill="#63b8ff" stroke="#63b8ff" points="45.27,-127.26 36.73,-120.98 39.49,-131.21 45.27,-127.26"/>
</a>
</g>
</g>
<!-- Node2 -->
<g id="Node000002" class="node">
<title>Node2</title>
<g id="a_Node000002"><a xlink:href="classATAS_1_1DataFeedsCore_1_1Database_1_1DatabaseException.html" target="_top" xlink:title=" ">
<polygon fill="white" stroke="#666666" points="258.5,-174 98.5,-174 98.5,-144 258.5,-144 258.5,-174"/>
<text text-anchor="start" x="106.5" y="-162" font-family="Helvetica" font-size="10.00">ATAS.DataFeedsCore.Database.</text>
<text text-anchor="middle" x="178.5" y="-151" font-family="Helvetica" font-size="10.00">DatabaseException</text>
</a>
</g>
</g>
<!-- Node0&#45;&gt;Node2 -->
<g id="edge245_Node000000_Node000002" class="edge">
<title>Node0&#45;&gt;Node2</title>
<g id="a_edge245_Node000000_Node000002"><a xlink:title=" ">
<path fill="none" stroke="#63b8ff" d="M64.31,-124.11C74.16,-127.78 84.96,-131.68 95,-135 104.2,-138.05 114.05,-141.09 123.63,-143.94"/>
<polygon fill="#63b8ff" stroke="#63b8ff" points="65.45,-120.8 54.85,-120.54 62.97,-127.35 65.45,-120.8"/>
</a>
</g>
</g>
<!-- Node3 -->
<g id="Node000003" class="node">
<title>Node3</title>
<g id="a_Node000003"><a xlink:href="classATAS_1_1DataFeedsCore_1_1Exceptions_1_1ConnectorNotConnectedException.html" target="_top" xlink:title=" ">
<polygon fill="white" stroke="#666666" points="262,-126 95,-126 95,-96 262,-96 262,-126"/>
<text text-anchor="start" x="103" y="-114" font-family="Helvetica" font-size="10.00">ATAS.DataFeedsCore.Exceptions.</text>
<text text-anchor="middle" x="178.5" y="-103" font-family="Helvetica" font-size="10.00">ConnectorNotConnectedException</text>
</a>
</g>
</g>
<!-- Node0&#45;&gt;Node3 -->
<g id="edge246_Node000000_Node000003" class="edge">
<title>Node0&#45;&gt;Node3</title>
<g id="a_edge246_Node000000_Node000003"><a xlink:title=" ">
<path fill="none" stroke="#63b8ff" d="M69.24,-111C77.23,-111 85.92,-111 94.81,-111"/>
<polygon fill="#63b8ff" stroke="#63b8ff" points="69.19,-107.5 59.19,-111 69.19,-114.5 69.19,-107.5"/>
</a>
</g>
</g>
<!-- Node4 -->
<g id="Node000004" class="node">
<title>Node4</title>
<g id="a_Node000004"><a xlink:href="classATAS_1_1DataFeedsCore_1_1Exceptions_1_1ExchangeException.html" target="_top" xlink:title="An exception means the Exchange sent us an logic error like violating business rules It allows us to ...">
<polygon fill="white" stroke="#666666" points="262,-78 95,-78 95,-48 262,-48 262,-78"/>
<text text-anchor="start" x="103" y="-66" font-family="Helvetica" font-size="10.00">ATAS.DataFeedsCore.Exceptions.</text>
<text text-anchor="middle" x="178.5" y="-55" font-family="Helvetica" font-size="10.00">ExchangeException</text>
</a>
</g>
</g>
<!-- Node0&#45;&gt;Node4 -->
<g id="edge247_Node000000_Node000004" class="edge">
<title>Node0&#45;&gt;Node4</title>
<g id="a_edge247_Node000000_Node000004"><a xlink:title=" ">
<path fill="none" stroke="#63b8ff" d="M64.31,-97.89C74.16,-94.22 84.96,-90.32 95,-87 104.2,-83.95 114.05,-80.91 123.63,-78.06"/>
<polygon fill="#63b8ff" stroke="#63b8ff" points="62.97,-94.65 54.85,-101.46 65.45,-101.2 62.97,-94.65"/>
</a>
</g>
</g>
<!-- Node5 -->
<g id="Node000005" class="node">
<title>Node5</title>
<g id="a_Node000005"><a xlink:href="classATAS_1_1DataFeedsCore_1_1Exceptions_1_1FatalConnectionErrorEcxeption.html" target="_top" xlink:title=" ">
<polygon fill="white" stroke="#666666" points="262,-30 95,-30 95,0 262,0 262,-30"/>
<text text-anchor="start" x="103" y="-18" font-family="Helvetica" font-size="10.00">ATAS.DataFeedsCore.Exceptions.</text>
<text text-anchor="middle" x="178.5" y="-7" font-family="Helvetica" font-size="10.00">FatalConnectionErrorEcxeption</text>
</a>
</g>
</g>
<!-- Node0&#45;&gt;Node5 -->
<g id="edge248_Node000000_Node000005" class="edge">
<title>Node0&#45;&gt;Node5</title>
<g id="a_edge248_Node000000_Node000005"><a xlink:title=" ">
<path fill="none" stroke="#63b8ff" d="M42.68,-92.31C54.27,-75.97 73.15,-52.75 95,-39 100.43,-35.58 106.36,-32.64 112.48,-30.1"/>
<polygon fill="#63b8ff" stroke="#63b8ff" points="39.49,-90.79 36.73,-101.02 45.27,-94.74 39.49,-90.79"/>
</a>
</g>
</g>
</g>
</svg>
