<?xml version="1.0" encoding="UTF-8" standalone="no"?>
<!DOCTYPE svg PUBLIC "-//W3C//DTD SVG 1.1//EN"
 "http://www.w3.org/Graphics/SVG/1.1/DTD/svg11.dtd">
<!-- Generated by graphviz version 2.44.0 (0)
 -->
<!-- Title: Graphical Class Hierarchy Pages: 1 -->
<svg width="268pt" height="86pt"
 viewBox="0.00 0.00 268.00 86.00" xmlns="http://www.w3.org/2000/svg" xmlns:xlink="http://www.w3.org/1999/xlink">
<g id="graph0" class="graph" transform="scale(1 1) rotate(0) translate(4 82)">
<title>Graphical Class Hierarchy</title>
<!-- Node0 -->
<g id="Node000000" class="node">
<title>Node0</title>
<g id="a_Node000000"><a xlink:title=" ">
<polygon fill="#e0e0e0" stroke="#999999" points="62,-48.5 0,-48.5 0,-29.5 62,-29.5 62,-48.5"/>
<text text-anchor="middle" x="31" y="-36.5" font-family="Helvetica" font-size="10.00">IComparer</text>
</a>
</g>
</g>
<!-- Node1 -->
<g id="Node000001" class="node">
<title>Node1</title>
<g id="a_Node000001"><a xlink:href="classATAS_1_1DataFeedsCore_1_1Dom_1_1PriceComparer.html" target="_top" xlink:title=" ">
<polygon fill="white" stroke="#666666" points="260,-78 98,-78 98,-48 260,-48 260,-78"/>
<text text-anchor="start" x="106" y="-66" font-family="Helvetica" font-size="10.00">ATAS.DataFeedsCore.Dom.Price</text>
<text text-anchor="middle" x="179" y="-55" font-family="Helvetica" font-size="10.00">Comparer</text>
</a>
</g>
</g>
<!-- Node0&#45;&gt;Node1 -->
<g id="edge249_Node000000_Node000001" class="edge">
<title>Node0&#45;&gt;Node1</title>
<g id="a_edge249_Node000000_Node000001"><a xlink:title=" ">
<path fill="none" stroke="#63b8ff" d="M72.34,-45.63C80.33,-46.94 88.98,-48.37 97.78,-49.81"/>
<polygon fill="#63b8ff" stroke="#63b8ff" points="72.69,-42.14 62.25,-43.97 71.55,-49.05 72.69,-42.14"/>
</a>
</g>
</g>
<!-- Node2 -->
<g id="Node000002" class="node">
<title>Node2</title>
<g id="a_Node000002"><a xlink:href="classATAS_1_1DataFeedsCore_1_1MarketDepthComparer.html" target="_top" xlink:title=" ">
<polygon fill="white" stroke="#666666" points="252,-30 106,-30 106,0 252,0 252,-30"/>
<text text-anchor="start" x="114" y="-18" font-family="Helvetica" font-size="10.00">ATAS.DataFeedsCore.Market</text>
<text text-anchor="middle" x="179" y="-7" font-family="Helvetica" font-size="10.00">DepthComparer</text>
</a>
</g>
</g>
<!-- Node0&#45;&gt;Node2 -->
<g id="edge250_Node000000_Node000002" class="edge">
<title>Node0&#45;&gt;Node2</title>
<g id="a_edge250_Node000000_Node000002"><a xlink:title=" ">
<path fill="none" stroke="#63b8ff" d="M72.3,-32.38C82.77,-30.65 94.36,-28.75 105.93,-26.85"/>
<polygon fill="#63b8ff" stroke="#63b8ff" points="71.55,-28.95 62.25,-34.03 72.69,-35.86 71.55,-28.95"/>
</a>
</g>
</g>
</g>
</svg>
