<?xml version="1.0" encoding="UTF-8" standalone="no"?>
<!DOCTYPE svg PUBLIC "-//W3C//DTD SVG 1.1//EN"
 "http://www.w3.org/Graphics/SVG/1.1/DTD/svg11.dtd">
<!-- Generated by graphviz version 2.44.0 (0)
 -->
<!-- Title: ATAS.DataFeedsCore.IEntity Pages: 1 -->
<svg width="367pt" height="861pt"
 viewBox="0.00 0.00 367.00 860.50" xmlns="http://www.w3.org/2000/svg" xmlns:xlink="http://www.w3.org/1999/xlink">
<g id="graph0" class="graph" transform="scale(1 1) rotate(0) translate(4 856.5)">
<title>ATAS.DataFeedsCore.IEntity</title>
<!-- Node1 -->
<g id="Node000001" class="node">
<title>Node1</title>
<g id="a_Node000001"><a xlink:title="Represents an entity in the application.">
<polygon fill="#999999" stroke="#666666" points="144,-425 0,-425 0,-406 144,-406 144,-425"/>
<text text-anchor="middle" x="72" y="-413" font-family="Helvetica" font-size="10.00">ATAS.DataFeedsCore.IEntity</text>
</a>
</g>
</g>
<!-- Node2 -->
<g id="Node000002" class="node">
<title>Node2</title>
<g id="a_Node000002"><a xlink:href="classATAS_1_1DataFeedsCore_1_1Commissions_1_1CommissionGroup.html" target="_top" xlink:title=" ">
<polygon fill="white" stroke="#666666" points="359,-852.5 180,-852.5 180,-822.5 359,-822.5 359,-852.5"/>
<text text-anchor="start" x="188" y="-840.5" font-family="Helvetica" font-size="10.00">ATAS.DataFeedsCore.Commissions.</text>
<text text-anchor="middle" x="269.5" y="-829.5" font-family="Helvetica" font-size="10.00">CommissionGroup</text>
</a>
</g>
</g>
<!-- Node1&#45;&gt;Node2 -->
<g id="edge1_Node000001_Node000002" class="edge">
<title>Node1&#45;&gt;Node2</title>
<g id="a_edge1_Node000001_Node000002"><a xlink:title=" ">
<path fill="none" stroke="#63b8ff" d="M75.69,-435.24C85.94,-507.76 124.83,-758.21 180,-813.5 183.37,-816.88 187.17,-819.8 191.25,-822.32"/>
<polygon fill="#63b8ff" stroke="#63b8ff" points="79.13,-434.6 74.29,-425.18 72.2,-435.57 79.13,-434.6"/>
</a>
</g>
</g>
<!-- Node3 -->
<g id="Node000003" class="node">
<title>Node3</title>
<g id="a_Node000003"><a xlink:href="classATAS_1_1DataFeedsCore_1_1Exchange.html" target="_top" xlink:title=" ">
<polygon fill="white" stroke="#666666" points="348.5,-804 190.5,-804 190.5,-785 348.5,-785 348.5,-804"/>
<text text-anchor="middle" x="269.5" y="-792" font-family="Helvetica" font-size="10.00">ATAS.DataFeedsCore.Exchange</text>
</a>
</g>
</g>
<!-- Node1&#45;&gt;Node3 -->
<g id="edge2_Node000001_Node000003" class="edge">
<title>Node1&#45;&gt;Node3</title>
<g id="a_edge2_Node000001_Node000003"><a xlink:title=" ">
<path fill="none" stroke="#63b8ff" d="M72.41,-435.16C71.73,-495.79 78.4,-681.47 180,-775.5 184.04,-779.24 188.62,-782.31 193.54,-784.82"/>
<polygon fill="#63b8ff" stroke="#63b8ff" points="75.91,-435.12 72.61,-425.05 68.91,-434.98 75.91,-435.12"/>
</a>
</g>
</g>
<!-- Node4 -->
<g id="Node000004" class="node">
<title>Node4</title>
<g id="a_Node000004"><a xlink:href="classATAS_1_1DataFeedsCore_1_1MarketByOrder.html" target="_top" xlink:title="Market by Order (MBO) describes an order&#45;based data feed that provides the ability to view individual...">
<polygon fill="white" stroke="#666666" points="342.5,-766.5 196.5,-766.5 196.5,-736.5 342.5,-736.5 342.5,-766.5"/>
<text text-anchor="start" x="204.5" y="-754.5" font-family="Helvetica" font-size="10.00">ATAS.DataFeedsCore.Market</text>
<text text-anchor="middle" x="269.5" y="-743.5" font-family="Helvetica" font-size="10.00">ByOrder</text>
</a>
</g>
</g>
<!-- Node1&#45;&gt;Node4 -->
<g id="edge3_Node000001_Node000004" class="edge">
<title>Node1&#45;&gt;Node4</title>
<g id="a_edge3_Node000001_Node000004"><a xlink:title=" ">
<path fill="none" stroke="#63b8ff" d="M73.68,-435.18C76.66,-490.02 92.79,-645.83 180,-727.5 184.76,-731.96 190.27,-735.61 196.16,-738.59"/>
<polygon fill="#63b8ff" stroke="#63b8ff" points="77.17,-434.91 73.22,-425.08 70.18,-435.23 77.17,-434.91"/>
</a>
</g>
</g>
<!-- Node5 -->
<g id="Node000005" class="node">
<title>Node5</title>
<g id="a_Node000005"><a xlink:href="classATAS_1_1DataFeedsCore_1_1MarketDepth.html" target="_top" xlink:title="Represents a market depth entry.">
<polygon fill="white" stroke="#666666" points="342.5,-718.5 196.5,-718.5 196.5,-688.5 342.5,-688.5 342.5,-718.5"/>
<text text-anchor="start" x="204.5" y="-706.5" font-family="Helvetica" font-size="10.00">ATAS.DataFeedsCore.Market</text>
<text text-anchor="middle" x="269.5" y="-695.5" font-family="Helvetica" font-size="10.00">Depth</text>
</a>
</g>
</g>
<!-- Node1&#45;&gt;Node5 -->
<g id="edge4_Node000001_Node000005" class="edge">
<title>Node1&#45;&gt;Node5</title>
<g id="a_edge4_Node000001_Node000005"><a xlink:title=" ">
<path fill="none" stroke="#63b8ff" d="M75.09,-435.37C81.35,-484.5 104.45,-612.53 180,-679.5 184.88,-683.83 190.47,-687.39 196.42,-690.31"/>
<polygon fill="#63b8ff" stroke="#63b8ff" points="78.54,-434.67 73.89,-425.15 71.58,-435.49 78.54,-434.67"/>
</a>
</g>
</g>
<!-- Node6 -->
<g id="Node000006" class="node">
<title>Node6</title>
<g id="a_Node000006"><a xlink:href="classATAS_1_1DataFeedsCore_1_1MyTrade.html" target="_top" xlink:title="Represents a trade entity in the system.">
<polygon fill="white" stroke="#666666" points="346,-670 193,-670 193,-651 346,-651 346,-670"/>
<text text-anchor="middle" x="269.5" y="-658" font-family="Helvetica" font-size="10.00">ATAS.DataFeedsCore.MyTrade</text>
</a>
</g>
</g>
<!-- Node1&#45;&gt;Node6 -->
<g id="edge5_Node000001_Node000006" class="edge">
<title>Node1&#45;&gt;Node6</title>
<g id="a_edge5_Node000001_Node000006"><a xlink:title=" ">
<path fill="none" stroke="#63b8ff" d="M76.21,-435.25C84.56,-479.82 111.27,-588.55 180,-642.5 184.32,-645.89 189.11,-648.69 194.16,-650.99"/>
<polygon fill="#63b8ff" stroke="#63b8ff" points="79.61,-434.39 74.43,-425.14 72.72,-435.6 79.61,-434.39"/>
</a>
</g>
</g>
<!-- Node7 -->
<g id="Node000007" class="node">
<title>Node7</title>
<g id="a_Node000007"><a xlink:href="classATAS_1_1DataFeedsCore_1_1News.html" target="_top" xlink:title=" ">
<polygon fill="white" stroke="#666666" points="340,-633 199,-633 199,-614 340,-614 340,-633"/>
<text text-anchor="middle" x="269.5" y="-621" font-family="Helvetica" font-size="10.00">ATAS.DataFeedsCore.News</text>
</a>
</g>
</g>
<!-- Node1&#45;&gt;Node7 -->
<g id="edge6_Node000001_Node000007" class="edge">
<title>Node1&#45;&gt;Node7</title>
<g id="a_edge6_Node000001_Node000007"><a xlink:title=" ">
<path fill="none" stroke="#63b8ff" d="M78.13,-435.21C89.41,-474.38 120.26,-562.01 180,-605.5 185.7,-609.65 192.14,-612.9 198.87,-615.44"/>
<polygon fill="#63b8ff" stroke="#63b8ff" points="81.44,-434.03 75.41,-425.31 74.69,-435.88 81.44,-434.03"/>
</a>
</g>
</g>
<!-- Node8 -->
<g id="Node000008" class="node">
<title>Node8</title>
<g id="a_Node000008"><a xlink:href="classATAS_1_1DataFeedsCore_1_1Order.html" target="_top" xlink:title="Represents an order for trading on a financial exchange.">
<polygon fill="white" stroke="#666666" points="339.5,-596 199.5,-596 199.5,-577 339.5,-577 339.5,-596"/>
<text text-anchor="middle" x="269.5" y="-584" font-family="Helvetica" font-size="10.00">ATAS.DataFeedsCore.Order</text>
</a>
</g>
</g>
<!-- Node1&#45;&gt;Node8 -->
<g id="edge7_Node000001_Node000008" class="edge">
<title>Node1&#45;&gt;Node8</title>
<g id="a_edge7_Node000001_Node000008"><a xlink:title=" ">
<path fill="none" stroke="#63b8ff" d="M80.72,-434.76C95.01,-467.81 128.89,-534.97 180,-568.5 185.9,-572.37 192.46,-575.44 199.27,-577.86"/>
<polygon fill="#63b8ff" stroke="#63b8ff" points="83.86,-433.2 76.77,-425.32 77.4,-435.9 83.86,-433.2"/>
</a>
</g>
</g>
<!-- Node9 -->
<g id="Node000009" class="node">
<title>Node9</title>
<g id="a_Node000009"><a xlink:href="classATAS_1_1DataFeedsCore_1_1Portfolio.html" target="_top" xlink:title="Represents a portfolio entity with various properties related to account balance, Profit and Loss (Pn...">
<polygon fill="white" stroke="#666666" points="345.5,-559 193.5,-559 193.5,-540 345.5,-540 345.5,-559"/>
<text text-anchor="middle" x="269.5" y="-547" font-family="Helvetica" font-size="10.00">ATAS.DataFeedsCore.Portfolio</text>
</a>
</g>
</g>
<!-- Node1&#45;&gt;Node9 -->
<g id="edge8_Node000001_Node000009" class="edge">
<title>Node1&#45;&gt;Node9</title>
<g id="a_edge8_Node000001_Node000009"><a xlink:title=" ">
<path fill="none" stroke="#63b8ff" d="M84.43,-433.52C101.79,-459.3 137.34,-506.27 180,-530.5 186.83,-534.38 194.37,-537.47 202.08,-539.93"/>
<polygon fill="#63b8ff" stroke="#63b8ff" points="87.29,-431.5 78.88,-425.06 81.44,-435.34 87.29,-431.5"/>
</a>
</g>
</g>
<!-- Node10 -->
<g id="Node000010" class="node">
<title>Node10</title>
<g id="a_Node000010"><a xlink:href="classATAS_1_1DataFeedsCore_1_1PortfolioChange.html" target="_top" xlink:title=" ">
<polygon fill="white" stroke="#666666" points="345.5,-521.5 193.5,-521.5 193.5,-491.5 345.5,-491.5 345.5,-521.5"/>
<text text-anchor="start" x="201.5" y="-509.5" font-family="Helvetica" font-size="10.00">ATAS.DataFeedsCore.Portfolio</text>
<text text-anchor="middle" x="269.5" y="-498.5" font-family="Helvetica" font-size="10.00">Change</text>
</a>
</g>
</g>
<!-- Node1&#45;&gt;Node10 -->
<g id="edge9_Node000001_Node000010" class="edge">
<title>Node1&#45;&gt;Node10</title>
<g id="a_edge9_Node000001_Node000010"><a xlink:title=" ">
<path fill="none" stroke="#63b8ff" d="M93.59,-430.98C114.42,-446.01 148.02,-468.52 180,-482.5 187.59,-485.82 195.74,-488.77 203.92,-491.39"/>
<polygon fill="#63b8ff" stroke="#63b8ff" points="95.63,-428.14 85.49,-425.05 91.49,-433.78 95.63,-428.14"/>
</a>
</g>
</g>
<!-- Node11 -->
<g id="Node000011" class="node">
<title>Node11</title>
<g id="a_Node000011"><a xlink:href="classATAS_1_1DataFeedsCore_1_1PortfolioState.html" target="_top" xlink:title=" ">
<polygon fill="white" stroke="#666666" points="345.5,-473.5 193.5,-473.5 193.5,-443.5 345.5,-443.5 345.5,-473.5"/>
<text text-anchor="start" x="201.5" y="-461.5" font-family="Helvetica" font-size="10.00">ATAS.DataFeedsCore.Portfolio</text>
<text text-anchor="middle" x="269.5" y="-450.5" font-family="Helvetica" font-size="10.00">State</text>
</a>
</g>
</g>
<!-- Node1&#45;&gt;Node11 -->
<g id="edge10_Node000001_Node000011" class="edge">
<title>Node1&#45;&gt;Node11</title>
<g id="a_edge10_Node000001_Node000011"><a xlink:title=" ">
<path fill="none" stroke="#63b8ff" d="M126.23,-427.21C149.06,-432.23 176.01,-438.16 200.27,-443.49"/>
<polygon fill="#63b8ff" stroke="#63b8ff" points="126.91,-423.77 116.39,-425.04 125.4,-430.61 126.91,-423.77"/>
</a>
</g>
</g>
<!-- Node12 -->
<g id="Node000012" class="node">
<title>Node12</title>
<g id="a_Node000012"><a xlink:href="classATAS_1_1DataFeedsCore_1_1Position.html" target="_top" xlink:title="Represents a trading position.">
<polygon fill="white" stroke="#666666" points="345,-425 194,-425 194,-406 345,-406 345,-425"/>
<text text-anchor="middle" x="269.5" y="-413" font-family="Helvetica" font-size="10.00">ATAS.DataFeedsCore.Position</text>
</a>
</g>
</g>
<!-- Node1&#45;&gt;Node12 -->
<g id="edge11_Node000001_Node000012" class="edge">
<title>Node1&#45;&gt;Node12</title>
<g id="a_edge11_Node000001_Node000012"><a xlink:title=" ">
<path fill="none" stroke="#63b8ff" d="M154.48,-415.5C167.51,-415.5 180.94,-415.5 193.8,-415.5"/>
<polygon fill="#63b8ff" stroke="#63b8ff" points="154.13,-412 144.13,-415.5 154.13,-419 154.13,-412"/>
</a>
</g>
</g>
<!-- Node13 -->
<g id="Node000013" class="node">
<title>Node13</title>
<g id="a_Node000013"><a xlink:href="classATAS_1_1DataFeedsCore_1_1PositionState.html" target="_top" xlink:title=" ">
<polygon fill="white" stroke="#666666" points="345,-387.5 194,-387.5 194,-357.5 345,-357.5 345,-387.5"/>
<text text-anchor="start" x="202" y="-375.5" font-family="Helvetica" font-size="10.00">ATAS.DataFeedsCore.Position</text>
<text text-anchor="middle" x="269.5" y="-364.5" font-family="Helvetica" font-size="10.00">State</text>
</a>
</g>
</g>
<!-- Node1&#45;&gt;Node13 -->
<g id="edge12_Node000001_Node000013" class="edge">
<title>Node1&#45;&gt;Node13</title>
<g id="a_edge12_Node000001_Node000013"><a xlink:title=" ">
<path fill="none" stroke="#63b8ff" d="M126.23,-403.79C149.06,-398.77 176.01,-392.84 200.27,-387.51"/>
<polygon fill="#63b8ff" stroke="#63b8ff" points="125.4,-400.39 116.39,-405.96 126.91,-407.23 125.4,-400.39"/>
</a>
</g>
</g>
<!-- Node14 -->
<g id="Node000014" class="node">
<title>Node14</title>
<g id="a_Node000014"><a xlink:href="classATAS_1_1DataFeedsCore_1_1Security.html" target="_top" xlink:title="Represents a security entity used in the application.">
<polygon fill="white" stroke="#666666" points="345.5,-339 193.5,-339 193.5,-320 345.5,-320 345.5,-339"/>
<text text-anchor="middle" x="269.5" y="-327" font-family="Helvetica" font-size="10.00">ATAS.DataFeedsCore.Security</text>
</a>
</g>
</g>
<!-- Node1&#45;&gt;Node14 -->
<g id="edge13_Node000001_Node000014" class="edge">
<title>Node1&#45;&gt;Node14</title>
<g id="a_edge13_Node000001_Node000014"><a xlink:title=" ">
<path fill="none" stroke="#63b8ff" d="M93.1,-399.9C113.78,-384.6 147.48,-361.7 180,-348.5 189.47,-344.66 199.83,-341.54 210.03,-339.03"/>
<polygon fill="#63b8ff" stroke="#63b8ff" points="90.96,-397.13 85.07,-405.94 95.17,-402.72 90.96,-397.13"/>
</a>
</g>
</g>
<!-- Node15 -->
<g id="Node000015" class="node">
<title>Node15</title>
<g id="a_Node000015"><a xlink:href="classATAS_1_1DataFeedsCore_1_1SecurityMargin.html" target="_top" xlink:title=" ">
<polygon fill="white" stroke="#666666" points="345.5,-301.5 193.5,-301.5 193.5,-271.5 345.5,-271.5 345.5,-301.5"/>
<text text-anchor="start" x="201.5" y="-289.5" font-family="Helvetica" font-size="10.00">ATAS.DataFeedsCore.Security</text>
<text text-anchor="middle" x="269.5" y="-278.5" font-family="Helvetica" font-size="10.00">Margin</text>
</a>
</g>
</g>
<!-- Node1&#45;&gt;Node15 -->
<g id="edge14_Node000001_Node000015" class="edge">
<title>Node1&#45;&gt;Node15</title>
<g id="a_edge14_Node000001_Node000015"><a xlink:title=" ">
<path fill="none" stroke="#63b8ff" d="M86.38,-397.88C104.92,-374.7 140.6,-334.23 180,-311.5 186.64,-307.67 193.9,-304.4 201.31,-301.61"/>
<polygon fill="#63b8ff" stroke="#63b8ff" points="83.55,-395.82 80.15,-405.85 89.07,-400.13 83.55,-395.82"/>
</a>
</g>
</g>
<!-- Node16 -->
<g id="Node000016" class="node">
<title>Node16</title>
<g id="a_Node000016"><a xlink:href="classATAS_1_1DataFeedsCore_1_1Trade.html" target="_top" xlink:title="Represents an tick on a financial exchange.">
<polygon fill="white" stroke="#666666" points="339.5,-253 199.5,-253 199.5,-234 339.5,-234 339.5,-253"/>
<text text-anchor="middle" x="269.5" y="-241" font-family="Helvetica" font-size="10.00">ATAS.DataFeedsCore.Trade</text>
</a>
</g>
</g>
<!-- Node1&#45;&gt;Node16 -->
<g id="edge15_Node000001_Node000016" class="edge">
<title>Node1&#45;&gt;Node16</title>
<g id="a_edge15_Node000001_Node000016"><a xlink:title=" ">
<path fill="none" stroke="#63b8ff" d="M80.76,-396.29C95.11,-363.34 129.07,-296.31 180,-262.5 185.89,-258.59 192.45,-255.47 199.25,-252.97"/>
<polygon fill="#63b8ff" stroke="#63b8ff" points="77.45,-395.14 76.79,-405.71 83.9,-397.85 77.45,-395.14"/>
</a>
</g>
</g>
<!-- Node17 -->
<g id="Node000017" class="node">
<title>Node17</title>
<g id="a_Node000017"><a xlink:href="classATAS_1_1DataFeedsCore_1_1TradingOptions.html" target="_top" xlink:title=" ">
<polygon fill="white" stroke="#666666" points="343,-215.5 196,-215.5 196,-185.5 343,-185.5 343,-215.5"/>
<text text-anchor="start" x="204" y="-203.5" font-family="Helvetica" font-size="10.00">ATAS.DataFeedsCore.Trading</text>
<text text-anchor="middle" x="269.5" y="-192.5" font-family="Helvetica" font-size="10.00">Options</text>
</a>
</g>
</g>
<!-- Node1&#45;&gt;Node17 -->
<g id="edge16_Node000001_Node000017" class="edge">
<title>Node1&#45;&gt;Node17</title>
<g id="a_edge16_Node000001_Node000017"><a xlink:title=" ">
<path fill="none" stroke="#63b8ff" d="M78.49,-395.92C90.34,-357.29 122.05,-271.09 180,-225.5 184.89,-221.65 190.35,-218.39 196.08,-215.64"/>
<polygon fill="#63b8ff" stroke="#63b8ff" points="75.02,-395.3 75.55,-405.88 81.74,-397.28 75.02,-395.3"/>
</a>
</g>
</g>
<!-- Node18 -->
<g id="Node000018" class="node">
<title>Node18</title>
<g id="a_Node000018"><a xlink:href="classATAS_1_1DataFeedsCore_1_1User.html" target="_top" xlink:title=" ">
<polygon fill="white" stroke="#666666" points="338,-167 201,-167 201,-148 338,-148 338,-167"/>
<text text-anchor="middle" x="269.5" y="-155" font-family="Helvetica" font-size="10.00">ATAS.DataFeedsCore.User</text>
</a>
</g>
</g>
<!-- Node1&#45;&gt;Node18 -->
<g id="edge17_Node000001_Node000018" class="edge">
<title>Node1&#45;&gt;Node18</title>
<g id="a_edge17_Node000001_Node000018"><a xlink:title=" ">
<path fill="none" stroke="#63b8ff" d="M75.76,-395.72C83.3,-349.56 108.67,-234.26 180,-176.5 186.11,-171.56 193.2,-167.82 200.67,-165"/>
<polygon fill="#63b8ff" stroke="#63b8ff" points="72.26,-395.48 74.21,-405.89 79.18,-396.53 72.26,-395.48"/>
</a>
</g>
</g>
<!-- Node19 -->
<g id="Node000019" class="node">
<title>Node19</title>
<g id="a_Node000019"><a xlink:href="classATAS_1_1DataFeedsCore_1_1UserGroup.html" target="_top" xlink:title=" ">
<polygon fill="white" stroke="#666666" points="351,-130 188,-130 188,-111 351,-111 351,-130"/>
<text text-anchor="middle" x="269.5" y="-118" font-family="Helvetica" font-size="10.00">ATAS.DataFeedsCore.UserGroup</text>
</a>
</g>
</g>
<!-- Node1&#45;&gt;Node19 -->
<g id="edge18_Node000001_Node000019" class="edge">
<title>Node1&#45;&gt;Node19</title>
<g id="a_edge18_Node000001_Node000019"><a xlink:title=" ">
<path fill="none" stroke="#63b8ff" d="M74.44,-395.83C79.27,-344.95 99.48,-208.18 180,-139.5 184.42,-135.73 189.42,-132.65 194.72,-130.14"/>
<polygon fill="#63b8ff" stroke="#63b8ff" points="70.95,-395.58 73.59,-405.84 77.92,-396.17 70.95,-395.58"/>
</a>
</g>
</g>
<!-- Node20 -->
<g id="Node000020" class="node">
<title>Node20</title>
<g id="a_Node000020"><a xlink:href="classATAS_1_1DataFeedsCore_1_1UserRole.html" target="_top" xlink:title=" ">
<polygon fill="white" stroke="#666666" points="348,-93 191,-93 191,-74 348,-74 348,-93"/>
<text text-anchor="middle" x="269.5" y="-81" font-family="Helvetica" font-size="10.00">ATAS.DataFeedsCore.UserRole</text>
</a>
</g>
</g>
<!-- Node1&#45;&gt;Node20 -->
<g id="edge19_Node000001_Node000020" class="edge">
<title>Node1&#45;&gt;Node20</title>
<g id="a_edge19_Node000001_Node000020"><a xlink:title=" ">
<path fill="none" stroke="#63b8ff" d="M73.43,-395.51C75.78,-339.88 90.42,-182.09 180,-102.5 184.23,-98.74 189.02,-95.67 194.13,-93.15"/>
<polygon fill="#63b8ff" stroke="#63b8ff" points="69.93,-395.66 73.1,-405.77 76.92,-395.89 69.93,-395.66"/>
</a>
</g>
</g>
<!-- Node21 -->
<g id="Node000021" class="node">
<title>Node21</title>
<g id="a_Node000021"><a xlink:href="classATAS_1_1DataFeedsCore_1_1WorkingTime.html" target="_top" xlink:title=" ">
<polygon fill="white" stroke="#666666" points="356,-56 183,-56 183,-37 356,-37 356,-56"/>
<text text-anchor="middle" x="269.5" y="-44" font-family="Helvetica" font-size="10.00">ATAS.DataFeedsCore.WorkingTime</text>
</a>
</g>
</g>
<!-- Node1&#45;&gt;Node21 -->
<g id="edge20_Node000001_Node000021" class="edge">
<title>Node1&#45;&gt;Node21</title>
<g id="a_edge20_Node000001_Node000021"><a xlink:title=" ">
<path fill="none" stroke="#63b8ff" d="M72.6,-395.61C72.56,-335.84 81.06,-156.35 180,-65.5 184.17,-61.67 188.91,-58.55 193.99,-56"/>
<polygon fill="#63b8ff" stroke="#63b8ff" points="69.11,-395.94 72.7,-405.91 76.1,-395.87 69.11,-395.94"/>
</a>
</g>
</g>
<!-- Node22 -->
<g id="Node000022" class="node">
<title>Node22</title>
<g id="a_Node000022"><a xlink:href="classATAS_1_1Indicators_1_1MarketDataArg.html" target="_top" xlink:title="Represents a data point in the market.">
<polygon fill="white" stroke="#666666" points="347.5,-19 191.5,-19 191.5,0 347.5,0 347.5,-19"/>
<text text-anchor="middle" x="269.5" y="-7" font-family="Helvetica" font-size="10.00">ATAS.Indicators.MarketDataArg</text>
</a>
</g>
</g>
<!-- Node1&#45;&gt;Node22 -->
<g id="edge21_Node000001_Node000022" class="edge">
<title>Node1&#45;&gt;Node22</title>
<g id="a_edge21_Node000001_Node000022"><a xlink:title=" ">
<path fill="none" stroke="#63b8ff" d="M75.74,-395.75C86.05,-324.27 124.77,-80.6 180,-28.5 184,-24.73 188.56,-21.63 193.46,-19.09"/>
<polygon fill="#63b8ff" stroke="#63b8ff" points="72.27,-395.29 74.33,-405.68 79.2,-396.27 72.27,-395.29"/>
</a>
</g>
</g>
</g>
</svg>
