<?xml version="1.0" encoding="UTF-8" standalone="no"?>
<!DOCTYPE svg PUBLIC "-//W3C//DTD SVG 1.1//EN"
 "http://www.w3.org/Graphics/SVG/1.1/DTD/svg11.dtd">
<!-- Generated by graphviz version 2.44.0 (0)
 -->
<!-- Title: ATAS.DataFeedsCore.ICryptoKeySecretConnector Pages: 1 -->
<svg width="611pt" height="108pt"
 viewBox="0.00 0.00 611.00 108.00" xmlns="http://www.w3.org/2000/svg" xmlns:xlink="http://www.w3.org/1999/xlink">
<g id="graph0" class="graph" transform="scale(1 1) rotate(0) translate(4 104)">
<title>ATAS.DataFeedsCore.ICryptoKeySecretConnector</title>
<!-- Node1 -->
<g id="Node000001" class="node">
<title>Node1</title>
<g id="a_Node000001"><a xlink:title=" ">
<polygon fill="#999999" stroke="#666666" points="408,-64.5 259,-64.5 259,-34.5 408,-34.5 408,-64.5"/>
<text text-anchor="start" x="267" y="-52.5" font-family="Helvetica" font-size="10.00">ATAS.DataFeedsCore.ICrypto</text>
<text text-anchor="middle" x="333.5" y="-41.5" font-family="Helvetica" font-size="10.00">KeySecretConnector</text>
</a>
</g>
</g>
<!-- Node4 -->
<g id="Node000004" class="node">
<title>Node4</title>
<g id="a_Node000004"><a xlink:href="classATAS_1_1DataFeedsCore_1_1CryptoAsyncConnector.html" target="_top" xlink:title=" ">
<polygon fill="white" stroke="#666666" points="603,-100 444,-100 444,-59 603,-59 603,-100"/>
<text text-anchor="start" x="452" y="-88" font-family="Helvetica" font-size="10.00">ATAS.DataFeedsCore.Crypto</text>
<text text-anchor="start" x="452" y="-77" font-family="Helvetica" font-size="10.00">AsyncConnector&lt; TPortfolioKey,</text>
<text text-anchor="middle" x="523.5" y="-66" font-family="Helvetica" font-size="10.00"> TSecurityKey &gt;</text>
</a>
</g>
</g>
<!-- Node1&#45;&gt;Node4 -->
<g id="edge3_Node000001_Node000004" class="edge">
<title>Node1&#45;&gt;Node4</title>
<g id="a_edge3_Node000001_Node000004"><a xlink:title=" ">
<path fill="none" stroke="#63b8ff" d="M418.25,-62.86C426.81,-64.23 435.49,-65.61 443.99,-66.97"/>
<polygon fill="#63b8ff" stroke="#63b8ff" points="418.69,-59.39 408.26,-61.27 417.59,-66.3 418.69,-59.39"/>
</a>
</g>
</g>
<!-- Node5 -->
<g id="Node000005" class="node">
<title>Node5</title>
<g id="a_Node000005"><a xlink:href="classATAS_1_1DataFeedsCore_1_1CryptoBaseConnector.html" target="_top" xlink:title=" ">
<polygon fill="white" stroke="#666666" points="599.5,-41 447.5,-41 447.5,0 599.5,0 599.5,-41"/>
<text text-anchor="start" x="455.5" y="-29" font-family="Helvetica" font-size="10.00">ATAS.DataFeedsCore.Crypto</text>
<text text-anchor="start" x="455.5" y="-18" font-family="Helvetica" font-size="10.00">BaseConnector&lt; TMessage,</text>
<text text-anchor="middle" x="523.5" y="-7" font-family="Helvetica" font-size="10.00"> TPortfolioKey, TSecurityKey &gt;</text>
</a>
</g>
</g>
<!-- Node1&#45;&gt;Node5 -->
<g id="edge4_Node000001_Node000005" class="edge">
<title>Node1&#45;&gt;Node5</title>
<g id="a_edge4_Node000001_Node000005"><a xlink:title=" ">
<path fill="none" stroke="#63b8ff" d="M418.3,-36.57C427.99,-35.08 437.84,-33.56 447.4,-32.08"/>
<polygon fill="#63b8ff" stroke="#63b8ff" points="417.61,-33.14 408.26,-38.12 418.68,-40.06 417.61,-33.14"/>
</a>
</g>
</g>
<!-- Node2 -->
<g id="Node000002" class="node">
<title>Node2</title>
<g id="a_Node000002"><a xlink:href="interfaceATAS_1_1DataFeedsCore_1_1IDataFeedConnector.html" target="_top" xlink:title=" ">
<polygon fill="white" stroke="#666666" points="223,-59 116,-59 116,-40 223,-40 223,-59"/>
<text text-anchor="middle" x="169.5" y="-47" font-family="Helvetica" font-size="10.00">IDataFeedConnector</text>
</a>
</g>
</g>
<!-- Node2&#45;&gt;Node1 -->
<g id="edge1_Node000001_Node000002" class="edge">
<title>Node2&#45;&gt;Node1</title>
<g id="a_edge1_Node000001_Node000002"><a xlink:title=" ">
<path fill="none" stroke="#63b8ff" d="M233.22,-49.5C241.66,-49.5 250.37,-49.5 258.98,-49.5"/>
<polygon fill="#63b8ff" stroke="#63b8ff" points="233.1,-46 223.1,-49.5 233.1,-53 233.1,-46"/>
</a>
</g>
</g>
<!-- Node3 -->
<g id="Node000003" class="node">
<title>Node3</title>
<g id="a_Node000003"><a xlink:title=" ">
<polygon fill="white" stroke="#666666" points="80,-59 0,-59 0,-40 80,-40 80,-59"/>
<text text-anchor="middle" x="40" y="-47" font-family="Helvetica" font-size="10.00">ILoggerSource</text>
</a>
</g>
</g>
<!-- Node3&#45;&gt;Node2 -->
<g id="edge2_Node000002_Node000003" class="edge">
<title>Node3&#45;&gt;Node2</title>
<g id="a_edge2_Node000002_Node000003"><a xlink:title=" ">
<path fill="none" stroke="#63b8ff" d="M90.33,-49.5C98.73,-49.5 107.48,-49.5 115.96,-49.5"/>
<polygon fill="#63b8ff" stroke="#63b8ff" points="90.29,-46 80.29,-49.5 90.29,-53 90.29,-46"/>
</a>
</g>
</g>
</g>
</svg>
