<?xml version="1.0" encoding="UTF-8" standalone="no"?>
<!DOCTYPE svg PUBLIC "-//W3C//DTD SVG 1.1//EN"
 "http://www.w3.org/Graphics/SVG/1.1/DTD/svg11.dtd">
<!-- Generated by graphviz version 2.44.0 (0)
 -->
<!-- Title: ATAS.Indicators.IDataSeries&lt; T &gt; Pages: 1 -->
<svg width="382pt" height="82pt"
 viewBox="0.00 0.00 382.00 82.00" xmlns="http://www.w3.org/2000/svg" xmlns:xlink="http://www.w3.org/1999/xlink">
<g id="graph0" class="graph" transform="scale(1 1) rotate(0) translate(4 78)">
<title>ATAS.Indicators.IDataSeries&lt; T &gt;</title>
<!-- Node1 -->
<g id="Node000001" class="node">
<title>Node1</title>
<g id="a_Node000001"><a xlink:title="Interface for data series, providing essential properties and methods.">
<polygon fill="#999999" stroke="#666666" points="297,-19 131,-19 131,0 297,0 297,-19"/>
<text text-anchor="middle" x="214" y="-7" font-family="Helvetica" font-size="10.00">ATAS.Indicators.IDataSeries&lt; T &gt;</text>
</a>
</g>
</g>
<!-- Node2 -->
<g id="Node000002" class="node">
<title>Node2</title>
<g id="a_Node000002"><a xlink:title=" ">
<polygon fill="white" stroke="#666666" points="122,-74 0,-74 0,-55 122,-55 122,-74"/>
<text text-anchor="middle" x="61" y="-62" font-family="Helvetica" font-size="10.00">INotifyPropertyChanged</text>
</a>
</g>
</g>
<!-- Node2&#45;&gt;Node1 -->
<g id="edge1_Node000001_Node000002" class="edge">
<title>Node2&#45;&gt;Node1</title>
<g id="a_edge1_Node000001_Node000002"><a xlink:title=" ">
<path fill="none" stroke="#63b8ff" d="M95.15,-51.67C123.68,-41.79 163.69,-27.93 189.23,-19.08"/>
<polygon fill="#63b8ff" stroke="#63b8ff" points="93.89,-48.4 85.58,-54.98 96.18,-55.02 93.89,-48.4"/>
</a>
</g>
</g>
<!-- Node3 -->
<g id="Node000003" class="node">
<title>Node3</title>
<g id="a_Node000003"><a xlink:href="interfaceATAS_1_1Indicators_1_1INotifyPanelPropertyChanged.html" target="_top" xlink:title="Notifies clients that a panel property value has changed.">
<polygon fill="white" stroke="#666666" points="287.5,-74 140.5,-74 140.5,-55 287.5,-55 287.5,-74"/>
<text text-anchor="middle" x="214" y="-62" font-family="Helvetica" font-size="10.00">INotifyPanelPropertyChanged</text>
</a>
</g>
</g>
<!-- Node3&#45;&gt;Node1 -->
<g id="edge2_Node000001_Node000003" class="edge">
<title>Node3&#45;&gt;Node1</title>
<g id="a_edge2_Node000001_Node000003"><a xlink:title=" ">
<path fill="none" stroke="#63b8ff" d="M214,-44.66C214,-35.93 214,-25.99 214,-19.09"/>
<polygon fill="#63b8ff" stroke="#63b8ff" points="210.5,-44.75 214,-54.75 217.5,-44.75 210.5,-44.75"/>
</a>
</g>
</g>
<!-- Node4 -->
<g id="Node000004" class="node">
<title>Node4</title>
<g id="a_Node000004"><a xlink:title=" ">
<polygon fill="white" stroke="#666666" points="374,-74 306,-74 306,-55 374,-55 374,-74"/>
<text text-anchor="middle" x="340" y="-62" font-family="Helvetica" font-size="10.00">IDataSeries</text>
</a>
</g>
</g>
<!-- Node4&#45;&gt;Node1 -->
<g id="edge3_Node000001_Node000004" class="edge">
<title>Node4&#45;&gt;Node1</title>
<g id="a_edge3_Node000001_Node000004"><a xlink:title=" ">
<path fill="none" stroke="#63b8ff" d="M310.35,-51.03C287.05,-41.23 255.2,-27.83 234.61,-19.17"/>
<polygon fill="#63b8ff" stroke="#63b8ff" points="309.18,-54.33 319.76,-54.98 311.9,-47.88 309.18,-54.33"/>
</a>
</g>
</g>
</g>
</svg>
