<?xml version="1.0" encoding="UTF-8" standalone="no"?>
<!DOCTYPE svg PUBLIC "-//W3C//DTD SVG 1.1//EN"
 "http://www.w3.org/Graphics/SVG/1.1/DTD/svg11.dtd">
<!-- Generated by graphviz version 2.44.0 (0)
 -->
<!-- Title: ATAS.DataFeedsCore.Dom.IDomManager&lt; TMarketDepth &gt; Pages: 1 -->
<svg width="374pt" height="182pt"
 viewBox="0.00 0.00 374.00 182.00" xmlns="http://www.w3.org/2000/svg" xmlns:xlink="http://www.w3.org/1999/xlink">
<g id="graph0" class="graph" transform="scale(1 1) rotate(0) translate(4 178)">
<title>ATAS.DataFeedsCore.Dom.IDomManager&lt; TMarketDepth &gt;</title>
<!-- Node1 -->
<g id="Node000001" class="node">
<title>Node1</title>
<g id="a_Node000001"><a xlink:title=" ">
<polygon fill="#999999" stroke="#666666" points="164,-102 0,-102 0,-72 164,-72 164,-102"/>
<text text-anchor="start" x="8" y="-90" font-family="Helvetica" font-size="10.00">ATAS.DataFeedsCore.Dom.IDom</text>
<text text-anchor="middle" x="82" y="-79" font-family="Helvetica" font-size="10.00">Manager&lt; TMarketDepth &gt;</text>
</a>
</g>
</g>
<!-- Node2 -->
<g id="Node000002" class="node">
<title>Node2</title>
<g id="a_Node000002"><a xlink:href="classATAS_1_1DataFeedsCore_1_1Dom_1_1DomManager.html" target="_top" xlink:title="Maintains Depth of Market state for the security.">
<polygon fill="white" stroke="#666666" points="363.5,-174 202.5,-174 202.5,-144 363.5,-144 363.5,-174"/>
<text text-anchor="start" x="210.5" y="-162" font-family="Helvetica" font-size="10.00">ATAS.DataFeedsCore.Dom.Dom</text>
<text text-anchor="middle" x="283" y="-151" font-family="Helvetica" font-size="10.00">Manager&lt; TMarketDepth &gt;</text>
</a>
</g>
</g>
<!-- Node1&#45;&gt;Node2 -->
<g id="edge1_Node000001_Node000002" class="edge">
<title>Node1&#45;&gt;Node2</title>
<g id="a_edge1_Node000001_Node000002"><a xlink:title=" ">
<path fill="none" stroke="#63b8ff" d="M126.29,-106.02C148.17,-115.32 175.27,-126.34 200,-135 208.82,-138.09 218.26,-141.11 227.49,-143.91"/>
<polygon fill="#63b8ff" stroke="#63b8ff" points="127.51,-102.74 116.94,-102.03 124.76,-109.18 127.51,-102.74"/>
</a>
</g>
</g>
<!-- Node3 -->
<g id="Node000003" class="node">
<title>Node3</title>
<g id="a_Node000003"><a xlink:href="classATAS_1_1DataFeedsCore_1_1Dom_1_1GroupDomManager.html" target="_top" xlink:title=" ">
<polygon fill="white" stroke="#666666" points="366,-126 200,-126 200,-96 366,-96 366,-126"/>
<text text-anchor="start" x="208" y="-114" font-family="Helvetica" font-size="10.00">ATAS.DataFeedsCore.Dom.Group</text>
<text text-anchor="middle" x="283" y="-103" font-family="Helvetica" font-size="10.00">DomManager&lt; TMarketDepth &gt;</text>
</a>
</g>
</g>
<!-- Node1&#45;&gt;Node3 -->
<g id="edge2_Node000001_Node000003" class="edge">
<title>Node1&#45;&gt;Node3</title>
<g id="a_edge2_Node000001_Node000003"><a xlink:title=" ">
<path fill="none" stroke="#63b8ff" d="M174.18,-98C182.7,-99.02 191.31,-100.06 199.74,-101.08"/>
<polygon fill="#63b8ff" stroke="#63b8ff" points="174.58,-94.52 164.23,-96.8 173.74,-101.47 174.58,-94.52"/>
</a>
</g>
</g>
<!-- Node4 -->
<g id="Node000004" class="node">
<title>Node4</title>
<g id="a_Node000004"><a xlink:href="classATAS_1_1DataFeedsCore_1_1Dom_1_1LimitDomManager.html" target="_top" xlink:title=" ">
<polygon fill="white" stroke="#666666" points="363.5,-78 202.5,-78 202.5,-48 363.5,-48 363.5,-78"/>
<text text-anchor="start" x="210.5" y="-66" font-family="Helvetica" font-size="10.00">ATAS.DataFeedsCore.Dom.Limit</text>
<text text-anchor="middle" x="283" y="-55" font-family="Helvetica" font-size="10.00">DomManager&lt; TMarketDepth &gt;</text>
</a>
</g>
</g>
<!-- Node1&#45;&gt;Node4 -->
<g id="edge3_Node000001_Node000004" class="edge">
<title>Node1&#45;&gt;Node4</title>
<g id="a_edge3_Node000001_Node000004"><a xlink:title=" ">
<path fill="none" stroke="#63b8ff" d="M174.32,-75.99C183.67,-74.86 193.11,-73.72 202.32,-72.61"/>
<polygon fill="#63b8ff" stroke="#63b8ff" points="173.74,-72.53 164.23,-77.2 174.58,-79.48 173.74,-72.53"/>
</a>
</g>
</g>
<!-- Node5 -->
<g id="Node000005" class="node">
<title>Node5</title>
<g id="a_Node000005"><a xlink:href="classATAS_1_1DataFeedsCore_1_1Dom_1_1ScaleDomManager.html" target="_top" xlink:title=" ">
<polygon fill="white" stroke="#666666" points="365,-30 201,-30 201,0 365,0 365,-30"/>
<text text-anchor="start" x="209" y="-18" font-family="Helvetica" font-size="10.00">ATAS.DataFeedsCore.Dom.Scale</text>
<text text-anchor="middle" x="283" y="-7" font-family="Helvetica" font-size="10.00">DomManager&lt; TMarketDepth &gt;</text>
</a>
</g>
</g>
<!-- Node1&#45;&gt;Node5 -->
<g id="edge4_Node000001_Node000005" class="edge">
<title>Node1&#45;&gt;Node5</title>
<g id="a_edge4_Node000001_Node000005"><a xlink:title=" ">
<path fill="none" stroke="#63b8ff" d="M126.29,-67.98C148.17,-58.68 175.27,-47.66 200,-39 208.82,-35.91 218.26,-32.89 227.49,-30.09"/>
<polygon fill="#63b8ff" stroke="#63b8ff" points="124.76,-64.82 116.94,-71.97 127.51,-71.26 124.76,-64.82"/>
</a>
</g>
</g>
</g>
</svg>
