<?xml version="1.0" encoding="UTF-8" standalone="no"?>
<!DOCTYPE svg PUBLIC "-//W3C//DTD SVG 1.1//EN"
 "http://www.w3.org/Graphics/SVG/1.1/DTD/svg11.dtd">
<!-- Generated by graphviz version 2.44.0 (0)
 -->
<!-- Title: ATAS.DataFeedsCore.Database.ICache Pages: 1 -->
<svg width="186pt" height="93pt"
 viewBox="0.00 0.00 185.50 93.00" xmlns="http://www.w3.org/2000/svg" xmlns:xlink="http://www.w3.org/1999/xlink">
<g id="graph0" class="graph" transform="scale(1 1) rotate(0) translate(4 89)">
<title>ATAS.DataFeedsCore.Database.ICache</title>
<!-- Node1 -->
<g id="Node000001" class="node">
<title>Node1</title>
<g id="a_Node000001"><a xlink:title=" ">
<polygon fill="#999999" stroke="#666666" points="168.5,-30 8.5,-30 8.5,0 168.5,0 168.5,-30"/>
<text text-anchor="start" x="16.5" y="-18" font-family="Helvetica" font-size="10.00">ATAS.DataFeedsCore.Database.</text>
<text text-anchor="middle" x="88.5" y="-7" font-family="Helvetica" font-size="10.00">ICache</text>
</a>
</g>
</g>
<!-- Node2 -->
<g id="Node000002" class="node">
<title>Node2</title>
<g id="a_Node000002"><a xlink:href="interfaceATAS_1_1DataFeedsCore_1_1IEntityFactory.html" target="_top" xlink:title=" ">
<polygon fill="white" stroke="#666666" points="79,-85 0,-85 0,-66 79,-66 79,-85"/>
<text text-anchor="middle" x="39.5" y="-73" font-family="Helvetica" font-size="10.00">IEntityFactory</text>
</a>
</g>
</g>
<!-- Node2&#45;&gt;Node1 -->
<g id="edge1_Node000001_Node000002" class="edge">
<title>Node2&#45;&gt;Node1</title>
<g id="a_edge1_Node000001_Node000002"><a xlink:title=" ">
<path fill="none" stroke="#63b8ff" d="M53.19,-58.15C60.58,-49.34 69.6,-38.56 76.68,-30.11"/>
<polygon fill="#63b8ff" stroke="#63b8ff" points="50.47,-55.95 46.73,-65.87 55.83,-60.45 50.47,-55.95"/>
</a>
</g>
</g>
<!-- Node3 -->
<g id="Node000003" class="node">
<title>Node3</title>
<g id="a_Node000003"><a xlink:title=" ">
<polygon fill="white" stroke="#666666" points="177.5,-85 97.5,-85 97.5,-66 177.5,-66 177.5,-85"/>
<text text-anchor="middle" x="137.5" y="-73" font-family="Helvetica" font-size="10.00">ILoggerSource</text>
</a>
</g>
</g>
<!-- Node3&#45;&gt;Node1 -->
<g id="edge2_Node000001_Node000003" class="edge">
<title>Node3&#45;&gt;Node1</title>
<g id="a_edge2_Node000001_Node000003"><a xlink:title=" ">
<path fill="none" stroke="#63b8ff" d="M123.81,-58.15C116.42,-49.34 107.4,-38.56 100.32,-30.11"/>
<polygon fill="#63b8ff" stroke="#63b8ff" points="121.17,-60.45 130.27,-65.87 126.53,-55.95 121.17,-60.45"/>
</a>
</g>
</g>
</g>
</svg>
