<?xml version="1.0" encoding="UTF-8" standalone="no"?>
<!DOCTYPE svg PUBLIC "-//W3C//DTD SVG 1.1//EN"
 "http://www.w3.org/Graphics/SVG/1.1/DTD/svg11.dtd">
<!-- Generated by graphviz version 2.44.0 (0)
 -->
<!-- Title: ATAS.DataFeedsCore.Commissions.ICommissionRule Pages: 1 -->
<svg width="617pt" height="134pt"
 viewBox="0.00 0.00 617.00 134.00" xmlns="http://www.w3.org/2000/svg" xmlns:xlink="http://www.w3.org/1999/xlink">
<g id="graph0" class="graph" transform="scale(1 1) rotate(0) translate(4 130)">
<title>ATAS.DataFeedsCore.Commissions.ICommissionRule</title>
<!-- Node1 -->
<g id="Node000001" class="node">
<title>Node1</title>
<g id="a_Node000001"><a xlink:title=" ">
<polygon fill="#999999" stroke="#666666" points="179,-78 0,-78 0,-48 179,-48 179,-78"/>
<text text-anchor="start" x="8" y="-66" font-family="Helvetica" font-size="10.00">ATAS.DataFeedsCore.Commissions.</text>
<text text-anchor="middle" x="89.5" y="-55" font-family="Helvetica" font-size="10.00">ICommissionRule</text>
</a>
</g>
</g>
<!-- Node2 -->
<g id="Node000002" class="node">
<title>Node2</title>
<g id="a_Node000002"><a xlink:href="classATAS_1_1DataFeedsCore_1_1Commissions_1_1CommissionRule.html" target="_top" xlink:title=" ">
<polygon fill="white" stroke="#666666" points="394,-78 215,-78 215,-48 394,-48 394,-78"/>
<text text-anchor="start" x="223" y="-66" font-family="Helvetica" font-size="10.00">ATAS.DataFeedsCore.Commissions.</text>
<text text-anchor="middle" x="304.5" y="-55" font-family="Helvetica" font-size="10.00">CommissionRule</text>
</a>
</g>
</g>
<!-- Node1&#45;&gt;Node2 -->
<g id="edge1_Node000001_Node000002" class="edge">
<title>Node1&#45;&gt;Node2</title>
<g id="a_edge1_Node000001_Node000002"><a xlink:title=" ">
<path fill="none" stroke="#63b8ff" d="M189.54,-63C197.99,-63 206.5,-63 214.86,-63"/>
<polygon fill="#63b8ff" stroke="#63b8ff" points="189.29,-59.5 179.29,-63 189.29,-66.5 189.29,-59.5"/>
</a>
</g>
</g>
<!-- Node3 -->
<g id="Node000003" class="node">
<title>Node3</title>
<g id="a_Node000003"><a xlink:href="classATAS_1_1DataFeedsCore_1_1Commissions_1_1PerContractCommissionRule.html" target="_top" xlink:title=" ">
<polygon fill="white" stroke="#666666" points="609,-126 430,-126 430,-96 609,-96 609,-126"/>
<text text-anchor="start" x="438" y="-114" font-family="Helvetica" font-size="10.00">ATAS.DataFeedsCore.Commissions.</text>
<text text-anchor="middle" x="519.5" y="-103" font-family="Helvetica" font-size="10.00">PerContractCommissionRule</text>
</a>
</g>
</g>
<!-- Node2&#45;&gt;Node3 -->
<g id="edge2_Node000002_Node000003" class="edge">
<title>Node2&#45;&gt;Node3</title>
<g id="a_edge2_Node000002_Node000003"><a xlink:title=" ">
<path fill="none" stroke="#63b8ff" d="M382.28,-80.3C405.08,-85.44 429.84,-91.02 451.93,-96"/>
<polygon fill="#63b8ff" stroke="#63b8ff" points="382.83,-76.84 372.31,-78.06 381.3,-83.67 382.83,-76.84"/>
</a>
</g>
</g>
<!-- Node4 -->
<g id="Node000004" class="node">
<title>Node4</title>
<g id="a_Node000004"><a xlink:href="classATAS_1_1DataFeedsCore_1_1Commissions_1_1PerTradeCommissionRule.html" target="_top" xlink:title=" ">
<polygon fill="white" stroke="#666666" points="609,-78 430,-78 430,-48 609,-48 609,-78"/>
<text text-anchor="start" x="438" y="-66" font-family="Helvetica" font-size="10.00">ATAS.DataFeedsCore.Commissions.</text>
<text text-anchor="middle" x="519.5" y="-55" font-family="Helvetica" font-size="10.00">PerTradeCommissionRule</text>
</a>
</g>
</g>
<!-- Node2&#45;&gt;Node4 -->
<g id="edge3_Node000002_Node000004" class="edge">
<title>Node2&#45;&gt;Node4</title>
<g id="a_edge3_Node000002_Node000004"><a xlink:title=" ">
<path fill="none" stroke="#63b8ff" d="M404.54,-63C412.99,-63 421.5,-63 429.86,-63"/>
<polygon fill="#63b8ff" stroke="#63b8ff" points="404.29,-59.5 394.29,-63 404.29,-66.5 404.29,-59.5"/>
</a>
</g>
</g>
<!-- Node5 -->
<g id="Node000005" class="node">
<title>Node5</title>
<g id="a_Node000005"><a xlink:href="classATAS_1_1DataFeedsCore_1_1Commissions_1_1PercentCommissionRule.html" target="_top" xlink:title=" ">
<polygon fill="white" stroke="#666666" points="609,-30 430,-30 430,0 609,0 609,-30"/>
<text text-anchor="start" x="438" y="-18" font-family="Helvetica" font-size="10.00">ATAS.DataFeedsCore.Commissions.</text>
<text text-anchor="middle" x="519.5" y="-7" font-family="Helvetica" font-size="10.00">PercentCommissionRule</text>
</a>
</g>
</g>
<!-- Node2&#45;&gt;Node5 -->
<g id="edge4_Node000002_Node000005" class="edge">
<title>Node2&#45;&gt;Node5</title>
<g id="a_edge4_Node000002_Node000005"><a xlink:title=" ">
<path fill="none" stroke="#63b8ff" d="M382.28,-45.7C405.08,-40.56 429.84,-34.98 451.93,-30"/>
<polygon fill="#63b8ff" stroke="#63b8ff" points="381.3,-42.33 372.31,-47.94 382.83,-49.16 381.3,-42.33"/>
</a>
</g>
</g>
</g>
</svg>
