<?xml version="1.0" encoding="UTF-8" standalone="no"?>
<!DOCTYPE svg PUBLIC "-//W3C//DTD SVG 1.1//EN"
 "http://www.w3.org/Graphics/SVG/1.1/DTD/svg11.dtd">
<!-- Generated by graphviz version 2.44.0 (0)
 -->
<!-- Title: ATAS.Strategies.ATM.ISimpleStopProfitStrategy Pages: 1 -->
<svg width="310pt" height="335pt"
 viewBox="0.00 0.00 310.00 335.00" xmlns="http://www.w3.org/2000/svg" xmlns:xlink="http://www.w3.org/1999/xlink">
<g id="graph0" class="graph" transform="scale(1 1) rotate(0) translate(4 331)">
<title>ATAS.Strategies.ATM.ISimpleStopProfitStrategy</title>
<!-- Node1 -->
<g id="Node000001" class="node">
<title>Node1</title>
<g id="a_Node000001"><a xlink:title=" ">
<polygon fill="#999999" stroke="#666666" points="226,-96 78,-96 78,-66 226,-66 226,-96"/>
<text text-anchor="start" x="86" y="-84" font-family="Helvetica" font-size="10.00">ATAS.Strategies.ATM.ISimple</text>
<text text-anchor="middle" x="152" y="-73" font-family="Helvetica" font-size="10.00">StopProfitStrategy</text>
</a>
</g>
</g>
<!-- Node7 -->
<g id="Node000007" class="node">
<title>Node7</title>
<g id="a_Node000007"><a xlink:href="classATAS_1_1Strategies_1_1ATM_1_1StopProfit.html" target="_top" xlink:title=" ">
<polygon fill="white" stroke="#666666" points="219.5,-30 84.5,-30 84.5,0 219.5,0 219.5,-30"/>
<text text-anchor="start" x="92.5" y="-18" font-family="Helvetica" font-size="10.00">ATAS.Strategies.ATM.Stop</text>
<text text-anchor="middle" x="152" y="-7" font-family="Helvetica" font-size="10.00">Profit</text>
</a>
</g>
</g>
<!-- Node1&#45;&gt;Node7 -->
<g id="edge6_Node000001_Node000007" class="edge">
<title>Node1&#45;&gt;Node7</title>
<g id="a_edge6_Node000001_Node000007"><a xlink:title=" ">
<path fill="none" stroke="#63b8ff" d="M152,-55.54C152,-46.96 152,-37.61 152,-30.16"/>
<polygon fill="#63b8ff" stroke="#63b8ff" points="148.5,-55.8 152,-65.8 155.5,-55.8 148.5,-55.8"/>
</a>
</g>
</g>
<!-- Node2 -->
<g id="Node000002" class="node">
<title>Node2</title>
<g id="a_Node000002"><a xlink:href="interfaceATAS_1_1Strategies_1_1ATM_1_1IStopProfitStrategy.html" target="_top" xlink:title=" ">
<polygon fill="white" stroke="#666666" points="144,-162 0,-162 0,-132 144,-132 144,-162"/>
<text text-anchor="start" x="8" y="-150" font-family="Helvetica" font-size="10.00">IStopProfitStrategy</text>
<text text-anchor="middle" x="72" y="-139" font-family="Helvetica" font-size="10.00">&lt; SimpleStopProfitSettings &gt;</text>
</a>
</g>
</g>
<!-- Node2&#45;&gt;Node1 -->
<g id="edge1_Node000001_Node000002" class="edge">
<title>Node2&#45;&gt;Node1</title>
<g id="a_edge1_Node000001_Node000002"><a xlink:title=" ">
<path fill="none" stroke="#63b8ff" d="M97.65,-125.48C109.61,-115.91 123.53,-104.77 134.3,-96.16"/>
<polygon fill="#63b8ff" stroke="#63b8ff" points="95.38,-122.82 89.75,-131.8 99.75,-128.28 95.38,-122.82"/>
</a>
</g>
</g>
<!-- Node3 -->
<g id="Node000003" class="node">
<title>Node3</title>
<g id="a_Node000003"><a xlink:href="interfaceATAS_1_1Strategies_1_1ATM_1_1ISupportCustomStopOrTake.html" target="_top" xlink:title=" ">
<polygon fill="white" stroke="#666666" points="302,-156.5 162,-156.5 162,-137.5 302,-137.5 302,-156.5"/>
<text text-anchor="middle" x="232" y="-144.5" font-family="Helvetica" font-size="10.00">ISupportCustomStopOrTake</text>
</a>
</g>
</g>
<!-- Node3&#45;&gt;Node1 -->
<g id="edge2_Node000001_Node000003" class="edge">
<title>Node3&#45;&gt;Node1</title>
<g id="a_edge2_Node000001_Node000003"><a xlink:title=" ">
<path fill="none" stroke="#63b8ff" d="M213.27,-131.02C200.09,-120.48 182.57,-106.46 169.64,-96.12"/>
<polygon fill="#63b8ff" stroke="#63b8ff" points="211.22,-133.85 221.21,-137.37 215.59,-128.39 211.22,-133.85"/>
</a>
</g>
</g>
<!-- Node4 -->
<g id="Node000004" class="node">
<title>Node4</title>
<g id="a_Node000004"><a xlink:href="interfaceATAS_1_1Strategies_1_1ATM_1_1IATMStrategy.html" target="_top" xlink:title=" ">
<polygon fill="white" stroke="#666666" points="270.5,-217 193.5,-217 193.5,-198 270.5,-198 270.5,-217"/>
<text text-anchor="middle" x="232" y="-205" font-family="Helvetica" font-size="10.00">IATMStrategy</text>
</a>
</g>
</g>
<!-- Node4&#45;&gt;Node3 -->
<g id="edge3_Node000003_Node000004" class="edge">
<title>Node4&#45;&gt;Node3</title>
<g id="a_edge3_Node000003_Node000004"><a xlink:title=" ">
<path fill="none" stroke="#63b8ff" d="M232,-187.66C232,-177.24 232,-164.8 232,-156.67"/>
<polygon fill="#63b8ff" stroke="#63b8ff" points="228.5,-187.87 232,-197.87 235.5,-187.87 228.5,-187.87"/>
</a>
</g>
</g>
<!-- Node5 -->
<g id="Node000005" class="node">
<title>Node5</title>
<g id="a_Node000005"><a xlink:href="interfaceATAS_1_1Strategies_1_1IStrategy.html" target="_top" xlink:title="Represents a trading strategy.">
<polygon fill="white" stroke="#666666" points="260,-272 204,-272 204,-253 260,-253 260,-272"/>
<text text-anchor="middle" x="232" y="-260" font-family="Helvetica" font-size="10.00">IStrategy</text>
</a>
</g>
</g>
<!-- Node5&#45;&gt;Node4 -->
<g id="edge4_Node000004_Node000005" class="edge">
<title>Node5&#45;&gt;Node4</title>
<g id="a_edge4_Node000004_Node000005"><a xlink:title=" ">
<path fill="none" stroke="#63b8ff" d="M232,-242.66C232,-233.93 232,-223.99 232,-217.09"/>
<polygon fill="#63b8ff" stroke="#63b8ff" points="228.5,-242.75 232,-252.75 235.5,-242.75 228.5,-242.75"/>
</a>
</g>
</g>
<!-- Node6 -->
<g id="Node000006" class="node">
<title>Node6</title>
<g id="a_Node000006"><a xlink:title=" ">
<polygon fill="white" stroke="#666666" points="293,-327 171,-327 171,-308 293,-308 293,-327"/>
<text text-anchor="middle" x="232" y="-315" font-family="Helvetica" font-size="10.00">INotifyPropertyChanged</text>
</a>
</g>
</g>
<!-- Node6&#45;&gt;Node5 -->
<g id="edge5_Node000005_Node000006" class="edge">
<title>Node6&#45;&gt;Node5</title>
<g id="a_edge5_Node000005_Node000006"><a xlink:title=" ">
<path fill="none" stroke="#63b8ff" d="M232,-297.66C232,-288.93 232,-278.99 232,-272.09"/>
<polygon fill="#63b8ff" stroke="#63b8ff" points="228.5,-297.75 232,-307.75 235.5,-297.75 228.5,-297.75"/>
</a>
</g>
</g>
</g>
</svg>
