<?xml version="1.0" encoding="UTF-8" standalone="no"?>
<!DOCTYPE svg PUBLIC "-//W3C//DTD SVG 1.1//EN"
 "http://www.w3.org/Graphics/SVG/1.1/DTD/svg11.dtd">
<!-- Generated by graphviz version 2.44.0 (0)
 -->
<!-- Title: ATAS.DataFeedsCore.IDataFeedConnector Pages: 1 -->
<svg width="701pt" height="232pt"
 viewBox="0.00 0.00 701.00 231.50" xmlns="http://www.w3.org/2000/svg" xmlns:xlink="http://www.w3.org/1999/xlink">
<g id="graph0" class="graph" transform="scale(1 1) rotate(0) translate(4 227.5)">
<title>ATAS.DataFeedsCore.IDataFeedConnector</title>
<!-- Node1 -->
<g id="Node000001" class="node">
<title>Node1</title>
<g id="a_Node000001"><a xlink:title=" ">
<polygon fill="#999999" stroke="#666666" points="255,-116 116,-116 116,-86 255,-86 255,-116"/>
<text text-anchor="start" x="124" y="-104" font-family="Helvetica" font-size="10.00">ATAS.DataFeedsCore.IData</text>
<text text-anchor="middle" x="185.5" y="-93" font-family="Helvetica" font-size="10.00">FeedConnector</text>
</a>
</g>
</g>
<!-- Node3 -->
<g id="Node000003" class="node">
<title>Node3</title>
<g id="a_Node000003"><a xlink:href="classATAS_1_1DataFeedsCore_1_1BaseConnector.html" target="_top" xlink:title=" ">
<polygon fill="white" stroke="#666666" points="498,-223.5 291,-223.5 291,-182.5 498,-182.5 498,-223.5"/>
<text text-anchor="start" x="299" y="-211.5" font-family="Helvetica" font-size="10.00">ATAS.DataFeedsCore.BaseConnector</text>
<text text-anchor="start" x="299" y="-200.5" font-family="Helvetica" font-size="10.00">&lt; TMessage, TPortfolioKey,</text>
<text text-anchor="middle" x="394.5" y="-189.5" font-family="Helvetica" font-size="10.00"> TSecurityKey, TSecurityPositionManager &gt;</text>
</a>
</g>
</g>
<!-- Node1&#45;&gt;Node3 -->
<g id="edge2_Node000001_Node000003" class="edge">
<title>Node1&#45;&gt;Node3</title>
<g id="a_edge2_Node000001_Node000003"><a xlink:title=" ">
<path fill="none" stroke="#63b8ff" d="M212.49,-122.41C232.81,-138.25 262.32,-159.36 291,-173 298.28,-176.46 306.05,-179.62 313.93,-182.47"/>
<polygon fill="#63b8ff" stroke="#63b8ff" points="214.66,-119.66 204.65,-116.2 210.31,-125.15 214.66,-119.66"/>
</a>
</g>
</g>
<!-- Node4 -->
<g id="Node000004" class="node">
<title>Node4</title>
<g id="a_Node000004"><a xlink:href="classATAS_1_1DataFeedsCore_1_1BasketConnector.html" target="_top" xlink:title=" ">
<polygon fill="white" stroke="#666666" points="467.5,-164 321.5,-164 321.5,-134 467.5,-134 467.5,-164"/>
<text text-anchor="start" x="329.5" y="-152" font-family="Helvetica" font-size="10.00">ATAS.DataFeedsCore.Basket</text>
<text text-anchor="middle" x="394.5" y="-141" font-family="Helvetica" font-size="10.00">Connector</text>
</a>
</g>
</g>
<!-- Node1&#45;&gt;Node4 -->
<g id="edge3_Node000001_Node000004" class="edge">
<title>Node1&#45;&gt;Node4</title>
<g id="a_edge3_Node000001_Node000004"><a xlink:title=" ">
<path fill="none" stroke="#63b8ff" d="M261.42,-118.37C283.49,-123.49 307.43,-129.04 328.8,-134"/>
<polygon fill="#63b8ff" stroke="#63b8ff" points="261.96,-114.91 251.43,-116.06 260.38,-121.72 261.96,-114.91"/>
</a>
</g>
</g>
<!-- Node5 -->
<g id="Node000005" class="node">
<title>Node5</title>
<g id="a_Node000005"><a xlink:href="interfaceATAS_1_1DataFeedsCore_1_1ICryptoKeySecretConnector.html" target="_top" xlink:title=" ">
<polygon fill="white" stroke="#666666" points="469,-116 320,-116 320,-86 469,-86 469,-116"/>
<text text-anchor="start" x="328" y="-104" font-family="Helvetica" font-size="10.00">ATAS.DataFeedsCore.ICrypto</text>
<text text-anchor="middle" x="394.5" y="-93" font-family="Helvetica" font-size="10.00">KeySecretConnector</text>
</a>
</g>
</g>
<!-- Node1&#45;&gt;Node5 -->
<g id="edge4_Node000001_Node000005" class="edge">
<title>Node1&#45;&gt;Node5</title>
<g id="a_edge4_Node000001_Node000005"><a xlink:title=" ">
<path fill="none" stroke="#63b8ff" d="M265.49,-101C283.29,-101 302.13,-101 319.71,-101"/>
<polygon fill="#63b8ff" stroke="#63b8ff" points="265.14,-97.5 255.14,-101 265.14,-104.5 265.14,-97.5"/>
</a>
</g>
</g>
<!-- Node8 -->
<g id="Node000008" class="node">
<title>Node8</title>
<g id="a_Node000008"><a xlink:href="interfaceATAS_1_1DataFeedsCore_1_1ILiquidationFeed.html" target="_top" xlink:title="Provides liquidation orders stream for securities.">
<polygon fill="white" stroke="#666666" points="488,-67.5 301,-67.5 301,-48.5 488,-48.5 488,-67.5"/>
<text text-anchor="middle" x="394.5" y="-55.5" font-family="Helvetica" font-size="10.00">ATAS.DataFeedsCore.ILiquidationFeed</text>
</a>
</g>
</g>
<!-- Node1&#45;&gt;Node8 -->
<g id="edge7_Node000001_Node000008" class="edge">
<title>Node1&#45;&gt;Node8</title>
<g id="a_edge7_Node000001_Node000008"><a xlink:title=" ">
<path fill="none" stroke="#63b8ff" d="M259.88,-83.73C270.31,-81.4 280.92,-79.09 291,-77 306.77,-73.73 323.97,-70.44 339.69,-67.53"/>
<polygon fill="#63b8ff" stroke="#63b8ff" points="258.94,-80.36 249.96,-85.97 260.48,-87.19 258.94,-80.36"/>
</a>
</g>
</g>
<!-- Node9 -->
<g id="Node000009" class="node">
<title>Node9</title>
<g id="a_Node000009"><a xlink:href="interfaceATAS_1_1DataFeedsCore_1_1IReferralAccountConnector.html" target="_top" xlink:title=" ">
<polygon fill="white" stroke="#666666" points="470.5,-30 318.5,-30 318.5,0 470.5,0 470.5,-30"/>
<text text-anchor="start" x="326.5" y="-18" font-family="Helvetica" font-size="10.00">ATAS.DataFeedsCore.IReferral</text>
<text text-anchor="middle" x="394.5" y="-7" font-family="Helvetica" font-size="10.00">AccountConnector</text>
</a>
</g>
</g>
<!-- Node1&#45;&gt;Node9 -->
<g id="edge8_Node000001_Node000009" class="edge">
<title>Node1&#45;&gt;Node9</title>
<g id="a_edge8_Node000001_Node000009"><a xlink:title=" ">
<path fill="none" stroke="#63b8ff" d="M215.98,-80.19C236.25,-66.73 264.24,-49.77 291,-39 299.73,-35.48 309.1,-32.41 318.49,-29.75"/>
<polygon fill="#63b8ff" stroke="#63b8ff" points="213.84,-77.41 207.51,-85.9 217.76,-83.21 213.84,-77.41"/>
</a>
</g>
</g>
<!-- Node2 -->
<g id="Node000002" class="node">
<title>Node2</title>
<g id="a_Node000002"><a xlink:title=" ">
<polygon fill="white" stroke="#666666" points="80,-110.5 0,-110.5 0,-91.5 80,-91.5 80,-110.5"/>
<text text-anchor="middle" x="40" y="-98.5" font-family="Helvetica" font-size="10.00">ILoggerSource</text>
</a>
</g>
</g>
<!-- Node2&#45;&gt;Node1 -->
<g id="edge1_Node000001_Node000002" class="edge">
<title>Node2&#45;&gt;Node1</title>
<g id="a_edge1_Node000001_Node000002"><a xlink:title=" ">
<path fill="none" stroke="#63b8ff" d="M90.35,-101C98.57,-101 107.22,-101 115.81,-101"/>
<polygon fill="#63b8ff" stroke="#63b8ff" points="90.21,-97.5 80.21,-101 90.21,-104.5 90.21,-97.5"/>
</a>
</g>
</g>
<!-- Node6 -->
<g id="Node000006" class="node">
<title>Node6</title>
<g id="a_Node000006"><a xlink:href="classATAS_1_1DataFeedsCore_1_1CryptoAsyncConnector.html" target="_top" xlink:title=" ">
<polygon fill="white" stroke="#666666" points="693,-150.5 534,-150.5 534,-109.5 693,-109.5 693,-150.5"/>
<text text-anchor="start" x="542" y="-138.5" font-family="Helvetica" font-size="10.00">ATAS.DataFeedsCore.Crypto</text>
<text text-anchor="start" x="542" y="-127.5" font-family="Helvetica" font-size="10.00">AsyncConnector&lt; TPortfolioKey,</text>
<text text-anchor="middle" x="613.5" y="-116.5" font-family="Helvetica" font-size="10.00"> TSecurityKey &gt;</text>
</a>
</g>
</g>
<!-- Node5&#45;&gt;Node6 -->
<g id="edge5_Node000005_Node000006" class="edge">
<title>Node5&#45;&gt;Node6</title>
<g id="a_edge5_Node000005_Node000006"><a xlink:title=" ">
<path fill="none" stroke="#63b8ff" d="M479.63,-112.24C497.43,-114.62 516.15,-117.12 533.74,-119.47"/>
<polygon fill="#63b8ff" stroke="#63b8ff" points="479.64,-108.71 469.27,-110.86 478.72,-115.65 479.64,-108.71"/>
</a>
</g>
</g>
<!-- Node7 -->
<g id="Node000007" class="node">
<title>Node7</title>
<g id="a_Node000007"><a xlink:href="classATAS_1_1DataFeedsCore_1_1CryptoBaseConnector.html" target="_top" xlink:title=" ">
<polygon fill="white" stroke="#666666" points="689.5,-91.5 537.5,-91.5 537.5,-50.5 689.5,-50.5 689.5,-91.5"/>
<text text-anchor="start" x="545.5" y="-79.5" font-family="Helvetica" font-size="10.00">ATAS.DataFeedsCore.Crypto</text>
<text text-anchor="start" x="545.5" y="-68.5" font-family="Helvetica" font-size="10.00">BaseConnector&lt; TMessage,</text>
<text text-anchor="middle" x="613.5" y="-57.5" font-family="Helvetica" font-size="10.00"> TPortfolioKey, TSecurityKey &gt;</text>
</a>
</g>
</g>
<!-- Node5&#45;&gt;Node7 -->
<g id="edge6_Node000005_Node000007" class="edge">
<title>Node5&#45;&gt;Node7</title>
<g id="a_edge6_Node000005_Node000007"><a xlink:title=" ">
<path fill="none" stroke="#63b8ff" d="M479.19,-89.43C498.38,-86.78 518.66,-83.97 537.46,-81.37"/>
<polygon fill="#63b8ff" stroke="#63b8ff" points="478.7,-85.96 469.27,-90.8 479.65,-92.9 478.7,-85.96"/>
</a>
</g>
</g>
</g>
</svg>
