<?xml version="1.0" encoding="UTF-8" standalone="no"?>
<!DOCTYPE svg PUBLIC "-//W3C//DTD SVG 1.1//EN"
 "http://www.w3.org/Graphics/SVG/1.1/DTD/svg11.dtd">
<!-- Generated by graphviz version 2.44.0 (0)
 -->
<!-- Title: ATAS.Strategies.ATM.ISimpleStopProfitStrategy Pages: 1 -->
<svg width="310pt" height="269pt"
 viewBox="0.00 0.00 310.00 269.00" xmlns="http://www.w3.org/2000/svg" xmlns:xlink="http://www.w3.org/1999/xlink">
<g id="graph0" class="graph" transform="scale(1 1) rotate(0) translate(4 265)">
<title>ATAS.Strategies.ATM.ISimpleStopProfitStrategy</title>
<!-- Node1 -->
<g id="Node000001" class="node">
<title>Node1</title>
<g id="a_Node000001"><a xlink:title=" ">
<polygon fill="#999999" stroke="#666666" points="226,-30 78,-30 78,0 226,0 226,-30"/>
<text text-anchor="start" x="86" y="-18" font-family="Helvetica" font-size="10.00">ATAS.Strategies.ATM.ISimple</text>
<text text-anchor="middle" x="152" y="-7" font-family="Helvetica" font-size="10.00">StopProfitStrategy</text>
</a>
</g>
</g>
<!-- Node2 -->
<g id="Node000002" class="node">
<title>Node2</title>
<g id="a_Node000002"><a xlink:href="interfaceATAS_1_1Strategies_1_1ATM_1_1IStopProfitStrategy.html" target="_top" xlink:title=" ">
<polygon fill="white" stroke="#666666" points="144,-96 0,-96 0,-66 144,-66 144,-96"/>
<text text-anchor="start" x="8" y="-84" font-family="Helvetica" font-size="10.00">IStopProfitStrategy</text>
<text text-anchor="middle" x="72" y="-73" font-family="Helvetica" font-size="10.00">&lt; SimpleStopProfitSettings &gt;</text>
</a>
</g>
</g>
<!-- Node2&#45;&gt;Node1 -->
<g id="edge1_Node000001_Node000002" class="edge">
<title>Node2&#45;&gt;Node1</title>
<g id="a_edge1_Node000001_Node000002"><a xlink:title=" ">
<path fill="none" stroke="#63b8ff" d="M97.65,-59.48C109.61,-49.91 123.53,-38.77 134.3,-30.16"/>
<polygon fill="#63b8ff" stroke="#63b8ff" points="95.38,-56.82 89.75,-65.8 99.75,-62.28 95.38,-56.82"/>
</a>
</g>
</g>
<!-- Node3 -->
<g id="Node000003" class="node">
<title>Node3</title>
<g id="a_Node000003"><a xlink:href="interfaceATAS_1_1Strategies_1_1ATM_1_1ISupportCustomStopOrTake.html" target="_top" xlink:title=" ">
<polygon fill="white" stroke="#666666" points="302,-90.5 162,-90.5 162,-71.5 302,-71.5 302,-90.5"/>
<text text-anchor="middle" x="232" y="-78.5" font-family="Helvetica" font-size="10.00">ISupportCustomStopOrTake</text>
</a>
</g>
</g>
<!-- Node3&#45;&gt;Node1 -->
<g id="edge2_Node000001_Node000003" class="edge">
<title>Node3&#45;&gt;Node1</title>
<g id="a_edge2_Node000001_Node000003"><a xlink:title=" ">
<path fill="none" stroke="#63b8ff" d="M213.27,-65.02C200.09,-54.48 182.57,-40.46 169.64,-30.12"/>
<polygon fill="#63b8ff" stroke="#63b8ff" points="211.22,-67.85 221.21,-71.37 215.59,-62.39 211.22,-67.85"/>
</a>
</g>
</g>
<!-- Node4 -->
<g id="Node000004" class="node">
<title>Node4</title>
<g id="a_Node000004"><a xlink:href="interfaceATAS_1_1Strategies_1_1ATM_1_1IATMStrategy.html" target="_top" xlink:title=" ">
<polygon fill="white" stroke="#666666" points="270.5,-151 193.5,-151 193.5,-132 270.5,-132 270.5,-151"/>
<text text-anchor="middle" x="232" y="-139" font-family="Helvetica" font-size="10.00">IATMStrategy</text>
</a>
</g>
</g>
<!-- Node4&#45;&gt;Node3 -->
<g id="edge3_Node000003_Node000004" class="edge">
<title>Node4&#45;&gt;Node3</title>
<g id="a_edge3_Node000003_Node000004"><a xlink:title=" ">
<path fill="none" stroke="#63b8ff" d="M232,-121.66C232,-111.24 232,-98.8 232,-90.67"/>
<polygon fill="#63b8ff" stroke="#63b8ff" points="228.5,-121.87 232,-131.87 235.5,-121.87 228.5,-121.87"/>
</a>
</g>
</g>
<!-- Node5 -->
<g id="Node000005" class="node">
<title>Node5</title>
<g id="a_Node000005"><a xlink:href="interfaceATAS_1_1Strategies_1_1IStrategy.html" target="_top" xlink:title="Represents a trading strategy.">
<polygon fill="white" stroke="#666666" points="260,-206 204,-206 204,-187 260,-187 260,-206"/>
<text text-anchor="middle" x="232" y="-194" font-family="Helvetica" font-size="10.00">IStrategy</text>
</a>
</g>
</g>
<!-- Node5&#45;&gt;Node4 -->
<g id="edge4_Node000004_Node000005" class="edge">
<title>Node5&#45;&gt;Node4</title>
<g id="a_edge4_Node000004_Node000005"><a xlink:title=" ">
<path fill="none" stroke="#63b8ff" d="M232,-176.66C232,-167.93 232,-157.99 232,-151.09"/>
<polygon fill="#63b8ff" stroke="#63b8ff" points="228.5,-176.75 232,-186.75 235.5,-176.75 228.5,-176.75"/>
</a>
</g>
</g>
<!-- Node6 -->
<g id="Node000006" class="node">
<title>Node6</title>
<g id="a_Node000006"><a xlink:title=" ">
<polygon fill="white" stroke="#666666" points="293,-261 171,-261 171,-242 293,-242 293,-261"/>
<text text-anchor="middle" x="232" y="-249" font-family="Helvetica" font-size="10.00">INotifyPropertyChanged</text>
</a>
</g>
</g>
<!-- Node6&#45;&gt;Node5 -->
<g id="edge5_Node000005_Node000006" class="edge">
<title>Node6&#45;&gt;Node5</title>
<g id="a_edge5_Node000005_Node000006"><a xlink:title=" ">
<path fill="none" stroke="#63b8ff" d="M232,-231.66C232,-222.93 232,-212.99 232,-206.09"/>
<polygon fill="#63b8ff" stroke="#63b8ff" points="228.5,-231.75 232,-241.75 235.5,-231.75 228.5,-231.75"/>
</a>
</g>
</g>
</g>
</svg>
