<?xml version="1.0" encoding="UTF-8" standalone="no"?>
<!DOCTYPE svg PUBLIC "-//W3C//DTD SVG 1.1//EN"
 "http://www.w3.org/Graphics/SVG/1.1/DTD/svg11.dtd">
<!-- Generated by graphviz version 2.44.0 (0)
 -->
<!-- Title: ATAS.Indicators.IMarketByOrdersDataProvider Pages: 1 -->
<svg width="322pt" height="134pt"
 viewBox="0.00 0.00 322.00 134.00" xmlns="http://www.w3.org/2000/svg" xmlns:xlink="http://www.w3.org/1999/xlink">
<g id="graph0" class="graph" transform="scale(1 1) rotate(0) translate(4 130)">
<title>ATAS.Indicators.IMarketByOrdersDataProvider</title>
<!-- Node1 -->
<g id="Node000001" class="node">
<title>Node1</title>
<g id="a_Node000001"><a xlink:title="Interface for manager that provides access to market by order data.">
<polygon fill="#999999" stroke="#666666" points="136,-78 0,-78 0,-48 136,-48 136,-78"/>
<text text-anchor="start" x="8" y="-66" font-family="Helvetica" font-size="10.00">ATAS.Indicators.IMarketBy</text>
<text text-anchor="middle" x="68" y="-55" font-family="Helvetica" font-size="10.00">OrdersDataProvider</text>
</a>
</g>
</g>
<!-- Node2 -->
<g id="Node000002" class="node">
<title>Node2</title>
<g id="a_Node000002"><a xlink:href="interfaceATAS_1_1Indicators_1_1IMarketByOrdersCache.html" target="_top" xlink:title="Interface for manager that provides access to market by orders cache.">
<polygon fill="white" stroke="#666666" points="311,-126 175,-126 175,-96 311,-96 311,-126"/>
<text text-anchor="start" x="183" y="-114" font-family="Helvetica" font-size="10.00">ATAS.Indicators.IMarketBy</text>
<text text-anchor="middle" x="243" y="-103" font-family="Helvetica" font-size="10.00">OrdersCache</text>
</a>
</g>
</g>
<!-- Node1&#45;&gt;Node2 -->
<g id="edge1_Node000001_Node000002" class="edge">
<title>Node1&#45;&gt;Node2</title>
<g id="a_edge1_Node000001_Node000002"><a xlink:title=" ">
<path fill="none" stroke="#63b8ff" d="M133.11,-80.79C151.14,-85.79 170.55,-91.18 187.93,-96"/>
<polygon fill="#63b8ff" stroke="#63b8ff" points="133.84,-77.36 123.26,-78.06 131.96,-84.1 133.84,-77.36"/>
</a>
</g>
</g>
<!-- Node3 -->
<g id="Node000003" class="node">
<title>Node3</title>
<g id="a_Node000003"><a xlink:href="interfaceATAS_1_1Indicators_1_1IMarketByOrdersWithTradesCache.html" target="_top" xlink:title="Interface for manager that provides access to market by orders and trades cache.">
<polygon fill="white" stroke="#666666" points="311,-78 175,-78 175,-48 311,-48 311,-78"/>
<text text-anchor="start" x="183" y="-66" font-family="Helvetica" font-size="10.00">ATAS.Indicators.IMarketBy</text>
<text text-anchor="middle" x="243" y="-55" font-family="Helvetica" font-size="10.00">OrdersWithTradesCache</text>
</a>
</g>
</g>
<!-- Node1&#45;&gt;Node3 -->
<g id="edge2_Node000001_Node000003" class="edge">
<title>Node1&#45;&gt;Node3</title>
<g id="a_edge2_Node000001_Node000003"><a xlink:title=" ">
<path fill="none" stroke="#63b8ff" d="M146.54,-63C155.97,-63 165.54,-63 174.8,-63"/>
<polygon fill="#63b8ff" stroke="#63b8ff" points="146.38,-59.5 136.38,-63 146.38,-66.5 146.38,-59.5"/>
</a>
</g>
</g>
<!-- Node4 -->
<g id="Node000004" class="node">
<title>Node4</title>
<g id="a_Node000004"><a xlink:href="interfaceATAS_1_1Indicators_1_1IOnlineDataProvider.html" target="_top" xlink:title="Interface for an online data provider that provides access to real&#45;time market data.">
<polygon fill="white" stroke="#666666" points="314,-30 172,-30 172,0 314,0 314,-30"/>
<text text-anchor="start" x="180" y="-18" font-family="Helvetica" font-size="10.00">ATAS.Indicators.IOnlineData</text>
<text text-anchor="middle" x="243" y="-7" font-family="Helvetica" font-size="10.00">Provider</text>
</a>
</g>
</g>
<!-- Node1&#45;&gt;Node4 -->
<g id="edge3_Node000001_Node000004" class="edge">
<title>Node1&#45;&gt;Node4</title>
<g id="a_edge3_Node000001_Node000004"><a xlink:title=" ">
<path fill="none" stroke="#63b8ff" d="M133.11,-45.21C151.14,-40.21 170.55,-34.82 187.93,-30"/>
<polygon fill="#63b8ff" stroke="#63b8ff" points="131.96,-41.9 123.26,-47.94 133.84,-48.64 131.96,-41.9"/>
</a>
</g>
</g>
</g>
</svg>
