<?xml version="1.0" encoding="UTF-8" standalone="no"?>
<!DOCTYPE svg PUBLIC "-//W3C//DTD SVG 1.1//EN"
 "http://www.w3.org/Graphics/SVG/1.1/DTD/svg11.dtd">
<!-- Generated by graphviz version 2.44.0 (0)
 -->
<!-- Title: ATAS.Indicators.IOnlineDataProvider Pages: 1 -->
<svg width="401pt" height="93pt"
 viewBox="0.00 0.00 401.00 93.00" xmlns="http://www.w3.org/2000/svg" xmlns:xlink="http://www.w3.org/1999/xlink">
<g id="graph0" class="graph" transform="scale(1 1) rotate(0) translate(4 89)">
<title>ATAS.Indicators.IOnlineDataProvider</title>
<!-- Node1 -->
<g id="Node000001" class="node">
<title>Node1</title>
<g id="a_Node000001"><a xlink:title="Interface for an online data provider that provides access to real&#45;time market data.">
<polygon fill="#999999" stroke="#666666" points="264.5,-30 122.5,-30 122.5,0 264.5,0 264.5,-30"/>
<text text-anchor="start" x="130.5" y="-18" font-family="Helvetica" font-size="10.00">ATAS.Indicators.IOnlineData</text>
<text text-anchor="middle" x="193.5" y="-7" font-family="Helvetica" font-size="10.00">Provider</text>
</a>
</g>
</g>
<!-- Node2 -->
<g id="Node000002" class="node">
<title>Node2</title>
<g id="a_Node000002"><a xlink:href="interfaceATAS_1_1Indicators_1_1IKnowFixedProfiles.html" target="_top" xlink:title="Represents an interface for objects that know fixed profiles and can request them.">
<polygon fill="white" stroke="#666666" points="101,-85 0,-85 0,-66 101,-66 101,-85"/>
<text text-anchor="middle" x="50.5" y="-73" font-family="Helvetica" font-size="10.00">IKnowFixedProfiles</text>
</a>
</g>
</g>
<!-- Node2&#45;&gt;Node1 -->
<g id="edge1_Node000001_Node000002" class="edge">
<title>Node2&#45;&gt;Node1</title>
<g id="a_edge1_Node000001_Node000002"><a xlink:title=" ">
<path fill="none" stroke="#63b8ff" d="M80.55,-62.21C103.5,-52.82 135.16,-39.87 159.12,-30.06"/>
<polygon fill="#63b8ff" stroke="#63b8ff" points="79.22,-58.97 71.29,-65.99 81.87,-65.45 79.22,-58.97"/>
</a>
</g>
</g>
<!-- Node3 -->
<g id="Node000003" class="node">
<title>Node3</title>
<g id="a_Node000003"><a xlink:href="interfaceATAS_1_1Indicators_1_1IMarketByOrdersDataProvider.html" target="_top" xlink:title="Interface for manager that provides access to market by order data.">
<polygon fill="white" stroke="#666666" points="267.5,-85 119.5,-85 119.5,-66 267.5,-66 267.5,-85"/>
<text text-anchor="middle" x="193.5" y="-73" font-family="Helvetica" font-size="10.00">IMarketByOrdersDataProvider</text>
</a>
</g>
</g>
<!-- Node3&#45;&gt;Node1 -->
<g id="edge2_Node000001_Node000003" class="edge">
<title>Node3&#45;&gt;Node1</title>
<g id="a_edge2_Node000001_Node000003"><a xlink:title=" ">
<path fill="none" stroke="#63b8ff" d="M193.5,-55.65C193.5,-47.36 193.5,-37.78 193.5,-30.11"/>
<polygon fill="#63b8ff" stroke="#63b8ff" points="190,-55.87 193.5,-65.87 197,-55.87 190,-55.87"/>
</a>
</g>
</g>
<!-- Node4 -->
<g id="Node000004" class="node">
<title>Node4</title>
<g id="a_Node000004"><a xlink:href="interfaceATAS_1_1Indicators_1_1IMarketTimeProvider.html" target="_top" xlink:title=" ">
<polygon fill="white" stroke="#666666" points="393,-85 286,-85 286,-66 393,-66 393,-85"/>
<text text-anchor="middle" x="339.5" y="-73" font-family="Helvetica" font-size="10.00">IMarketTimeProvider</text>
</a>
</g>
</g>
<!-- Node4&#45;&gt;Node1 -->
<g id="edge3_Node000001_Node000004" class="edge">
<title>Node4&#45;&gt;Node1</title>
<g id="a_edge3_Node000001_Node000004"><a xlink:title=" ">
<path fill="none" stroke="#63b8ff" d="M308.82,-62.21C285.39,-52.82 253.06,-39.87 228.6,-30.06"/>
<polygon fill="#63b8ff" stroke="#63b8ff" points="307.69,-65.52 318.27,-65.99 310.29,-59.03 307.69,-65.52"/>
</a>
</g>
</g>
</g>
</svg>
