<?xml version="1.0" encoding="UTF-8" standalone="no"?>
<!DOCTYPE svg PUBLIC "-//W3C//DTD SVG 1.1//EN"
 "http://www.w3.org/Graphics/SVG/1.1/DTD/svg11.dtd">
<!-- Generated by graphviz version 2.44.0 (0)
 -->
<!-- Title: ATAS.Strategies.IStrategy Pages: 1 -->
<svg width="1074pt" height="205pt"
 viewBox="0.00 0.00 1074.00 204.50" xmlns="http://www.w3.org/2000/svg" xmlns:xlink="http://www.w3.org/1999/xlink">
<g id="graph0" class="graph" transform="scale(1 1) rotate(0) translate(4 200.5)">
<title>ATAS.Strategies.IStrategy</title>
<!-- Node1 -->
<g id="Node000001" class="node">
<title>Node1</title>
<g id="a_Node000001"><a xlink:title="Represents a trading strategy.">
<polygon fill="#999999" stroke="#666666" points="289,-124.5 158,-124.5 158,-105.5 289,-105.5 289,-124.5"/>
<text text-anchor="middle" x="223.5" y="-112.5" font-family="Helvetica" font-size="10.00">ATAS.Strategies.IStrategy</text>
</a>
</g>
</g>
<!-- Node3 -->
<g id="Node000003" class="node">
<title>Node3</title>
<g id="a_Node000003"><a xlink:href="interfaceATAS_1_1Strategies_1_1ATM_1_1IATMStrategy.html" target="_top" xlink:title=" ">
<polygon fill="white" stroke="#666666" points="500,-124.5 325,-124.5 325,-105.5 500,-105.5 500,-124.5"/>
<text text-anchor="middle" x="412.5" y="-112.5" font-family="Helvetica" font-size="10.00">ATAS.Strategies.ATM.IATMStrategy</text>
</a>
</g>
</g>
<!-- Node1&#45;&gt;Node3 -->
<g id="edge2_Node000001_Node000003" class="edge">
<title>Node1&#45;&gt;Node3</title>
<g id="a_edge2_Node000001_Node000003"><a xlink:title=" ">
<path fill="none" stroke="#63b8ff" d="M299.24,-115C307.64,-115 316.25,-115 324.78,-115"/>
<polygon fill="#63b8ff" stroke="#63b8ff" points="299.12,-111.5 289.12,-115 299.12,-118.5 299.12,-111.5"/>
</a>
</g>
</g>
<!-- Node11 -->
<g id="Node000011" class="node">
<title>Node11</title>
<g id="a_Node000011"><a xlink:href="interfaceATAS_1_1Strategies_1_1Chart_1_1IChartStrategy.html" target="_top" xlink:title="Represents a chart strategy that extends the basic functionality of an IStrategy with additional char...">
<polygon fill="white" stroke="#666666" points="485.5,-59 339.5,-59 339.5,-29 485.5,-29 485.5,-59"/>
<text text-anchor="start" x="347.5" y="-47" font-family="Helvetica" font-size="10.00">ATAS.Strategies.Chart.IChart</text>
<text text-anchor="middle" x="412.5" y="-36" font-family="Helvetica" font-size="10.00">Strategy</text>
</a>
</g>
</g>
<!-- Node1&#45;&gt;Node11 -->
<g id="edge10_Node000001_Node000011" class="edge">
<title>Node1&#45;&gt;Node11</title>
<g id="a_edge10_Node000001_Node000011"><a xlink:title=" ">
<path fill="none" stroke="#63b8ff" d="M259.08,-101.87C290.95,-89.77 338.24,-71.82 371.67,-59.12"/>
<polygon fill="#63b8ff" stroke="#63b8ff" points="257.83,-98.6 249.72,-105.42 260.31,-105.15 257.83,-98.6"/>
</a>
</g>
</g>
<!-- Node14 -->
<g id="Node000014" class="node">
<title>Node14</title>
<g id="a_Node000014"><a xlink:href="classATAS_1_1Strategies_1_1Strategy.html" target="_top" xlink:title="Base class for implementing trading strategies.">
<polygon fill="white" stroke="#666666" points="476.5,-166.5 348.5,-166.5 348.5,-147.5 476.5,-147.5 476.5,-166.5"/>
<text text-anchor="middle" x="412.5" y="-154.5" font-family="Helvetica" font-size="10.00">ATAS.Strategies.Strategy</text>
</a>
</g>
</g>
<!-- Node1&#45;&gt;Node14 -->
<g id="edge13_Node000001_Node000014" class="edge">
<title>Node1&#45;&gt;Node14</title>
<g id="a_edge13_Node000001_Node000014"><a xlink:title=" ">
<path fill="none" stroke="#63b8ff" d="M276.91,-126.77C305.95,-133.29 341.6,-141.3 368.91,-147.43"/>
<polygon fill="#63b8ff" stroke="#63b8ff" points="277.46,-123.31 266.93,-124.53 275.92,-130.14 277.46,-123.31"/>
</a>
</g>
</g>
<!-- Node2 -->
<g id="Node000002" class="node">
<title>Node2</title>
<g id="a_Node000002"><a xlink:title=" ">
<polygon fill="white" stroke="#666666" points="122,-124.5 0,-124.5 0,-105.5 122,-105.5 122,-124.5"/>
<text text-anchor="middle" x="61" y="-112.5" font-family="Helvetica" font-size="10.00">INotifyPropertyChanged</text>
</a>
</g>
</g>
<!-- Node2&#45;&gt;Node1 -->
<g id="edge1_Node000001_Node000002" class="edge">
<title>Node2&#45;&gt;Node1</title>
<g id="a_edge1_Node000001_Node000002"><a xlink:title=" ">
<path fill="none" stroke="#63b8ff" d="M132.45,-115C140.92,-115 149.53,-115 157.91,-115"/>
<polygon fill="#63b8ff" stroke="#63b8ff" points="132.22,-111.5 122.22,-115 132.22,-118.5 132.22,-111.5"/>
</a>
</g>
</g>
<!-- Node4 -->
<g id="Node000004" class="node">
<title>Node4</title>
<g id="a_Node000004"><a xlink:href="classATAS_1_1Strategies_1_1ATM_1_1ATMStrategy.html" target="_top" xlink:title=" ">
<polygon fill="white" stroke="#666666" points="708,-178 536,-178 536,-148 708,-148 708,-178"/>
<text text-anchor="start" x="544" y="-166" font-family="Helvetica" font-size="10.00">ATAS.Strategies.ATM.ATMStrategy</text>
<text text-anchor="middle" x="622" y="-155" font-family="Helvetica" font-size="10.00">&lt; TStrategy &gt;</text>
</a>
</g>
</g>
<!-- Node3&#45;&gt;Node4 -->
<g id="edge3_Node000003_Node000004" class="edge">
<title>Node3&#45;&gt;Node4</title>
<g id="a_edge3_Node000003_Node000004"><a xlink:title=" ">
<path fill="none" stroke="#63b8ff" d="M464.81,-126.87C492.32,-133.23 526.51,-141.14 555.88,-147.94"/>
<polygon fill="#63b8ff" stroke="#63b8ff" points="465.52,-123.44 454.99,-124.6 463.95,-130.26 465.52,-123.44"/>
</a>
</g>
</g>
<!-- Node6 -->
<g id="Node000006" class="node">
<title>Node6</title>
<g id="a_Node000006"><a xlink:href="interfaceATAS_1_1Strategies_1_1ATM_1_1IStopProfitStrategy.html" target="_top" xlink:title=" ">
<polygon fill="white" stroke="#666666" points="691,-130 553,-130 553,-100 691,-100 691,-130"/>
<text text-anchor="start" x="561" y="-118" font-family="Helvetica" font-size="10.00">ATAS.Strategies.ATM.IStop</text>
<text text-anchor="middle" x="622" y="-107" font-family="Helvetica" font-size="10.00">ProfitStrategy&lt; TSettings &gt;</text>
</a>
</g>
</g>
<!-- Node3&#45;&gt;Node6 -->
<g id="edge5_Node000003_Node000006" class="edge">
<title>Node3&#45;&gt;Node6</title>
<g id="a_edge5_Node000003_Node000006"><a xlink:title=" ">
<path fill="none" stroke="#63b8ff" d="M510.64,-115C524.9,-115 539.34,-115 552.85,-115"/>
<polygon fill="#63b8ff" stroke="#63b8ff" points="510.3,-111.5 500.3,-115 510.3,-118.5 510.3,-111.5"/>
</a>
</g>
</g>
<!-- Node8 -->
<g id="Node000008" class="node">
<title>Node8</title>
<g id="a_Node000008"><a xlink:href="interfaceATAS_1_1Strategies_1_1ATM_1_1ISupportCustomStopOrTake.html" target="_top" xlink:title=" ">
<polygon fill="white" stroke="#666666" points="698,-79 546,-79 546,-49 698,-49 698,-79"/>
<text text-anchor="start" x="554" y="-67" font-family="Helvetica" font-size="10.00">ATAS.Strategies.ATM.ISupport</text>
<text text-anchor="middle" x="622" y="-56" font-family="Helvetica" font-size="10.00">CustomStopOrTake</text>
</a>
</g>
</g>
<!-- Node3&#45;&gt;Node8 -->
<g id="edge7_Node000003_Node000008" class="edge">
<title>Node3&#45;&gt;Node8</title>
<g id="a_edge7_Node000003_Node000008"><a xlink:title=" ">
<path fill="none" stroke="#63b8ff" d="M462.46,-102.97C491.54,-95.82 528.69,-86.69 559.71,-79.06"/>
<polygon fill="#63b8ff" stroke="#63b8ff" points="461.4,-99.62 452.53,-105.41 463.08,-106.42 461.4,-99.62"/>
</a>
</g>
</g>
<!-- Node5 -->
<g id="Node000005" class="node">
<title>Node5</title>
<g id="a_Node000005"><a xlink:href="classATAS_1_1Strategies_1_1ATM_1_1BaseStopProfitStrategy.html" target="_top" xlink:title=" ">
<polygon fill="white" stroke="#666666" points="895,-196.5 744,-196.5 744,-155.5 895,-155.5 895,-196.5"/>
<text text-anchor="start" x="752" y="-184.5" font-family="Helvetica" font-size="10.00">ATAS.Strategies.ATM.Base</text>
<text text-anchor="start" x="752" y="-173.5" font-family="Helvetica" font-size="10.00">StopProfitStrategy&lt; TStrategy,</text>
<text text-anchor="middle" x="819.5" y="-162.5" font-family="Helvetica" font-size="10.00"> TSettings &gt;</text>
</a>
</g>
</g>
<!-- Node4&#45;&gt;Node5 -->
<g id="edge4_Node000004_Node000005" class="edge">
<title>Node4&#45;&gt;Node5</title>
<g id="a_edge4_Node000004_Node000005"><a xlink:title=" ">
<path fill="none" stroke="#63b8ff" d="M718.21,-169.33C726.77,-169.9 735.37,-170.47 743.72,-171.03"/>
<polygon fill="#63b8ff" stroke="#63b8ff" points="718.39,-165.84 708.18,-168.66 717.93,-172.82 718.39,-165.84"/>
</a>
</g>
</g>
<!-- Node7 -->
<g id="Node000007" class="node">
<title>Node7</title>
<g id="a_Node000007"><a xlink:href="classATAS_1_1Strategies_1_1ATM_1_1BaseStopProfitStrategy.html" target="_top" xlink:title=" ">
<polygon fill="white" stroke="#666666" points="895,-137.5 744,-137.5 744,-96.5 895,-96.5 895,-137.5"/>
<text text-anchor="start" x="752" y="-125.5" font-family="Helvetica" font-size="10.00">ATAS.Strategies.ATM.Base</text>
<text text-anchor="start" x="752" y="-114.5" font-family="Helvetica" font-size="10.00">StopProfitStrategy&lt; TStrategy,</text>
<text text-anchor="middle" x="819.5" y="-103.5" font-family="Helvetica" font-size="10.00"> TSettings &gt;</text>
</a>
</g>
</g>
<!-- Node6&#45;&gt;Node7 -->
<g id="edge6_Node000006_Node000007" class="edge">
<title>Node6&#45;&gt;Node7</title>
<g id="a_edge6_Node000006_Node000007"><a xlink:title=" ">
<path fill="none" stroke="#63b8ff" d="M701.25,-115.8C715.34,-115.94 729.99,-116.09 743.97,-116.24"/>
<polygon fill="#63b8ff" stroke="#63b8ff" points="701.14,-112.3 691.1,-115.7 701.07,-119.3 701.14,-112.3"/>
</a>
</g>
</g>
<!-- Node9 -->
<g id="Node000009" class="node">
<title>Node9</title>
<g id="a_Node000009"><a xlink:href="interfaceATAS_1_1Strategies_1_1ATM_1_1ISimpleStopProfitStrategy.html" target="_top" xlink:title=" ">
<polygon fill="white" stroke="#666666" points="893.5,-78 745.5,-78 745.5,-48 893.5,-48 893.5,-78"/>
<text text-anchor="start" x="753.5" y="-66" font-family="Helvetica" font-size="10.00">ATAS.Strategies.ATM.ISimple</text>
<text text-anchor="middle" x="819.5" y="-55" font-family="Helvetica" font-size="10.00">StopProfitStrategy</text>
</a>
</g>
</g>
<!-- Node8&#45;&gt;Node9 -->
<g id="edge8_Node000008_Node000009" class="edge">
<title>Node8&#45;&gt;Node9</title>
<g id="a_edge8_Node000008_Node000009"><a xlink:title=" ">
<path fill="none" stroke="#63b8ff" d="M708.3,-63.56C720.63,-63.5 733.22,-63.44 745.29,-63.37"/>
<polygon fill="#63b8ff" stroke="#63b8ff" points="708.01,-60.07 698.03,-63.62 708.04,-67.06 708.01,-60.07"/>
</a>
</g>
</g>
<!-- Node10 -->
<g id="Node000010" class="node">
<title>Node10</title>
<g id="a_Node000010"><a xlink:href="classATAS_1_1Strategies_1_1ATM_1_1StopProfit.html" target="_top" xlink:title=" ">
<polygon fill="white" stroke="#666666" points="1066,-78 931,-78 931,-48 1066,-48 1066,-78"/>
<text text-anchor="start" x="939" y="-66" font-family="Helvetica" font-size="10.00">ATAS.Strategies.ATM.Stop</text>
<text text-anchor="middle" x="998.5" y="-55" font-family="Helvetica" font-size="10.00">Profit</text>
</a>
</g>
</g>
<!-- Node9&#45;&gt;Node10 -->
<g id="edge9_Node000009_Node000010" class="edge">
<title>Node9&#45;&gt;Node10</title>
<g id="a_edge9_Node000009_Node000010"><a xlink:title=" ">
<path fill="none" stroke="#63b8ff" d="M903.74,-63C912.85,-63 922.03,-63 930.9,-63"/>
<polygon fill="#63b8ff" stroke="#63b8ff" points="903.51,-59.5 893.51,-63 903.51,-66.5 903.51,-59.5"/>
</a>
</g>
</g>
<!-- Node12 -->
<g id="Node000012" class="node">
<title>Node12</title>
<g id="a_Node000012"><a xlink:href="classATAS_1_1Strategies_1_1Chart_1_1ChartStrategy.html" target="_top" xlink:title="Represents an abstract class for a chart strategy that extends the functionality of an Indicator and ...">
<polygon fill="white" stroke="#666666" points="693.5,-31 550.5,-31 550.5,-1 693.5,-1 693.5,-31"/>
<text text-anchor="start" x="558.5" y="-19" font-family="Helvetica" font-size="10.00">ATAS.Strategies.Chart.Chart</text>
<text text-anchor="middle" x="622" y="-8" font-family="Helvetica" font-size="10.00">Strategy</text>
</a>
</g>
</g>
<!-- Node11&#45;&gt;Node12 -->
<g id="edge11_Node000011_Node000012" class="edge">
<title>Node11&#45;&gt;Node12</title>
<g id="a_edge11_Node000011_Node000012"><a xlink:title=" ">
<path fill="none" stroke="#63b8ff" d="M495.72,-32.91C513.8,-30.47 532.8,-27.9 550.38,-25.53"/>
<polygon fill="#63b8ff" stroke="#63b8ff" points="495.22,-29.44 485.78,-34.25 496.16,-36.38 495.22,-29.44"/>
</a>
</g>
</g>
<!-- Node13 -->
<g id="Node000013" class="node">
<title>Node13</title>
<g id="a_Node000013"><a xlink:href="classATAS_1_1Strategies_1_1Chart_1_1SmaChartStrategy.html" target="_top" xlink:title=" ">
<polygon fill="white" stroke="#666666" points="889,-30 750,-30 750,0 889,0 889,-30"/>
<text text-anchor="start" x="758" y="-18" font-family="Helvetica" font-size="10.00">ATAS.Strategies.Chart.Sma</text>
<text text-anchor="middle" x="819.5" y="-7" font-family="Helvetica" font-size="10.00">ChartStrategy</text>
</a>
</g>
</g>
<!-- Node12&#45;&gt;Node13 -->
<g id="edge12_Node000012_Node000013" class="edge">
<title>Node12&#45;&gt;Node13</title>
<g id="a_edge12_Node000012_Node000013"><a xlink:title=" ">
<path fill="none" stroke="#63b8ff" d="M703.6,-15.59C719.01,-15.51 735,-15.43 749.99,-15.35"/>
<polygon fill="#63b8ff" stroke="#63b8ff" points="703.56,-12.09 693.58,-15.64 703.6,-19.09 703.56,-12.09"/>
</a>
</g>
</g>
<!-- Node14&#45;&gt;Node4 -->
<g id="edge14_Node000014_Node000004" class="edge">
<title>Node14&#45;&gt;Node4</title>
<g id="a_edge14_Node000014_Node000004"><a xlink:title=" ">
<path fill="none" stroke="#63b8ff" d="M486.81,-159.12C502.6,-159.58 519.42,-160.06 535.63,-160.53"/>
<polygon fill="#63b8ff" stroke="#63b8ff" points="486.7,-155.62 476.6,-158.82 486.5,-162.61 486.7,-155.62"/>
</a>
</g>
</g>
</g>
</svg>
