<?xml version="1.0" encoding="UTF-8" standalone="no"?>
<!DOCTYPE svg PUBLIC "-//W3C//DTD SVG 1.1//EN"
 "http://www.w3.org/Graphics/SVG/1.1/DTD/svg11.dtd">
<!-- Generated by graphviz version 2.44.0 (0)
 -->
<!-- Title: ATAS.DataFeedsCore.Database.IDatabaseManager Pages: 1 -->
<svg width="168pt" height="159pt"
 viewBox="0.00 0.00 168.00 159.00" xmlns="http://www.w3.org/2000/svg" xmlns:xlink="http://www.w3.org/1999/xlink">
<g id="graph0" class="graph" transform="scale(1 1) rotate(0) translate(4 155)">
<title>ATAS.DataFeedsCore.Database.IDatabaseManager</title>
<!-- Node1 -->
<g id="Node000001" class="node">
<title>Node1</title>
<g id="a_Node000001"><a xlink:title=" ">
<polygon fill="#999999" stroke="#666666" points="160,-96 0,-96 0,-66 160,-66 160,-96"/>
<text text-anchor="start" x="8" y="-84" font-family="Helvetica" font-size="10.00">ATAS.DataFeedsCore.Database.</text>
<text text-anchor="middle" x="80" y="-73" font-family="Helvetica" font-size="10.00">IDatabaseManager</text>
</a>
</g>
</g>
<!-- Node3 -->
<g id="Node000003" class="node">
<title>Node3</title>
<g id="a_Node000003"><a xlink:href="classATAS_1_1DataFeedsCore_1_1Database_1_1DatabaseManager.html" target="_top" xlink:title=" ">
<polygon fill="white" stroke="#666666" points="160,-30 0,-30 0,0 160,0 160,-30"/>
<text text-anchor="start" x="8" y="-18" font-family="Helvetica" font-size="10.00">ATAS.DataFeedsCore.Database.</text>
<text text-anchor="middle" x="80" y="-7" font-family="Helvetica" font-size="10.00">DatabaseManager</text>
</a>
</g>
</g>
<!-- Node1&#45;&gt;Node3 -->
<g id="edge2_Node000001_Node000003" class="edge">
<title>Node1&#45;&gt;Node3</title>
<g id="a_edge2_Node000001_Node000003"><a xlink:title=" ">
<path fill="none" stroke="#63b8ff" d="M80,-55.54C80,-46.96 80,-37.61 80,-30.16"/>
<polygon fill="#63b8ff" stroke="#63b8ff" points="76.5,-55.8 80,-65.8 83.5,-55.8 76.5,-55.8"/>
</a>
</g>
</g>
<!-- Node2 -->
<g id="Node000002" class="node">
<title>Node2</title>
<g id="a_Node000002"><a xlink:title=" ">
<polygon fill="white" stroke="#666666" points="114,-151 46,-151 46,-132 114,-132 114,-151"/>
<text text-anchor="middle" x="80" y="-139" font-family="Helvetica" font-size="10.00">IDisposable</text>
</a>
</g>
</g>
<!-- Node2&#45;&gt;Node1 -->
<g id="edge1_Node000001_Node000002" class="edge">
<title>Node2&#45;&gt;Node1</title>
<g id="a_edge1_Node000001_Node000002"><a xlink:title=" ">
<path fill="none" stroke="#63b8ff" d="M80,-121.65C80,-113.36 80,-103.78 80,-96.11"/>
<polygon fill="#63b8ff" stroke="#63b8ff" points="76.5,-121.87 80,-131.87 83.5,-121.87 76.5,-121.87"/>
</a>
</g>
</g>
</g>
</svg>
