<?xml version="1.0" encoding="UTF-8" standalone="no"?>
<!DOCTYPE svg PUBLIC "-//W3C//DTD SVG 1.1//EN"
 "http://www.w3.org/Graphics/SVG/1.1/DTD/svg11.dtd">
<!-- Generated by graphviz version 2.44.0 (0)
 -->
<!-- Title: ATAS.Strategies.ATM.ISupportCustomStopOrTake Pages: 1 -->
<svg width="160pt" height="335pt"
 viewBox="0.00 0.00 160.00 335.00" xmlns="http://www.w3.org/2000/svg" xmlns:xlink="http://www.w3.org/1999/xlink">
<g id="graph0" class="graph" transform="scale(1 1) rotate(0) translate(4 331)">
<title>ATAS.Strategies.ATM.ISupportCustomStopOrTake</title>
<!-- Node1 -->
<g id="Node000001" class="node">
<title>Node1</title>
<g id="a_Node000001"><a xlink:title=" ">
<polygon fill="#999999" stroke="#666666" points="152,-162 0,-162 0,-132 152,-132 152,-162"/>
<text text-anchor="start" x="8" y="-150" font-family="Helvetica" font-size="10.00">ATAS.Strategies.ATM.ISupport</text>
<text text-anchor="middle" x="76" y="-139" font-family="Helvetica" font-size="10.00">CustomStopOrTake</text>
</a>
</g>
</g>
<!-- Node5 -->
<g id="Node000005" class="node">
<title>Node5</title>
<g id="a_Node000005"><a xlink:href="interfaceATAS_1_1Strategies_1_1ATM_1_1ISimpleStopProfitStrategy.html" target="_top" xlink:title=" ">
<polygon fill="white" stroke="#666666" points="150,-96 2,-96 2,-66 150,-66 150,-96"/>
<text text-anchor="start" x="10" y="-84" font-family="Helvetica" font-size="10.00">ATAS.Strategies.ATM.ISimple</text>
<text text-anchor="middle" x="76" y="-73" font-family="Helvetica" font-size="10.00">StopProfitStrategy</text>
</a>
</g>
</g>
<!-- Node1&#45;&gt;Node5 -->
<g id="edge4_Node000001_Node000005" class="edge">
<title>Node1&#45;&gt;Node5</title>
<g id="a_edge4_Node000001_Node000005"><a xlink:title=" ">
<path fill="none" stroke="#63b8ff" d="M76,-121.54C76,-112.96 76,-103.61 76,-96.16"/>
<polygon fill="#63b8ff" stroke="#63b8ff" points="72.5,-121.8 76,-131.8 79.5,-121.8 72.5,-121.8"/>
</a>
</g>
</g>
<!-- Node2 -->
<g id="Node000002" class="node">
<title>Node2</title>
<g id="a_Node000002"><a xlink:href="interfaceATAS_1_1Strategies_1_1ATM_1_1IATMStrategy.html" target="_top" xlink:title=" ">
<polygon fill="white" stroke="#666666" points="114.5,-217 37.5,-217 37.5,-198 114.5,-198 114.5,-217"/>
<text text-anchor="middle" x="76" y="-205" font-family="Helvetica" font-size="10.00">IATMStrategy</text>
</a>
</g>
</g>
<!-- Node2&#45;&gt;Node1 -->
<g id="edge1_Node000001_Node000002" class="edge">
<title>Node2&#45;&gt;Node1</title>
<g id="a_edge1_Node000001_Node000002"><a xlink:title=" ">
<path fill="none" stroke="#63b8ff" d="M76,-187.65C76,-179.36 76,-169.78 76,-162.11"/>
<polygon fill="#63b8ff" stroke="#63b8ff" points="72.5,-187.87 76,-197.87 79.5,-187.87 72.5,-187.87"/>
</a>
</g>
</g>
<!-- Node3 -->
<g id="Node000003" class="node">
<title>Node3</title>
<g id="a_Node000003"><a xlink:href="interfaceATAS_1_1Strategies_1_1IStrategy.html" target="_top" xlink:title="Represents a trading strategy.">
<polygon fill="white" stroke="#666666" points="104,-272 48,-272 48,-253 104,-253 104,-272"/>
<text text-anchor="middle" x="76" y="-260" font-family="Helvetica" font-size="10.00">IStrategy</text>
</a>
</g>
</g>
<!-- Node3&#45;&gt;Node2 -->
<g id="edge2_Node000002_Node000003" class="edge">
<title>Node3&#45;&gt;Node2</title>
<g id="a_edge2_Node000002_Node000003"><a xlink:title=" ">
<path fill="none" stroke="#63b8ff" d="M76,-242.66C76,-233.93 76,-223.99 76,-217.09"/>
<polygon fill="#63b8ff" stroke="#63b8ff" points="72.5,-242.75 76,-252.75 79.5,-242.75 72.5,-242.75"/>
</a>
</g>
</g>
<!-- Node4 -->
<g id="Node000004" class="node">
<title>Node4</title>
<g id="a_Node000004"><a xlink:title=" ">
<polygon fill="white" stroke="#666666" points="137,-327 15,-327 15,-308 137,-308 137,-327"/>
<text text-anchor="middle" x="76" y="-315" font-family="Helvetica" font-size="10.00">INotifyPropertyChanged</text>
</a>
</g>
</g>
<!-- Node4&#45;&gt;Node3 -->
<g id="edge3_Node000003_Node000004" class="edge">
<title>Node4&#45;&gt;Node3</title>
<g id="a_edge3_Node000003_Node000004"><a xlink:title=" ">
<path fill="none" stroke="#63b8ff" d="M76,-297.66C76,-288.93 76,-278.99 76,-272.09"/>
<polygon fill="#63b8ff" stroke="#63b8ff" points="72.5,-297.75 76,-307.75 79.5,-297.75 72.5,-297.75"/>
</a>
</g>
</g>
<!-- Node6 -->
<g id="Node000006" class="node">
<title>Node6</title>
<g id="a_Node000006"><a xlink:href="classATAS_1_1Strategies_1_1ATM_1_1StopProfit.html" target="_top" xlink:title=" ">
<polygon fill="white" stroke="#666666" points="143.5,-30 8.5,-30 8.5,0 143.5,0 143.5,-30"/>
<text text-anchor="start" x="16.5" y="-18" font-family="Helvetica" font-size="10.00">ATAS.Strategies.ATM.Stop</text>
<text text-anchor="middle" x="76" y="-7" font-family="Helvetica" font-size="10.00">Profit</text>
</a>
</g>
</g>
<!-- Node5&#45;&gt;Node6 -->
<g id="edge5_Node000005_Node000006" class="edge">
<title>Node5&#45;&gt;Node6</title>
<g id="a_edge5_Node000005_Node000006"><a xlink:title=" ">
<path fill="none" stroke="#63b8ff" d="M76,-55.54C76,-46.96 76,-37.61 76,-30.16"/>
<polygon fill="#63b8ff" stroke="#63b8ff" points="72.5,-55.8 76,-65.8 79.5,-55.8 72.5,-55.8"/>
</a>
</g>
</g>
</g>
</svg>
