<?xml version="1.0" encoding="UTF-8" standalone="no"?>
<!DOCTYPE svg PUBLIC "-//W3C//DTD SVG 1.1//EN"
 "http://www.w3.org/Graphics/SVG/1.1/DTD/svg11.dtd">
<!-- Generated by graphviz version 2.44.0 (0)
 -->
<!-- Title: ATAS.Strategies.ATM.IStopProfitStrategy&lt; TSettings &gt; Pages: 1 -->
<svg width="146pt" height="203pt"
 viewBox="0.00 0.00 146.00 203.00" xmlns="http://www.w3.org/2000/svg" xmlns:xlink="http://www.w3.org/1999/xlink">
<g id="graph0" class="graph" transform="scale(1 1) rotate(0) translate(4 199)">
<title>ATAS.Strategies.ATM.IStopProfitStrategy&lt; TSettings &gt;</title>
<!-- Node1 -->
<g id="Node000001" class="node">
<title>Node1</title>
<g id="a_Node000001"><a xlink:title=" ">
<polygon fill="#999999" stroke="#666666" points="138,-30 0,-30 0,0 138,0 138,-30"/>
<text text-anchor="start" x="8" y="-18" font-family="Helvetica" font-size="10.00">ATAS.Strategies.ATM.IStop</text>
<text text-anchor="middle" x="69" y="-7" font-family="Helvetica" font-size="10.00">ProfitStrategy&lt; TSettings &gt;</text>
</a>
</g>
</g>
<!-- Node2 -->
<g id="Node000002" class="node">
<title>Node2</title>
<g id="a_Node000002"><a xlink:href="interfaceATAS_1_1Strategies_1_1ATM_1_1IATMStrategy.html" target="_top" xlink:title=" ">
<polygon fill="white" stroke="#666666" points="107.5,-85 30.5,-85 30.5,-66 107.5,-66 107.5,-85"/>
<text text-anchor="middle" x="69" y="-73" font-family="Helvetica" font-size="10.00">IATMStrategy</text>
</a>
</g>
</g>
<!-- Node2&#45;&gt;Node1 -->
<g id="edge1_Node000001_Node000002" class="edge">
<title>Node2&#45;&gt;Node1</title>
<g id="a_edge1_Node000001_Node000002"><a xlink:title=" ">
<path fill="none" stroke="#63b8ff" d="M69,-55.65C69,-47.36 69,-37.78 69,-30.11"/>
<polygon fill="#63b8ff" stroke="#63b8ff" points="65.5,-55.87 69,-65.87 72.5,-55.87 65.5,-55.87"/>
</a>
</g>
</g>
<!-- Node3 -->
<g id="Node000003" class="node">
<title>Node3</title>
<g id="a_Node000003"><a xlink:href="interfaceATAS_1_1Strategies_1_1IStrategy.html" target="_top" xlink:title="Represents a trading strategy.">
<polygon fill="white" stroke="#666666" points="97,-140 41,-140 41,-121 97,-121 97,-140"/>
<text text-anchor="middle" x="69" y="-128" font-family="Helvetica" font-size="10.00">IStrategy</text>
</a>
</g>
</g>
<!-- Node3&#45;&gt;Node2 -->
<g id="edge2_Node000002_Node000003" class="edge">
<title>Node3&#45;&gt;Node2</title>
<g id="a_edge2_Node000002_Node000003"><a xlink:title=" ">
<path fill="none" stroke="#63b8ff" d="M69,-110.66C69,-101.93 69,-91.99 69,-85.09"/>
<polygon fill="#63b8ff" stroke="#63b8ff" points="65.5,-110.75 69,-120.75 72.5,-110.75 65.5,-110.75"/>
</a>
</g>
</g>
<!-- Node4 -->
<g id="Node000004" class="node">
<title>Node4</title>
<g id="a_Node000004"><a xlink:title=" ">
<polygon fill="white" stroke="#666666" points="130,-195 8,-195 8,-176 130,-176 130,-195"/>
<text text-anchor="middle" x="69" y="-183" font-family="Helvetica" font-size="10.00">INotifyPropertyChanged</text>
</a>
</g>
</g>
<!-- Node4&#45;&gt;Node3 -->
<g id="edge3_Node000003_Node000004" class="edge">
<title>Node4&#45;&gt;Node3</title>
<g id="a_edge3_Node000003_Node000004"><a xlink:title=" ">
<path fill="none" stroke="#63b8ff" d="M69,-165.66C69,-156.93 69,-146.99 69,-140.09"/>
<polygon fill="#63b8ff" stroke="#63b8ff" points="65.5,-165.75 69,-175.75 72.5,-165.75 65.5,-165.75"/>
</a>
</g>
</g>
</g>
</svg>
