<?xml version="1.0" encoding="UTF-8" standalone="no"?>
<!DOCTYPE svg PUBLIC "-//W3C//DTD SVG 1.1//EN"
 "http://www.w3.org/Graphics/SVG/1.1/DTD/svg11.dtd">
<!-- Generated by graphviz version 2.44.0 (0)
 -->
<!-- Title: ATAS.Indicators.FilterEnum&lt; TEnum &gt; Pages: 1 -->
<svg width="280pt" height="214pt"
 viewBox="0.00 0.00 279.50 214.00" xmlns="http://www.w3.org/2000/svg" xmlns:xlink="http://www.w3.org/1999/xlink">
<g id="graph0" class="graph" transform="scale(1 1) rotate(0) translate(4 210)">
<title>ATAS.Indicators.FilterEnum&lt; TEnum &gt;</title>
<!-- Node1 -->
<g id="Node000001" class="node">
<title>Node1</title>
<g id="a_Node000001"><a xlink:title=" ">
<polygon fill="#999999" stroke="#666666" points="194,-30 56,-30 56,0 194,0 194,-30"/>
<text text-anchor="start" x="64" y="-18" font-family="Helvetica" font-size="10.00">ATAS.Indicators.FilterEnum</text>
<text text-anchor="middle" x="125" y="-7" font-family="Helvetica" font-size="10.00">&lt; TEnum &gt;</text>
</a>
</g>
</g>
<!-- Node2 -->
<g id="Node000002" class="node">
<title>Node2</title>
<g id="a_Node000002"><a xlink:href="classATAS_1_1Indicators_1_1Filter.html" target="_top" xlink:title=" ">
<polygon fill="white" stroke="#666666" points="132,-96 0,-96 0,-66 132,-66 132,-96"/>
<text text-anchor="start" x="8" y="-84" font-family="Helvetica" font-size="10.00">Filter&lt; TEnum, FilterEnum</text>
<text text-anchor="middle" x="66" y="-73" font-family="Helvetica" font-size="10.00">&lt; TEnum &gt; &gt;</text>
</a>
</g>
</g>
<!-- Node2&#45;&gt;Node1 -->
<g id="edge1_Node000001_Node000002" class="edge">
<title>Node2&#45;&gt;Node1</title>
<g id="a_edge1_Node000001_Node000002"><a xlink:title=" ">
<path fill="none" stroke="#63b8ff" d="M85.94,-58.37C94.52,-49.06 104.31,-38.44 111.94,-30.16"/>
<polygon fill="#63b8ff" stroke="#63b8ff" points="83.3,-56.07 79.09,-65.8 88.45,-60.82 83.3,-56.07"/>
</a>
</g>
</g>
<!-- Node3 -->
<g id="Node000003" class="node">
<title>Node3</title>
<g id="a_Node000003"><a xlink:href="interfaceATAS_1_1Indicators_1_1IFilterEnum.html" target="_top" xlink:title=" ">
<polygon fill="white" stroke="#666666" points="217.5,-90.5 150.5,-90.5 150.5,-71.5 217.5,-71.5 217.5,-90.5"/>
<text text-anchor="middle" x="184" y="-78.5" font-family="Helvetica" font-size="10.00">IFilterEnum</text>
</a>
</g>
</g>
<!-- Node3&#45;&gt;Node1 -->
<g id="edge2_Node000001_Node000003" class="edge">
<title>Node3&#45;&gt;Node1</title>
<g id="a_edge2_Node000001_Node000003"><a xlink:title=" ">
<path fill="none" stroke="#63b8ff" d="M169.11,-63.85C159.61,-53.54 147.4,-40.3 138.24,-30.36"/>
<polygon fill="#63b8ff" stroke="#63b8ff" points="166.69,-66.39 176.04,-71.37 171.84,-61.64 166.69,-66.39"/>
</a>
</g>
</g>
<!-- Node4 -->
<g id="Node000004" class="node">
<title>Node4</title>
<g id="a_Node000004"><a xlink:href="interfaceATAS_1_1Indicators_1_1IFilter.html" target="_top" xlink:title="Represents a filter with common properties and functionality.">
<polygon fill="white" stroke="#666666" points="204.5,-151 163.5,-151 163.5,-132 204.5,-132 204.5,-151"/>
<text text-anchor="middle" x="184" y="-139" font-family="Helvetica" font-size="10.00">IFilter</text>
</a>
</g>
</g>
<!-- Node4&#45;&gt;Node3 -->
<g id="edge3_Node000003_Node000004" class="edge">
<title>Node4&#45;&gt;Node3</title>
<g id="a_edge3_Node000003_Node000004"><a xlink:title=" ">
<path fill="none" stroke="#63b8ff" d="M184,-121.66C184,-111.24 184,-98.8 184,-90.67"/>
<polygon fill="#63b8ff" stroke="#63b8ff" points="180.5,-121.87 184,-131.87 187.5,-121.87 180.5,-121.87"/>
</a>
</g>
</g>
<!-- Node5 -->
<g id="Node000005" class="node">
<title>Node5</title>
<g id="a_Node000005"><a xlink:title=" ">
<polygon fill="white" stroke="#666666" points="190,-206 68,-206 68,-187 190,-187 190,-206"/>
<text text-anchor="middle" x="129" y="-194" font-family="Helvetica" font-size="10.00">INotifyPropertyChanged</text>
</a>
</g>
</g>
<!-- Node5&#45;&gt;Node4 -->
<g id="edge4_Node000004_Node000005" class="edge">
<title>Node5&#45;&gt;Node4</title>
<g id="a_edge4_Node000004_Node000005"><a xlink:title=" ">
<path fill="none" stroke="#63b8ff" d="M145.29,-179.8C155.04,-170.41 167.05,-158.83 175.09,-151.09"/>
<polygon fill="#63b8ff" stroke="#63b8ff" points="142.85,-177.29 138.08,-186.75 147.71,-182.33 142.85,-177.29"/>
</a>
</g>
</g>
<!-- Node6 -->
<g id="Node000006" class="node">
<title>Node6</title>
<g id="a_Node000006"><a xlink:title=" ">
<polygon fill="white" stroke="#666666" points="271.5,-206 208.5,-206 208.5,-187 271.5,-187 271.5,-206"/>
<text text-anchor="middle" x="240" y="-194" font-family="Helvetica" font-size="10.00">ICloneable</text>
</a>
</g>
</g>
<!-- Node6&#45;&gt;Node4 -->
<g id="edge5_Node000004_Node000006" class="edge">
<title>Node6&#45;&gt;Node4</title>
<g id="a_edge5_Node000004_Node000006"><a xlink:title=" ">
<path fill="none" stroke="#63b8ff" d="M223.67,-180.04C213.74,-170.64 201.41,-158.98 193.16,-151.17"/>
<polygon fill="#63b8ff" stroke="#63b8ff" points="221.33,-182.65 231,-186.98 226.15,-177.57 221.33,-182.65"/>
</a>
</g>
</g>
</g>
</svg>
