<?xml version="1.0" encoding="UTF-8" standalone="no"?>
<!DOCTYPE svg PUBLIC "-//W3C//DTD SVG 1.1//EN"
 "http://www.w3.org/Graphics/SVG/1.1/DTD/svg11.dtd">
<!-- Generated by graphviz version 2.44.0 (0)
 -->
<!-- Title: ATAS.DataFeedsCore.TradeStatistics.Matching.TradesProcessingLoggerSource Pages: 1 -->
<svg width="773pt" height="285pt"
 viewBox="0.00 0.00 773.00 285.00" xmlns="http://www.w3.org/2000/svg" xmlns:xlink="http://www.w3.org/1999/xlink">
<g id="graph0" class="graph" transform="scale(1 1) rotate(0) translate(4 281)">
<title>ATAS.DataFeedsCore.TradeStatistics.Matching.TradesProcessingLoggerSource</title>
<!-- Node1 -->
<g id="Node000001" class="node">
<title>Node1</title>
<g id="a_Node000001"><a xlink:title=" ">
<polygon fill="#999999" stroke="#666666" points="317,-159 135,-159 135,-118 317,-118 317,-159"/>
<text text-anchor="start" x="143" y="-147" font-family="Helvetica" font-size="10.00">ATAS.DataFeedsCore.Trade</text>
<text text-anchor="start" x="143" y="-136" font-family="Helvetica" font-size="10.00">Statistics.Matching.TradesProcessing</text>
<text text-anchor="middle" x="226" y="-125" font-family="Helvetica" font-size="10.00">LoggerSource</text>
</a>
</g>
</g>
<!-- Node3 -->
<g id="Node000003" class="node">
<title>Node3</title>
<g id="a_Node000003"><a xlink:href="classATAS_1_1DataFeedsCore_1_1TradeStatistics_1_1Matching_1_1TradesProcessingUnit.html" target="_top" xlink:title=" ">
<polygon fill="white" stroke="#666666" points="553,-153.5 353,-153.5 353,-123.5 553,-123.5 553,-153.5"/>
<text text-anchor="start" x="361" y="-141.5" font-family="Helvetica" font-size="10.00">ATAS.DataFeedsCore.Trade</text>
<text text-anchor="middle" x="453" y="-130.5" font-family="Helvetica" font-size="10.00">Statistics.Matching.TradesProcessingUnit</text>
</a>
</g>
</g>
<!-- Node1&#45;&gt;Node3 -->
<g id="edge2_Node000001_Node000003" class="edge">
<title>Node1&#45;&gt;Node3</title>
<g id="a_edge2_Node000001_Node000003"><a xlink:title=" ">
<path fill="none" stroke="#63b8ff" d="M327.47,-138.5C335.92,-138.5 344.46,-138.5 352.9,-138.5"/>
<polygon fill="#63b8ff" stroke="#63b8ff" points="327.22,-135 317.22,-138.5 327.22,-142 327.22,-135"/>
</a>
</g>
</g>
<!-- Node2 -->
<g id="Node000002" class="node">
<title>Node2</title>
<g id="a_Node000002"><a xlink:title=" ">
<polygon fill="white" stroke="#666666" points="99,-148 0,-148 0,-129 99,-129 99,-148"/>
<text text-anchor="middle" x="49.5" y="-136" font-family="Helvetica" font-size="10.00">BaseLoggerSource</text>
</a>
</g>
</g>
<!-- Node2&#45;&gt;Node1 -->
<g id="edge1_Node000001_Node000002" class="edge">
<title>Node2&#45;&gt;Node1</title>
<g id="a_edge1_Node000001_Node000002"><a xlink:title=" ">
<path fill="none" stroke="#63b8ff" d="M109.33,-138.5C117.59,-138.5 126.22,-138.5 134.89,-138.5"/>
<polygon fill="#63b8ff" stroke="#63b8ff" points="109.11,-135 99.11,-138.5 109.11,-142 109.11,-135"/>
</a>
</g>
</g>
<!-- Node4 -->
<g id="Node000004" class="node">
<title>Node4</title>
<g id="a_Node000004"><a xlink:title=" ">
<polygon fill="white" stroke="#666666" points="765,-277 589,-277 589,-236 765,-236 765,-277"/>
<text text-anchor="start" x="597" y="-265" font-family="Helvetica" font-size="10.00">ATAS.DataFeedsCore.Trade</text>
<text text-anchor="start" x="597" y="-254" font-family="Helvetica" font-size="10.00">Statistics.Matching.HistoryMatching</text>
<text text-anchor="middle" x="677" y="-243" font-family="Helvetica" font-size="10.00">Processor</text>
</a>
</g>
</g>
<!-- Node3&#45;&gt;Node4 -->
<g id="edge3_Node000003_Node000004" class="edge">
<title>Node3&#45;&gt;Node4</title>
<g id="a_edge3_Node000003_Node000004"><a xlink:title=" ">
<path fill="none" stroke="#63b8ff" d="M481.62,-159.83C508.04,-179.46 549.58,-208.35 589,-227.5 595.16,-230.49 601.7,-233.3 608.33,-235.89"/>
<polygon fill="#63b8ff" stroke="#63b8ff" points="483.69,-157.01 473.6,-153.81 479.49,-162.61 483.69,-157.01"/>
</a>
</g>
</g>
<!-- Node5 -->
<g id="Node000005" class="node">
<title>Node5</title>
<g id="a_Node000005"><a xlink:title=" ">
<polygon fill="white" stroke="#666666" points="748,-218 606,-218 606,-177 748,-177 748,-218"/>
<text text-anchor="start" x="614" y="-206" font-family="Helvetica" font-size="10.00">ATAS.DataFeedsCore.Trade</text>
<text text-anchor="start" x="614" y="-195" font-family="Helvetica" font-size="10.00">Statistics.Matching.Realtime</text>
<text text-anchor="middle" x="677" y="-184" font-family="Helvetica" font-size="10.00">MatchingProcessor</text>
</a>
</g>
</g>
<!-- Node3&#45;&gt;Node5 -->
<g id="edge4_Node000003_Node000005" class="edge">
<title>Node3&#45;&gt;Node5</title>
<g id="a_edge4_Node000003_Node000005"><a xlink:title=" ">
<path fill="none" stroke="#63b8ff" d="M520.3,-156.12C547.19,-163.27 578.29,-171.53 605.59,-178.79"/>
<polygon fill="#63b8ff" stroke="#63b8ff" points="521.16,-152.73 510.59,-153.54 519.36,-159.49 521.16,-152.73"/>
</a>
</g>
</g>
<!-- Node6 -->
<g id="Node000006" class="node">
<title>Node6</title>
<g id="a_Node000006"><a xlink:title=" ">
<polygon fill="white" stroke="#666666" points="748,-159 606,-159 606,-118 748,-118 748,-159"/>
<text text-anchor="start" x="614" y="-147" font-family="Helvetica" font-size="10.00">ATAS.DataFeedsCore.Trade</text>
<text text-anchor="start" x="614" y="-136" font-family="Helvetica" font-size="10.00">Statistics.Matching.Realtime</text>
<text text-anchor="middle" x="677" y="-125" font-family="Helvetica" font-size="10.00">TradesMatcher</text>
</a>
</g>
</g>
<!-- Node3&#45;&gt;Node6 -->
<g id="edge5_Node000003_Node000006" class="edge">
<title>Node3&#45;&gt;Node6</title>
<g id="a_edge5_Node000003_Node000006"><a xlink:title=" ">
<path fill="none" stroke="#63b8ff" d="M563.69,-138.5C577.98,-138.5 592.29,-138.5 605.68,-138.5"/>
<polygon fill="#63b8ff" stroke="#63b8ff" points="563.31,-135 553.31,-138.5 563.31,-142 563.31,-135"/>
</a>
</g>
</g>
<!-- Node7 -->
<g id="Node000007" class="node">
<title>Node7</title>
<g id="a_Node000007"><a xlink:href="classATAS_1_1DataFeedsCore_1_1TradeStatistics_1_1Matching_1_1TradesMatchingProcessor.html" target="_top" xlink:title=" ">
<polygon fill="white" stroke="#666666" points="763.5,-100 590.5,-100 590.5,-59 763.5,-59 763.5,-100"/>
<text text-anchor="start" x="598.5" y="-88" font-family="Helvetica" font-size="10.00">ATAS.DataFeedsCore.Trade</text>
<text text-anchor="start" x="598.5" y="-77" font-family="Helvetica" font-size="10.00">Statistics.Matching.TradesMatching</text>
<text text-anchor="middle" x="677" y="-66" font-family="Helvetica" font-size="10.00">Processor</text>
</a>
</g>
</g>
<!-- Node3&#45;&gt;Node7 -->
<g id="edge6_Node000003_Node000007" class="edge">
<title>Node3&#45;&gt;Node7</title>
<g id="a_edge6_Node000003_Node000007"><a xlink:title=" ">
<path fill="none" stroke="#63b8ff" d="M520.53,-120.82C545.09,-114.29 573.13,-106.84 598.57,-100.08"/>
<polygon fill="#63b8ff" stroke="#63b8ff" points="519.36,-117.51 510.59,-123.46 521.16,-124.27 519.36,-117.51"/>
</a>
</g>
</g>
<!-- Node8 -->
<g id="Node000008" class="node">
<title>Node8</title>
<g id="a_Node000008"><a xlink:title=" ">
<polygon fill="white" stroke="#666666" points="763.5,-41 590.5,-41 590.5,0 763.5,0 763.5,-41"/>
<text text-anchor="start" x="598.5" y="-29" font-family="Helvetica" font-size="10.00">ATAS.DataFeedsCore.Trade</text>
<text text-anchor="start" x="598.5" y="-18" font-family="Helvetica" font-size="10.00">Statistics.Matching.TradesPositions</text>
<text text-anchor="middle" x="677" y="-7" font-family="Helvetica" font-size="10.00">Balancer</text>
</a>
</g>
</g>
<!-- Node3&#45;&gt;Node8 -->
<g id="edge7_Node000003_Node000008" class="edge">
<title>Node3&#45;&gt;Node8</title>
<g id="a_edge7_Node000003_Node000008"><a xlink:title=" ">
<path fill="none" stroke="#63b8ff" d="M481.62,-117.17C508.04,-97.54 549.58,-68.65 589,-49.5 595.16,-46.51 601.7,-43.7 608.33,-41.11"/>
<polygon fill="#63b8ff" stroke="#63b8ff" points="479.49,-114.39 473.6,-123.19 483.69,-119.99 479.49,-114.39"/>
</a>
</g>
</g>
</g>
</svg>
