<?xml version="1.0" encoding="UTF-8" standalone="no"?>
<!DOCTYPE svg PUBLIC "-//W3C//DTD SVG 1.1//EN"
 "http://www.w3.org/Graphics/SVG/1.1/DTD/svg11.dtd">
<!-- Generated by graphviz version 2.44.0 (0)
 -->
<!-- Title: ATAS.Indicators.FilterBase Pages: 1 -->
<svg width="222pt" height="203pt"
 viewBox="0.00 0.00 221.50 203.00" xmlns="http://www.w3.org/2000/svg" xmlns:xlink="http://www.w3.org/1999/xlink">
<g id="graph0" class="graph" transform="scale(1 1) rotate(0) translate(4 199)">
<title>ATAS.Indicators.FilterBase</title>
<!-- Node1 -->
<g id="Node000001" class="node">
<title>Node1</title>
<g id="a_Node000001"><a xlink:title="Base class for filters implementing the IFilter interface.">
<polygon fill="#999999" stroke="#666666" points="193.5,-85 58.5,-85 58.5,-66 193.5,-66 193.5,-85"/>
<text text-anchor="middle" x="126" y="-73" font-family="Helvetica" font-size="10.00">ATAS.Indicators.FilterBase</text>
</a>
</g>
</g>
<!-- Node6 -->
<g id="Node000006" class="node">
<title>Node6</title>
<g id="a_Node000006"><a xlink:href="classATAS_1_1Indicators_1_1Filter.html" target="_top" xlink:title="Generic filter class that implements the IFilterValue interface.">
<polygon fill="white" stroke="#666666" points="182.5,-30 69.5,-30 69.5,0 182.5,0 182.5,-30"/>
<text text-anchor="start" x="77.5" y="-18" font-family="Helvetica" font-size="10.00">ATAS.Indicators.Filter</text>
<text text-anchor="middle" x="126" y="-7" font-family="Helvetica" font-size="10.00">&lt; TValue &gt;</text>
</a>
</g>
</g>
<!-- Node1&#45;&gt;Node6 -->
<g id="edge6_Node000001_Node000006" class="edge">
<title>Node1&#45;&gt;Node6</title>
<g id="a_edge6_Node000001_Node000006"><a xlink:title=" ">
<path fill="none" stroke="#63b8ff" d="M126,-55.65C126,-47.36 126,-37.78 126,-30.11"/>
<polygon fill="#63b8ff" stroke="#63b8ff" points="122.5,-55.87 126,-65.87 129.5,-55.87 122.5,-55.87"/>
</a>
</g>
</g>
<!-- Node2 -->
<g id="Node000002" class="node">
<title>Node2</title>
<g id="a_Node000002"><a xlink:href="classATAS_1_1Indicators_1_1NotifyPropertyChangedBase.html" target="_top" xlink:title="Base class for implementing the INotifyPropertyChanged interface.">
<polygon fill="white" stroke="#666666" points="142,-140 0,-140 0,-121 142,-121 142,-140"/>
<text text-anchor="middle" x="71" y="-128" font-family="Helvetica" font-size="10.00">NotifyPropertyChangedBase</text>
</a>
</g>
</g>
<!-- Node2&#45;&gt;Node1 -->
<g id="edge1_Node000001_Node000002" class="edge">
<title>Node2&#45;&gt;Node1</title>
<g id="a_edge1_Node000001_Node000002"><a xlink:title=" ">
<path fill="none" stroke="#63b8ff" d="M87.29,-113.8C97.04,-104.41 109.05,-92.83 117.09,-85.09"/>
<polygon fill="#63b8ff" stroke="#63b8ff" points="84.85,-111.29 80.08,-120.75 89.71,-116.33 84.85,-111.29"/>
</a>
</g>
</g>
<!-- Node3 -->
<g id="Node000003" class="node">
<title>Node3</title>
<g id="a_Node000003"><a xlink:title=" ">
<polygon fill="white" stroke="#666666" points="132,-195 10,-195 10,-176 132,-176 132,-195"/>
<text text-anchor="middle" x="71" y="-183" font-family="Helvetica" font-size="10.00">INotifyPropertyChanged</text>
</a>
</g>
</g>
<!-- Node3&#45;&gt;Node2 -->
<g id="edge2_Node000002_Node000003" class="edge">
<title>Node3&#45;&gt;Node2</title>
<g id="a_edge2_Node000002_Node000003"><a xlink:title=" ">
<path fill="none" stroke="#63b8ff" d="M71,-165.66C71,-156.93 71,-146.99 71,-140.09"/>
<polygon fill="#63b8ff" stroke="#63b8ff" points="67.5,-165.75 71,-175.75 74.5,-165.75 67.5,-165.75"/>
</a>
</g>
</g>
<!-- Node4 -->
<g id="Node000004" class="node">
<title>Node4</title>
<g id="a_Node000004"><a xlink:href="interfaceATAS_1_1Indicators_1_1IFilter.html" target="_top" xlink:title="Represents a filter with common properties and functionality.">
<polygon fill="white" stroke="#666666" points="201.5,-140 160.5,-140 160.5,-121 201.5,-121 201.5,-140"/>
<text text-anchor="middle" x="181" y="-128" font-family="Helvetica" font-size="10.00">IFilter</text>
</a>
</g>
</g>
<!-- Node3&#45;&gt;Node4 -->
<g id="edge4_Node000004_Node000003" class="edge">
<title>Node3&#45;&gt;Node4</title>
<g id="a_edge4_Node000004_Node000003"><a xlink:title=" ">
<path fill="none" stroke="#63b8ff" d="M97.7,-171.63C117.97,-161.87 145.27,-148.71 163.01,-140.17"/>
<polygon fill="#63b8ff" stroke="#63b8ff" points="96.16,-168.49 88.67,-175.98 99.2,-174.8 96.16,-168.49"/>
</a>
</g>
</g>
<!-- Node4&#45;&gt;Node1 -->
<g id="edge3_Node000001_Node000004" class="edge">
<title>Node4&#45;&gt;Node1</title>
<g id="a_edge3_Node000001_Node000004"><a xlink:title=" ">
<path fill="none" stroke="#63b8ff" d="M164.71,-113.8C154.96,-104.41 142.95,-92.83 134.91,-85.09"/>
<polygon fill="#63b8ff" stroke="#63b8ff" points="162.29,-116.33 171.92,-120.75 167.15,-111.29 162.29,-116.33"/>
</a>
</g>
</g>
<!-- Node5 -->
<g id="Node000005" class="node">
<title>Node5</title>
<g id="a_Node000005"><a xlink:title=" ">
<polygon fill="white" stroke="#666666" points="213.5,-195 150.5,-195 150.5,-176 213.5,-176 213.5,-195"/>
<text text-anchor="middle" x="182" y="-183" font-family="Helvetica" font-size="10.00">ICloneable</text>
</a>
</g>
</g>
<!-- Node5&#45;&gt;Node4 -->
<g id="edge5_Node000004_Node000005" class="edge">
<title>Node5&#45;&gt;Node4</title>
<g id="a_edge5_Node000004_Node000005"><a xlink:title=" ">
<path fill="none" stroke="#63b8ff" d="M181.64,-165.66C181.48,-156.93 181.29,-146.99 181.16,-140.09"/>
<polygon fill="#63b8ff" stroke="#63b8ff" points="178.15,-165.82 181.83,-175.75 185.15,-165.68 178.15,-165.82"/>
</a>
</g>
</g>
</g>
</svg>
