<?xml version="1.0" encoding="UTF-8" standalone="no"?>
<!DOCTYPE svg PUBLIC "-//W3C//DTD SVG 1.1//EN"
 "http://www.w3.org/Graphics/SVG/1.1/DTD/svg11.dtd">
<!-- Generated by graphviz version 2.44.0 (0)
 -->
<!-- Title: ATAS.Indicators.Indicator Pages: 1 -->
<svg width="447pt" height="302pt"
 viewBox="0.00 0.00 446.50 302.00" xmlns="http://www.w3.org/2000/svg" xmlns:xlink="http://www.w3.org/1999/xlink">
<g id="graph0" class="graph" transform="scale(1 1) rotate(0) translate(4 298)">
<title>ATAS.Indicators.Indicator</title>
<!-- Node1 -->
<g id="Node000001" class="node">
<title>Node1</title>
<g id="a_Node000001"><a xlink:title="Base class for custom indicators.">
<polygon fill="#999999" stroke="#666666" points="317,-19 189,-19 189,0 317,0 317,-19"/>
<text text-anchor="middle" x="253" y="-7" font-family="Helvetica" font-size="10.00">ATAS.Indicators.Indicator</text>
</a>
</g>
</g>
<!-- Node2 -->
<g id="Node000002" class="node">
<title>Node2</title>
<g id="a_Node000002"><a xlink:href="classATAS_1_1Indicators_1_1ExtendedIndicator.html" target="_top" xlink:title="An extended base class for custom indicators that provide additional functionality for drawing,...">
<polygon fill="white" stroke="#666666" points="300.5,-74 205.5,-74 205.5,-55 300.5,-55 300.5,-74"/>
<text text-anchor="middle" x="253" y="-62" font-family="Helvetica" font-size="10.00">ExtendedIndicator</text>
</a>
</g>
</g>
<!-- Node2&#45;&gt;Node1 -->
<g id="edge1_Node000001_Node000002" class="edge">
<title>Node2&#45;&gt;Node1</title>
<g id="a_edge1_Node000001_Node000002"><a xlink:title=" ">
<path fill="none" stroke="#63b8ff" d="M253,-44.66C253,-35.93 253,-25.99 253,-19.09"/>
<polygon fill="#63b8ff" stroke="#63b8ff" points="249.5,-44.75 253,-54.75 256.5,-44.75 249.5,-44.75"/>
</a>
</g>
</g>
<!-- Node3 -->
<g id="Node000003" class="node">
<title>Node3</title>
<g id="a_Node000003"><a xlink:href="classATAS_1_1Indicators_1_1BaseIndicator.html" target="_top" xlink:title="Base class for custom indicators in a chart.">
<polygon fill="white" stroke="#666666" points="174.5,-129 97.5,-129 97.5,-110 174.5,-110 174.5,-129"/>
<text text-anchor="middle" x="136" y="-117" font-family="Helvetica" font-size="10.00">BaseIndicator</text>
</a>
</g>
</g>
<!-- Node3&#45;&gt;Node2 -->
<g id="edge2_Node000002_Node000003" class="edge">
<title>Node3&#45;&gt;Node2</title>
<g id="a_edge2_Node000002_Node000003"><a xlink:title=" ">
<path fill="none" stroke="#63b8ff" d="M164.11,-105.77C185.69,-95.99 214.91,-82.75 233.86,-74.17"/>
<polygon fill="#63b8ff" stroke="#63b8ff" points="162.46,-102.67 154.8,-109.98 165.35,-109.05 162.46,-102.67"/>
</a>
</g>
</g>
<!-- Node4 -->
<g id="Node000004" class="node">
<title>Node4</title>
<g id="a_Node000004"><a xlink:href="classATAS_1_1Indicators_1_1ChartObject.html" target="_top" xlink:title="Base class for objects in a chart.">
<polygon fill="white" stroke="#666666" points="128,-184 58,-184 58,-165 128,-165 128,-184"/>
<text text-anchor="middle" x="93" y="-172" font-family="Helvetica" font-size="10.00">ChartObject</text>
</a>
</g>
</g>
<!-- Node4&#45;&gt;Node3 -->
<g id="edge3_Node000003_Node000004" class="edge">
<title>Node4&#45;&gt;Node3</title>
<g id="a_edge3_Node000003_Node000004"><a xlink:title=" ">
<path fill="none" stroke="#63b8ff" d="M106.42,-156.96C113.91,-147.72 122.94,-136.6 129.03,-129.09"/>
<polygon fill="#63b8ff" stroke="#63b8ff" points="103.68,-154.78 100.1,-164.75 109.12,-159.19 103.68,-154.78"/>
</a>
</g>
</g>
<!-- Node5 -->
<g id="Node000005" class="node">
<title>Node5</title>
<g id="a_Node000005"><a xlink:href="classATAS_1_1Indicators_1_1Filters_1_1TrackedPropertyBase.html" target="_top" xlink:title="A base class for tracking property changes and notifying subscribers when a property value is modifie...">
<polygon fill="white" stroke="#666666" points="158,-239 48,-239 48,-220 158,-220 158,-239"/>
<text text-anchor="middle" x="103" y="-227" font-family="Helvetica" font-size="10.00">TrackedPropertyBase</text>
</a>
</g>
</g>
<!-- Node5&#45;&gt;Node4 -->
<g id="edge4_Node000004_Node000005" class="edge">
<title>Node5&#45;&gt;Node4</title>
<g id="a_edge4_Node000004_Node000005"><a xlink:title=" ">
<path fill="none" stroke="#63b8ff" d="M99.45,-209.66C97.8,-200.93 95.92,-190.99 94.62,-184.09"/>
<polygon fill="#63b8ff" stroke="#63b8ff" points="96.06,-210.57 101.35,-219.75 102.93,-209.27 96.06,-210.57"/>
</a>
</g>
</g>
<!-- Node6 -->
<g id="Node000006" class="node">
<title>Node6</title>
<g id="a_Node000006"><a xlink:title=" ">
<polygon fill="white" stroke="#666666" points="122,-294 0,-294 0,-275 122,-275 122,-294"/>
<text text-anchor="middle" x="61" y="-282" font-family="Helvetica" font-size="10.00">INotifyPropertyChanged</text>
</a>
</g>
</g>
<!-- Node6&#45;&gt;Node3 -->
<g id="edge6_Node000003_Node000006" class="edge">
<title>Node6&#45;&gt;Node3</title>
<g id="a_edge6_Node000003_Node000006"><a xlink:title=" ">
<path fill="none" stroke="#63b8ff" d="M50.07,-266.09C45.71,-258.15 41.2,-248.43 39,-239 33.81,-216.77 48.56,-165.59 49,-165 62.35,-147.02 85.07,-135.75 103.94,-129.05"/>
<polygon fill="#63b8ff" stroke="#63b8ff" points="47.08,-267.91 55.16,-274.76 53.12,-264.36 47.08,-267.91"/>
</a>
</g>
</g>
<!-- Node6&#45;&gt;Node5 -->
<g id="edge5_Node000005_Node000006" class="edge">
<title>Node6&#45;&gt;Node5</title>
<g id="a_edge5_Node000005_Node000006"><a xlink:title=" ">
<path fill="none" stroke="#63b8ff" d="M74.33,-266.67C81.61,-257.5 90.3,-246.52 96.19,-239.09"/>
<polygon fill="#63b8ff" stroke="#63b8ff" points="71.4,-264.74 67.94,-274.75 76.89,-269.08 71.4,-264.74"/>
</a>
</g>
</g>
<!-- Node7 -->
<g id="Node000007" class="node">
<title>Node7</title>
<g id="a_Node000007"><a xlink:title=" ">
<polygon fill="white" stroke="#666666" points="214,-184 146,-184 146,-165 214,-165 214,-184"/>
<text text-anchor="middle" x="180" y="-172" font-family="Helvetica" font-size="10.00">IDisposable</text>
</a>
</g>
</g>
<!-- Node7&#45;&gt;Node3 -->
<g id="edge7_Node000003_Node000007" class="edge">
<title>Node7&#45;&gt;Node3</title>
<g id="a_edge7_Node000003_Node000007"><a xlink:title=" ">
<path fill="none" stroke="#63b8ff" d="M166.27,-156.96C158.6,-147.72 149.37,-136.6 143.13,-129.09"/>
<polygon fill="#63b8ff" stroke="#63b8ff" points="163.65,-159.29 172.73,-164.75 169.04,-154.82 163.65,-159.29"/>
</a>
</g>
</g>
<!-- Node8 -->
<g id="Node000008" class="node">
<title>Node8</title>
<g id="a_Node000008"><a xlink:href="interfaceATAS_1_1Indicators_1_1INotifyPanelPropertyChanged.html" target="_top" xlink:title="Notifies clients that a panel property value has changed.">
<polygon fill="white" stroke="#666666" points="379.5,-184 232.5,-184 232.5,-165 379.5,-165 379.5,-184"/>
<text text-anchor="middle" x="306" y="-172" font-family="Helvetica" font-size="10.00">INotifyPanelPropertyChanged</text>
</a>
</g>
</g>
<!-- Node8&#45;&gt;Node3 -->
<g id="edge8_Node000003_Node000008" class="edge">
<title>Node8&#45;&gt;Node3</title>
<g id="a_edge8_Node000003_Node000008"><a xlink:title=" ">
<path fill="none" stroke="#63b8ff" d="M268.88,-161.93C237.13,-152.03 192.15,-138.01 163.53,-129.08"/>
<polygon fill="#63b8ff" stroke="#63b8ff" points="268.1,-165.35 278.69,-164.98 270.18,-158.67 268.1,-165.35"/>
</a>
</g>
</g>
<!-- Node9 -->
<g id="Node000009" class="node">
<title>Node9</title>
<g id="a_Node000009"><a xlink:title=" ">
<polygon fill="white" stroke="#666666" points="313,-129 193,-129 193,-110 313,-110 313,-129"/>
<text text-anchor="middle" x="253" y="-117" font-family="Helvetica" font-size="10.00">ICustomTypeDescriptor</text>
</a>
</g>
</g>
<!-- Node9&#45;&gt;Node2 -->
<g id="edge9_Node000002_Node000009" class="edge">
<title>Node9&#45;&gt;Node2</title>
<g id="a_edge9_Node000002_Node000009"><a xlink:title=" ">
<path fill="none" stroke="#63b8ff" d="M253,-99.66C253,-90.93 253,-80.99 253,-74.09"/>
<polygon fill="#63b8ff" stroke="#63b8ff" points="249.5,-99.75 253,-109.75 256.5,-99.75 249.5,-99.75"/>
</a>
</g>
</g>
<!-- Node10 -->
<g id="Node000010" class="node">
<title>Node10</title>
<g id="a_Node000010"><a xlink:href="interfaceATAS_1_1Indicators_1_1IMarketTimeProvider.html" target="_top" xlink:title=" ">
<polygon fill="white" stroke="#666666" points="438.5,-129 331.5,-129 331.5,-110 438.5,-110 438.5,-129"/>
<text text-anchor="middle" x="385" y="-117" font-family="Helvetica" font-size="10.00">IMarketTimeProvider</text>
</a>
</g>
</g>
<!-- Node10&#45;&gt;Node2 -->
<g id="edge10_Node000002_Node000010" class="edge">
<title>Node10&#45;&gt;Node2</title>
<g id="a_edge10_Node000002_Node000010"><a xlink:title=" ">
<path fill="none" stroke="#63b8ff" d="M354.27,-106.16C329.83,-96.35 296.26,-82.87 274.59,-74.17"/>
<polygon fill="#63b8ff" stroke="#63b8ff" points="353.21,-109.51 363.79,-109.98 355.82,-103.01 353.21,-109.51"/>
</a>
</g>
</g>
</g>
</svg>
