<?xml version="1.0" encoding="UTF-8" standalone="no"?>
<!DOCTYPE svg PUBLIC "-//W3C//DTD SVG 1.1//EN"
 "http://www.w3.org/Graphics/SVG/1.1/DTD/svg11.dtd">
<!-- Generated by graphviz version 2.44.0 (0)
 -->
<!-- Title: ATAS.DataFeedsCore.AsyncConnector&lt; TPortfolioKey, TSecurityKey &gt; Pages: 1 -->
<svg width="202pt" height="192pt"
 viewBox="0.00 0.00 202.00 192.00" xmlns="http://www.w3.org/2000/svg" xmlns:xlink="http://www.w3.org/1999/xlink">
<g id="graph0" class="graph" transform="scale(1 1) rotate(0) translate(4 188)">
<title>ATAS.DataFeedsCore.AsyncConnector&lt; TPortfolioKey, TSecurityKey &gt;</title>
<!-- Node1 -->
<g id="Node000001" class="node">
<title>Node1</title>
<g id="a_Node000001"><a xlink:title="Connector base that allows to use await to switch to the connector queue thread.">
<polygon fill="#999999" stroke="#666666" points="168.5,-118 25.5,-118 25.5,-77 168.5,-77 168.5,-118"/>
<text text-anchor="start" x="33.5" y="-106" font-family="Helvetica" font-size="10.00">ATAS.DataFeedsCore.Async</text>
<text text-anchor="start" x="33.5" y="-95" font-family="Helvetica" font-size="10.00">Connector&lt; TPortfolioKey,</text>
<text text-anchor="middle" x="97" y="-84" font-family="Helvetica" font-size="10.00"> TSecurityKey &gt;</text>
</a>
</g>
</g>
<!-- Node3 -->
<g id="Node000003" class="node">
<title>Node3</title>
<g id="a_Node000003"><a xlink:href="classATAS_1_1DataFeedsCore_1_1CryptoAsyncConnector.html" target="_top" xlink:title=" ">
<polygon fill="white" stroke="#666666" points="176.5,-41 17.5,-41 17.5,0 176.5,0 176.5,-41"/>
<text text-anchor="start" x="25.5" y="-29" font-family="Helvetica" font-size="10.00">ATAS.DataFeedsCore.Crypto</text>
<text text-anchor="start" x="25.5" y="-18" font-family="Helvetica" font-size="10.00">AsyncConnector&lt; TPortfolioKey,</text>
<text text-anchor="middle" x="97" y="-7" font-family="Helvetica" font-size="10.00"> TSecurityKey &gt;</text>
</a>
</g>
</g>
<!-- Node1&#45;&gt;Node3 -->
<g id="edge2_Node000001_Node000003" class="edge">
<title>Node1&#45;&gt;Node3</title>
<g id="a_edge2_Node000001_Node000003"><a xlink:title=" ">
<path fill="none" stroke="#63b8ff" d="M97,-66.69C97,-58.08 97,-48.9 97,-41.07"/>
<polygon fill="#63b8ff" stroke="#63b8ff" points="93.5,-66.79 97,-76.79 100.5,-66.79 93.5,-66.79"/>
</a>
</g>
</g>
<!-- Node2 -->
<g id="Node000002" class="node">
<title>Node2</title>
<g id="a_Node000002"><a xlink:href="classATAS_1_1DataFeedsCore_1_1BaseConnector.html" target="_top" xlink:title=" ">
<polygon fill="white" stroke="#666666" points="194,-184 0,-184 0,-154 194,-154 194,-184"/>
<text text-anchor="start" x="8" y="-172" font-family="Helvetica" font-size="10.00">BaseConnector&lt; AsyncConnector</text>
<text text-anchor="middle" x="97" y="-161" font-family="Helvetica" font-size="10.00">Message, TPortfolioKey, TSecurityKey &gt;</text>
</a>
</g>
</g>
<!-- Node2&#45;&gt;Node1 -->
<g id="edge1_Node000001_Node000002" class="edge">
<title>Node2&#45;&gt;Node1</title>
<g id="a_edge1_Node000001_Node000002"><a xlink:title=" ">
<path fill="none" stroke="#63b8ff" d="M97,-143.91C97,-135.47 97,-126.1 97,-118.07"/>
<polygon fill="#63b8ff" stroke="#63b8ff" points="93.5,-143.94 97,-153.94 100.5,-143.94 93.5,-143.94"/>
</a>
</g>
</g>
</g>
</svg>
