<?xml version="1.0" encoding="UTF-8" standalone="no"?>
<!DOCTYPE svg PUBLIC "-//W3C//DTD SVG 1.1//EN"
 "http://www.w3.org/Graphics/SVG/1.1/DTD/svg11.dtd">
<!-- Generated by graphviz version 2.44.0 (0)
 -->
<!-- Title: ATAS.DataFeedsCore.CryptoAsyncConnector&lt; TPortfolioKey, TSecurityKey &gt; Pages: 1 -->
<svg width="689pt" height="76pt"
 viewBox="0.00 0.00 689.00 75.50" xmlns="http://www.w3.org/2000/svg" xmlns:xlink="http://www.w3.org/1999/xlink">
<g id="graph0" class="graph" transform="scale(1 1) rotate(0) translate(4 71.5)">
<title>ATAS.DataFeedsCore.CryptoAsyncConnector&lt; TPortfolioKey, TSecurityKey &gt;</title>
<!-- Node1 -->
<g id="Node000001" class="node">
<title>Node1</title>
<g id="a_Node000001"><a xlink:title=" ">
<polygon fill="#999999" stroke="#666666" points="681,-51 522,-51 522,-10 681,-10 681,-51"/>
<text text-anchor="start" x="530" y="-39" font-family="Helvetica" font-size="10.00">ATAS.DataFeedsCore.Crypto</text>
<text text-anchor="start" x="530" y="-28" font-family="Helvetica" font-size="10.00">AsyncConnector&lt; TPortfolioKey,</text>
<text text-anchor="middle" x="601.5" y="-17" font-family="Helvetica" font-size="10.00"> TSecurityKey &gt;</text>
</a>
</g>
</g>
<!-- Node2 -->
<g id="Node000002" class="node">
<title>Node2</title>
<g id="a_Node000002"><a xlink:href="classATAS_1_1DataFeedsCore_1_1AsyncConnector.html" target="_top" xlink:title="Connector base that allows to use await to switch to the connector queue thread.">
<polygon fill="white" stroke="#666666" points="486,-67.5 346,-67.5 346,-37.5 486,-37.5 486,-67.5"/>
<text text-anchor="start" x="354" y="-55.5" font-family="Helvetica" font-size="10.00">AsyncConnector&lt; TPortfolio</text>
<text text-anchor="middle" x="416" y="-44.5" font-family="Helvetica" font-size="10.00">Key, TSecurityKey &gt;</text>
</a>
</g>
</g>
<!-- Node2&#45;&gt;Node1 -->
<g id="edge1_Node000001_Node000002" class="edge">
<title>Node2&#45;&gt;Node1</title>
<g id="a_edge1_Node000001_Node000002"><a xlink:title=" ">
<path fill="none" stroke="#63b8ff" d="M496.08,-43.02C504.64,-41.99 513.35,-40.95 521.91,-39.92"/>
<polygon fill="#63b8ff" stroke="#63b8ff" points="495.62,-39.55 486.11,-44.21 496.46,-46.5 495.62,-39.55"/>
</a>
</g>
</g>
<!-- Node3 -->
<g id="Node000003" class="node">
<title>Node3</title>
<g id="a_Node000003"><a xlink:href="classATAS_1_1DataFeedsCore_1_1BaseConnector.html" target="_top" xlink:title=" ">
<polygon fill="white" stroke="#666666" points="310,-67.5 116,-67.5 116,-37.5 310,-37.5 310,-67.5"/>
<text text-anchor="start" x="124" y="-55.5" font-family="Helvetica" font-size="10.00">BaseConnector&lt; AsyncConnector</text>
<text text-anchor="middle" x="213" y="-44.5" font-family="Helvetica" font-size="10.00">Message, TPortfolioKey, TSecurityKey &gt;</text>
</a>
</g>
</g>
<!-- Node3&#45;&gt;Node2 -->
<g id="edge2_Node000002_Node000003" class="edge">
<title>Node3&#45;&gt;Node2</title>
<g id="a_edge2_Node000002_Node000003"><a xlink:title=" ">
<path fill="none" stroke="#63b8ff" d="M320.31,-52.5C329.01,-52.5 337.65,-52.5 345.97,-52.5"/>
<polygon fill="#63b8ff" stroke="#63b8ff" points="320.08,-49 310.08,-52.5 320.08,-56 320.08,-49"/>
</a>
</g>
</g>
<!-- Node4 -->
<g id="Node000004" class="node">
<title>Node4</title>
<g id="a_Node000004"><a xlink:href="interfaceATAS_1_1DataFeedsCore_1_1ICryptoKeySecretConnector.html" target="_top" xlink:title=" ">
<polygon fill="white" stroke="#666666" points="486,-19 346,-19 346,0 486,0 486,-19"/>
<text text-anchor="middle" x="416" y="-7" font-family="Helvetica" font-size="10.00">ICryptoKeySecretConnector</text>
</a>
</g>
</g>
<!-- Node4&#45;&gt;Node1 -->
<g id="edge3_Node000001_Node000004" class="edge">
<title>Node4&#45;&gt;Node1</title>
<g id="a_edge3_Node000001_Node000004"><a xlink:title=" ">
<path fill="none" stroke="#63b8ff" d="M496.08,-18.55C504.64,-19.53 513.35,-20.53 521.91,-21.51"/>
<polygon fill="#63b8ff" stroke="#63b8ff" points="496.45,-15.07 486.11,-17.41 495.65,-22.02 496.45,-15.07"/>
</a>
</g>
</g>
<!-- Node5 -->
<g id="Node000005" class="node">
<title>Node5</title>
<g id="a_Node000005"><a xlink:href="interfaceATAS_1_1DataFeedsCore_1_1IDataFeedConnector.html" target="_top" xlink:title=" ">
<polygon fill="white" stroke="#666666" points="266.5,-19 159.5,-19 159.5,0 266.5,0 266.5,-19"/>
<text text-anchor="middle" x="213" y="-7" font-family="Helvetica" font-size="10.00">IDataFeedConnector</text>
</a>
</g>
</g>
<!-- Node5&#45;&gt;Node4 -->
<g id="edge4_Node000004_Node000005" class="edge">
<title>Node5&#45;&gt;Node4</title>
<g id="a_edge4_Node000004_Node000005"><a xlink:title=" ">
<path fill="none" stroke="#63b8ff" d="M276.72,-9.5C298.62,-9.5 323.33,-9.5 345.73,-9.5"/>
<polygon fill="#63b8ff" stroke="#63b8ff" points="276.55,-6 266.55,-9.5 276.55,-13 276.55,-6"/>
</a>
</g>
</g>
<!-- Node6 -->
<g id="Node000006" class="node">
<title>Node6</title>
<g id="a_Node000006"><a xlink:title=" ">
<polygon fill="white" stroke="#666666" points="80,-19 0,-19 0,0 80,0 80,-19"/>
<text text-anchor="middle" x="40" y="-7" font-family="Helvetica" font-size="10.00">ILoggerSource</text>
</a>
</g>
</g>
<!-- Node6&#45;&gt;Node5 -->
<g id="edge5_Node000005_Node000006" class="edge">
<title>Node6&#45;&gt;Node5</title>
<g id="a_edge5_Node000005_Node000006"><a xlink:title=" ">
<path fill="none" stroke="#63b8ff" d="M90.49,-9.5C112.08,-9.5 137.41,-9.5 159.34,-9.5"/>
<polygon fill="#63b8ff" stroke="#63b8ff" points="90.23,-6 80.23,-9.5 90.23,-13 90.23,-6"/>
</a>
</g>
</g>
</g>
</svg>
