<?xml version="1.0" encoding="UTF-8" standalone="no"?>
<!DOCTYPE svg PUBLIC "-//W3C//DTD SVG 1.1//EN"
 "http://www.w3.org/Graphics/SVG/1.1/DTD/svg11.dtd">
<!-- Generated by graphviz version 2.44.0 (0)
 -->
<!-- Title: ATAS.DataFeedsCore.Commissions.CommissionGroup Pages: 1 -->
<svg width="210pt" height="93pt"
 viewBox="0.00 0.00 209.50 93.00" xmlns="http://www.w3.org/2000/svg" xmlns:xlink="http://www.w3.org/1999/xlink">
<g id="graph0" class="graph" transform="scale(1 1) rotate(0) translate(4 89)">
<title>ATAS.DataFeedsCore.Commissions.CommissionGroup</title>
<!-- Node1 -->
<g id="Node000001" class="node">
<title>Node1</title>
<g id="a_Node000001"><a xlink:title=" ">
<polygon fill="#999999" stroke="#666666" points="179,-30 0,-30 0,0 179,0 179,-30"/>
<text text-anchor="start" x="8" y="-18" font-family="Helvetica" font-size="10.00">ATAS.DataFeedsCore.Commissions.</text>
<text text-anchor="middle" x="89.5" y="-7" font-family="Helvetica" font-size="10.00">CommissionGroup</text>
</a>
</g>
</g>
<!-- Node2 -->
<g id="Node000002" class="node">
<title>Node2</title>
<g id="a_Node000002"><a xlink:href="interfaceATAS_1_1DataFeedsCore_1_1IEntity.html" target="_top" xlink:title="Represents an entity in the application.">
<polygon fill="white" stroke="#666666" points="61,-85 16,-85 16,-66 61,-66 61,-85"/>
<text text-anchor="middle" x="38.5" y="-73" font-family="Helvetica" font-size="10.00">IEntity</text>
</a>
</g>
</g>
<!-- Node2&#45;&gt;Node1 -->
<g id="edge1_Node000001_Node000002" class="edge">
<title>Node2&#45;&gt;Node1</title>
<g id="a_edge1_Node000001_Node000002"><a xlink:title=" ">
<path fill="none" stroke="#63b8ff" d="M52.75,-58.15C60.44,-49.34 69.83,-38.56 77.19,-30.11"/>
<polygon fill="#63b8ff" stroke="#63b8ff" points="49.96,-56.03 46.03,-65.87 55.23,-60.63 49.96,-56.03"/>
</a>
</g>
</g>
<!-- Node3 -->
<g id="Node000003" class="node">
<title>Node3</title>
<g id="a_Node000003"><a xlink:title=" ">
<polygon fill="white" stroke="#666666" points="201.5,-85 79.5,-85 79.5,-66 201.5,-66 201.5,-85"/>
<text text-anchor="middle" x="140.5" y="-73" font-family="Helvetica" font-size="10.00">INotifyPropertyChanged</text>
</a>
</g>
</g>
<!-- Node3&#45;&gt;Node1 -->
<g id="edge2_Node000001_Node000003" class="edge">
<title>Node3&#45;&gt;Node1</title>
<g id="a_edge2_Node000001_Node000003"><a xlink:title=" ">
<path fill="none" stroke="#63b8ff" d="M126.25,-58.15C118.56,-49.34 109.17,-38.56 101.81,-30.11"/>
<polygon fill="#63b8ff" stroke="#63b8ff" points="123.77,-60.63 132.97,-65.87 129.04,-56.03 123.77,-60.63"/>
</a>
</g>
</g>
</g>
</svg>
