<?xml version="1.0" encoding="UTF-8" standalone="no"?>
<!DOCTYPE svg PUBLIC "-//W3C//DTD SVG 1.1//EN"
 "http://www.w3.org/Graphics/SVG/1.1/DTD/svg11.dtd">
<!-- Generated by graphviz version 2.44.0 (0)
 -->
<!-- Title: ATAS.Strategies.Chart.SmaChartStrategy Pages: 1 -->
<svg width="448pt" height="423pt"
 viewBox="0.00 0.00 447.57 423.00" xmlns="http://www.w3.org/2000/svg" xmlns:xlink="http://www.w3.org/1999/xlink">
<g id="graph0" class="graph" transform="scale(1 1) rotate(0) translate(4 419)">
<title>ATAS.Strategies.Chart.SmaChartStrategy</title>
<!-- Node1 -->
<g id="Node000001" class="node">
<title>Node1</title>
<g id="a_Node000001"><a xlink:title=" ">
<polygon fill="#999999" stroke="#666666" points="401.07,-30 262.07,-30 262.07,0 401.07,0 401.07,-30"/>
<text text-anchor="start" x="270.07" y="-18" font-family="Helvetica" font-size="10.00">ATAS.Strategies.Chart.Sma</text>
<text text-anchor="middle" x="331.57" y="-7" font-family="Helvetica" font-size="10.00">ChartStrategy</text>
</a>
</g>
</g>
<!-- Node2 -->
<g id="Node000002" class="node">
<title>Node2</title>
<g id="a_Node000002"><a xlink:href="classATAS_1_1Strategies_1_1Chart_1_1ChartStrategy.html" target="_top" xlink:title="Represents an abstract class for a chart strategy that extends the functionality of an Indicator and ...">
<polygon fill="white" stroke="#666666" points="370.57,-85 292.57,-85 292.57,-66 370.57,-66 370.57,-85"/>
<text text-anchor="middle" x="331.57" y="-73" font-family="Helvetica" font-size="10.00">ChartStrategy</text>
</a>
</g>
</g>
<!-- Node2&#45;&gt;Node1 -->
<g id="edge1_Node000001_Node000002" class="edge">
<title>Node2&#45;&gt;Node1</title>
<g id="a_edge1_Node000001_Node000002"><a xlink:title=" ">
<path fill="none" stroke="#63b8ff" d="M331.57,-55.65C331.57,-47.36 331.57,-37.78 331.57,-30.11"/>
<polygon fill="#63b8ff" stroke="#63b8ff" points="328.07,-55.87 331.57,-65.87 335.07,-55.87 328.07,-55.87"/>
</a>
</g>
</g>
<!-- Node3 -->
<g id="Node000003" class="node">
<title>Node3</title>
<g id="a_Node000003"><a xlink:href="classATAS_1_1Indicators_1_1Indicator.html" target="_top" xlink:title="Base class for custom indicators.">
<polygon fill="white" stroke="#666666" points="277.57,-140 223.57,-140 223.57,-121 277.57,-121 277.57,-140"/>
<text text-anchor="middle" x="250.57" y="-128" font-family="Helvetica" font-size="10.00">Indicator</text>
</a>
</g>
</g>
<!-- Node3&#45;&gt;Node2 -->
<g id="edge2_Node000002_Node000003" class="edge">
<title>Node3&#45;&gt;Node2</title>
<g id="a_edge2_Node000002_Node000003"><a xlink:title=" ">
<path fill="none" stroke="#63b8ff" d="M272.08,-115.42C286.78,-105.81 305.79,-93.37 318.32,-85.17"/>
<polygon fill="#63b8ff" stroke="#63b8ff" points="270.04,-112.58 263.59,-120.98 273.87,-118.44 270.04,-112.58"/>
</a>
</g>
</g>
<!-- Node4 -->
<g id="Node000004" class="node">
<title>Node4</title>
<g id="a_Node000004"><a xlink:href="classATAS_1_1Indicators_1_1ExtendedIndicator.html" target="_top" xlink:title="An extended base class for custom indicators that provide additional functionality for drawing,...">
<polygon fill="white" stroke="#666666" points="273.07,-195 178.07,-195 178.07,-176 273.07,-176 273.07,-195"/>
<text text-anchor="middle" x="225.57" y="-183" font-family="Helvetica" font-size="10.00">ExtendedIndicator</text>
</a>
</g>
</g>
<!-- Node4&#45;&gt;Node3 -->
<g id="edge3_Node000003_Node000004" class="edge">
<title>Node4&#45;&gt;Node3</title>
<g id="a_edge3_Node000003_Node000004"><a xlink:title=" ">
<path fill="none" stroke="#63b8ff" d="M234.05,-166.53C238.26,-157.6 243.16,-147.22 246.52,-140.09"/>
<polygon fill="#63b8ff" stroke="#63b8ff" points="230.8,-165.21 229.7,-175.75 237.13,-168.2 230.8,-165.21"/>
</a>
</g>
</g>
<!-- Node5 -->
<g id="Node000005" class="node">
<title>Node5</title>
<g id="a_Node000005"><a xlink:href="classATAS_1_1Indicators_1_1BaseIndicator.html" target="_top" xlink:title="Base class for custom indicators in a chart.">
<polygon fill="white" stroke="#666666" points="93.07,-250 16.07,-250 16.07,-231 93.07,-231 93.07,-250"/>
<text text-anchor="middle" x="54.57" y="-238" font-family="Helvetica" font-size="10.00">BaseIndicator</text>
</a>
</g>
</g>
<!-- Node5&#45;&gt;Node4 -->
<g id="edge4_Node000004_Node000005" class="edge">
<title>Node5&#45;&gt;Node4</title>
<g id="a_edge4_Node000004_Node000005"><a xlink:title=" ">
<path fill="none" stroke="#63b8ff" d="M91.91,-227.93C123.85,-218.03 169.09,-204.01 197.88,-195.08"/>
<polygon fill="#63b8ff" stroke="#63b8ff" points="90.56,-224.68 82.05,-230.98 92.63,-231.37 90.56,-224.68"/>
</a>
</g>
</g>
<!-- Node6 -->
<g id="Node000006" class="node">
<title>Node6</title>
<g id="a_Node000006"><a xlink:href="classATAS_1_1Indicators_1_1ChartObject.html" target="_top" xlink:title="Base class for objects in a chart.">
<polygon fill="white" stroke="#666666" points="89.57,-305 19.57,-305 19.57,-286 89.57,-286 89.57,-305"/>
<text text-anchor="middle" x="54.57" y="-293" font-family="Helvetica" font-size="10.00">ChartObject</text>
</a>
</g>
</g>
<!-- Node6&#45;&gt;Node5 -->
<g id="edge5_Node000005_Node000006" class="edge">
<title>Node6&#45;&gt;Node5</title>
<g id="a_edge5_Node000005_Node000006"><a xlink:title=" ">
<path fill="none" stroke="#63b8ff" d="M54.57,-275.66C54.57,-266.93 54.57,-256.99 54.57,-250.09"/>
<polygon fill="#63b8ff" stroke="#63b8ff" points="51.07,-275.75 54.57,-285.75 58.07,-275.75 51.07,-275.75"/>
</a>
</g>
</g>
<!-- Node7 -->
<g id="Node000007" class="node">
<title>Node7</title>
<g id="a_Node000007"><a xlink:href="classATAS_1_1Indicators_1_1Filters_1_1TrackedPropertyBase.html" target="_top" xlink:title="A base class for tracking property changes and notifying subscribers when a property value is modifie...">
<polygon fill="white" stroke="#666666" points="129.57,-360 19.57,-360 19.57,-341 129.57,-341 129.57,-360"/>
<text text-anchor="middle" x="74.57" y="-348" font-family="Helvetica" font-size="10.00">TrackedPropertyBase</text>
</a>
</g>
</g>
<!-- Node7&#45;&gt;Node6 -->
<g id="edge6_Node000006_Node000007" class="edge">
<title>Node7&#45;&gt;Node6</title>
<g id="a_edge6_Node000006_Node000007"><a xlink:title=" ">
<path fill="none" stroke="#63b8ff" d="M67.68,-331.24C64.34,-322.37 60.47,-312.14 57.81,-305.09"/>
<polygon fill="#63b8ff" stroke="#63b8ff" points="64.46,-332.63 71.27,-340.75 71.01,-330.16 64.46,-332.63"/>
</a>
</g>
</g>
<!-- Node8 -->
<g id="Node000008" class="node">
<title>Node8</title>
<g id="a_Node000008"><a xlink:title=" ">
<polygon fill="white" stroke="#666666" points="135.57,-415 13.57,-415 13.57,-396 135.57,-396 135.57,-415"/>
<text text-anchor="middle" x="74.57" y="-403" font-family="Helvetica" font-size="10.00">INotifyPropertyChanged</text>
</a>
</g>
</g>
<!-- Node8&#45;&gt;Node5 -->
<g id="edge8_Node000005_Node000008" class="edge">
<title>Node8&#45;&gt;Node5</title>
<g id="a_edge8_Node000005_Node000008"><a xlink:title=" ">
<path fill="none" stroke="#63b8ff" d="M43.76,-391.13C31.06,-383.9 17.68,-373.61 10.57,-360 -4.66,-330.85 -1.93,-316.42 10.57,-286 16.85,-270.73 31.18,-257.9 41.79,-250"/>
<polygon fill="#63b8ff" stroke="#63b8ff" points="42.3,-394.32 52.78,-395.87 45.55,-388.12 42.3,-394.32"/>
</a>
</g>
</g>
<!-- Node8&#45;&gt;Node7 -->
<g id="edge7_Node000007_Node000008" class="edge">
<title>Node8&#45;&gt;Node7</title>
<g id="a_edge7_Node000007_Node000008"><a xlink:title=" ">
<path fill="none" stroke="#63b8ff" d="M74.57,-385.66C74.57,-376.93 74.57,-366.99 74.57,-360.09"/>
<polygon fill="#63b8ff" stroke="#63b8ff" points="71.07,-385.75 74.57,-395.75 78.07,-385.75 71.07,-385.75"/>
</a>
</g>
</g>
<!-- Node14 -->
<g id="Node000014" class="node">
<title>Node14</title>
<g id="a_Node000014"><a xlink:href="interfaceATAS_1_1Strategies_1_1IStrategy.html" target="_top" xlink:title="Represents a trading strategy.">
<polygon fill="white" stroke="#666666" points="308.57,-360 252.57,-360 252.57,-341 308.57,-341 308.57,-360"/>
<text text-anchor="middle" x="280.57" y="-348" font-family="Helvetica" font-size="10.00">IStrategy</text>
</a>
</g>
</g>
<!-- Node8&#45;&gt;Node14 -->
<g id="edge15_Node000014_Node000008" class="edge">
<title>Node8&#45;&gt;Node14</title>
<g id="a_edge15_Node000014_Node000008"><a xlink:title=" ">
<path fill="none" stroke="#63b8ff" d="M117.54,-393.44C158.1,-383.01 217.74,-367.67 252.52,-358.72"/>
<polygon fill="#63b8ff" stroke="#63b8ff" points="116.48,-390.1 107.67,-395.98 118.23,-396.88 116.48,-390.1"/>
</a>
</g>
</g>
<!-- Node9 -->
<g id="Node000009" class="node">
<title>Node9</title>
<g id="a_Node000009"><a xlink:title=" ">
<polygon fill="white" stroke="#666666" points="175.57,-305 107.57,-305 107.57,-286 175.57,-286 175.57,-305"/>
<text text-anchor="middle" x="141.57" y="-293" font-family="Helvetica" font-size="10.00">IDisposable</text>
</a>
</g>
</g>
<!-- Node9&#45;&gt;Node5 -->
<g id="edge9_Node000005_Node000009" class="edge">
<title>Node9&#45;&gt;Node5</title>
<g id="a_edge9_Node000005_Node000009"><a xlink:title=" ">
<path fill="none" stroke="#63b8ff" d="M118.91,-280.7C103.06,-271.04 82.38,-258.44 68.8,-250.17"/>
<polygon fill="#63b8ff" stroke="#63b8ff" points="117.23,-283.77 127.59,-285.98 120.87,-277.79 117.23,-283.77"/>
</a>
</g>
</g>
<!-- Node10 -->
<g id="Node000010" class="node">
<title>Node10</title>
<g id="a_Node000010"><a xlink:href="interfaceATAS_1_1Indicators_1_1INotifyPanelPropertyChanged.html" target="_top" xlink:title="Notifies clients that a panel property value has changed.">
<polygon fill="white" stroke="#666666" points="341.07,-305 194.07,-305 194.07,-286 341.07,-286 341.07,-305"/>
<text text-anchor="middle" x="267.57" y="-293" font-family="Helvetica" font-size="10.00">INotifyPanelPropertyChanged</text>
</a>
</g>
</g>
<!-- Node10&#45;&gt;Node5 -->
<g id="edge10_Node000005_Node000010" class="edge">
<title>Node10&#45;&gt;Node5</title>
<g id="a_edge10_Node000005_Node000010"><a xlink:title=" ">
<path fill="none" stroke="#63b8ff" d="M223.62,-283.56C183.73,-273.64 125.7,-259.2 89.06,-250.08"/>
<polygon fill="#63b8ff" stroke="#63b8ff" points="222.8,-286.97 233.35,-285.98 224.49,-280.17 222.8,-286.97"/>
</a>
</g>
</g>
<!-- Node11 -->
<g id="Node000011" class="node">
<title>Node11</title>
<g id="a_Node000011"><a xlink:title=" ">
<polygon fill="white" stroke="#666666" points="231.57,-250 111.57,-250 111.57,-231 231.57,-231 231.57,-250"/>
<text text-anchor="middle" x="171.57" y="-238" font-family="Helvetica" font-size="10.00">ICustomTypeDescriptor</text>
</a>
</g>
</g>
<!-- Node11&#45;&gt;Node4 -->
<g id="edge11_Node000004_Node000011" class="edge">
<title>Node11&#45;&gt;Node4</title>
<g id="a_edge11_Node000004_Node000011"><a xlink:title=" ">
<path fill="none" stroke="#63b8ff" d="M187.85,-223.52C197.37,-214.18 209.01,-202.75 216.82,-195.09"/>
<polygon fill="#63b8ff" stroke="#63b8ff" points="185.17,-221.25 180.49,-230.75 190.08,-226.24 185.17,-221.25"/>
</a>
</g>
</g>
<!-- Node12 -->
<g id="Node000012" class="node">
<title>Node12</title>
<g id="a_Node000012"><a xlink:href="interfaceATAS_1_1Indicators_1_1IMarketTimeProvider.html" target="_top" xlink:title=" ">
<polygon fill="white" stroke="#666666" points="357.07,-250 250.07,-250 250.07,-231 357.07,-231 357.07,-250"/>
<text text-anchor="middle" x="303.57" y="-238" font-family="Helvetica" font-size="10.00">IMarketTimeProvider</text>
</a>
</g>
</g>
<!-- Node12&#45;&gt;Node4 -->
<g id="edge12_Node000004_Node000012" class="edge">
<title>Node12&#45;&gt;Node4</title>
<g id="a_edge12_Node000004_Node000012"><a xlink:title=" ">
<path fill="none" stroke="#63b8ff" d="M282.45,-225.15C268.36,-215.57 250.28,-203.29 238.33,-195.17"/>
<polygon fill="#63b8ff" stroke="#63b8ff" points="280.8,-228.26 291.04,-230.98 284.74,-222.47 280.8,-228.26"/>
</a>
</g>
</g>
<!-- Node13 -->
<g id="Node000013" class="node">
<title>Node13</title>
<g id="a_Node000013"><a xlink:href="interfaceATAS_1_1Strategies_1_1Chart_1_1IChartStrategy.html" target="_top" xlink:title="Represents a chart strategy that extends the basic functionality of an IStrategy with additional char...">
<polygon fill="white" stroke="#666666" points="399.07,-195 318.07,-195 318.07,-176 399.07,-176 399.07,-195"/>
<text text-anchor="middle" x="358.57" y="-183" font-family="Helvetica" font-size="10.00">IChartStrategy</text>
</a>
</g>
</g>
<!-- Node13&#45;&gt;Node2 -->
<g id="edge13_Node000002_Node000013" class="edge">
<title>Node13&#45;&gt;Node2</title>
<g id="a_edge13_Node000002_Node000013"><a xlink:title=" ">
<path fill="none" stroke="#63b8ff" d="M353.9,-165.8C348,-142.2 338.09,-102.58 333.74,-85.16"/>
<polygon fill="#63b8ff" stroke="#63b8ff" points="350.54,-166.81 356.36,-175.66 357.33,-165.11 350.54,-166.81"/>
</a>
</g>
</g>
<!-- Node14&#45;&gt;Node13 -->
<g id="edge14_Node000013_Node000014" class="edge">
<title>Node14&#45;&gt;Node13</title>
<g id="a_edge14_Node000013_Node000014"><a xlink:title=" ">
<path fill="none" stroke="#63b8ff" d="M310.69,-336.22C324.34,-328.82 339.6,-318.37 349.57,-305 374.73,-271.25 365.51,-216.04 360.72,-195"/>
<polygon fill="#63b8ff" stroke="#63b8ff" points="308.91,-333.19 301.59,-340.85 312.09,-339.43 308.91,-333.19"/>
</a>
</g>
</g>
<!-- Node15 -->
<g id="Node000015" class="node">
<title>Node15</title>
<g id="a_Node000015"><a xlink:title=" ">
<polygon fill="white" stroke="#666666" points="439.57,-140 359.57,-140 359.57,-121 439.57,-121 439.57,-140"/>
<text text-anchor="middle" x="399.57" y="-128" font-family="Helvetica" font-size="10.00">ILoggerSource</text>
</a>
</g>
</g>
<!-- Node15&#45;&gt;Node2 -->
<g id="edge16_Node000002_Node000015" class="edge">
<title>Node15&#45;&gt;Node2</title>
<g id="a_edge16_Node000002_Node000015"><a xlink:title=" ">
<path fill="none" stroke="#63b8ff" d="M380.46,-114.6C368.27,-105.11 352.91,-93.13 342.7,-85.17"/>
<polygon fill="#63b8ff" stroke="#63b8ff" points="378.61,-117.6 388.65,-120.98 382.91,-112.08 378.61,-117.6"/>
</a>
</g>
</g>
</g>
</svg>
