<?xml version="1.0" encoding="UTF-8" standalone="no"?>
<!DOCTYPE svg PUBLIC "-//W3C//DTD SVG 1.1//EN"
 "http://www.w3.org/Graphics/SVG/1.1/DTD/svg11.dtd">
<!-- Generated by graphviz version 2.44.0 (0)
 -->
<!-- Title: ATAS.DataFeedsCore.TradeStatistics.Matching.TradesProcessingUnit Pages: 1 -->
<svg width="746pt" height="285pt"
 viewBox="0.00 0.00 746.00 285.00" xmlns="http://www.w3.org/2000/svg" xmlns:xlink="http://www.w3.org/1999/xlink">
<g id="graph0" class="graph" transform="scale(1 1) rotate(0) translate(4 281)">
<title>ATAS.DataFeedsCore.TradeStatistics.Matching.TradesProcessingUnit</title>
<!-- Node1 -->
<g id="Node000001" class="node">
<title>Node1</title>
<g id="a_Node000001"><a xlink:title=" ">
<polygon fill="#999999" stroke="#666666" points="526,-153.5 326,-153.5 326,-123.5 526,-123.5 526,-153.5"/>
<text text-anchor="start" x="334" y="-141.5" font-family="Helvetica" font-size="10.00">ATAS.DataFeedsCore.Trade</text>
<text text-anchor="middle" x="426" y="-130.5" font-family="Helvetica" font-size="10.00">Statistics.Matching.TradesProcessingUnit</text>
</a>
</g>
</g>
<!-- Node5 -->
<g id="Node000005" class="node">
<title>Node5</title>
<g id="a_Node000005"><a xlink:title=" ">
<polygon fill="white" stroke="#666666" points="738,-277 562,-277 562,-236 738,-236 738,-277"/>
<text text-anchor="start" x="570" y="-265" font-family="Helvetica" font-size="10.00">ATAS.DataFeedsCore.Trade</text>
<text text-anchor="start" x="570" y="-254" font-family="Helvetica" font-size="10.00">Statistics.Matching.HistoryMatching</text>
<text text-anchor="middle" x="650" y="-243" font-family="Helvetica" font-size="10.00">Processor</text>
</a>
</g>
</g>
<!-- Node1&#45;&gt;Node5 -->
<g id="edge4_Node000001_Node000005" class="edge">
<title>Node1&#45;&gt;Node5</title>
<g id="a_edge4_Node000001_Node000005"><a xlink:title=" ">
<path fill="none" stroke="#63b8ff" d="M454.62,-159.83C481.04,-179.46 522.58,-208.35 562,-227.5 568.16,-230.49 574.7,-233.3 581.33,-235.89"/>
<polygon fill="#63b8ff" stroke="#63b8ff" points="456.69,-157.01 446.6,-153.81 452.49,-162.61 456.69,-157.01"/>
</a>
</g>
</g>
<!-- Node6 -->
<g id="Node000006" class="node">
<title>Node6</title>
<g id="a_Node000006"><a xlink:title=" ">
<polygon fill="white" stroke="#666666" points="721,-218 579,-218 579,-177 721,-177 721,-218"/>
<text text-anchor="start" x="587" y="-206" font-family="Helvetica" font-size="10.00">ATAS.DataFeedsCore.Trade</text>
<text text-anchor="start" x="587" y="-195" font-family="Helvetica" font-size="10.00">Statistics.Matching.Realtime</text>
<text text-anchor="middle" x="650" y="-184" font-family="Helvetica" font-size="10.00">MatchingProcessor</text>
</a>
</g>
</g>
<!-- Node1&#45;&gt;Node6 -->
<g id="edge5_Node000001_Node000006" class="edge">
<title>Node1&#45;&gt;Node6</title>
<g id="a_edge5_Node000001_Node000006"><a xlink:title=" ">
<path fill="none" stroke="#63b8ff" d="M493.3,-156.12C520.19,-163.27 551.29,-171.53 578.59,-178.79"/>
<polygon fill="#63b8ff" stroke="#63b8ff" points="494.16,-152.73 483.59,-153.54 492.36,-159.49 494.16,-152.73"/>
</a>
</g>
</g>
<!-- Node7 -->
<g id="Node000007" class="node">
<title>Node7</title>
<g id="a_Node000007"><a xlink:title=" ">
<polygon fill="white" stroke="#666666" points="721,-159 579,-159 579,-118 721,-118 721,-159"/>
<text text-anchor="start" x="587" y="-147" font-family="Helvetica" font-size="10.00">ATAS.DataFeedsCore.Trade</text>
<text text-anchor="start" x="587" y="-136" font-family="Helvetica" font-size="10.00">Statistics.Matching.Realtime</text>
<text text-anchor="middle" x="650" y="-125" font-family="Helvetica" font-size="10.00">TradesMatcher</text>
</a>
</g>
</g>
<!-- Node1&#45;&gt;Node7 -->
<g id="edge6_Node000001_Node000007" class="edge">
<title>Node1&#45;&gt;Node7</title>
<g id="a_edge6_Node000001_Node000007"><a xlink:title=" ">
<path fill="none" stroke="#63b8ff" d="M536.69,-138.5C550.98,-138.5 565.29,-138.5 578.68,-138.5"/>
<polygon fill="#63b8ff" stroke="#63b8ff" points="536.31,-135 526.31,-138.5 536.31,-142 536.31,-135"/>
</a>
</g>
</g>
<!-- Node8 -->
<g id="Node000008" class="node">
<title>Node8</title>
<g id="a_Node000008"><a xlink:href="classATAS_1_1DataFeedsCore_1_1TradeStatistics_1_1Matching_1_1TradesMatchingProcessor.html" target="_top" xlink:title=" ">
<polygon fill="white" stroke="#666666" points="736.5,-100 563.5,-100 563.5,-59 736.5,-59 736.5,-100"/>
<text text-anchor="start" x="571.5" y="-88" font-family="Helvetica" font-size="10.00">ATAS.DataFeedsCore.Trade</text>
<text text-anchor="start" x="571.5" y="-77" font-family="Helvetica" font-size="10.00">Statistics.Matching.TradesMatching</text>
<text text-anchor="middle" x="650" y="-66" font-family="Helvetica" font-size="10.00">Processor</text>
</a>
</g>
</g>
<!-- Node1&#45;&gt;Node8 -->
<g id="edge7_Node000001_Node000008" class="edge">
<title>Node1&#45;&gt;Node8</title>
<g id="a_edge7_Node000001_Node000008"><a xlink:title=" ">
<path fill="none" stroke="#63b8ff" d="M493.53,-120.82C518.09,-114.29 546.13,-106.84 571.57,-100.08"/>
<polygon fill="#63b8ff" stroke="#63b8ff" points="492.36,-117.51 483.59,-123.46 494.16,-124.27 492.36,-117.51"/>
</a>
</g>
</g>
<!-- Node9 -->
<g id="Node000009" class="node">
<title>Node9</title>
<g id="a_Node000009"><a xlink:title=" ">
<polygon fill="white" stroke="#666666" points="736.5,-41 563.5,-41 563.5,0 736.5,0 736.5,-41"/>
<text text-anchor="start" x="571.5" y="-29" font-family="Helvetica" font-size="10.00">ATAS.DataFeedsCore.Trade</text>
<text text-anchor="start" x="571.5" y="-18" font-family="Helvetica" font-size="10.00">Statistics.Matching.TradesPositions</text>
<text text-anchor="middle" x="650" y="-7" font-family="Helvetica" font-size="10.00">Balancer</text>
</a>
</g>
</g>
<!-- Node1&#45;&gt;Node9 -->
<g id="edge8_Node000001_Node000009" class="edge">
<title>Node1&#45;&gt;Node9</title>
<g id="a_edge8_Node000001_Node000009"><a xlink:title=" ">
<path fill="none" stroke="#63b8ff" d="M454.62,-117.17C481.04,-97.54 522.58,-68.65 562,-49.5 568.16,-46.51 574.7,-43.7 581.33,-41.11"/>
<polygon fill="#63b8ff" stroke="#63b8ff" points="452.49,-114.39 446.6,-123.19 456.69,-119.99 452.49,-114.39"/>
</a>
</g>
</g>
<!-- Node2 -->
<g id="Node000002" class="node">
<title>Node2</title>
<g id="a_Node000002"><a xlink:href="classATAS_1_1DataFeedsCore_1_1TradeStatistics_1_1Matching_1_1TradesProcessingLoggerSource.html" target="_top" xlink:title=" ">
<polygon fill="white" stroke="#666666" points="290,-167 135,-167 135,-148 290,-148 290,-167"/>
<text text-anchor="middle" x="212.5" y="-155" font-family="Helvetica" font-size="10.00">TradesProcessingLoggerSource</text>
</a>
</g>
</g>
<!-- Node2&#45;&gt;Node1 -->
<g id="edge1_Node000001_Node000002" class="edge">
<title>Node2&#45;&gt;Node1</title>
<g id="a_edge1_Node000001_Node000002"><a xlink:title=" ">
<path fill="none" stroke="#63b8ff" d="M300.31,-149.7C308.72,-148.95 317.29,-148.18 325.81,-147.41"/>
<polygon fill="#63b8ff" stroke="#63b8ff" points="299.8,-146.23 290.16,-150.61 300.43,-153.2 299.8,-146.23"/>
</a>
</g>
</g>
<!-- Node3 -->
<g id="Node000003" class="node">
<title>Node3</title>
<g id="a_Node000003"><a xlink:title=" ">
<polygon fill="white" stroke="#666666" points="99,-167 0,-167 0,-148 99,-148 99,-167"/>
<text text-anchor="middle" x="49.5" y="-155" font-family="Helvetica" font-size="10.00">BaseLoggerSource</text>
</a>
</g>
</g>
<!-- Node3&#45;&gt;Node2 -->
<g id="edge2_Node000002_Node000003" class="edge">
<title>Node3&#45;&gt;Node2</title>
<g id="a_edge2_Node000002_Node000003"><a xlink:title=" ">
<path fill="none" stroke="#63b8ff" d="M109.26,-157.5C117.63,-157.5 126.33,-157.5 134.98,-157.5"/>
<polygon fill="#63b8ff" stroke="#63b8ff" points="109.24,-154 99.24,-157.5 109.24,-161 109.24,-154"/>
</a>
</g>
</g>
<!-- Node4 -->
<g id="Node000004" class="node">
<title>Node4</title>
<g id="a_Node000004"><a xlink:title=" ">
<polygon fill="white" stroke="#666666" points="246.5,-130 178.5,-130 178.5,-111 246.5,-111 246.5,-130"/>
<text text-anchor="middle" x="212.5" y="-118" font-family="Helvetica" font-size="10.00">IDisposable</text>
</a>
</g>
</g>
<!-- Node4&#45;&gt;Node1 -->
<g id="edge3_Node000001_Node000004" class="edge">
<title>Node4&#45;&gt;Node1</title>
<g id="a_edge3_Node000001_Node000004"><a xlink:title=" ">
<path fill="none" stroke="#63b8ff" d="M256.6,-124.17C276.71,-125.88 301.55,-127.99 325.91,-130.07"/>
<polygon fill="#63b8ff" stroke="#63b8ff" points="256.81,-120.67 246.55,-123.31 256.21,-127.65 256.81,-120.67"/>
</a>
</g>
</g>
</g>
</svg>
