<?xml version="1.0" encoding="UTF-8" standalone="no"?>
<!DOCTYPE svg PUBLIC "-//W3C//DTD SVG 1.1//EN"
 "http://www.w3.org/Graphics/SVG/1.1/DTD/svg11.dtd">
<!-- Generated by graphviz version 2.44.0 (0)
 -->
<!-- Title: ATAS.Strategies.Strategy Pages: 1 -->
<svg width="215pt" height="137pt"
 viewBox="0.00 0.00 214.50 137.00" xmlns="http://www.w3.org/2000/svg" xmlns:xlink="http://www.w3.org/1999/xlink">
<g id="graph0" class="graph" transform="scale(1 1) rotate(0) translate(4 133)">
<title>ATAS.Strategies.Strategy</title>
<!-- Node1 -->
<g id="Node000001" class="node">
<title>Node1</title>
<g id="a_Node000001"><a xlink:title="Base class for implementing trading strategies.">
<polygon fill="#999999" stroke="#666666" points="161.5,-19 33.5,-19 33.5,0 161.5,0 161.5,-19"/>
<text text-anchor="middle" x="97.5" y="-7" font-family="Helvetica" font-size="10.00">ATAS.Strategies.Strategy</text>
</a>
</g>
</g>
<!-- Node2 -->
<g id="Node000002" class="node">
<title>Node2</title>
<g id="a_Node000002"><a xlink:title=" ">
<polygon fill="white" stroke="#666666" points="99,-74 0,-74 0,-55 99,-55 99,-74"/>
<text text-anchor="middle" x="49.5" y="-62" font-family="Helvetica" font-size="10.00">BaseLoggerSource</text>
</a>
</g>
</g>
<!-- Node2&#45;&gt;Node1 -->
<g id="edge1_Node000001_Node000002" class="edge">
<title>Node2&#45;&gt;Node1</title>
<g id="a_edge1_Node000001_Node000002"><a xlink:title=" ">
<path fill="none" stroke="#63b8ff" d="M64.23,-47.24C72.64,-37.95 82.85,-26.68 89.72,-19.09"/>
<polygon fill="#63b8ff" stroke="#63b8ff" points="61.54,-44.99 57.43,-54.75 66.73,-49.69 61.54,-44.99"/>
</a>
</g>
</g>
<!-- Node3 -->
<g id="Node000003" class="node">
<title>Node3</title>
<g id="a_Node000003"><a xlink:href="interfaceATAS_1_1Strategies_1_1IStrategy.html" target="_top" xlink:title="Represents a trading strategy.">
<polygon fill="white" stroke="#666666" points="173.5,-74 117.5,-74 117.5,-55 173.5,-55 173.5,-74"/>
<text text-anchor="middle" x="145.5" y="-62" font-family="Helvetica" font-size="10.00">IStrategy</text>
</a>
</g>
</g>
<!-- Node3&#45;&gt;Node1 -->
<g id="edge2_Node000001_Node000003" class="edge">
<title>Node3&#45;&gt;Node1</title>
<g id="a_edge2_Node000001_Node000003"><a xlink:title=" ">
<path fill="none" stroke="#63b8ff" d="M130.77,-47.24C122.36,-37.95 112.15,-26.68 105.28,-19.09"/>
<polygon fill="#63b8ff" stroke="#63b8ff" points="128.27,-49.69 137.57,-54.75 133.46,-44.99 128.27,-49.69"/>
</a>
</g>
</g>
<!-- Node4 -->
<g id="Node000004" class="node">
<title>Node4</title>
<g id="a_Node000004"><a xlink:title=" ">
<polygon fill="white" stroke="#666666" points="206.5,-129 84.5,-129 84.5,-110 206.5,-110 206.5,-129"/>
<text text-anchor="middle" x="145.5" y="-117" font-family="Helvetica" font-size="10.00">INotifyPropertyChanged</text>
</a>
</g>
</g>
<!-- Node4&#45;&gt;Node3 -->
<g id="edge3_Node000003_Node000004" class="edge">
<title>Node4&#45;&gt;Node3</title>
<g id="a_edge3_Node000003_Node000004"><a xlink:title=" ">
<path fill="none" stroke="#63b8ff" d="M145.5,-99.66C145.5,-90.93 145.5,-80.99 145.5,-74.09"/>
<polygon fill="#63b8ff" stroke="#63b8ff" points="142,-99.75 145.5,-109.75 149,-99.75 142,-99.75"/>
</a>
</g>
</g>
</g>
</svg>
