<?xml version="1.0" encoding="UTF-8" standalone="no"?>
<!DOCTYPE svg PUBLIC "-//W3C//DTD SVG 1.1//EN"
 "http://www.w3.org/Graphics/SVG/1.1/DTD/svg11.dtd">
<!-- Generated by graphviz version 2.44.0 (0)
 -->
<!-- Title: ATAS.DataFeedsCore.SecurityMargin Pages: 1 -->
<svg width="332pt" height="93pt"
 viewBox="0.00 0.00 331.50 93.00" xmlns="http://www.w3.org/2000/svg" xmlns:xlink="http://www.w3.org/1999/xlink">
<g id="graph0" class="graph" transform="scale(1 1) rotate(0) translate(4 89)">
<title>ATAS.DataFeedsCore.SecurityMargin</title>
<!-- Node1 -->
<g id="Node000001" class="node">
<title>Node1</title>
<g id="a_Node000001"><a xlink:title=" ">
<polygon fill="#999999" stroke="#666666" points="200.5,-30 48.5,-30 48.5,0 200.5,0 200.5,-30"/>
<text text-anchor="start" x="56.5" y="-18" font-family="Helvetica" font-size="10.00">ATAS.DataFeedsCore.Security</text>
<text text-anchor="middle" x="124.5" y="-7" font-family="Helvetica" font-size="10.00">Margin</text>
</a>
</g>
</g>
<!-- Node2 -->
<g id="Node000002" class="node">
<title>Node2</title>
<g id="a_Node000002"><a xlink:href="interfaceATAS_1_1DataFeedsCore_1_1IEntity.html" target="_top" xlink:title="Represents an entity in the application.">
<polygon fill="white" stroke="#666666" points="45,-85 0,-85 0,-66 45,-66 45,-85"/>
<text text-anchor="middle" x="22.5" y="-73" font-family="Helvetica" font-size="10.00">IEntity</text>
</a>
</g>
</g>
<!-- Node2&#45;&gt;Node1 -->
<g id="edge1_Node000001_Node000002" class="edge">
<title>Node2&#45;&gt;Node1</title>
<g id="a_edge1_Node000001_Node000002"><a xlink:title=" ">
<path fill="none" stroke="#63b8ff" d="M46.36,-60.81C62.46,-51.58 83.64,-39.43 99.89,-30.11"/>
<polygon fill="#63b8ff" stroke="#63b8ff" points="44.48,-57.86 37.55,-65.87 47.97,-63.93 44.48,-57.86"/>
</a>
</g>
</g>
<!-- Node3 -->
<g id="Node000003" class="node">
<title>Node3</title>
<g id="a_Node000003"><a xlink:title=" ">
<polygon fill="white" stroke="#666666" points="185.5,-85 63.5,-85 63.5,-66 185.5,-66 185.5,-85"/>
<text text-anchor="middle" x="124.5" y="-73" font-family="Helvetica" font-size="10.00">INotifyPropertyChanged</text>
</a>
</g>
</g>
<!-- Node3&#45;&gt;Node1 -->
<g id="edge2_Node000001_Node000003" class="edge">
<title>Node3&#45;&gt;Node1</title>
<g id="a_edge2_Node000001_Node000003"><a xlink:title=" ">
<path fill="none" stroke="#63b8ff" d="M124.5,-55.65C124.5,-47.36 124.5,-37.78 124.5,-30.11"/>
<polygon fill="#63b8ff" stroke="#63b8ff" points="121,-55.87 124.5,-65.87 128,-55.87 121,-55.87"/>
</a>
</g>
</g>
<!-- Node4 -->
<g id="Node000004" class="node">
<title>Node4</title>
<g id="a_Node000004"><a xlink:title=" ">
<polygon fill="white" stroke="#666666" points="323.5,-85 203.5,-85 203.5,-66 323.5,-66 323.5,-85"/>
<text text-anchor="middle" x="263.5" y="-73" font-family="Helvetica" font-size="10.00">ICustomTypeDescriptor</text>
</a>
</g>
</g>
<!-- Node4&#45;&gt;Node1 -->
<g id="edge3_Node000001_Node000004" class="edge">
<title>Node4&#45;&gt;Node1</title>
<g id="a_edge3_Node000001_Node000004"><a xlink:title=" ">
<path fill="none" stroke="#63b8ff" d="M233.99,-62.08C211.71,-52.7 181.1,-39.82 157.92,-30.06"/>
<polygon fill="#63b8ff" stroke="#63b8ff" points="232.71,-65.34 243.29,-65.99 235.43,-58.89 232.71,-65.34"/>
</a>
</g>
</g>
</g>
</svg>
