<?xml version="1.0" encoding="UTF-8" standalone="no"?>
<!DOCTYPE svg PUBLIC "-//W3C//DTD SVG 1.1//EN"
 "http://www.w3.org/Graphics/SVG/1.1/DTD/svg11.dtd">
<!-- Generated by graphviz version 2.44.0 (0)
 -->
<!-- Title: ATAS.Strategies.ATM.ATMStrategy&lt; TStrategy &gt; Pages: 1 -->
<svg width="215pt" height="280pt"
 viewBox="0.00 0.00 214.50 280.00" xmlns="http://www.w3.org/2000/svg" xmlns:xlink="http://www.w3.org/1999/xlink">
<g id="graph0" class="graph" transform="scale(1 1) rotate(0) translate(4 276)">
<title>ATAS.Strategies.ATM.ATMStrategy&lt; TStrategy &gt;</title>
<!-- Node1 -->
<g id="Node000001" class="node">
<title>Node1</title>
<g id="a_Node000001"><a xlink:title=" ">
<polygon fill="#999999" stroke="#666666" points="189.5,-107 17.5,-107 17.5,-77 189.5,-77 189.5,-107"/>
<text text-anchor="start" x="25.5" y="-95" font-family="Helvetica" font-size="10.00">ATAS.Strategies.ATM.ATMStrategy</text>
<text text-anchor="middle" x="103.5" y="-84" font-family="Helvetica" font-size="10.00">&lt; TStrategy &gt;</text>
</a>
</g>
</g>
<!-- Node7 -->
<g id="Node000007" class="node">
<title>Node7</title>
<g id="a_Node000007"><a xlink:href="classATAS_1_1Strategies_1_1ATM_1_1BaseStopProfitStrategy.html" target="_top" xlink:title=" ">
<polygon fill="white" stroke="#666666" points="179,-41 28,-41 28,0 179,0 179,-41"/>
<text text-anchor="start" x="36" y="-29" font-family="Helvetica" font-size="10.00">ATAS.Strategies.ATM.Base</text>
<text text-anchor="start" x="36" y="-18" font-family="Helvetica" font-size="10.00">StopProfitStrategy&lt; TStrategy,</text>
<text text-anchor="middle" x="103.5" y="-7" font-family="Helvetica" font-size="10.00"> TSettings &gt;</text>
</a>
</g>
</g>
<!-- Node1&#45;&gt;Node7 -->
<g id="edge7_Node000001_Node000007" class="edge">
<title>Node1&#45;&gt;Node7</title>
<g id="a_edge7_Node000001_Node000007"><a xlink:title=" ">
<path fill="none" stroke="#63b8ff" d="M103.5,-66.91C103.5,-58.47 103.5,-49.1 103.5,-41.07"/>
<polygon fill="#63b8ff" stroke="#63b8ff" points="100,-66.94 103.5,-76.94 107,-66.94 100,-66.94"/>
</a>
</g>
</g>
<!-- Node2 -->
<g id="Node000002" class="node">
<title>Node2</title>
<g id="a_Node000002"><a xlink:href="classATAS_1_1Strategies_1_1Strategy.html" target="_top" xlink:title="Base class for implementing trading strategies.">
<polygon fill="white" stroke="#666666" points="89,-162 36,-162 36,-143 89,-143 89,-162"/>
<text text-anchor="middle" x="62.5" y="-150" font-family="Helvetica" font-size="10.00">Strategy</text>
</a>
</g>
</g>
<!-- Node2&#45;&gt;Node1 -->
<g id="edge1_Node000001_Node000002" class="edge">
<title>Node2&#45;&gt;Node1</title>
<g id="a_edge1_Node000001_Node000002"><a xlink:title=" ">
<path fill="none" stroke="#63b8ff" d="M74.34,-134.61C80.45,-125.89 87.81,-115.39 93.61,-107.11"/>
<polygon fill="#63b8ff" stroke="#63b8ff" points="71.42,-132.67 68.55,-142.87 77.16,-136.69 71.42,-132.67"/>
</a>
</g>
</g>
<!-- Node3 -->
<g id="Node000003" class="node">
<title>Node3</title>
<g id="a_Node000003"><a xlink:title=" ">
<polygon fill="white" stroke="#666666" points="99,-217 0,-217 0,-198 99,-198 99,-217"/>
<text text-anchor="middle" x="49.5" y="-205" font-family="Helvetica" font-size="10.00">BaseLoggerSource</text>
</a>
</g>
</g>
<!-- Node3&#45;&gt;Node2 -->
<g id="edge2_Node000002_Node000003" class="edge">
<title>Node3&#45;&gt;Node2</title>
<g id="a_edge2_Node000002_Node000003"><a xlink:title=" ">
<path fill="none" stroke="#63b8ff" d="M54.05,-187.95C56.21,-179.15 58.68,-169.06 60.39,-162.09"/>
<polygon fill="#63b8ff" stroke="#63b8ff" points="50.63,-187.2 51.65,-197.75 57.43,-188.87 50.63,-187.2"/>
</a>
</g>
</g>
<!-- Node4 -->
<g id="Node000004" class="node">
<title>Node4</title>
<g id="a_Node000004"><a xlink:href="interfaceATAS_1_1Strategies_1_1IStrategy.html" target="_top" xlink:title="Represents a trading strategy.">
<polygon fill="white" stroke="#666666" points="173.5,-217 117.5,-217 117.5,-198 173.5,-198 173.5,-217"/>
<text text-anchor="middle" x="145.5" y="-205" font-family="Helvetica" font-size="10.00">IStrategy</text>
</a>
</g>
</g>
<!-- Node4&#45;&gt;Node2 -->
<g id="edge3_Node000002_Node000004" class="edge">
<title>Node4&#45;&gt;Node2</title>
<g id="a_edge3_Node000002_Node000004"><a xlink:title=" ">
<path fill="none" stroke="#63b8ff" d="M123.46,-192.42C108.39,-182.81 88.91,-170.37 76.08,-162.17"/>
<polygon fill="#63b8ff" stroke="#63b8ff" points="121.85,-195.55 132.16,-197.98 125.62,-189.65 121.85,-195.55"/>
</a>
</g>
</g>
<!-- Node6 -->
<g id="Node000006" class="node">
<title>Node6</title>
<g id="a_Node000006"><a xlink:href="interfaceATAS_1_1Strategies_1_1ATM_1_1IATMStrategy.html" target="_top" xlink:title=" ">
<polygon fill="white" stroke="#666666" points="184,-162 107,-162 107,-143 184,-143 184,-162"/>
<text text-anchor="middle" x="145.5" y="-150" font-family="Helvetica" font-size="10.00">IATMStrategy</text>
</a>
</g>
</g>
<!-- Node4&#45;&gt;Node6 -->
<g id="edge6_Node000006_Node000004" class="edge">
<title>Node4&#45;&gt;Node6</title>
<g id="a_edge6_Node000006_Node000004"><a xlink:title=" ">
<path fill="none" stroke="#63b8ff" d="M145.5,-187.66C145.5,-178.93 145.5,-168.99 145.5,-162.09"/>
<polygon fill="#63b8ff" stroke="#63b8ff" points="142,-187.75 145.5,-197.75 149,-187.75 142,-187.75"/>
</a>
</g>
</g>
<!-- Node5 -->
<g id="Node000005" class="node">
<title>Node5</title>
<g id="a_Node000005"><a xlink:title=" ">
<polygon fill="white" stroke="#666666" points="206.5,-272 84.5,-272 84.5,-253 206.5,-253 206.5,-272"/>
<text text-anchor="middle" x="145.5" y="-260" font-family="Helvetica" font-size="10.00">INotifyPropertyChanged</text>
</a>
</g>
</g>
<!-- Node5&#45;&gt;Node4 -->
<g id="edge4_Node000004_Node000005" class="edge">
<title>Node5&#45;&gt;Node4</title>
<g id="a_edge4_Node000004_Node000005"><a xlink:title=" ">
<path fill="none" stroke="#63b8ff" d="M145.5,-242.66C145.5,-233.93 145.5,-223.99 145.5,-217.09"/>
<polygon fill="#63b8ff" stroke="#63b8ff" points="142,-242.75 145.5,-252.75 149,-242.75 142,-242.75"/>
</a>
</g>
</g>
<!-- Node6&#45;&gt;Node1 -->
<g id="edge5_Node000001_Node000006" class="edge">
<title>Node6&#45;&gt;Node1</title>
<g id="a_edge5_Node000001_Node000006"><a xlink:title=" ">
<path fill="none" stroke="#63b8ff" d="M133.37,-134.61C127.12,-125.89 119.57,-115.39 113.63,-107.11"/>
<polygon fill="#63b8ff" stroke="#63b8ff" points="130.63,-136.79 139.3,-142.87 136.31,-132.7 130.63,-136.79"/>
</a>
</g>
</g>
</g>
</svg>
