<?xml version="1.0" encoding="UTF-8" standalone="no"?>
<!DOCTYPE svg PUBLIC "-//W3C//DTD SVG 1.1//EN"
 "http://www.w3.org/Graphics/SVG/1.1/DTD/svg11.dtd">
<!-- Generated by graphviz version 2.44.0 (0)
 -->
<!-- Title: ATAS.Strategies.Chart.ChartStrategy Pages: 1 -->
<svg width="448pt" height="434pt"
 viewBox="0.00 0.00 447.57 434.00" xmlns="http://www.w3.org/2000/svg" xmlns:xlink="http://www.w3.org/1999/xlink">
<g id="graph0" class="graph" transform="scale(1 1) rotate(0) translate(4 430)">
<title>ATAS.Strategies.Chart.ChartStrategy</title>
<!-- Node1 -->
<g id="Node000001" class="node">
<title>Node1</title>
<g id="a_Node000001"><a xlink:title="Represents an abstract class for a chart strategy that extends the functionality of an Indicator and ...">
<polygon fill="#999999" stroke="#666666" points="403.07,-96 260.07,-96 260.07,-66 403.07,-66 403.07,-96"/>
<text text-anchor="start" x="268.07" y="-84" font-family="Helvetica" font-size="10.00">ATAS.Strategies.Chart.Chart</text>
<text text-anchor="middle" x="331.57" y="-73" font-family="Helvetica" font-size="10.00">Strategy</text>
</a>
</g>
</g>
<!-- Node15 -->
<g id="Node000015" class="node">
<title>Node15</title>
<g id="a_Node000015"><a xlink:href="classATAS_1_1Strategies_1_1Chart_1_1SmaChartStrategy.html" target="_top" xlink:title=" ">
<polygon fill="white" stroke="#666666" points="401.07,-30 262.07,-30 262.07,0 401.07,0 401.07,-30"/>
<text text-anchor="start" x="270.07" y="-18" font-family="Helvetica" font-size="10.00">ATAS.Strategies.Chart.Sma</text>
<text text-anchor="middle" x="331.57" y="-7" font-family="Helvetica" font-size="10.00">ChartStrategy</text>
</a>
</g>
</g>
<!-- Node1&#45;&gt;Node15 -->
<g id="edge16_Node000001_Node000015" class="edge">
<title>Node1&#45;&gt;Node15</title>
<g id="a_edge16_Node000001_Node000015"><a xlink:title=" ">
<path fill="none" stroke="#63b8ff" d="M331.57,-55.54C331.57,-46.96 331.57,-37.61 331.57,-30.16"/>
<polygon fill="#63b8ff" stroke="#63b8ff" points="328.07,-55.8 331.57,-65.8 335.07,-55.8 328.07,-55.8"/>
</a>
</g>
</g>
<!-- Node2 -->
<g id="Node000002" class="node">
<title>Node2</title>
<g id="a_Node000002"><a xlink:href="classATAS_1_1Indicators_1_1Indicator.html" target="_top" xlink:title="Base class for custom indicators.">
<polygon fill="white" stroke="#666666" points="277.57,-151 223.57,-151 223.57,-132 277.57,-132 277.57,-151"/>
<text text-anchor="middle" x="250.57" y="-139" font-family="Helvetica" font-size="10.00">Indicator</text>
</a>
</g>
</g>
<!-- Node2&#45;&gt;Node1 -->
<g id="edge1_Node000001_Node000002" class="edge">
<title>Node2&#45;&gt;Node1</title>
<g id="a_edge1_Node000001_Node000002"><a xlink:title=" ">
<path fill="none" stroke="#63b8ff" d="M270.97,-125.77C283.56,-116.68 299.61,-105.09 312.03,-96.11"/>
<polygon fill="#63b8ff" stroke="#63b8ff" points="268.58,-123.18 262.52,-131.87 272.68,-128.85 268.58,-123.18"/>
</a>
</g>
</g>
<!-- Node3 -->
<g id="Node000003" class="node">
<title>Node3</title>
<g id="a_Node000003"><a xlink:href="classATAS_1_1Indicators_1_1ExtendedIndicator.html" target="_top" xlink:title="An extended base class for custom indicators that provide additional functionality for drawing,...">
<polygon fill="white" stroke="#666666" points="273.07,-206 178.07,-206 178.07,-187 273.07,-187 273.07,-206"/>
<text text-anchor="middle" x="225.57" y="-194" font-family="Helvetica" font-size="10.00">ExtendedIndicator</text>
</a>
</g>
</g>
<!-- Node3&#45;&gt;Node2 -->
<g id="edge2_Node000002_Node000003" class="edge">
<title>Node3&#45;&gt;Node2</title>
<g id="a_edge2_Node000002_Node000003"><a xlink:title=" ">
<path fill="none" stroke="#63b8ff" d="M234.05,-177.53C238.26,-168.6 243.16,-158.22 246.52,-151.09"/>
<polygon fill="#63b8ff" stroke="#63b8ff" points="230.8,-176.21 229.7,-186.75 237.13,-179.2 230.8,-176.21"/>
</a>
</g>
</g>
<!-- Node4 -->
<g id="Node000004" class="node">
<title>Node4</title>
<g id="a_Node000004"><a xlink:href="classATAS_1_1Indicators_1_1BaseIndicator.html" target="_top" xlink:title="Base class for custom indicators in a chart.">
<polygon fill="white" stroke="#666666" points="93.07,-261 16.07,-261 16.07,-242 93.07,-242 93.07,-261"/>
<text text-anchor="middle" x="54.57" y="-249" font-family="Helvetica" font-size="10.00">BaseIndicator</text>
</a>
</g>
</g>
<!-- Node4&#45;&gt;Node3 -->
<g id="edge3_Node000003_Node000004" class="edge">
<title>Node4&#45;&gt;Node3</title>
<g id="a_edge3_Node000003_Node000004"><a xlink:title=" ">
<path fill="none" stroke="#63b8ff" d="M91.91,-238.93C123.85,-229.03 169.09,-215.01 197.88,-206.08"/>
<polygon fill="#63b8ff" stroke="#63b8ff" points="90.56,-235.68 82.05,-241.98 92.63,-242.37 90.56,-235.68"/>
</a>
</g>
</g>
<!-- Node5 -->
<g id="Node000005" class="node">
<title>Node5</title>
<g id="a_Node000005"><a xlink:href="classATAS_1_1Indicators_1_1ChartObject.html" target="_top" xlink:title="Base class for objects in a chart.">
<polygon fill="white" stroke="#666666" points="89.57,-316 19.57,-316 19.57,-297 89.57,-297 89.57,-316"/>
<text text-anchor="middle" x="54.57" y="-304" font-family="Helvetica" font-size="10.00">ChartObject</text>
</a>
</g>
</g>
<!-- Node5&#45;&gt;Node4 -->
<g id="edge4_Node000004_Node000005" class="edge">
<title>Node5&#45;&gt;Node4</title>
<g id="a_edge4_Node000004_Node000005"><a xlink:title=" ">
<path fill="none" stroke="#63b8ff" d="M54.57,-286.66C54.57,-277.93 54.57,-267.99 54.57,-261.09"/>
<polygon fill="#63b8ff" stroke="#63b8ff" points="51.07,-286.75 54.57,-296.75 58.07,-286.75 51.07,-286.75"/>
</a>
</g>
</g>
<!-- Node6 -->
<g id="Node000006" class="node">
<title>Node6</title>
<g id="a_Node000006"><a xlink:href="classATAS_1_1Indicators_1_1Filters_1_1TrackedPropertyBase.html" target="_top" xlink:title="A base class for tracking property changes and notifying subscribers when a property value is modifie...">
<polygon fill="white" stroke="#666666" points="129.57,-371 19.57,-371 19.57,-352 129.57,-352 129.57,-371"/>
<text text-anchor="middle" x="74.57" y="-359" font-family="Helvetica" font-size="10.00">TrackedPropertyBase</text>
</a>
</g>
</g>
<!-- Node6&#45;&gt;Node5 -->
<g id="edge5_Node000005_Node000006" class="edge">
<title>Node6&#45;&gt;Node5</title>
<g id="a_edge5_Node000005_Node000006"><a xlink:title=" ">
<path fill="none" stroke="#63b8ff" d="M67.68,-342.24C64.34,-333.37 60.47,-323.14 57.81,-316.09"/>
<polygon fill="#63b8ff" stroke="#63b8ff" points="64.46,-343.63 71.27,-351.75 71.01,-341.16 64.46,-343.63"/>
</a>
</g>
</g>
<!-- Node7 -->
<g id="Node000007" class="node">
<title>Node7</title>
<g id="a_Node000007"><a xlink:title=" ">
<polygon fill="white" stroke="#666666" points="135.57,-426 13.57,-426 13.57,-407 135.57,-407 135.57,-426"/>
<text text-anchor="middle" x="74.57" y="-414" font-family="Helvetica" font-size="10.00">INotifyPropertyChanged</text>
</a>
</g>
</g>
<!-- Node7&#45;&gt;Node4 -->
<g id="edge7_Node000004_Node000007" class="edge">
<title>Node7&#45;&gt;Node4</title>
<g id="a_edge7_Node000004_Node000007"><a xlink:title=" ">
<path fill="none" stroke="#63b8ff" d="M43.76,-402.13C31.06,-394.9 17.68,-384.61 10.57,-371 -4.66,-341.85 -1.93,-327.42 10.57,-297 16.85,-281.73 31.18,-268.9 41.79,-261"/>
<polygon fill="#63b8ff" stroke="#63b8ff" points="42.3,-405.32 52.78,-406.87 45.55,-399.12 42.3,-405.32"/>
</a>
</g>
</g>
<!-- Node7&#45;&gt;Node6 -->
<g id="edge6_Node000006_Node000007" class="edge">
<title>Node7&#45;&gt;Node6</title>
<g id="a_edge6_Node000006_Node000007"><a xlink:title=" ">
<path fill="none" stroke="#63b8ff" d="M74.57,-396.66C74.57,-387.93 74.57,-377.99 74.57,-371.09"/>
<polygon fill="#63b8ff" stroke="#63b8ff" points="71.07,-396.75 74.57,-406.75 78.07,-396.75 71.07,-396.75"/>
</a>
</g>
</g>
<!-- Node13 -->
<g id="Node000013" class="node">
<title>Node13</title>
<g id="a_Node000013"><a xlink:href="interfaceATAS_1_1Strategies_1_1IStrategy.html" target="_top" xlink:title="Represents a trading strategy.">
<polygon fill="white" stroke="#666666" points="308.57,-371 252.57,-371 252.57,-352 308.57,-352 308.57,-371"/>
<text text-anchor="middle" x="280.57" y="-359" font-family="Helvetica" font-size="10.00">IStrategy</text>
</a>
</g>
</g>
<!-- Node7&#45;&gt;Node13 -->
<g id="edge14_Node000013_Node000007" class="edge">
<title>Node7&#45;&gt;Node13</title>
<g id="a_edge14_Node000013_Node000007"><a xlink:title=" ">
<path fill="none" stroke="#63b8ff" d="M117.54,-404.44C158.1,-394.01 217.74,-378.67 252.52,-369.72"/>
<polygon fill="#63b8ff" stroke="#63b8ff" points="116.48,-401.1 107.67,-406.98 118.23,-407.88 116.48,-401.1"/>
</a>
</g>
</g>
<!-- Node8 -->
<g id="Node000008" class="node">
<title>Node8</title>
<g id="a_Node000008"><a xlink:title=" ">
<polygon fill="white" stroke="#666666" points="175.57,-316 107.57,-316 107.57,-297 175.57,-297 175.57,-316"/>
<text text-anchor="middle" x="141.57" y="-304" font-family="Helvetica" font-size="10.00">IDisposable</text>
</a>
</g>
</g>
<!-- Node8&#45;&gt;Node4 -->
<g id="edge8_Node000004_Node000008" class="edge">
<title>Node8&#45;&gt;Node4</title>
<g id="a_edge8_Node000004_Node000008"><a xlink:title=" ">
<path fill="none" stroke="#63b8ff" d="M118.91,-291.7C103.06,-282.04 82.38,-269.44 68.8,-261.17"/>
<polygon fill="#63b8ff" stroke="#63b8ff" points="117.23,-294.77 127.59,-296.98 120.87,-288.79 117.23,-294.77"/>
</a>
</g>
</g>
<!-- Node9 -->
<g id="Node000009" class="node">
<title>Node9</title>
<g id="a_Node000009"><a xlink:href="interfaceATAS_1_1Indicators_1_1INotifyPanelPropertyChanged.html" target="_top" xlink:title="Notifies clients that a panel property value has changed.">
<polygon fill="white" stroke="#666666" points="341.07,-316 194.07,-316 194.07,-297 341.07,-297 341.07,-316"/>
<text text-anchor="middle" x="267.57" y="-304" font-family="Helvetica" font-size="10.00">INotifyPanelPropertyChanged</text>
</a>
</g>
</g>
<!-- Node9&#45;&gt;Node4 -->
<g id="edge9_Node000004_Node000009" class="edge">
<title>Node9&#45;&gt;Node4</title>
<g id="a_edge9_Node000004_Node000009"><a xlink:title=" ">
<path fill="none" stroke="#63b8ff" d="M223.62,-294.56C183.73,-284.64 125.7,-270.2 89.06,-261.08"/>
<polygon fill="#63b8ff" stroke="#63b8ff" points="222.8,-297.97 233.35,-296.98 224.49,-291.17 222.8,-297.97"/>
</a>
</g>
</g>
<!-- Node10 -->
<g id="Node000010" class="node">
<title>Node10</title>
<g id="a_Node000010"><a xlink:title=" ">
<polygon fill="white" stroke="#666666" points="231.57,-261 111.57,-261 111.57,-242 231.57,-242 231.57,-261"/>
<text text-anchor="middle" x="171.57" y="-249" font-family="Helvetica" font-size="10.00">ICustomTypeDescriptor</text>
</a>
</g>
</g>
<!-- Node10&#45;&gt;Node3 -->
<g id="edge10_Node000003_Node000010" class="edge">
<title>Node10&#45;&gt;Node3</title>
<g id="a_edge10_Node000003_Node000010"><a xlink:title=" ">
<path fill="none" stroke="#63b8ff" d="M187.85,-234.52C197.37,-225.18 209.01,-213.75 216.82,-206.09"/>
<polygon fill="#63b8ff" stroke="#63b8ff" points="185.17,-232.25 180.49,-241.75 190.08,-237.24 185.17,-232.25"/>
</a>
</g>
</g>
<!-- Node11 -->
<g id="Node000011" class="node">
<title>Node11</title>
<g id="a_Node000011"><a xlink:href="interfaceATAS_1_1Indicators_1_1IMarketTimeProvider.html" target="_top" xlink:title=" ">
<polygon fill="white" stroke="#666666" points="357.07,-261 250.07,-261 250.07,-242 357.07,-242 357.07,-261"/>
<text text-anchor="middle" x="303.57" y="-249" font-family="Helvetica" font-size="10.00">IMarketTimeProvider</text>
</a>
</g>
</g>
<!-- Node11&#45;&gt;Node3 -->
<g id="edge11_Node000003_Node000011" class="edge">
<title>Node11&#45;&gt;Node3</title>
<g id="a_edge11_Node000003_Node000011"><a xlink:title=" ">
<path fill="none" stroke="#63b8ff" d="M282.45,-236.15C268.36,-226.57 250.28,-214.29 238.33,-206.17"/>
<polygon fill="#63b8ff" stroke="#63b8ff" points="280.8,-239.26 291.04,-241.98 284.74,-233.47 280.8,-239.26"/>
</a>
</g>
</g>
<!-- Node12 -->
<g id="Node000012" class="node">
<title>Node12</title>
<g id="a_Node000012"><a xlink:href="interfaceATAS_1_1Strategies_1_1Chart_1_1IChartStrategy.html" target="_top" xlink:title="Represents a chart strategy that extends the basic functionality of an IStrategy with additional char...">
<polygon fill="white" stroke="#666666" points="399.07,-206 318.07,-206 318.07,-187 399.07,-187 399.07,-206"/>
<text text-anchor="middle" x="358.57" y="-194" font-family="Helvetica" font-size="10.00">IChartStrategy</text>
</a>
</g>
</g>
<!-- Node12&#45;&gt;Node1 -->
<g id="edge12_Node000001_Node000012" class="edge">
<title>Node12&#45;&gt;Node1</title>
<g id="a_edge12_Node000001_Node000012"><a xlink:title=" ">
<path fill="none" stroke="#63b8ff" d="M354.16,-176.96C348.78,-154.34 339.8,-116.61 334.94,-96.18"/>
<polygon fill="#63b8ff" stroke="#63b8ff" points="350.82,-178.05 356.54,-186.97 357.63,-176.43 350.82,-178.05"/>
</a>
</g>
</g>
<!-- Node13&#45;&gt;Node12 -->
<g id="edge13_Node000012_Node000013" class="edge">
<title>Node13&#45;&gt;Node12</title>
<g id="a_edge13_Node000012_Node000013"><a xlink:title=" ">
<path fill="none" stroke="#63b8ff" d="M310.69,-347.22C324.34,-339.82 339.6,-329.37 349.57,-316 374.73,-282.25 365.51,-227.04 360.72,-206"/>
<polygon fill="#63b8ff" stroke="#63b8ff" points="308.91,-344.19 301.59,-351.85 312.09,-350.43 308.91,-344.19"/>
</a>
</g>
</g>
<!-- Node14 -->
<g id="Node000014" class="node">
<title>Node14</title>
<g id="a_Node000014"><a xlink:title=" ">
<polygon fill="white" stroke="#666666" points="439.57,-151 359.57,-151 359.57,-132 439.57,-132 439.57,-151"/>
<text text-anchor="middle" x="399.57" y="-139" font-family="Helvetica" font-size="10.00">ILoggerSource</text>
</a>
</g>
</g>
<!-- Node14&#45;&gt;Node1 -->
<g id="edge15_Node000001_Node000014" class="edge">
<title>Node14&#45;&gt;Node1</title>
<g id="a_edge15_Node000001_Node000014"><a xlink:title=" ">
<path fill="none" stroke="#63b8ff" d="M381.83,-125.23C371.36,-116.23 358.2,-104.91 347.98,-96.11"/>
<polygon fill="#63b8ff" stroke="#63b8ff" points="379.67,-128 389.54,-131.87 384.24,-122.69 379.67,-128"/>
</a>
</g>
</g>
</g>
</svg>
