<?xml version="1.0" encoding="UTF-8" standalone="no"?>
<!DOCTYPE svg PUBLIC "-//W3C//DTD SVG 1.1//EN"
 "http://www.w3.org/Graphics/SVG/1.1/DTD/svg11.dtd">
<!-- Generated by graphviz version 2.44.0 (0)
 -->
<!-- Title: ATAS.Indicators.FilterRangeValue&lt; TValue &gt; Pages: 1 -->
<svg width="150pt" height="148pt"
 viewBox="0.00 0.00 150.00 148.00" xmlns="http://www.w3.org/2000/svg" xmlns:xlink="http://www.w3.org/1999/xlink">
<g id="graph0" class="graph" transform="scale(1 1) rotate(0) translate(4 144)">
<title>ATAS.Indicators.FilterRangeValue&lt; TValue &gt;</title>
<!-- Node1 -->
<g id="Node000001" class="node">
<title>Node1</title>
<g id="a_Node000001"><a xlink:title="Represents a range of values of type TValue &#160;with support for property change notifications.">
<polygon fill="#999999" stroke="#666666" points="141,-30 1,-30 1,0 141,0 141,-30"/>
<text text-anchor="start" x="9" y="-18" font-family="Helvetica" font-size="10.00">ATAS.Indicators.FilterRange</text>
<text text-anchor="middle" x="71" y="-7" font-family="Helvetica" font-size="10.00">Value&lt; TValue &gt;</text>
</a>
</g>
</g>
<!-- Node2 -->
<g id="Node000002" class="node">
<title>Node2</title>
<g id="a_Node000002"><a xlink:href="classATAS_1_1Indicators_1_1NotifyPropertyChangedBase.html" target="_top" xlink:title="Base class for implementing the INotifyPropertyChanged interface.">
<polygon fill="white" stroke="#666666" points="142,-85 0,-85 0,-66 142,-66 142,-85"/>
<text text-anchor="middle" x="71" y="-73" font-family="Helvetica" font-size="10.00">NotifyPropertyChangedBase</text>
</a>
</g>
</g>
<!-- Node2&#45;&gt;Node1 -->
<g id="edge1_Node000001_Node000002" class="edge">
<title>Node2&#45;&gt;Node1</title>
<g id="a_edge1_Node000001_Node000002"><a xlink:title=" ">
<path fill="none" stroke="#63b8ff" d="M71,-55.65C71,-47.36 71,-37.78 71,-30.11"/>
<polygon fill="#63b8ff" stroke="#63b8ff" points="67.5,-55.87 71,-65.87 74.5,-55.87 67.5,-55.87"/>
</a>
</g>
</g>
<!-- Node3 -->
<g id="Node000003" class="node">
<title>Node3</title>
<g id="a_Node000003"><a xlink:title=" ">
<polygon fill="white" stroke="#666666" points="132,-140 10,-140 10,-121 132,-121 132,-140"/>
<text text-anchor="middle" x="71" y="-128" font-family="Helvetica" font-size="10.00">INotifyPropertyChanged</text>
</a>
</g>
</g>
<!-- Node3&#45;&gt;Node2 -->
<g id="edge2_Node000002_Node000003" class="edge">
<title>Node3&#45;&gt;Node2</title>
<g id="a_edge2_Node000002_Node000003"><a xlink:title=" ">
<path fill="none" stroke="#63b8ff" d="M71,-110.66C71,-101.93 71,-91.99 71,-85.09"/>
<polygon fill="#63b8ff" stroke="#63b8ff" points="67.5,-110.75 71,-120.75 74.5,-110.75 67.5,-110.75"/>
</a>
</g>
</g>
</g>
</svg>
