<?xml version="1.0" encoding="UTF-8" standalone="no"?>
<!DOCTYPE svg PUBLIC "-//W3C//DTD SVG 1.1//EN"
 "http://www.w3.org/Graphics/SVG/1.1/DTD/svg11.dtd">
<!-- Generated by graphviz version 2.44.0 (0)
 -->
<!-- Title: ATAS.DataFeedsCore.Security Pages: 1 -->
<svg width="196pt" height="82pt"
 viewBox="0.00 0.00 196.00 82.00" xmlns="http://www.w3.org/2000/svg" xmlns:xlink="http://www.w3.org/1999/xlink">
<g id="graph0" class="graph" transform="scale(1 1) rotate(0) translate(4 78)">
<title>ATAS.DataFeedsCore.Security</title>
<!-- Node1 -->
<g id="Node000001" class="node">
<title>Node1</title>
<g id="a_Node000001"><a xlink:title="Represents a security entity used in the application.">
<polygon fill="#999999" stroke="#666666" points="152,-19 0,-19 0,0 152,0 152,-19"/>
<text text-anchor="middle" x="76" y="-7" font-family="Helvetica" font-size="10.00">ATAS.DataFeedsCore.Security</text>
</a>
</g>
</g>
<!-- Node2 -->
<g id="Node000002" class="node">
<title>Node2</title>
<g id="a_Node000002"><a xlink:href="interfaceATAS_1_1DataFeedsCore_1_1IEntity.html" target="_top" xlink:title="Represents an entity in the application.">
<polygon fill="white" stroke="#666666" points="47.5,-74 2.5,-74 2.5,-55 47.5,-55 47.5,-74"/>
<text text-anchor="middle" x="25" y="-62" font-family="Helvetica" font-size="10.00">IEntity</text>
</a>
</g>
</g>
<!-- Node2&#45;&gt;Node1 -->
<g id="edge1_Node000001_Node000002" class="edge">
<title>Node2&#45;&gt;Node1</title>
<g id="a_edge1_Node000001_Node000002"><a xlink:title=" ">
<path fill="none" stroke="#63b8ff" d="M40.38,-47.52C49.37,-38.18 60.36,-26.75 67.74,-19.09"/>
<polygon fill="#63b8ff" stroke="#63b8ff" points="37.83,-45.12 33.42,-54.75 42.88,-49.97 37.83,-45.12"/>
</a>
</g>
</g>
<!-- Node3 -->
<g id="Node000003" class="node">
<title>Node3</title>
<g id="a_Node000003"><a xlink:title=" ">
<polygon fill="white" stroke="#666666" points="188,-74 66,-74 66,-55 188,-55 188,-74"/>
<text text-anchor="middle" x="127" y="-62" font-family="Helvetica" font-size="10.00">INotifyPropertyChanged</text>
</a>
</g>
</g>
<!-- Node3&#45;&gt;Node1 -->
<g id="edge2_Node000001_Node000003" class="edge">
<title>Node3&#45;&gt;Node1</title>
<g id="a_edge2_Node000001_Node000003"><a xlink:title=" ">
<path fill="none" stroke="#63b8ff" d="M111.62,-47.52C102.63,-38.18 91.64,-26.75 84.26,-19.09"/>
<polygon fill="#63b8ff" stroke="#63b8ff" points="109.12,-49.97 118.58,-54.75 114.17,-45.12 109.12,-49.97"/>
</a>
</g>
</g>
</g>
</svg>
