<?xml version="1.0" encoding="UTF-8" standalone="no"?>
<!DOCTYPE svg PUBLIC "-//W3C//DTD SVG 1.1//EN"
 "http://www.w3.org/Graphics/SVG/1.1/DTD/svg11.dtd">
<!-- Generated by graphviz version 2.44.0 (0)
 -->
<!-- Title: ATAS.DataFeedsCore.Dom.DomBuilder Pages: 1 -->
<svg width="169pt" height="171pt"
 viewBox="0.00 0.00 169.00 171.00" xmlns="http://www.w3.org/2000/svg" xmlns:xlink="http://www.w3.org/1999/xlink">
<g id="graph0" class="graph" transform="scale(1 1) rotate(0) translate(4 167)">
<title>ATAS.DataFeedsCore.Dom.DomBuilder</title>
<!-- Node1 -->
<g id="Node000001" class="node">
<title>Node1</title>
<g id="a_Node000001"><a xlink:title="Builds and maintains a DOM for a connector &#160;Allows to obtain best prices if connector does not give t...">
<polygon fill="#999999" stroke="#666666" points="161,-30 0,-30 0,0 161,0 161,-30"/>
<text text-anchor="start" x="8" y="-18" font-family="Helvetica" font-size="10.00">ATAS.DataFeedsCore.Dom.Dom</text>
<text text-anchor="middle" x="80.5" y="-7" font-family="Helvetica" font-size="10.00">Builder</text>
</a>
</g>
</g>
<!-- Node2 -->
<g id="Node000002" class="node">
<title>Node2</title>
<g id="a_Node000002"><a xlink:href="classATAS_1_1DataFeedsCore_1_1MarketDepth.html" target="_top" xlink:title="Represents a market depth entry.">
<polygon fill="white" stroke="#666666" points="153.5,-107 7.5,-107 7.5,-77 153.5,-77 153.5,-107"/>
<text text-anchor="start" x="15.5" y="-95" font-family="Helvetica" font-size="10.00">ATAS.DataFeedsCore.Market</text>
<text text-anchor="middle" x="80.5" y="-84" font-family="Helvetica" font-size="10.00">Depth</text>
</a>
</g>
</g>
<!-- Node2&#45;&gt;Node1 -->
<g id="edge1_Node000001_Node000002" class="edge">
<title>Node2&#45;&gt;Node1</title>
<g id="a_edge1_Node000001_Node000002"><a xlink:title=" ">
<path fill="none" stroke="#9a32cd" stroke-dasharray="5,2" d="M80.5,-66.54C80.5,-54.45 80.5,-40.29 80.5,-30.04"/>
<polygon fill="#9a32cd" stroke="#9a32cd" points="77,-66.89 80.5,-76.89 84,-66.89 77,-66.89"/>
</a>
</g>
<text text-anchor="middle" x="99.5" y="-51" font-family="Helvetica" font-size="10.00" fill="grey"> BestBid</text>
</g>
<!-- Node3 -->
<g id="Node000003" class="node">
<title>Node3</title>
<g id="a_Node000003"><a xlink:href="interfaceATAS_1_1DataFeedsCore_1_1IEntity.html" target="_top" xlink:title="Represents an entity in the application.">
<polygon fill="white" stroke="#666666" points="64,-163 19,-163 19,-144 64,-144 64,-163"/>
<text text-anchor="middle" x="41.5" y="-151" font-family="Helvetica" font-size="10.00">IEntity</text>
</a>
</g>
</g>
<!-- Node3&#45;&gt;Node2 -->
<g id="edge2_Node000002_Node000003" class="edge">
<title>Node3&#45;&gt;Node2</title>
<g id="a_edge2_Node000002_Node000003"><a xlink:title=" ">
<path fill="none" stroke="#63b8ff" d="M52.67,-135.46C58.57,-126.46 65.73,-115.53 71.31,-107.02"/>
<polygon fill="#63b8ff" stroke="#63b8ff" points="49.64,-133.69 47.09,-143.98 55.5,-137.53 49.64,-133.69"/>
</a>
</g>
</g>
<!-- Node4 -->
<g id="Node000004" class="node">
<title>Node4</title>
<g id="a_Node000004"><a xlink:href="interfaceATAS_1_1DataFeedsCore_1_1IMarketDepth.html" target="_top" xlink:title="Represents a market depth entry.">
<polygon fill="white" stroke="#666666" points="158.5,-163 82.5,-163 82.5,-144 158.5,-144 158.5,-163"/>
<text text-anchor="middle" x="120.5" y="-151" font-family="Helvetica" font-size="10.00">IMarketDepth</text>
</a>
</g>
</g>
<!-- Node4&#45;&gt;Node2 -->
<g id="edge3_Node000002_Node000004" class="edge">
<title>Node4&#45;&gt;Node2</title>
<g id="a_edge3_Node000002_Node000004"><a xlink:title=" ">
<path fill="none" stroke="#63b8ff" d="M109.05,-135.46C102.99,-126.46 95.65,-115.53 89.93,-107.02"/>
<polygon fill="#63b8ff" stroke="#63b8ff" points="106.29,-137.63 114.77,-143.98 112.09,-133.72 106.29,-137.63"/>
</a>
</g>
</g>
</g>
</svg>
