<?xml version="1.0" encoding="UTF-8" standalone="no"?>
<!DOCTYPE svg PUBLIC "-//W3C//DTD SVG 1.1//EN"
 "http://www.w3.org/Graphics/SVG/1.1/DTD/svg11.dtd">
<!-- Generated by graphviz version 2.44.0 (0)
 -->
<!-- Title: ATAS.DataFeedsCore.BaseConnector&lt; TMessage, TPortfolioKey, TSecurityKey, TSecurityPositionManager &gt; Pages: 1 -->
<svg width="512pt" height="197pt"
 viewBox="0.00 0.00 512.00 197.00" xmlns="http://www.w3.org/2000/svg" xmlns:xlink="http://www.w3.org/1999/xlink">
<g id="graph0" class="graph" transform="scale(1 1) rotate(0) translate(4 193)">
<title>ATAS.DataFeedsCore.BaseConnector&lt; TMessage, TPortfolioKey, TSecurityKey, TSecurityPositionManager &gt;</title>
<!-- Node1 -->
<g id="Node000001" class="node">
<title>Node1</title>
<g id="a_Node000001"><a xlink:title=" ">
<polygon fill="#999999" stroke="#666666" points="504,-104 297,-104 297,-63 504,-63 504,-104"/>
<text text-anchor="start" x="305" y="-92" font-family="Helvetica" font-size="10.00">ATAS.DataFeedsCore.BaseConnector</text>
<text text-anchor="start" x="305" y="-81" font-family="Helvetica" font-size="10.00">&lt; TMessage, TPortfolioKey,</text>
<text text-anchor="middle" x="400.5" y="-70" font-family="Helvetica" font-size="10.00"> TSecurityKey, TSecurityPositionManager &gt;</text>
</a>
</g>
</g>
<!-- Node2 -->
<g id="Node000002" class="node">
<title>Node2</title>
<g id="a_Node000002"><a xlink:href="classATAS_1_1DataFeedsCore_1_1BaseConnector.html" target="_top" xlink:title=" ">
<polygon fill="white" stroke="#666666" points="261,-189 116,-189 116,-148 261,-148 261,-189"/>
<text text-anchor="start" x="124" y="-177" font-family="Helvetica" font-size="10.00">BaseConnector&lt; TMessage,</text>
<text text-anchor="start" x="124" y="-166" font-family="Helvetica" font-size="10.00"> TPortfolioKey, TSecurityKey,</text>
<text text-anchor="middle" x="188.5" y="-155" font-family="Helvetica" font-size="10.00"> ISecurityPositionManager &gt;</text>
</a>
</g>
</g>
<!-- Node2&#45;&gt;Node1 -->
<g id="edge1_Node000001_Node000002" class="edge">
<title>Node2&#45;&gt;Node1</title>
<g id="a_edge1_Node000001_Node000002"><a xlink:title=" ">
<path fill="none" stroke="#63b8ff" d="M249.83,-144.08C281.14,-131.41 318.98,-116.09 348.77,-104.03"/>
<polygon fill="#63b8ff" stroke="#63b8ff" points="248.29,-140.93 240.34,-147.92 250.92,-147.42 248.29,-140.93"/>
</a>
</g>
</g>
<!-- Node3 -->
<g id="Node000003" class="node">
<title>Node3</title>
<g id="a_Node000003"><a xlink:title=" ">
<polygon fill="white" stroke="#666666" points="238,-130 139,-130 139,-111 238,-111 238,-130"/>
<text text-anchor="middle" x="188.5" y="-118" font-family="Helvetica" font-size="10.00">BaseLoggerSource</text>
</a>
</g>
</g>
<!-- Node3&#45;&gt;Node1 -->
<g id="edge2_Node000001_Node000003" class="edge">
<title>Node3&#45;&gt;Node1</title>
<g id="a_edge2_Node000001_Node000003"><a xlink:title=" ">
<path fill="none" stroke="#63b8ff" d="M248.38,-110.13C263.48,-107.47 280.16,-104.53 296.77,-101.6"/>
<polygon fill="#63b8ff" stroke="#63b8ff" points="247.45,-106.74 238.21,-111.92 248.66,-113.63 247.45,-106.74"/>
</a>
</g>
</g>
<!-- Node4 -->
<g id="Node000004" class="node">
<title>Node4</title>
<g id="a_Node000004"><a xlink:href="interfaceATAS_1_1DataFeedsCore_1_1IDataFeedConnector.html" target="_top" xlink:title=" ">
<polygon fill="white" stroke="#666666" points="242,-93 135,-93 135,-74 242,-74 242,-93"/>
<text text-anchor="middle" x="188.5" y="-81" font-family="Helvetica" font-size="10.00">IDataFeedConnector</text>
</a>
</g>
</g>
<!-- Node4&#45;&gt;Node1 -->
<g id="edge3_Node000001_Node000004" class="edge">
<title>Node4&#45;&gt;Node1</title>
<g id="a_edge3_Node000001_Node000004"><a xlink:title=" ">
<path fill="none" stroke="#63b8ff" d="M252.22,-83.5C266.28,-83.5 281.56,-83.5 296.76,-83.5"/>
<polygon fill="#63b8ff" stroke="#63b8ff" points="252.22,-80 242.22,-83.5 252.22,-87 252.22,-80"/>
</a>
</g>
</g>
<!-- Node5 -->
<g id="Node000005" class="node">
<title>Node5</title>
<g id="a_Node000005"><a xlink:title=" ">
<polygon fill="white" stroke="#666666" points="80,-93 0,-93 0,-74 80,-74 80,-93"/>
<text text-anchor="middle" x="40" y="-81" font-family="Helvetica" font-size="10.00">ILoggerSource</text>
</a>
</g>
</g>
<!-- Node5&#45;&gt;Node4 -->
<g id="edge4_Node000004_Node000005" class="edge">
<title>Node5&#45;&gt;Node4</title>
<g id="a_edge4_Node000004_Node000005"><a xlink:title=" ">
<path fill="none" stroke="#63b8ff" d="M90.41,-83.5C104.72,-83.5 120.4,-83.5 134.9,-83.5"/>
<polygon fill="#63b8ff" stroke="#63b8ff" points="90.26,-80 80.26,-83.5 90.26,-87 90.26,-80"/>
</a>
</g>
</g>
<!-- Node6 -->
<g id="Node000006" class="node">
<title>Node6</title>
<g id="a_Node000006"><a xlink:href="interfaceATAS_1_1DataFeedsCore_1_1ISupportChangePosition.html" target="_top" xlink:title=" ">
<polygon fill="white" stroke="#666666" points="250,-56 127,-56 127,-37 250,-37 250,-56"/>
<text text-anchor="middle" x="188.5" y="-44" font-family="Helvetica" font-size="10.00">ISupportChangePosition</text>
</a>
</g>
</g>
<!-- Node6&#45;&gt;Node1 -->
<g id="edge5_Node000001_Node000006" class="edge">
<title>Node6&#45;&gt;Node1</title>
<g id="a_edge5_Node000001_Node000006"><a xlink:title=" ">
<path fill="none" stroke="#63b8ff" d="M253.75,-57.82C267.35,-60.22 282.03,-62.8 296.66,-65.38"/>
<polygon fill="#63b8ff" stroke="#63b8ff" points="254.04,-54.32 243.58,-56.03 252.82,-61.21 254.04,-54.32"/>
</a>
</g>
</g>
<!-- Node7 -->
<g id="Node000007" class="node">
<title>Node7</title>
<g id="a_Node000007"><a xlink:href="interfaceATAS_1_1DataFeedsCore_1_1IMarketDataPublisher.html" target="_top" xlink:title=" ">
<polygon fill="white" stroke="#666666" points="243.5,-19 133.5,-19 133.5,0 243.5,0 243.5,-19"/>
<text text-anchor="middle" x="188.5" y="-7" font-family="Helvetica" font-size="10.00">IMarketDataPublisher</text>
</a>
</g>
</g>
<!-- Node7&#45;&gt;Node1 -->
<g id="edge6_Node000001_Node000007" class="edge">
<title>Node7&#45;&gt;Node1</title>
<g id="a_edge6_Node000001_Node000007"><a xlink:title=" ">
<path fill="none" stroke="#63b8ff" d="M241.14,-21.6C247.86,-23.44 254.62,-25.42 261,-27.5 292.31,-37.72 326.64,-51.58 353.29,-62.96"/>
<polygon fill="#63b8ff" stroke="#63b8ff" points="241.93,-18.19 231.37,-19.01 240.14,-24.95 241.93,-18.19"/>
</a>
</g>
</g>
</g>
</svg>
