<?xml version="1.0" encoding="UTF-8" standalone="no"?>
<!DOCTYPE svg PUBLIC "-//W3C//DTD SVG 1.1//EN"
 "http://www.w3.org/Graphics/SVG/1.1/DTD/svg11.dtd">
<!-- Generated by graphviz version 2.44.0 (0)
 -->
<!-- Title: ATAS.DataFeedsCore.Commissions.CommissionRule Pages: 1 -->
<svg width="560pt" height="134pt"
 viewBox="0.00 0.00 560.00 134.00" xmlns="http://www.w3.org/2000/svg" xmlns:xlink="http://www.w3.org/1999/xlink">
<g id="graph0" class="graph" transform="scale(1 1) rotate(0) translate(4 130)">
<title>ATAS.DataFeedsCore.Commissions.CommissionRule</title>
<!-- Node1 -->
<g id="Node000001" class="node">
<title>Node1</title>
<g id="a_Node000001"><a xlink:title=" ">
<polygon fill="#999999" stroke="#666666" points="337,-78 158,-78 158,-48 337,-48 337,-78"/>
<text text-anchor="start" x="166" y="-66" font-family="Helvetica" font-size="10.00">ATAS.DataFeedsCore.Commissions.</text>
<text text-anchor="middle" x="247.5" y="-55" font-family="Helvetica" font-size="10.00">CommissionRule</text>
</a>
</g>
</g>
<!-- Node4 -->
<g id="Node000004" class="node">
<title>Node4</title>
<g id="a_Node000004"><a xlink:href="classATAS_1_1DataFeedsCore_1_1Commissions_1_1PerContractCommissionRule.html" target="_top" xlink:title=" ">
<polygon fill="white" stroke="#666666" points="552,-126 373,-126 373,-96 552,-96 552,-126"/>
<text text-anchor="start" x="381" y="-114" font-family="Helvetica" font-size="10.00">ATAS.DataFeedsCore.Commissions.</text>
<text text-anchor="middle" x="462.5" y="-103" font-family="Helvetica" font-size="10.00">PerContractCommissionRule</text>
</a>
</g>
</g>
<!-- Node1&#45;&gt;Node4 -->
<g id="edge3_Node000001_Node000004" class="edge">
<title>Node1&#45;&gt;Node4</title>
<g id="a_edge3_Node000001_Node000004"><a xlink:title=" ">
<path fill="none" stroke="#63b8ff" d="M325.28,-80.3C348.08,-85.44 372.84,-91.02 394.93,-96"/>
<polygon fill="#63b8ff" stroke="#63b8ff" points="325.83,-76.84 315.31,-78.06 324.3,-83.67 325.83,-76.84"/>
</a>
</g>
</g>
<!-- Node5 -->
<g id="Node000005" class="node">
<title>Node5</title>
<g id="a_Node000005"><a xlink:href="classATAS_1_1DataFeedsCore_1_1Commissions_1_1PerTradeCommissionRule.html" target="_top" xlink:title=" ">
<polygon fill="white" stroke="#666666" points="552,-78 373,-78 373,-48 552,-48 552,-78"/>
<text text-anchor="start" x="381" y="-66" font-family="Helvetica" font-size="10.00">ATAS.DataFeedsCore.Commissions.</text>
<text text-anchor="middle" x="462.5" y="-55" font-family="Helvetica" font-size="10.00">PerTradeCommissionRule</text>
</a>
</g>
</g>
<!-- Node1&#45;&gt;Node5 -->
<g id="edge4_Node000001_Node000005" class="edge">
<title>Node1&#45;&gt;Node5</title>
<g id="a_edge4_Node000001_Node000005"><a xlink:title=" ">
<path fill="none" stroke="#63b8ff" d="M347.54,-63C355.99,-63 364.5,-63 372.86,-63"/>
<polygon fill="#63b8ff" stroke="#63b8ff" points="347.29,-59.5 337.29,-63 347.29,-66.5 347.29,-59.5"/>
</a>
</g>
</g>
<!-- Node6 -->
<g id="Node000006" class="node">
<title>Node6</title>
<g id="a_Node000006"><a xlink:href="classATAS_1_1DataFeedsCore_1_1Commissions_1_1PercentCommissionRule.html" target="_top" xlink:title=" ">
<polygon fill="white" stroke="#666666" points="552,-30 373,-30 373,0 552,0 552,-30"/>
<text text-anchor="start" x="381" y="-18" font-family="Helvetica" font-size="10.00">ATAS.DataFeedsCore.Commissions.</text>
<text text-anchor="middle" x="462.5" y="-7" font-family="Helvetica" font-size="10.00">PercentCommissionRule</text>
</a>
</g>
</g>
<!-- Node1&#45;&gt;Node6 -->
<g id="edge5_Node000001_Node000006" class="edge">
<title>Node1&#45;&gt;Node6</title>
<g id="a_edge5_Node000001_Node000006"><a xlink:title=" ">
<path fill="none" stroke="#63b8ff" d="M325.28,-45.7C348.08,-40.56 372.84,-34.98 394.93,-30"/>
<polygon fill="#63b8ff" stroke="#63b8ff" points="324.3,-42.33 315.31,-47.94 325.83,-49.16 324.3,-42.33"/>
</a>
</g>
</g>
<!-- Node2 -->
<g id="Node000002" class="node">
<title>Node2</title>
<g id="a_Node000002"><a xlink:href="interfaceATAS_1_1DataFeedsCore_1_1Commissions_1_1ICommissionRule.html" target="_top" xlink:title=" ">
<polygon fill="white" stroke="#666666" points="108.5,-91.5 13.5,-91.5 13.5,-72.5 108.5,-72.5 108.5,-91.5"/>
<text text-anchor="middle" x="61" y="-79.5" font-family="Helvetica" font-size="10.00">ICommissionRule</text>
</a>
</g>
</g>
<!-- Node2&#45;&gt;Node1 -->
<g id="edge1_Node000001_Node000002" class="edge">
<title>Node2&#45;&gt;Node1</title>
<g id="a_edge1_Node000001_Node000002"><a xlink:title=" ">
<path fill="none" stroke="#63b8ff" d="M118.72,-76.16C131.14,-74.88 144.56,-73.5 157.89,-72.13"/>
<polygon fill="#63b8ff" stroke="#63b8ff" points="118.15,-72.7 108.56,-77.21 118.86,-79.66 118.15,-72.7"/>
</a>
</g>
</g>
<!-- Node3 -->
<g id="Node000003" class="node">
<title>Node3</title>
<g id="a_Node000003"><a xlink:title=" ">
<polygon fill="white" stroke="#666666" points="122,-54.5 0,-54.5 0,-35.5 122,-35.5 122,-54.5"/>
<text text-anchor="middle" x="61" y="-42.5" font-family="Helvetica" font-size="10.00">INotifyPropertyChanged</text>
</a>
</g>
</g>
<!-- Node3&#45;&gt;Node1 -->
<g id="edge2_Node000001_Node000003" class="edge">
<title>Node3&#45;&gt;Node1</title>
<g id="a_edge2_Node000001_Node000003"><a xlink:title=" ">
<path fill="none" stroke="#63b8ff" d="M132.27,-51.86C140.68,-52.68 149.34,-53.52 157.97,-54.36"/>
<polygon fill="#63b8ff" stroke="#63b8ff" points="132.45,-48.36 122.16,-50.87 131.77,-55.32 132.45,-48.36"/>
</a>
</g>
</g>
</g>
</svg>
