<?xml version="1.0" encoding="UTF-8" standalone="no"?>
<!DOCTYPE svg PUBLIC "-//W3C//DTD SVG 1.1//EN"
 "http://www.w3.org/Graphics/SVG/1.1/DTD/svg11.dtd">
<!-- Generated by graphviz version 2.44.0 (0)
 -->
<!-- Title: ATAS.Indicators.ExtendedIndicator Pages: 1 -->
<svg width="447pt" height="258pt"
 viewBox="0.00 0.00 446.50 258.00" xmlns="http://www.w3.org/2000/svg" xmlns:xlink="http://www.w3.org/1999/xlink">
<g id="graph0" class="graph" transform="scale(1 1) rotate(0) translate(4 254)">
<title>ATAS.Indicators.ExtendedIndicator</title>
<!-- Node1 -->
<g id="Node000001" class="node">
<title>Node1</title>
<g id="a_Node000001"><a xlink:title="An extended base class for custom indicators that provide additional functionality for drawing,...">
<polygon fill="#999999" stroke="#666666" points="319,-30 187,-30 187,0 319,0 319,-30"/>
<text text-anchor="start" x="195" y="-18" font-family="Helvetica" font-size="10.00">ATAS.Indicators.Extended</text>
<text text-anchor="middle" x="253" y="-7" font-family="Helvetica" font-size="10.00">Indicator</text>
</a>
</g>
</g>
<!-- Node2 -->
<g id="Node000002" class="node">
<title>Node2</title>
<g id="a_Node000002"><a xlink:href="classATAS_1_1Indicators_1_1BaseIndicator.html" target="_top" xlink:title="Base class for custom indicators in a chart.">
<polygon fill="white" stroke="#666666" points="174.5,-85 97.5,-85 97.5,-66 174.5,-66 174.5,-85"/>
<text text-anchor="middle" x="136" y="-73" font-family="Helvetica" font-size="10.00">BaseIndicator</text>
</a>
</g>
</g>
<!-- Node2&#45;&gt;Node1 -->
<g id="edge1_Node000001_Node000002" class="edge">
<title>Node2&#45;&gt;Node1</title>
<g id="a_edge1_Node000001_Node000002"><a xlink:title=" ">
<path fill="none" stroke="#63b8ff" d="M162.08,-61.46C180.65,-52.18 205.58,-39.71 224.64,-30.18"/>
<polygon fill="#63b8ff" stroke="#63b8ff" points="160.39,-58.39 153.01,-65.99 163.52,-64.65 160.39,-58.39"/>
</a>
</g>
</g>
<!-- Node3 -->
<g id="Node000003" class="node">
<title>Node3</title>
<g id="a_Node000003"><a xlink:href="classATAS_1_1Indicators_1_1ChartObject.html" target="_top" xlink:title="Base class for objects in a chart.">
<polygon fill="white" stroke="#666666" points="128,-140 58,-140 58,-121 128,-121 128,-140"/>
<text text-anchor="middle" x="93" y="-128" font-family="Helvetica" font-size="10.00">ChartObject</text>
</a>
</g>
</g>
<!-- Node3&#45;&gt;Node2 -->
<g id="edge2_Node000002_Node000003" class="edge">
<title>Node3&#45;&gt;Node2</title>
<g id="a_edge2_Node000002_Node000003"><a xlink:title=" ">
<path fill="none" stroke="#63b8ff" d="M106.42,-112.96C113.91,-103.72 122.94,-92.6 129.03,-85.09"/>
<polygon fill="#63b8ff" stroke="#63b8ff" points="103.68,-110.78 100.1,-120.75 109.12,-115.19 103.68,-110.78"/>
</a>
</g>
</g>
<!-- Node4 -->
<g id="Node000004" class="node">
<title>Node4</title>
<g id="a_Node000004"><a xlink:href="classATAS_1_1Indicators_1_1Filters_1_1TrackedPropertyBase.html" target="_top" xlink:title="A base class for tracking property changes and notifying subscribers when a property value is modifie...">
<polygon fill="white" stroke="#666666" points="158,-195 48,-195 48,-176 158,-176 158,-195"/>
<text text-anchor="middle" x="103" y="-183" font-family="Helvetica" font-size="10.00">TrackedPropertyBase</text>
</a>
</g>
</g>
<!-- Node4&#45;&gt;Node3 -->
<g id="edge3_Node000003_Node000004" class="edge">
<title>Node4&#45;&gt;Node3</title>
<g id="a_edge3_Node000003_Node000004"><a xlink:title=" ">
<path fill="none" stroke="#63b8ff" d="M99.45,-165.66C97.8,-156.93 95.92,-146.99 94.62,-140.09"/>
<polygon fill="#63b8ff" stroke="#63b8ff" points="96.06,-166.57 101.35,-175.75 102.93,-165.27 96.06,-166.57"/>
</a>
</g>
</g>
<!-- Node5 -->
<g id="Node000005" class="node">
<title>Node5</title>
<g id="a_Node000005"><a xlink:title=" ">
<polygon fill="white" stroke="#666666" points="122,-250 0,-250 0,-231 122,-231 122,-250"/>
<text text-anchor="middle" x="61" y="-238" font-family="Helvetica" font-size="10.00">INotifyPropertyChanged</text>
</a>
</g>
</g>
<!-- Node5&#45;&gt;Node2 -->
<g id="edge5_Node000002_Node000005" class="edge">
<title>Node5&#45;&gt;Node2</title>
<g id="a_edge5_Node000002_Node000005"><a xlink:title=" ">
<path fill="none" stroke="#63b8ff" d="M50.07,-222.09C45.71,-214.15 41.2,-204.43 39,-195 33.81,-172.77 48.56,-121.59 49,-121 62.35,-103.02 85.07,-91.75 103.94,-85.05"/>
<polygon fill="#63b8ff" stroke="#63b8ff" points="47.08,-223.91 55.16,-230.76 53.12,-220.36 47.08,-223.91"/>
</a>
</g>
</g>
<!-- Node5&#45;&gt;Node4 -->
<g id="edge4_Node000004_Node000005" class="edge">
<title>Node5&#45;&gt;Node4</title>
<g id="a_edge4_Node000004_Node000005"><a xlink:title=" ">
<path fill="none" stroke="#63b8ff" d="M74.33,-222.67C81.61,-213.5 90.3,-202.52 96.19,-195.09"/>
<polygon fill="#63b8ff" stroke="#63b8ff" points="71.4,-220.74 67.94,-230.75 76.89,-225.08 71.4,-220.74"/>
</a>
</g>
</g>
<!-- Node6 -->
<g id="Node000006" class="node">
<title>Node6</title>
<g id="a_Node000006"><a xlink:title=" ">
<polygon fill="white" stroke="#666666" points="214,-140 146,-140 146,-121 214,-121 214,-140"/>
<text text-anchor="middle" x="180" y="-128" font-family="Helvetica" font-size="10.00">IDisposable</text>
</a>
</g>
</g>
<!-- Node6&#45;&gt;Node2 -->
<g id="edge6_Node000002_Node000006" class="edge">
<title>Node6&#45;&gt;Node2</title>
<g id="a_edge6_Node000002_Node000006"><a xlink:title=" ">
<path fill="none" stroke="#63b8ff" d="M166.27,-112.96C158.6,-103.72 149.37,-92.6 143.13,-85.09"/>
<polygon fill="#63b8ff" stroke="#63b8ff" points="163.65,-115.29 172.73,-120.75 169.04,-110.82 163.65,-115.29"/>
</a>
</g>
</g>
<!-- Node7 -->
<g id="Node000007" class="node">
<title>Node7</title>
<g id="a_Node000007"><a xlink:href="interfaceATAS_1_1Indicators_1_1INotifyPanelPropertyChanged.html" target="_top" xlink:title="Notifies clients that a panel property value has changed.">
<polygon fill="white" stroke="#666666" points="379.5,-140 232.5,-140 232.5,-121 379.5,-121 379.5,-140"/>
<text text-anchor="middle" x="306" y="-128" font-family="Helvetica" font-size="10.00">INotifyPanelPropertyChanged</text>
</a>
</g>
</g>
<!-- Node7&#45;&gt;Node2 -->
<g id="edge7_Node000002_Node000007" class="edge">
<title>Node7&#45;&gt;Node2</title>
<g id="a_edge7_Node000002_Node000007"><a xlink:title=" ">
<path fill="none" stroke="#63b8ff" d="M268.88,-117.93C237.13,-108.03 192.15,-94.01 163.53,-85.08"/>
<polygon fill="#63b8ff" stroke="#63b8ff" points="268.1,-121.35 278.69,-120.98 270.18,-114.67 268.1,-121.35"/>
</a>
</g>
</g>
<!-- Node8 -->
<g id="Node000008" class="node">
<title>Node8</title>
<g id="a_Node000008"><a xlink:title=" ">
<polygon fill="white" stroke="#666666" points="313,-85 193,-85 193,-66 313,-66 313,-85"/>
<text text-anchor="middle" x="253" y="-73" font-family="Helvetica" font-size="10.00">ICustomTypeDescriptor</text>
</a>
</g>
</g>
<!-- Node8&#45;&gt;Node1 -->
<g id="edge8_Node000001_Node000008" class="edge">
<title>Node8&#45;&gt;Node1</title>
<g id="a_edge8_Node000001_Node000008"><a xlink:title=" ">
<path fill="none" stroke="#63b8ff" d="M253,-55.65C253,-47.36 253,-37.78 253,-30.11"/>
<polygon fill="#63b8ff" stroke="#63b8ff" points="249.5,-55.87 253,-65.87 256.5,-55.87 249.5,-55.87"/>
</a>
</g>
</g>
<!-- Node9 -->
<g id="Node000009" class="node">
<title>Node9</title>
<g id="a_Node000009"><a xlink:href="interfaceATAS_1_1Indicators_1_1IMarketTimeProvider.html" target="_top" xlink:title=" ">
<polygon fill="white" stroke="#666666" points="438.5,-85 331.5,-85 331.5,-66 438.5,-66 438.5,-85"/>
<text text-anchor="middle" x="385" y="-73" font-family="Helvetica" font-size="10.00">IMarketTimeProvider</text>
</a>
</g>
</g>
<!-- Node9&#45;&gt;Node1 -->
<g id="edge9_Node000001_Node000009" class="edge">
<title>Node9&#45;&gt;Node1</title>
<g id="a_edge9_Node000001_Node000009"><a xlink:title=" ">
<path fill="none" stroke="#63b8ff" d="M356.41,-61.83C335.29,-52.47 306.56,-39.74 284.73,-30.06"/>
<polygon fill="#63b8ff" stroke="#63b8ff" points="355.25,-65.14 365.81,-65.99 358.08,-58.74 355.25,-65.14"/>
</a>
</g>
</g>
</g>
</svg>
