<?xml version="1.0" encoding="UTF-8" standalone="no"?>
<!DOCTYPE svg PUBLIC "-//W3C//DTD SVG 1.1//EN"
 "http://www.w3.org/Graphics/SVG/1.1/DTD/svg11.dtd">
<!-- Generated by graphviz version 2.44.0 (0)
 -->
<!-- Title: ATAS.DataFeedsCore.BaseMessageQueue&lt; TMessage, TItem &gt; Pages: 1 -->
<svg width="278pt" height="148pt"
 viewBox="0.00 0.00 277.50 148.00" xmlns="http://www.w3.org/2000/svg" xmlns:xlink="http://www.w3.org/1999/xlink">
<g id="graph0" class="graph" transform="scale(1 1) rotate(0) translate(4 144)">
<title>ATAS.DataFeedsCore.BaseMessageQueue&lt; TMessage, TItem &gt;</title>
<!-- Node1 -->
<g id="Node000001" class="node">
<title>Node1</title>
<g id="a_Node000001"><a xlink:title=" ">
<polygon fill="#999999" stroke="#666666" points="210.5,-30 32.5,-30 32.5,0 210.5,0 210.5,-30"/>
<text text-anchor="start" x="40.5" y="-18" font-family="Helvetica" font-size="10.00">ATAS.DataFeedsCore.BaseMessage</text>
<text text-anchor="middle" x="121.5" y="-7" font-family="Helvetica" font-size="10.00">Queue&lt; TMessage, TItem &gt;</text>
</a>
</g>
</g>
<!-- Node2 -->
<g id="Node000002" class="node">
<title>Node2</title>
<g id="a_Node000002"><a xlink:title=" ">
<polygon fill="white" stroke="#666666" points="99,-85 0,-85 0,-66 99,-66 99,-85"/>
<text text-anchor="middle" x="49.5" y="-73" font-family="Helvetica" font-size="10.00">BaseLoggerSource</text>
</a>
</g>
</g>
<!-- Node2&#45;&gt;Node1 -->
<g id="edge1_Node000001_Node000002" class="edge">
<title>Node2&#45;&gt;Node1</title>
<g id="a_edge1_Node000001_Node000002"><a xlink:title=" ">
<path fill="none" stroke="#63b8ff" d="M67.96,-59.5C79.1,-50.45 93.19,-39 104.13,-30.11"/>
<polygon fill="#63b8ff" stroke="#63b8ff" points="65.68,-56.85 60.12,-65.87 70.09,-62.28 65.68,-56.85"/>
</a>
</g>
</g>
<!-- Node3 -->
<g id="Node000003" class="node">
<title>Node3</title>
<g id="a_Node000003"><a xlink:href="interfaceATAS_1_1DataFeedsCore_1_1IMessageQueue.html" target="_top" xlink:title=" ">
<polygon fill="white" stroke="#666666" points="269.5,-85 117.5,-85 117.5,-66 269.5,-66 269.5,-85"/>
<text text-anchor="middle" x="193.5" y="-73" font-family="Helvetica" font-size="10.00">IMessageQueue&lt; TMessage &gt;</text>
</a>
</g>
</g>
<!-- Node3&#45;&gt;Node1 -->
<g id="edge2_Node000001_Node000003" class="edge">
<title>Node3&#45;&gt;Node1</title>
<g id="a_edge2_Node000001_Node000003"><a xlink:title=" ">
<path fill="none" stroke="#63b8ff" d="M175.04,-59.5C163.9,-50.45 149.81,-39 138.87,-30.11"/>
<polygon fill="#63b8ff" stroke="#63b8ff" points="172.91,-62.28 182.88,-65.87 177.32,-56.85 172.91,-62.28"/>
</a>
</g>
</g>
<!-- Node4 -->
<g id="Node000004" class="node">
<title>Node4</title>
<g id="a_Node000004"><a xlink:title=" ">
<polygon fill="white" stroke="#666666" points="233.5,-140 153.5,-140 153.5,-121 233.5,-121 233.5,-140"/>
<text text-anchor="middle" x="193.5" y="-128" font-family="Helvetica" font-size="10.00">ILoggerSource</text>
</a>
</g>
</g>
<!-- Node4&#45;&gt;Node3 -->
<g id="edge3_Node000003_Node000004" class="edge">
<title>Node4&#45;&gt;Node3</title>
<g id="a_edge3_Node000003_Node000004"><a xlink:title=" ">
<path fill="none" stroke="#63b8ff" d="M193.5,-110.66C193.5,-101.93 193.5,-91.99 193.5,-85.09"/>
<polygon fill="#63b8ff" stroke="#63b8ff" points="190,-110.75 193.5,-120.75 197,-110.75 190,-110.75"/>
</a>
</g>
</g>
</g>
</svg>
