<?xml version="1.0" encoding="UTF-8" standalone="no"?>
<!DOCTYPE svg PUBLIC "-//W3C//DTD SVG 1.1//EN"
 "http://www.w3.org/Graphics/SVG/1.1/DTD/svg11.dtd">
<!-- Generated by graphviz version 2.44.0 (0)
 -->
<!-- Title: ATAS.DataFeedsCore.UserRole Pages: 1 -->
<svg width="199pt" height="82pt"
 viewBox="0.00 0.00 198.50 82.00" xmlns="http://www.w3.org/2000/svg" xmlns:xlink="http://www.w3.org/1999/xlink">
<g id="graph0" class="graph" transform="scale(1 1) rotate(0) translate(4 78)">
<title>ATAS.DataFeedsCore.UserRole</title>
<!-- Node1 -->
<g id="Node000001" class="node">
<title>Node1</title>
<g id="a_Node000001"><a xlink:title=" ">
<polygon fill="#999999" stroke="#666666" points="157,-19 0,-19 0,0 157,0 157,-19"/>
<text text-anchor="middle" x="78.5" y="-7" font-family="Helvetica" font-size="10.00">ATAS.DataFeedsCore.UserRole</text>
</a>
</g>
</g>
<!-- Node2 -->
<g id="Node000002" class="node">
<title>Node2</title>
<g id="a_Node000002"><a xlink:href="interfaceATAS_1_1DataFeedsCore_1_1IEntity.html" target="_top" xlink:title="Represents an entity in the application.">
<polygon fill="white" stroke="#666666" points="50,-74 5,-74 5,-55 50,-55 50,-74"/>
<text text-anchor="middle" x="27.5" y="-62" font-family="Helvetica" font-size="10.00">IEntity</text>
</a>
</g>
</g>
<!-- Node2&#45;&gt;Node1 -->
<g id="edge1_Node000001_Node000002" class="edge">
<title>Node2&#45;&gt;Node1</title>
<g id="a_edge1_Node000001_Node000002"><a xlink:title=" ">
<path fill="none" stroke="#63b8ff" d="M42.88,-47.52C51.87,-38.18 62.86,-26.75 70.24,-19.09"/>
<polygon fill="#63b8ff" stroke="#63b8ff" points="40.33,-45.12 35.92,-54.75 45.38,-49.97 40.33,-45.12"/>
</a>
</g>
</g>
<!-- Node3 -->
<g id="Node000003" class="node">
<title>Node3</title>
<g id="a_Node000003"><a xlink:title=" ">
<polygon fill="white" stroke="#666666" points="190.5,-74 68.5,-74 68.5,-55 190.5,-55 190.5,-74"/>
<text text-anchor="middle" x="129.5" y="-62" font-family="Helvetica" font-size="10.00">INotifyPropertyChanged</text>
</a>
</g>
</g>
<!-- Node3&#45;&gt;Node1 -->
<g id="edge2_Node000001_Node000003" class="edge">
<title>Node3&#45;&gt;Node1</title>
<g id="a_edge2_Node000001_Node000003"><a xlink:title=" ">
<path fill="none" stroke="#63b8ff" d="M114.12,-47.52C105.13,-38.18 94.14,-26.75 86.76,-19.09"/>
<polygon fill="#63b8ff" stroke="#63b8ff" points="111.62,-49.97 121.08,-54.75 116.67,-45.12 111.62,-49.97"/>
</a>
</g>
</g>
</g>
</svg>
