<?xml version="1.0" encoding="UTF-8" standalone="no"?>
<!DOCTYPE svg PUBLIC "-//W3C//DTD SVG 1.1//EN"
 "http://www.w3.org/Graphics/SVG/1.1/DTD/svg11.dtd">
<!-- Generated by graphviz version 2.44.0 (0)
 -->
<!-- Title: ATAS.Strategies.ATM.StopProfit Pages: 1 -->
<svg width="870pt" height="107pt"
 viewBox="0.00 0.00 870.00 107.00" xmlns="http://www.w3.org/2000/svg" xmlns:xlink="http://www.w3.org/1999/xlink">
<g id="graph0" class="graph" transform="scale(1 1) rotate(0) translate(4 103)">
<title>ATAS.Strategies.ATM.StopProfit</title>
<!-- Node1 -->
<g id="Node000001" class="node">
<title>Node1</title>
<g id="a_Node000001"><a xlink:title=" ">
<polygon fill="#999999" stroke="#666666" points="862,-69.5 727,-69.5 727,-39.5 862,-39.5 862,-69.5"/>
<text text-anchor="start" x="735" y="-57.5" font-family="Helvetica" font-size="10.00">ATAS.Strategies.ATM.Stop</text>
<text text-anchor="middle" x="794.5" y="-46.5" font-family="Helvetica" font-size="10.00">Profit</text>
</a>
</g>
</g>
<!-- Node2 -->
<g id="Node000002" class="node">
<title>Node2</title>
<g id="a_Node000002"><a xlink:href="classATAS_1_1Strategies_1_1ATM_1_1BaseStopProfitStrategy.html" target="_top" xlink:title=" ">
<polygon fill="white" stroke="#666666" points="691,-99 543,-99 543,-58 691,-58 691,-99"/>
<text text-anchor="start" x="551" y="-87" font-family="Helvetica" font-size="10.00">BaseStopProfitStrategy</text>
<text text-anchor="start" x="551" y="-76" font-family="Helvetica" font-size="10.00">&lt; StopProfit, SimpleStopProfit</text>
<text text-anchor="middle" x="617" y="-65" font-family="Helvetica" font-size="10.00">Settings &gt;</text>
</a>
</g>
</g>
<!-- Node2&#45;&gt;Node1 -->
<g id="edge1_Node000001_Node000002" class="edge">
<title>Node2&#45;&gt;Node1</title>
<g id="a_edge1_Node000001_Node000002"><a xlink:title=" ">
<path fill="none" stroke="#63b8ff" d="M701.22,-67.12C709.84,-65.94 718.51,-64.76 726.91,-63.61"/>
<polygon fill="#63b8ff" stroke="#63b8ff" points="700.59,-63.67 691.16,-68.5 701.54,-70.61 700.59,-63.67"/>
</a>
</g>
</g>
<!-- Node3 -->
<g id="Node000003" class="node">
<title>Node3</title>
<g id="a_Node000003"><a xlink:href="interfaceATAS_1_1Strategies_1_1ATM_1_1ISimpleStopProfitStrategy.html" target="_top" xlink:title=" ">
<polygon fill="white" stroke="#666666" points="682,-40 552,-40 552,-21 682,-21 682,-40"/>
<text text-anchor="middle" x="617" y="-28" font-family="Helvetica" font-size="10.00">ISimpleStopProfitStrategy</text>
</a>
</g>
</g>
<!-- Node3&#45;&gt;Node1 -->
<g id="edge2_Node000001_Node000003" class="edge">
<title>Node3&#45;&gt;Node1</title>
<g id="a_edge2_Node000001_Node000003"><a xlink:title=" ">
<path fill="none" stroke="#63b8ff" d="M692.31,-40.66C703.77,-42.23 715.53,-43.84 726.8,-45.38"/>
<polygon fill="#63b8ff" stroke="#63b8ff" points="692.74,-37.19 682.35,-39.3 691.79,-44.12 692.74,-37.19"/>
</a>
</g>
</g>
<!-- Node4 -->
<g id="Node000004" class="node">
<title>Node4</title>
<g id="a_Node000004"><a xlink:href="interfaceATAS_1_1Strategies_1_1ATM_1_1IStopProfitStrategy.html" target="_top" xlink:title=" ">
<polygon fill="white" stroke="#666666" points="507,-67.5 363,-67.5 363,-37.5 507,-37.5 507,-67.5"/>
<text text-anchor="start" x="371" y="-55.5" font-family="Helvetica" font-size="10.00">IStopProfitStrategy</text>
<text text-anchor="middle" x="435" y="-44.5" font-family="Helvetica" font-size="10.00">&lt; SimpleStopProfitSettings &gt;</text>
</a>
</g>
</g>
<!-- Node4&#45;&gt;Node3 -->
<g id="edge3_Node000003_Node000004" class="edge">
<title>Node4&#45;&gt;Node3</title>
<g id="a_edge3_Node000003_Node000004"><a xlink:title=" ">
<path fill="none" stroke="#63b8ff" d="M517.25,-42.57C528.83,-41.15 540.61,-39.71 551.8,-38.35"/>
<polygon fill="#63b8ff" stroke="#63b8ff" points="516.64,-39.12 507.14,-43.81 517.49,-46.07 516.64,-39.12"/>
</a>
</g>
</g>
<!-- Node5 -->
<g id="Node000005" class="node">
<title>Node5</title>
<g id="a_Node000005"><a xlink:href="interfaceATAS_1_1Strategies_1_1ATM_1_1ISupportCustomStopOrTake.html" target="_top" xlink:title=" ">
<polygon fill="white" stroke="#666666" points="505,-19 365,-19 365,0 505,0 505,-19"/>
<text text-anchor="middle" x="435" y="-7" font-family="Helvetica" font-size="10.00">ISupportCustomStopOrTake</text>
</a>
</g>
</g>
<!-- Node5&#45;&gt;Node3 -->
<g id="edge4_Node000003_Node000005" class="edge">
<title>Node5&#45;&gt;Node3</title>
<g id="a_edge4_Node000003_Node000005"><a xlink:title=" ">
<path fill="none" stroke="#63b8ff" d="M515.27,-18.75C527.49,-20.17 539.99,-21.63 551.83,-23.01"/>
<polygon fill="#63b8ff" stroke="#63b8ff" points="515.42,-15.24 505.08,-17.56 514.6,-22.19 515.42,-15.24"/>
</a>
</g>
</g>
<!-- Node6 -->
<g id="Node000006" class="node">
<title>Node6</title>
<g id="a_Node000006"><a xlink:href="interfaceATAS_1_1Strategies_1_1ATM_1_1IATMStrategy.html" target="_top" xlink:title=" ">
<polygon fill="white" stroke="#666666" points="327,-19 250,-19 250,0 327,0 327,-19"/>
<text text-anchor="middle" x="288.5" y="-7" font-family="Helvetica" font-size="10.00">IATMStrategy</text>
</a>
</g>
</g>
<!-- Node6&#45;&gt;Node5 -->
<g id="edge5_Node000005_Node000006" class="edge">
<title>Node6&#45;&gt;Node5</title>
<g id="a_edge5_Node000005_Node000006"><a xlink:title=" ">
<path fill="none" stroke="#63b8ff" d="M337.23,-9.5C346.12,-9.5 355.58,-9.5 364.96,-9.5"/>
<polygon fill="#63b8ff" stroke="#63b8ff" points="337.09,-6 327.09,-9.5 337.09,-13 337.09,-6"/>
</a>
</g>
</g>
<!-- Node7 -->
<g id="Node000007" class="node">
<title>Node7</title>
<g id="a_Node000007"><a xlink:href="interfaceATAS_1_1Strategies_1_1IStrategy.html" target="_top" xlink:title="Represents a trading strategy.">
<polygon fill="white" stroke="#666666" points="214,-19 158,-19 158,0 214,0 214,-19"/>
<text text-anchor="middle" x="186" y="-7" font-family="Helvetica" font-size="10.00">IStrategy</text>
</a>
</g>
</g>
<!-- Node7&#45;&gt;Node6 -->
<g id="edge6_Node000006_Node000007" class="edge">
<title>Node7&#45;&gt;Node6</title>
<g id="a_edge6_Node000006_Node000007"><a xlink:title=" ">
<path fill="none" stroke="#63b8ff" d="M224.35,-9.5C232.63,-9.5 241.42,-9.5 249.72,-9.5"/>
<polygon fill="#63b8ff" stroke="#63b8ff" points="224.2,-6 214.2,-9.5 224.2,-13 224.2,-6"/>
</a>
</g>
</g>
<!-- Node8 -->
<g id="Node000008" class="node">
<title>Node8</title>
<g id="a_Node000008"><a xlink:title=" ">
<polygon fill="white" stroke="#666666" points="122,-19 0,-19 0,0 122,0 122,-19"/>
<text text-anchor="middle" x="61" y="-7" font-family="Helvetica" font-size="10.00">INotifyPropertyChanged</text>
</a>
</g>
</g>
<!-- Node8&#45;&gt;Node7 -->
<g id="edge7_Node000007_Node000008" class="edge">
<title>Node8&#45;&gt;Node7</title>
<g id="a_edge7_Node000007_Node000008"><a xlink:title=" ">
<path fill="none" stroke="#63b8ff" d="M132.34,-9.5C141.38,-9.5 150.17,-9.5 157.89,-9.5"/>
<polygon fill="#63b8ff" stroke="#63b8ff" points="132.06,-6 122.06,-9.5 132.06,-13 132.06,-6"/>
</a>
</g>
</g>
</g>
</svg>
