<?xml version="1.0" encoding="UTF-8" standalone="no"?>
<!DOCTYPE svg PUBLIC "-//W3C//DTD SVG 1.1//EN"
 "http://www.w3.org/Graphics/SVG/1.1/DTD/svg11.dtd">
<!-- Generated by graphviz version 2.44.0 (0)
 -->
<!-- Title: ATAS.DataFeedsCore.Commissions.PerTradeCommissionRule Pages: 1 -->
<svg width="244pt" height="148pt"
 viewBox="0.00 0.00 243.50 148.00" xmlns="http://www.w3.org/2000/svg" xmlns:xlink="http://www.w3.org/1999/xlink">
<g id="graph0" class="graph" transform="scale(1 1) rotate(0) translate(4 144)">
<title>ATAS.DataFeedsCore.Commissions.PerTradeCommissionRule</title>
<!-- Node1 -->
<g id="Node000001" class="node">
<title>Node1</title>
<g id="a_Node000001"><a xlink:title=" ">
<polygon fill="#999999" stroke="#666666" points="200,-30 21,-30 21,0 200,0 200,-30"/>
<text text-anchor="start" x="29" y="-18" font-family="Helvetica" font-size="10.00">ATAS.DataFeedsCore.Commissions.</text>
<text text-anchor="middle" x="110.5" y="-7" font-family="Helvetica" font-size="10.00">PerTradeCommissionRule</text>
</a>
</g>
</g>
<!-- Node2 -->
<g id="Node000002" class="node">
<title>Node2</title>
<g id="a_Node000002"><a xlink:href="classATAS_1_1DataFeedsCore_1_1Commissions_1_1CommissionRule.html" target="_top" xlink:title=" ">
<polygon fill="white" stroke="#666666" points="156.5,-85 64.5,-85 64.5,-66 156.5,-66 156.5,-85"/>
<text text-anchor="middle" x="110.5" y="-73" font-family="Helvetica" font-size="10.00">CommissionRule</text>
</a>
</g>
</g>
<!-- Node2&#45;&gt;Node1 -->
<g id="edge1_Node000001_Node000002" class="edge">
<title>Node2&#45;&gt;Node1</title>
<g id="a_edge1_Node000001_Node000002"><a xlink:title=" ">
<path fill="none" stroke="#63b8ff" d="M110.5,-55.65C110.5,-47.36 110.5,-37.78 110.5,-30.11"/>
<polygon fill="#63b8ff" stroke="#63b8ff" points="107,-55.87 110.5,-65.87 114,-55.87 107,-55.87"/>
</a>
</g>
</g>
<!-- Node3 -->
<g id="Node000003" class="node">
<title>Node3</title>
<g id="a_Node000003"><a xlink:href="interfaceATAS_1_1DataFeedsCore_1_1Commissions_1_1ICommissionRule.html" target="_top" xlink:title=" ">
<polygon fill="white" stroke="#666666" points="95,-140 0,-140 0,-121 95,-121 95,-140"/>
<text text-anchor="middle" x="47.5" y="-128" font-family="Helvetica" font-size="10.00">ICommissionRule</text>
</a>
</g>
</g>
<!-- Node3&#45;&gt;Node2 -->
<g id="edge2_Node000002_Node000003" class="edge">
<title>Node3&#45;&gt;Node2</title>
<g id="a_edge2_Node000002_Node000003"><a xlink:title=" ">
<path fill="none" stroke="#63b8ff" d="M65.54,-114.32C76.77,-104.87 90.82,-93.06 100.19,-85.17"/>
<polygon fill="#63b8ff" stroke="#63b8ff" points="63.02,-111.87 57.62,-120.98 67.53,-117.23 63.02,-111.87"/>
</a>
</g>
</g>
<!-- Node4 -->
<g id="Node000004" class="node">
<title>Node4</title>
<g id="a_Node000004"><a xlink:title=" ">
<polygon fill="white" stroke="#666666" points="235.5,-140 113.5,-140 113.5,-121 235.5,-121 235.5,-140"/>
<text text-anchor="middle" x="174.5" y="-128" font-family="Helvetica" font-size="10.00">INotifyPropertyChanged</text>
</a>
</g>
</g>
<!-- Node4&#45;&gt;Node2 -->
<g id="edge3_Node000002_Node000004" class="edge">
<title>Node4&#45;&gt;Node2</title>
<g id="a_edge3_Node000002_Node000004"><a xlink:title=" ">
<path fill="none" stroke="#63b8ff" d="M156.51,-114.6C145.04,-105.11 130.59,-93.13 120.97,-85.17"/>
<polygon fill="#63b8ff" stroke="#63b8ff" points="154.28,-117.3 164.22,-120.98 158.75,-111.91 154.28,-117.3"/>
</a>
</g>
</g>
</g>
</svg>
