<?xml version="1.0" encoding="UTF-8" standalone="no"?>
<!DOCTYPE svg PUBLIC "-//W3C//DTD SVG 1.1//EN"
 "http://www.w3.org/Graphics/SVG/1.1/DTD/svg11.dtd">
<!-- Generated by graphviz version 2.44.0 (0)
 -->
<!-- Title: ATAS.Indicators.Indicator Pages: 1 -->
<svg width="447pt" height="434pt"
 viewBox="0.00 0.00 446.50 434.00" xmlns="http://www.w3.org/2000/svg" xmlns:xlink="http://www.w3.org/1999/xlink">
<g id="graph0" class="graph" transform="scale(1 1) rotate(0) translate(4 430)">
<title>ATAS.Indicators.Indicator</title>
<!-- Node1 -->
<g id="Node000001" class="node">
<title>Node1</title>
<g id="a_Node000001"><a xlink:title="Base class for custom indicators.">
<polygon fill="#999999" stroke="#666666" points="317,-151 189,-151 189,-132 317,-132 317,-151"/>
<text text-anchor="middle" x="253" y="-139" font-family="Helvetica" font-size="10.00">ATAS.Indicators.Indicator</text>
</a>
</g>
</g>
<!-- Node11 -->
<g id="Node000011" class="node">
<title>Node11</title>
<g id="a_Node000011"><a xlink:href="classATAS_1_1Strategies_1_1Chart_1_1ChartStrategy.html" target="_top" xlink:title="Represents an abstract class for a chart strategy that extends the functionality of an Indicator and ...">
<polygon fill="white" stroke="#666666" points="324.5,-96 181.5,-96 181.5,-66 324.5,-66 324.5,-96"/>
<text text-anchor="start" x="189.5" y="-84" font-family="Helvetica" font-size="10.00">ATAS.Strategies.Chart.Chart</text>
<text text-anchor="middle" x="253" y="-73" font-family="Helvetica" font-size="10.00">Strategy</text>
</a>
</g>
</g>
<!-- Node1&#45;&gt;Node11 -->
<g id="edge11_Node000001_Node000011" class="edge">
<title>Node1&#45;&gt;Node11</title>
<g id="a_edge11_Node000001_Node000011"><a xlink:title=" ">
<path fill="none" stroke="#63b8ff" d="M253,-121.65C253,-113.36 253,-103.78 253,-96.11"/>
<polygon fill="#63b8ff" stroke="#63b8ff" points="249.5,-121.87 253,-131.87 256.5,-121.87 249.5,-121.87"/>
</a>
</g>
</g>
<!-- Node2 -->
<g id="Node000002" class="node">
<title>Node2</title>
<g id="a_Node000002"><a xlink:href="classATAS_1_1Indicators_1_1ExtendedIndicator.html" target="_top" xlink:title="An extended base class for custom indicators that provide additional functionality for drawing,...">
<polygon fill="white" stroke="#666666" points="300.5,-206 205.5,-206 205.5,-187 300.5,-187 300.5,-206"/>
<text text-anchor="middle" x="253" y="-194" font-family="Helvetica" font-size="10.00">ExtendedIndicator</text>
</a>
</g>
</g>
<!-- Node2&#45;&gt;Node1 -->
<g id="edge1_Node000001_Node000002" class="edge">
<title>Node2&#45;&gt;Node1</title>
<g id="a_edge1_Node000001_Node000002"><a xlink:title=" ">
<path fill="none" stroke="#63b8ff" d="M253,-176.66C253,-167.93 253,-157.99 253,-151.09"/>
<polygon fill="#63b8ff" stroke="#63b8ff" points="249.5,-176.75 253,-186.75 256.5,-176.75 249.5,-176.75"/>
</a>
</g>
</g>
<!-- Node3 -->
<g id="Node000003" class="node">
<title>Node3</title>
<g id="a_Node000003"><a xlink:href="classATAS_1_1Indicators_1_1BaseIndicator.html" target="_top" xlink:title="Base class for custom indicators in a chart.">
<polygon fill="white" stroke="#666666" points="174.5,-261 97.5,-261 97.5,-242 174.5,-242 174.5,-261"/>
<text text-anchor="middle" x="136" y="-249" font-family="Helvetica" font-size="10.00">BaseIndicator</text>
</a>
</g>
</g>
<!-- Node3&#45;&gt;Node2 -->
<g id="edge2_Node000002_Node000003" class="edge">
<title>Node3&#45;&gt;Node2</title>
<g id="a_edge2_Node000002_Node000003"><a xlink:title=" ">
<path fill="none" stroke="#63b8ff" d="M164.11,-237.77C185.69,-227.99 214.91,-214.75 233.86,-206.17"/>
<polygon fill="#63b8ff" stroke="#63b8ff" points="162.46,-234.67 154.8,-241.98 165.35,-241.05 162.46,-234.67"/>
</a>
</g>
</g>
<!-- Node4 -->
<g id="Node000004" class="node">
<title>Node4</title>
<g id="a_Node000004"><a xlink:href="classATAS_1_1Indicators_1_1ChartObject.html" target="_top" xlink:title="Base class for objects in a chart.">
<polygon fill="white" stroke="#666666" points="128,-316 58,-316 58,-297 128,-297 128,-316"/>
<text text-anchor="middle" x="93" y="-304" font-family="Helvetica" font-size="10.00">ChartObject</text>
</a>
</g>
</g>
<!-- Node4&#45;&gt;Node3 -->
<g id="edge3_Node000003_Node000004" class="edge">
<title>Node4&#45;&gt;Node3</title>
<g id="a_edge3_Node000003_Node000004"><a xlink:title=" ">
<path fill="none" stroke="#63b8ff" d="M106.42,-288.96C113.91,-279.72 122.94,-268.6 129.03,-261.09"/>
<polygon fill="#63b8ff" stroke="#63b8ff" points="103.68,-286.78 100.1,-296.75 109.12,-291.19 103.68,-286.78"/>
</a>
</g>
</g>
<!-- Node5 -->
<g id="Node000005" class="node">
<title>Node5</title>
<g id="a_Node000005"><a xlink:href="classATAS_1_1Indicators_1_1Filters_1_1TrackedPropertyBase.html" target="_top" xlink:title="A base class for tracking property changes and notifying subscribers when a property value is modifie...">
<polygon fill="white" stroke="#666666" points="158,-371 48,-371 48,-352 158,-352 158,-371"/>
<text text-anchor="middle" x="103" y="-359" font-family="Helvetica" font-size="10.00">TrackedPropertyBase</text>
</a>
</g>
</g>
<!-- Node5&#45;&gt;Node4 -->
<g id="edge4_Node000004_Node000005" class="edge">
<title>Node5&#45;&gt;Node4</title>
<g id="a_edge4_Node000004_Node000005"><a xlink:title=" ">
<path fill="none" stroke="#63b8ff" d="M99.45,-341.66C97.8,-332.93 95.92,-322.99 94.62,-316.09"/>
<polygon fill="#63b8ff" stroke="#63b8ff" points="96.06,-342.57 101.35,-351.75 102.93,-341.27 96.06,-342.57"/>
</a>
</g>
</g>
<!-- Node6 -->
<g id="Node000006" class="node">
<title>Node6</title>
<g id="a_Node000006"><a xlink:title=" ">
<polygon fill="white" stroke="#666666" points="122,-426 0,-426 0,-407 122,-407 122,-426"/>
<text text-anchor="middle" x="61" y="-414" font-family="Helvetica" font-size="10.00">INotifyPropertyChanged</text>
</a>
</g>
</g>
<!-- Node6&#45;&gt;Node3 -->
<g id="edge6_Node000003_Node000006" class="edge">
<title>Node6&#45;&gt;Node3</title>
<g id="a_edge6_Node000003_Node000006"><a xlink:title=" ">
<path fill="none" stroke="#63b8ff" d="M50.07,-398.09C45.71,-390.15 41.2,-380.43 39,-371 33.81,-348.77 48.56,-297.59 49,-297 62.35,-279.02 85.07,-267.75 103.94,-261.05"/>
<polygon fill="#63b8ff" stroke="#63b8ff" points="47.08,-399.91 55.16,-406.76 53.12,-396.36 47.08,-399.91"/>
</a>
</g>
</g>
<!-- Node6&#45;&gt;Node5 -->
<g id="edge5_Node000005_Node000006" class="edge">
<title>Node6&#45;&gt;Node5</title>
<g id="a_edge5_Node000005_Node000006"><a xlink:title=" ">
<path fill="none" stroke="#63b8ff" d="M74.33,-398.67C81.61,-389.5 90.3,-378.52 96.19,-371.09"/>
<polygon fill="#63b8ff" stroke="#63b8ff" points="71.4,-396.74 67.94,-406.75 76.89,-401.08 71.4,-396.74"/>
</a>
</g>
</g>
<!-- Node7 -->
<g id="Node000007" class="node">
<title>Node7</title>
<g id="a_Node000007"><a xlink:title=" ">
<polygon fill="white" stroke="#666666" points="214,-316 146,-316 146,-297 214,-297 214,-316"/>
<text text-anchor="middle" x="180" y="-304" font-family="Helvetica" font-size="10.00">IDisposable</text>
</a>
</g>
</g>
<!-- Node7&#45;&gt;Node3 -->
<g id="edge7_Node000003_Node000007" class="edge">
<title>Node7&#45;&gt;Node3</title>
<g id="a_edge7_Node000003_Node000007"><a xlink:title=" ">
<path fill="none" stroke="#63b8ff" d="M166.27,-288.96C158.6,-279.72 149.37,-268.6 143.13,-261.09"/>
<polygon fill="#63b8ff" stroke="#63b8ff" points="163.65,-291.29 172.73,-296.75 169.04,-286.82 163.65,-291.29"/>
</a>
</g>
</g>
<!-- Node8 -->
<g id="Node000008" class="node">
<title>Node8</title>
<g id="a_Node000008"><a xlink:href="interfaceATAS_1_1Indicators_1_1INotifyPanelPropertyChanged.html" target="_top" xlink:title="Notifies clients that a panel property value has changed.">
<polygon fill="white" stroke="#666666" points="379.5,-316 232.5,-316 232.5,-297 379.5,-297 379.5,-316"/>
<text text-anchor="middle" x="306" y="-304" font-family="Helvetica" font-size="10.00">INotifyPanelPropertyChanged</text>
</a>
</g>
</g>
<!-- Node8&#45;&gt;Node3 -->
<g id="edge8_Node000003_Node000008" class="edge">
<title>Node8&#45;&gt;Node3</title>
<g id="a_edge8_Node000003_Node000008"><a xlink:title=" ">
<path fill="none" stroke="#63b8ff" d="M268.88,-293.93C237.13,-284.03 192.15,-270.01 163.53,-261.08"/>
<polygon fill="#63b8ff" stroke="#63b8ff" points="268.1,-297.35 278.69,-296.98 270.18,-290.67 268.1,-297.35"/>
</a>
</g>
</g>
<!-- Node9 -->
<g id="Node000009" class="node">
<title>Node9</title>
<g id="a_Node000009"><a xlink:title=" ">
<polygon fill="white" stroke="#666666" points="313,-261 193,-261 193,-242 313,-242 313,-261"/>
<text text-anchor="middle" x="253" y="-249" font-family="Helvetica" font-size="10.00">ICustomTypeDescriptor</text>
</a>
</g>
</g>
<!-- Node9&#45;&gt;Node2 -->
<g id="edge9_Node000002_Node000009" class="edge">
<title>Node9&#45;&gt;Node2</title>
<g id="a_edge9_Node000002_Node000009"><a xlink:title=" ">
<path fill="none" stroke="#63b8ff" d="M253,-231.66C253,-222.93 253,-212.99 253,-206.09"/>
<polygon fill="#63b8ff" stroke="#63b8ff" points="249.5,-231.75 253,-241.75 256.5,-231.75 249.5,-231.75"/>
</a>
</g>
</g>
<!-- Node10 -->
<g id="Node000010" class="node">
<title>Node10</title>
<g id="a_Node000010"><a xlink:href="interfaceATAS_1_1Indicators_1_1IMarketTimeProvider.html" target="_top" xlink:title=" ">
<polygon fill="white" stroke="#666666" points="438.5,-261 331.5,-261 331.5,-242 438.5,-242 438.5,-261"/>
<text text-anchor="middle" x="385" y="-249" font-family="Helvetica" font-size="10.00">IMarketTimeProvider</text>
</a>
</g>
</g>
<!-- Node10&#45;&gt;Node2 -->
<g id="edge10_Node000002_Node000010" class="edge">
<title>Node10&#45;&gt;Node2</title>
<g id="a_edge10_Node000002_Node000010"><a xlink:title=" ">
<path fill="none" stroke="#63b8ff" d="M354.27,-238.16C329.83,-228.35 296.26,-214.87 274.59,-206.17"/>
<polygon fill="#63b8ff" stroke="#63b8ff" points="353.21,-241.51 363.79,-241.98 355.82,-235.01 353.21,-241.51"/>
</a>
</g>
</g>
<!-- Node12 -->
<g id="Node000012" class="node">
<title>Node12</title>
<g id="a_Node000012"><a xlink:href="classATAS_1_1Strategies_1_1Chart_1_1SmaChartStrategy.html" target="_top" xlink:title=" ">
<polygon fill="white" stroke="#666666" points="322.5,-30 183.5,-30 183.5,0 322.5,0 322.5,-30"/>
<text text-anchor="start" x="191.5" y="-18" font-family="Helvetica" font-size="10.00">ATAS.Strategies.Chart.Sma</text>
<text text-anchor="middle" x="253" y="-7" font-family="Helvetica" font-size="10.00">ChartStrategy</text>
</a>
</g>
</g>
<!-- Node11&#45;&gt;Node12 -->
<g id="edge12_Node000011_Node000012" class="edge">
<title>Node11&#45;&gt;Node12</title>
<g id="a_edge12_Node000011_Node000012"><a xlink:title=" ">
<path fill="none" stroke="#63b8ff" d="M253,-55.54C253,-46.96 253,-37.61 253,-30.16"/>
<polygon fill="#63b8ff" stroke="#63b8ff" points="249.5,-55.8 253,-65.8 256.5,-55.8 249.5,-55.8"/>
</a>
</g>
</g>
</g>
</svg>
