<?xml version="1.0" encoding="UTF-8" standalone="no"?>
<!DOCTYPE svg PUBLIC "-//W3C//DTD SVG 1.1//EN"
 "http://www.w3.org/Graphics/SVG/1.1/DTD/svg11.dtd">
<!-- Generated by graphviz version 2.44.0 (0)
 -->
<!-- Title: ATAS.DataFeedsCore.ConnectorLatencyManager Pages: 1 -->
<svg width="262pt" height="93pt"
 viewBox="0.00 0.00 262.00 93.00" xmlns="http://www.w3.org/2000/svg" xmlns:xlink="http://www.w3.org/1999/xlink">
<g id="graph0" class="graph" transform="scale(1 1) rotate(0) translate(4 89)">
<title>ATAS.DataFeedsCore.ConnectorLatencyManager</title>
<!-- Node1 -->
<g id="Node000001" class="node">
<title>Node1</title>
<g id="a_Node000001"><a xlink:title=" ">
<polygon fill="#999999" stroke="#666666" points="198,-30 37,-30 37,0 198,0 198,-30"/>
<text text-anchor="start" x="45" y="-18" font-family="Helvetica" font-size="10.00">ATAS.DataFeedsCore.Connector</text>
<text text-anchor="middle" x="117.5" y="-7" font-family="Helvetica" font-size="10.00">LatencyManager</text>
</a>
</g>
</g>
<!-- Node2 -->
<g id="Node000002" class="node">
<title>Node2</title>
<g id="a_Node000002"><a xlink:title=" ">
<polygon fill="white" stroke="#666666" points="99,-85 0,-85 0,-66 99,-66 99,-85"/>
<text text-anchor="middle" x="49.5" y="-73" font-family="Helvetica" font-size="10.00">BaseLoggerSource</text>
</a>
</g>
</g>
<!-- Node2&#45;&gt;Node1 -->
<g id="edge1_Node000001_Node000002" class="edge">
<title>Node2&#45;&gt;Node1</title>
<g id="a_edge1_Node000001_Node000002"><a xlink:title=" ">
<path fill="none" stroke="#63b8ff" d="M67.24,-59.23C77.71,-50.23 90.87,-38.91 101.09,-30.11"/>
<polygon fill="#63b8ff" stroke="#63b8ff" points="64.83,-56.69 59.53,-65.87 69.4,-62 64.83,-56.69"/>
</a>
</g>
</g>
<!-- Node3 -->
<g id="Node000003" class="node">
<title>Node3</title>
<g id="a_Node000003"><a xlink:href="interfaceATAS_1_1DataFeedsCore_1_1IConnectorLatencyManager.html" target="_top" xlink:title=" ">
<polygon fill="white" stroke="#666666" points="254,-85 117,-85 117,-66 254,-66 254,-85"/>
<text text-anchor="middle" x="185.5" y="-73" font-family="Helvetica" font-size="10.00">IConnectorLatencyManager</text>
</a>
</g>
</g>
<!-- Node3&#45;&gt;Node1 -->
<g id="edge2_Node000001_Node000003" class="edge">
<title>Node3&#45;&gt;Node1</title>
<g id="a_edge2_Node000001_Node000003"><a xlink:title=" ">
<path fill="none" stroke="#63b8ff" d="M167.76,-59.23C157.29,-50.23 144.13,-38.91 133.91,-30.11"/>
<polygon fill="#63b8ff" stroke="#63b8ff" points="165.6,-62 175.47,-65.87 170.17,-56.69 165.6,-62"/>
</a>
</g>
</g>
</g>
</svg>
