<?xml version="1.0" encoding="UTF-8" standalone="no"?>
<!DOCTYPE svg PUBLIC "-//W3C//DTD SVG 1.1//EN"
 "http://www.w3.org/Graphics/SVG/1.1/DTD/svg11.dtd">
<!-- Generated by graphviz version 2.44.0 (0)
 -->
<!-- Title: ATAS.DataFeedsCore.Database.DatabaseManager Pages: 1 -->
<svg width="210pt" height="148pt"
 viewBox="0.00 0.00 210.00 148.00" xmlns="http://www.w3.org/2000/svg" xmlns:xlink="http://www.w3.org/1999/xlink">
<g id="graph0" class="graph" transform="scale(1 1) rotate(0) translate(4 144)">
<title>ATAS.DataFeedsCore.Database.DatabaseManager</title>
<!-- Node1 -->
<g id="Node000001" class="node">
<title>Node1</title>
<g id="a_Node000001"><a xlink:title=" ">
<polygon fill="#999999" stroke="#666666" points="178,-30 18,-30 18,0 178,0 178,-30"/>
<text text-anchor="start" x="26" y="-18" font-family="Helvetica" font-size="10.00">ATAS.DataFeedsCore.Database.</text>
<text text-anchor="middle" x="98" y="-7" font-family="Helvetica" font-size="10.00">DatabaseManager</text>
</a>
</g>
</g>
<!-- Node2 -->
<g id="Node000002" class="node">
<title>Node2</title>
<g id="a_Node000002"><a xlink:title=" ">
<polygon fill="white" stroke="#666666" points="86,-85 0,-85 0,-66 86,-66 86,-85"/>
<text text-anchor="middle" x="43" y="-73" font-family="Helvetica" font-size="10.00">DataConnection</text>
</a>
</g>
</g>
<!-- Node2&#45;&gt;Node1 -->
<g id="edge1_Node000001_Node000002" class="edge">
<title>Node2&#45;&gt;Node1</title>
<g id="a_edge1_Node000001_Node000002"><a xlink:title=" ">
<path fill="none" stroke="#63b8ff" d="M58.11,-58.43C66.45,-49.56 76.71,-38.65 84.73,-30.11"/>
<polygon fill="#63b8ff" stroke="#63b8ff" points="55.42,-56.19 51.12,-65.87 60.52,-60.98 55.42,-56.19"/>
</a>
</g>
</g>
<!-- Node3 -->
<g id="Node000003" class="node">
<title>Node3</title>
<g id="a_Node000003"><a xlink:href="interfaceATAS_1_1DataFeedsCore_1_1Database_1_1IDatabaseManager.html" target="_top" xlink:title=" ">
<polygon fill="white" stroke="#666666" points="202,-85 104,-85 104,-66 202,-66 202,-85"/>
<text text-anchor="middle" x="153" y="-73" font-family="Helvetica" font-size="10.00">IDatabaseManager</text>
</a>
</g>
</g>
<!-- Node3&#45;&gt;Node1 -->
<g id="edge2_Node000001_Node000003" class="edge">
<title>Node3&#45;&gt;Node1</title>
<g id="a_edge2_Node000001_Node000003"><a xlink:title=" ">
<path fill="none" stroke="#63b8ff" d="M137.89,-58.43C129.55,-49.56 119.29,-38.65 111.27,-30.11"/>
<polygon fill="#63b8ff" stroke="#63b8ff" points="135.48,-60.98 144.88,-65.87 140.58,-56.19 135.48,-60.98"/>
</a>
</g>
</g>
<!-- Node4 -->
<g id="Node000004" class="node">
<title>Node4</title>
<g id="a_Node000004"><a xlink:title=" ">
<polygon fill="white" stroke="#666666" points="187,-140 119,-140 119,-121 187,-121 187,-140"/>
<text text-anchor="middle" x="153" y="-128" font-family="Helvetica" font-size="10.00">IDisposable</text>
</a>
</g>
</g>
<!-- Node4&#45;&gt;Node3 -->
<g id="edge3_Node000003_Node000004" class="edge">
<title>Node4&#45;&gt;Node3</title>
<g id="a_edge3_Node000003_Node000004"><a xlink:title=" ">
<path fill="none" stroke="#63b8ff" d="M153,-110.66C153,-101.93 153,-91.99 153,-85.09"/>
<polygon fill="#63b8ff" stroke="#63b8ff" points="149.5,-110.75 153,-120.75 156.5,-110.75 149.5,-110.75"/>
</a>
</g>
</g>
</g>
</svg>
