<?xml version="1.0" encoding="UTF-8" standalone="no"?>
<!DOCTYPE svg PUBLIC "-//W3C//DTD SVG 1.1//EN"
 "http://www.w3.org/Graphics/SVG/1.1/DTD/svg11.dtd">
<!-- Generated by graphviz version 2.44.0 (0)
 -->
<!-- Title: Graphical Class Hierarchy Pages: 1 -->
<svg width="472pt" height="38pt"
 viewBox="0.00 0.00 472.00 38.00" xmlns="http://www.w3.org/2000/svg" xmlns:xlink="http://www.w3.org/1999/xlink">
<g id="graph0" class="graph" transform="scale(1 1) rotate(0) translate(4 34)">
<title>Graphical Class Hierarchy</title>
<!-- Node0 -->
<g id="Node000000" class="node">
<title>Node0</title>
<g id="a_Node000000"><a xlink:title=" ">
<polygon fill="#e0e0e0" stroke="#999999" points="128,-30 0,-30 0,0 128,0 128,-30"/>
<text text-anchor="start" x="8" y="-18" font-family="Helvetica" font-size="10.00">Utils.Common.Attributes.</text>
<text text-anchor="middle" x="64" y="-7" font-family="Helvetica" font-size="10.00">ParameterAttribute</text>
</a>
</g>
</g>
<!-- Node1 -->
<g id="Node000001" class="node">
<title>Node1</title>
<g id="a_Node000001"><a xlink:href="classOFT_1_1Attributes_1_1ParameterAttribute.html" target="_top" xlink:title=" ">
<polygon fill="white" stroke="#666666" points="292,-30 164,-30 164,0 292,0 292,-30"/>
<text text-anchor="start" x="172" y="-18" font-family="Helvetica" font-size="10.00">OFT.Attributes.Parameter</text>
<text text-anchor="middle" x="228" y="-7" font-family="Helvetica" font-size="10.00">Attribute</text>
</a>
</g>
</g>
<!-- Node0&#45;&gt;Node1 -->
<g id="edge259_Node000000_Node000001" class="edge">
<title>Node0&#45;&gt;Node1</title>
<g id="a_edge259_Node000000_Node000001"><a xlink:title=" ">
<path fill="none" stroke="#63b8ff" d="M138.37,-15C146.86,-15 155.47,-15 163.81,-15"/>
<polygon fill="#63b8ff" stroke="#63b8ff" points="138.1,-11.5 128.1,-15 138.1,-18.5 138.1,-11.5"/>
</a>
</g>
</g>
<!-- Node2 -->
<g id="Node000002" class="node">
<title>Node2</title>
<g id="a_Node000002"><a xlink:href="classATAS_1_1Indicators_1_1ParameterAttribute.html" target="_top" xlink:title=" ">
<polygon fill="white" stroke="#666666" points="464,-30 328,-30 328,0 464,0 464,-30"/>
<text text-anchor="start" x="336" y="-18" font-family="Helvetica" font-size="10.00">ATAS.Indicators.Parameter</text>
<text text-anchor="middle" x="396" y="-7" font-family="Helvetica" font-size="10.00">Attribute</text>
</a>
</g>
</g>
<!-- Node1&#45;&gt;Node2 -->
<g id="edge260_Node000001_Node000002" class="edge">
<title>Node1&#45;&gt;Node2</title>
<g id="a_edge260_Node000001_Node000002"><a xlink:title=" ">
<path fill="none" stroke="#63b8ff" d="M302.44,-15C310.88,-15 319.45,-15 327.8,-15"/>
<polygon fill="#63b8ff" stroke="#63b8ff" points="302.23,-11.5 292.23,-15 302.23,-18.5 302.23,-11.5"/>
</a>
</g>
</g>
</g>
</svg>
