<?xml version="1.0" encoding="UTF-8" standalone="no"?>
<!DOCTYPE svg PUBLIC "-//W3C//DTD SVG 1.1//EN"
 "http://www.w3.org/Graphics/SVG/1.1/DTD/svg11.dtd">
<!-- Generated by graphviz version 2.44.0 (0)
 -->
<!-- Title: Graphical Class Hierarchy Pages: 1 -->
<svg width="471pt" height="38pt"
 viewBox="0.00 0.00 471.00 38.00" xmlns="http://www.w3.org/2000/svg" xmlns:xlink="http://www.w3.org/1999/xlink">
<g id="graph0" class="graph" transform="scale(1 1) rotate(0) translate(4 34)">
<title>Graphical Class Hierarchy</title>
<!-- Node0 -->
<g id="Node000000" class="node">
<title>Node0</title>
<g id="a_Node000000"><a xlink:title=" ">
<polygon fill="#e0e0e0" stroke="#999999" points="128,-30 0,-30 0,0 128,0 128,-30"/>
<text text-anchor="start" x="8" y="-18" font-family="Helvetica" font-size="10.00">Utils.Common.Attributes.</text>
<text text-anchor="middle" x="64" y="-7" font-family="Helvetica" font-size="10.00">FeatureIdAttribute</text>
</a>
</g>
</g>
<!-- Node1 -->
<g id="Node000001" class="node">
<title>Node1</title>
<g id="a_Node000001"><a xlink:href="classOFT_1_1Attributes_1_1FeatureIdAttribute.html" target="_top" xlink:title=" ">
<polygon fill="white" stroke="#666666" points="289,-30 164,-30 164,0 289,0 289,-30"/>
<text text-anchor="start" x="172" y="-18" font-family="Helvetica" font-size="10.00">OFT.Attributes.FeatureId</text>
<text text-anchor="middle" x="226.5" y="-7" font-family="Helvetica" font-size="10.00">Attribute</text>
</a>
</g>
</g>
<!-- Node0&#45;&gt;Node1 -->
<g id="edge256_Node000000_Node000001" class="edge">
<title>Node0&#45;&gt;Node1</title>
<g id="a_edge256_Node000000_Node000001"><a xlink:title=" ">
<path fill="none" stroke="#63b8ff" d="M138.64,-15C147.07,-15 155.59,-15 163.84,-15"/>
<polygon fill="#63b8ff" stroke="#63b8ff" points="138.43,-11.5 128.43,-15 138.43,-18.5 138.43,-11.5"/>
</a>
</g>
</g>
<!-- Node2 -->
<g id="Node000002" class="node">
<title>Node2</title>
<g id="a_Node000002"><a xlink:href="classATAS_1_1Indicators_1_1Attributies_1_1FeatureId.html" target="_top" xlink:title=" ">
<polygon fill="white" stroke="#666666" points="463,-30 325,-30 325,0 463,0 463,-30"/>
<text text-anchor="start" x="333" y="-18" font-family="Helvetica" font-size="10.00">ATAS.Indicators.Attributies.</text>
<text text-anchor="middle" x="394" y="-7" font-family="Helvetica" font-size="10.00">FeatureId</text>
</a>
</g>
</g>
<!-- Node1&#45;&gt;Node2 -->
<g id="edge257_Node000001_Node000002" class="edge">
<title>Node1&#45;&gt;Node2</title>
<g id="a_edge257_Node000001_Node000002"><a xlink:title=" ">
<path fill="none" stroke="#63b8ff" d="M299.37,-15C307.86,-15 316.5,-15 324.93,-15"/>
<polygon fill="#63b8ff" stroke="#63b8ff" points="299.13,-11.5 289.13,-15 299.13,-18.5 299.13,-11.5"/>
</a>
</g>
</g>
</g>
</svg>
