<?xml version="1.0" encoding="UTF-8" standalone="no"?>
<!DOCTYPE svg PUBLIC "-//W3C//DTD SVG 1.1//EN"
 "http://www.w3.org/Graphics/SVG/1.1/DTD/svg11.dtd">
<!-- Generated by graphviz version 2.44.0 (0)
 -->
<!-- Title: Graphical Class Hierarchy Pages: 1 -->
<svg width="318pt" height="172pt"
 viewBox="0.00 0.00 318.00 172.00" xmlns="http://www.w3.org/2000/svg" xmlns:xlink="http://www.w3.org/1999/xlink">
<g id="graph0" class="graph" transform="scale(1 1) rotate(0) translate(4 168)">
<title>Graphical Class Hierarchy</title>
<!-- Node0 -->
<g id="Node000000" class="node">
<title>Node0</title>
<g id="a_Node000000"><a xlink:href="classATAS_1_1Indicators_1_1BaseDataSeries.html" target="_top" xlink:title=" ">
<polygon fill="white" stroke="#666666" points="134,-94 0,-94 0,-64 134,-64 134,-94"/>
<text text-anchor="start" x="8" y="-82" font-family="Helvetica" font-size="10.00">ATAS.Indicators.BaseData</text>
<text text-anchor="middle" x="67" y="-71" font-family="Helvetica" font-size="10.00">Series&lt; decimal &gt;</text>
</a>
</g>
</g>
<!-- Node1 -->
<g id="Node000001" class="node">
<title>Node1</title>
<g id="a_Node000001"><a xlink:href="classATAS_1_1Indicators_1_1CandlePartSeries.html" target="_top" xlink:title="Represents a data series of decimal values derived from specific parts of an IndicatorCandle created ...">
<polygon fill="white" stroke="#666666" points="310,-164 170,-164 170,-134 310,-134 310,-164"/>
<text text-anchor="start" x="178" y="-152" font-family="Helvetica" font-size="10.00">ATAS.Indicators.CandlePart</text>
<text text-anchor="middle" x="240" y="-141" font-family="Helvetica" font-size="10.00">Series</text>
</a>
</g>
</g>
<!-- Node0&#45;&gt;Node1 -->
<g id="edge189_Node000000_Node000001" class="edge">
<title>Node0&#45;&gt;Node1</title>
<g id="a_edge189_Node000000_Node000001"><a xlink:title=" ">
<path fill="none" stroke="#63b8ff" d="M108.71,-98.36C127.24,-106.91 149.56,-116.86 170,-125 177.66,-128.05 185.88,-131.1 193.88,-133.95"/>
<polygon fill="#63b8ff" stroke="#63b8ff" points="109.93,-95.07 99.39,-94.03 106.98,-101.42 109.93,-95.07"/>
</a>
</g>
</g>
<!-- Node2 -->
<g id="Node000002" class="node">
<title>Node2</title>
<g id="a_Node000002"><a xlink:href="classATAS_1_1Indicators_1_1IndicatorSeries.html" target="_top" xlink:title="Represents a custom data series for an indicator, derived from BaseDataSeries&lt;decimal&gt;.">
<polygon fill="white" stroke="#666666" points="304,-116 176,-116 176,-86 304,-86 304,-116"/>
<text text-anchor="start" x="184" y="-104" font-family="Helvetica" font-size="10.00">ATAS.Indicators.Indicator</text>
<text text-anchor="middle" x="240" y="-93" font-family="Helvetica" font-size="10.00">Series</text>
</a>
</g>
</g>
<!-- Node0&#45;&gt;Node2 -->
<g id="edge190_Node000000_Node000002" class="edge">
<title>Node0&#45;&gt;Node2</title>
<g id="a_edge190_Node000000_Node000002"><a xlink:title=" ">
<path fill="none" stroke="#63b8ff" d="M144.18,-88.8C154.77,-90.16 165.56,-91.55 175.87,-92.88"/>
<polygon fill="#63b8ff" stroke="#63b8ff" points="144.48,-85.31 134.11,-87.51 143.58,-92.25 144.48,-85.31"/>
</a>
</g>
</g>
<!-- Node3 -->
<g id="Node000003" class="node">
<title>Node3</title>
<g id="a_Node000003"><a xlink:href="classATAS_1_1Indicators_1_1LineSeries.html" target="_top" xlink:title="Represents a horizontal line with a single value.">
<polygon fill="white" stroke="#666666" points="308.5,-67.5 171.5,-67.5 171.5,-48.5 308.5,-48.5 308.5,-67.5"/>
<text text-anchor="middle" x="240" y="-55.5" font-family="Helvetica" font-size="10.00">ATAS.Indicators.LineSeries</text>
</a>
</g>
</g>
<!-- Node0&#45;&gt;Node3 -->
<g id="edge191_Node000000_Node000003" class="edge">
<title>Node0&#45;&gt;Node3</title>
<g id="a_edge191_Node000000_Node000003"><a xlink:title=" ">
<path fill="none" stroke="#63b8ff" d="M144.24,-69.64C153.28,-68.53 162.46,-67.4 171.37,-66.31"/>
<polygon fill="#63b8ff" stroke="#63b8ff" points="143.61,-66.19 134.11,-70.88 144.47,-73.14 143.61,-66.19"/>
</a>
</g>
</g>
<!-- Node4 -->
<g id="Node000004" class="node">
<title>Node4</title>
<g id="a_Node000004"><a xlink:href="classATAS_1_1Indicators_1_1ValueDataSeries.html" target="_top" xlink:title="Represents a data series of decimal values, each element is a decimal.">
<polygon fill="white" stroke="#666666" points="307.5,-30 172.5,-30 172.5,0 307.5,0 307.5,-30"/>
<text text-anchor="start" x="180.5" y="-18" font-family="Helvetica" font-size="10.00">ATAS.Indicators.ValueData</text>
<text text-anchor="middle" x="240" y="-7" font-family="Helvetica" font-size="10.00">Series</text>
</a>
</g>
</g>
<!-- Node0&#45;&gt;Node4 -->
<g id="edge192_Node000000_Node000004" class="edge">
<title>Node0&#45;&gt;Node4</title>
<g id="a_edge192_Node000000_Node000004"><a xlink:title=" ">
<path fill="none" stroke="#63b8ff" d="M116.8,-60.14C133.64,-53.69 152.62,-46.47 170,-40 178.72,-36.75 188.07,-33.33 196.99,-30.09"/>
<polygon fill="#63b8ff" stroke="#63b8ff" points="115.25,-56.99 107.17,-63.84 117.76,-63.52 115.25,-56.99"/>
</a>
</g>
</g>
</g>
</svg>
