<?xml version="1.0" encoding="UTF-8" standalone="no"?>
<!DOCTYPE svg PUBLIC "-//W3C//DTD SVG 1.1//EN"
 "http://www.w3.org/Graphics/SVG/1.1/DTD/svg11.dtd">
<!-- Generated by graphviz version 2.44.0 (0)
 -->
<!-- Title: Graphical Class Hierarchy Pages: 1 -->
<svg width="299pt" height="130pt"
 viewBox="0.00 0.00 299.00 130.00" xmlns="http://www.w3.org/2000/svg" xmlns:xlink="http://www.w3.org/1999/xlink">
<g id="graph0" class="graph" transform="scale(1 1) rotate(0) translate(4 126)">
<title>Graphical Class Hierarchy</title>
<!-- Node0 -->
<g id="Node000000" class="node">
<title>Node0</title>
<g id="a_Node000000"><a xlink:title=" ">
<polygon fill="#e0e0e0" stroke="#999999" points="95,-70.5 0,-70.5 0,-51.5 95,-51.5 95,-70.5"/>
<text text-anchor="middle" x="47.5" y="-58.5" font-family="Helvetica" font-size="10.00">INotifyCompletion</text>
</a>
</g>
</g>
<!-- Node1 -->
<g id="Node000001" class="node">
<title>Node1</title>
<g id="a_Node000001"><a xlink:href="structATAS_1_1DataFeedsCore_1_1AsyncConnector_1_1SynchronizationContextAwaiter.html" target="_top" xlink:title="Custom awaiter to control continuation execution on the ConnectorSynchronizationContext">
<polygon fill="white" stroke="#666666" points="291,-122 131,-122 131,-70 291,-70 291,-122"/>
<text text-anchor="start" x="139" y="-110" font-family="Helvetica" font-size="10.00">ATAS.DataFeedsCore.Async</text>
<text text-anchor="start" x="139" y="-99" font-family="Helvetica" font-size="10.00">Connector&lt; TPortfolioKey,</text>
<text text-anchor="start" x="139" y="-88" font-family="Helvetica" font-size="10.00"> TSecurityKey &gt;.Synchronization</text>
<text text-anchor="middle" x="211" y="-77" font-family="Helvetica" font-size="10.00">ContextAwaiter</text>
</a>
</g>
</g>
<!-- Node0&#45;&gt;Node1 -->
<g id="edge252_Node000000_Node000001" class="edge">
<title>Node0&#45;&gt;Node1</title>
<g id="a_edge252_Node000000_Node000001"><a xlink:title=" ">
<path fill="none" stroke="#63b8ff" d="M102.63,-72.73C111.71,-74.7 121.28,-76.77 130.83,-78.84"/>
<polygon fill="#63b8ff" stroke="#63b8ff" points="103.15,-69.26 92.63,-70.56 101.66,-76.1 103.15,-69.26"/>
</a>
</g>
</g>
<!-- Node2 -->
<g id="Node000002" class="node">
<title>Node2</title>
<g id="a_Node000002"><a xlink:href="structATAS_1_1DataFeedsCore_1_1AsyncConnector_1_1SynchronizationContextQueueAwaiter.html" target="_top" xlink:title="Custom awaiter to control continuation execution on the ConnectorSynchronizationContext This awaiter ...">
<polygon fill="white" stroke="#666666" points="291,-52 131,-52 131,0 291,0 291,-52"/>
<text text-anchor="start" x="139" y="-40" font-family="Helvetica" font-size="10.00">ATAS.DataFeedsCore.Async</text>
<text text-anchor="start" x="139" y="-29" font-family="Helvetica" font-size="10.00">Connector&lt; TPortfolioKey,</text>
<text text-anchor="start" x="139" y="-18" font-family="Helvetica" font-size="10.00"> TSecurityKey &gt;.Synchronization</text>
<text text-anchor="middle" x="211" y="-7" font-family="Helvetica" font-size="10.00">ContextQueueAwaiter</text>
</a>
</g>
</g>
<!-- Node0&#45;&gt;Node2 -->
<g id="edge253_Node000000_Node000002" class="edge">
<title>Node0&#45;&gt;Node2</title>
<g id="a_edge253_Node000000_Node000002"><a xlink:title=" ">
<path fill="none" stroke="#63b8ff" d="M102.63,-49.27C111.71,-47.3 121.28,-45.23 130.83,-43.16"/>
<polygon fill="#63b8ff" stroke="#63b8ff" points="101.66,-45.9 92.63,-51.44 103.15,-52.74 101.66,-45.9"/>
</a>
</g>
</g>
</g>
</svg>
