<?xml version="1.0" encoding="UTF-8" standalone="no"?>
<!DOCTYPE svg PUBLIC "-//W3C//DTD SVG 1.1//EN"
 "http://www.w3.org/Graphics/SVG/1.1/DTD/svg11.dtd">
<!-- Generated by graphviz version 2.44.0 (0)
 -->
<!-- Title: ATAS.Strategies.ATM.IATMStrategy Pages: 1 -->
<svg width="999pt" height="157pt"
 viewBox="0.00 0.00 999.00 156.50" xmlns="http://www.w3.org/2000/svg" xmlns:xlink="http://www.w3.org/1999/xlink">
<g id="graph0" class="graph" transform="scale(1 1) rotate(0) translate(4 152.5)">
<title>ATAS.Strategies.ATM.IATMStrategy</title>
<!-- Node1 -->
<g id="Node000001" class="node">
<title>Node1</title>
<g id="a_Node000001"><a xlink:title=" ">
<polygon fill="#999999" stroke="#666666" points="425,-78.5 250,-78.5 250,-59.5 425,-59.5 425,-78.5"/>
<text text-anchor="middle" x="337.5" y="-66.5" font-family="Helvetica" font-size="10.00">ATAS.Strategies.ATM.IATMStrategy</text>
</a>
</g>
</g>
<!-- Node4 -->
<g id="Node000004" class="node">
<title>Node4</title>
<g id="a_Node000004"><a xlink:href="classATAS_1_1Strategies_1_1ATM_1_1ATMStrategy.html" target="_top" xlink:title=" ">
<polygon fill="white" stroke="#666666" points="633,-137 461,-137 461,-107 633,-107 633,-137"/>
<text text-anchor="start" x="469" y="-125" font-family="Helvetica" font-size="10.00">ATAS.Strategies.ATM.ATMStrategy</text>
<text text-anchor="middle" x="547" y="-114" font-family="Helvetica" font-size="10.00">&lt; TStrategy &gt;</text>
</a>
</g>
</g>
<!-- Node1&#45;&gt;Node4 -->
<g id="edge3_Node000001_Node000004" class="edge">
<title>Node1&#45;&gt;Node4</title>
<g id="a_edge3_Node000001_Node000004"><a xlink:title=" ">
<path fill="none" stroke="#63b8ff" d="M385.9,-81.11C415.96,-88.79 455.08,-98.78 487.13,-106.96"/>
<polygon fill="#63b8ff" stroke="#63b8ff" points="386.63,-77.68 376.08,-78.6 384.9,-84.46 386.63,-77.68"/>
</a>
</g>
</g>
<!-- Node6 -->
<g id="Node000006" class="node">
<title>Node6</title>
<g id="a_Node000006"><a xlink:href="interfaceATAS_1_1Strategies_1_1ATM_1_1IStopProfitStrategy.html" target="_top" xlink:title=" ">
<polygon fill="white" stroke="#666666" points="616,-84 478,-84 478,-54 616,-54 616,-84"/>
<text text-anchor="start" x="486" y="-72" font-family="Helvetica" font-size="10.00">ATAS.Strategies.ATM.IStop</text>
<text text-anchor="middle" x="547" y="-61" font-family="Helvetica" font-size="10.00">ProfitStrategy&lt; TSettings &gt;</text>
</a>
</g>
</g>
<!-- Node1&#45;&gt;Node6 -->
<g id="edge5_Node000001_Node000006" class="edge">
<title>Node1&#45;&gt;Node6</title>
<g id="a_edge5_Node000001_Node000006"><a xlink:title=" ">
<path fill="none" stroke="#63b8ff" d="M435.64,-69C449.9,-69 464.34,-69 477.85,-69"/>
<polygon fill="#63b8ff" stroke="#63b8ff" points="435.3,-65.5 425.3,-69 435.3,-72.5 435.3,-65.5"/>
</a>
</g>
</g>
<!-- Node8 -->
<g id="Node000008" class="node">
<title>Node8</title>
<g id="a_Node000008"><a xlink:href="interfaceATAS_1_1Strategies_1_1ATM_1_1ISupportCustomStopOrTake.html" target="_top" xlink:title=" ">
<polygon fill="white" stroke="#666666" points="623,-33 471,-33 471,-3 623,-3 623,-33"/>
<text text-anchor="start" x="479" y="-21" font-family="Helvetica" font-size="10.00">ATAS.Strategies.ATM.ISupport</text>
<text text-anchor="middle" x="547" y="-10" font-family="Helvetica" font-size="10.00">CustomStopOrTake</text>
</a>
</g>
</g>
<!-- Node1&#45;&gt;Node8 -->
<g id="edge7_Node000001_Node000008" class="edge">
<title>Node1&#45;&gt;Node8</title>
<g id="a_edge7_Node000001_Node000008"><a xlink:title=" ">
<path fill="none" stroke="#63b8ff" d="M387.46,-56.97C416.54,-49.82 453.69,-40.69 484.71,-33.06"/>
<polygon fill="#63b8ff" stroke="#63b8ff" points="386.4,-53.62 377.53,-59.41 388.08,-60.42 386.4,-53.62"/>
</a>
</g>
</g>
<!-- Node2 -->
<g id="Node000002" class="node">
<title>Node2</title>
<g id="a_Node000002"><a xlink:href="interfaceATAS_1_1Strategies_1_1IStrategy.html" target="_top" xlink:title="Represents a trading strategy.">
<polygon fill="white" stroke="#666666" points="214,-78.5 158,-78.5 158,-59.5 214,-59.5 214,-78.5"/>
<text text-anchor="middle" x="186" y="-66.5" font-family="Helvetica" font-size="10.00">IStrategy</text>
</a>
</g>
</g>
<!-- Node2&#45;&gt;Node1 -->
<g id="edge1_Node000001_Node000002" class="edge">
<title>Node2&#45;&gt;Node1</title>
<g id="a_edge1_Node000001_Node000002"><a xlink:title=" ">
<path fill="none" stroke="#63b8ff" d="M224.34,-69C232.25,-69 240.91,-69 249.8,-69"/>
<polygon fill="#63b8ff" stroke="#63b8ff" points="224.07,-65.5 214.07,-69 224.07,-72.5 224.07,-65.5"/>
</a>
</g>
</g>
<!-- Node3 -->
<g id="Node000003" class="node">
<title>Node3</title>
<g id="a_Node000003"><a xlink:title=" ">
<polygon fill="white" stroke="#666666" points="122,-78.5 0,-78.5 0,-59.5 122,-59.5 122,-78.5"/>
<text text-anchor="middle" x="61" y="-66.5" font-family="Helvetica" font-size="10.00">INotifyPropertyChanged</text>
</a>
</g>
</g>
<!-- Node3&#45;&gt;Node2 -->
<g id="edge2_Node000002_Node000003" class="edge">
<title>Node3&#45;&gt;Node2</title>
<g id="a_edge2_Node000002_Node000003"><a xlink:title=" ">
<path fill="none" stroke="#63b8ff" d="M132.34,-69C141.38,-69 150.17,-69 157.89,-69"/>
<polygon fill="#63b8ff" stroke="#63b8ff" points="132.06,-65.5 122.06,-69 132.06,-72.5 132.06,-65.5"/>
</a>
</g>
</g>
<!-- Node5 -->
<g id="Node000005" class="node">
<title>Node5</title>
<g id="a_Node000005"><a xlink:href="classATAS_1_1Strategies_1_1ATM_1_1BaseStopProfitStrategy.html" target="_top" xlink:title=" ">
<polygon fill="white" stroke="#666666" points="820,-148.5 669,-148.5 669,-107.5 820,-107.5 820,-148.5"/>
<text text-anchor="start" x="677" y="-136.5" font-family="Helvetica" font-size="10.00">ATAS.Strategies.ATM.Base</text>
<text text-anchor="start" x="677" y="-125.5" font-family="Helvetica" font-size="10.00">StopProfitStrategy&lt; TStrategy,</text>
<text text-anchor="middle" x="744.5" y="-114.5" font-family="Helvetica" font-size="10.00"> TSettings &gt;</text>
</a>
</g>
</g>
<!-- Node4&#45;&gt;Node5 -->
<g id="edge4_Node000004_Node000005" class="edge">
<title>Node4&#45;&gt;Node5</title>
<g id="a_edge4_Node000004_Node000005"><a xlink:title=" ">
<path fill="none" stroke="#63b8ff" d="M643.21,-124.92C651.77,-125.18 660.37,-125.45 668.72,-125.7"/>
<polygon fill="#63b8ff" stroke="#63b8ff" points="643.28,-121.42 633.18,-124.61 643.07,-128.42 643.28,-121.42"/>
</a>
</g>
</g>
<!-- Node7 -->
<g id="Node000007" class="node">
<title>Node7</title>
<g id="a_Node000007"><a xlink:href="classATAS_1_1Strategies_1_1ATM_1_1BaseStopProfitStrategy.html" target="_top" xlink:title=" ">
<polygon fill="white" stroke="#666666" points="820,-89.5 669,-89.5 669,-48.5 820,-48.5 820,-89.5"/>
<text text-anchor="start" x="677" y="-77.5" font-family="Helvetica" font-size="10.00">ATAS.Strategies.ATM.Base</text>
<text text-anchor="start" x="677" y="-66.5" font-family="Helvetica" font-size="10.00">StopProfitStrategy&lt; TStrategy,</text>
<text text-anchor="middle" x="744.5" y="-55.5" font-family="Helvetica" font-size="10.00"> TSettings &gt;</text>
</a>
</g>
</g>
<!-- Node6&#45;&gt;Node7 -->
<g id="edge6_Node000006_Node000007" class="edge">
<title>Node6&#45;&gt;Node7</title>
<g id="a_edge6_Node000006_Node000007"><a xlink:title=" ">
<path fill="none" stroke="#63b8ff" d="M626.25,-69C640.34,-69 654.99,-69 668.97,-69"/>
<polygon fill="#63b8ff" stroke="#63b8ff" points="626.1,-65.5 616.1,-69 626.1,-72.5 626.1,-65.5"/>
</a>
</g>
</g>
<!-- Node9 -->
<g id="Node000009" class="node">
<title>Node9</title>
<g id="a_Node000009"><a xlink:href="interfaceATAS_1_1Strategies_1_1ATM_1_1ISimpleStopProfitStrategy.html" target="_top" xlink:title=" ">
<polygon fill="white" stroke="#666666" points="818.5,-30 670.5,-30 670.5,0 818.5,0 818.5,-30"/>
<text text-anchor="start" x="678.5" y="-18" font-family="Helvetica" font-size="10.00">ATAS.Strategies.ATM.ISimple</text>
<text text-anchor="middle" x="744.5" y="-7" font-family="Helvetica" font-size="10.00">StopProfitStrategy</text>
</a>
</g>
</g>
<!-- Node8&#45;&gt;Node9 -->
<g id="edge8_Node000008_Node000009" class="edge">
<title>Node8&#45;&gt;Node9</title>
<g id="a_edge8_Node000008_Node000009"><a xlink:title=" ">
<path fill="none" stroke="#63b8ff" d="M633.3,-16.69C645.63,-16.5 658.22,-16.31 670.29,-16.12"/>
<polygon fill="#63b8ff" stroke="#63b8ff" points="632.97,-13.2 623.03,-16.85 633.08,-20.19 632.97,-13.2"/>
</a>
</g>
</g>
<!-- Node10 -->
<g id="Node000010" class="node">
<title>Node10</title>
<g id="a_Node000010"><a xlink:href="classATAS_1_1Strategies_1_1ATM_1_1StopProfit.html" target="_top" xlink:title=" ">
<polygon fill="white" stroke="#666666" points="991,-30 856,-30 856,0 991,0 991,-30"/>
<text text-anchor="start" x="864" y="-18" font-family="Helvetica" font-size="10.00">ATAS.Strategies.ATM.Stop</text>
<text text-anchor="middle" x="923.5" y="-7" font-family="Helvetica" font-size="10.00">Profit</text>
</a>
</g>
</g>
<!-- Node9&#45;&gt;Node10 -->
<g id="edge9_Node000009_Node000010" class="edge">
<title>Node9&#45;&gt;Node10</title>
<g id="a_edge9_Node000009_Node000010"><a xlink:title=" ">
<path fill="none" stroke="#63b8ff" d="M828.74,-15C837.85,-15 847.03,-15 855.9,-15"/>
<polygon fill="#63b8ff" stroke="#63b8ff" points="828.51,-11.5 818.51,-15 828.51,-18.5 828.51,-11.5"/>
</a>
</g>
</g>
</g>
</svg>
