<?xml version="1.0" encoding="UTF-8" standalone="no"?>
<!DOCTYPE svg PUBLIC "-//W3C//DTD SVG 1.1//EN"
 "http://www.w3.org/Graphics/SVG/1.1/DTD/svg11.dtd">
<!-- Generated by graphviz version 2.44.0 (0)
 -->
<!-- Title: ATAS.Strategies.ATM.IStopProfitStrategy&lt; TSettings &gt; Pages: 1 -->
<svg width="159pt" height="280pt"
 viewBox="0.00 0.00 159.00 280.00" xmlns="http://www.w3.org/2000/svg" xmlns:xlink="http://www.w3.org/1999/xlink">
<g id="graph0" class="graph" transform="scale(1 1) rotate(0) translate(4 276)">
<title>ATAS.Strategies.ATM.IStopProfitStrategy&lt; TSettings &gt;</title>
<!-- Node1 -->
<g id="Node000001" class="node">
<title>Node1</title>
<g id="a_Node000001"><a xlink:title=" ">
<polygon fill="#999999" stroke="#666666" points="144.5,-107 6.5,-107 6.5,-77 144.5,-77 144.5,-107"/>
<text text-anchor="start" x="14.5" y="-95" font-family="Helvetica" font-size="10.00">ATAS.Strategies.ATM.IStop</text>
<text text-anchor="middle" x="75.5" y="-84" font-family="Helvetica" font-size="10.00">ProfitStrategy&lt; TSettings &gt;</text>
</a>
</g>
</g>
<!-- Node5 -->
<g id="Node000005" class="node">
<title>Node5</title>
<g id="a_Node000005"><a xlink:href="classATAS_1_1Strategies_1_1ATM_1_1BaseStopProfitStrategy.html" target="_top" xlink:title=" ">
<polygon fill="white" stroke="#666666" points="151,-41 0,-41 0,0 151,0 151,-41"/>
<text text-anchor="start" x="8" y="-29" font-family="Helvetica" font-size="10.00">ATAS.Strategies.ATM.Base</text>
<text text-anchor="start" x="8" y="-18" font-family="Helvetica" font-size="10.00">StopProfitStrategy&lt; TStrategy,</text>
<text text-anchor="middle" x="75.5" y="-7" font-family="Helvetica" font-size="10.00"> TSettings &gt;</text>
</a>
</g>
</g>
<!-- Node1&#45;&gt;Node5 -->
<g id="edge4_Node000001_Node000005" class="edge">
<title>Node1&#45;&gt;Node5</title>
<g id="a_edge4_Node000001_Node000005"><a xlink:title=" ">
<path fill="none" stroke="#63b8ff" d="M75.5,-66.91C75.5,-58.47 75.5,-49.1 75.5,-41.07"/>
<polygon fill="#63b8ff" stroke="#63b8ff" points="72,-66.94 75.5,-76.94 79,-66.94 72,-66.94"/>
</a>
</g>
</g>
<!-- Node2 -->
<g id="Node000002" class="node">
<title>Node2</title>
<g id="a_Node000002"><a xlink:href="interfaceATAS_1_1Strategies_1_1ATM_1_1IATMStrategy.html" target="_top" xlink:title=" ">
<polygon fill="white" stroke="#666666" points="114,-162 37,-162 37,-143 114,-143 114,-162"/>
<text text-anchor="middle" x="75.5" y="-150" font-family="Helvetica" font-size="10.00">IATMStrategy</text>
</a>
</g>
</g>
<!-- Node2&#45;&gt;Node1 -->
<g id="edge1_Node000001_Node000002" class="edge">
<title>Node2&#45;&gt;Node1</title>
<g id="a_edge1_Node000001_Node000002"><a xlink:title=" ">
<path fill="none" stroke="#63b8ff" d="M75.5,-132.65C75.5,-124.36 75.5,-114.78 75.5,-107.11"/>
<polygon fill="#63b8ff" stroke="#63b8ff" points="72,-132.87 75.5,-142.87 79,-132.87 72,-132.87"/>
</a>
</g>
</g>
<!-- Node3 -->
<g id="Node000003" class="node">
<title>Node3</title>
<g id="a_Node000003"><a xlink:href="interfaceATAS_1_1Strategies_1_1IStrategy.html" target="_top" xlink:title="Represents a trading strategy.">
<polygon fill="white" stroke="#666666" points="103.5,-217 47.5,-217 47.5,-198 103.5,-198 103.5,-217"/>
<text text-anchor="middle" x="75.5" y="-205" font-family="Helvetica" font-size="10.00">IStrategy</text>
</a>
</g>
</g>
<!-- Node3&#45;&gt;Node2 -->
<g id="edge2_Node000002_Node000003" class="edge">
<title>Node3&#45;&gt;Node2</title>
<g id="a_edge2_Node000002_Node000003"><a xlink:title=" ">
<path fill="none" stroke="#63b8ff" d="M75.5,-187.66C75.5,-178.93 75.5,-168.99 75.5,-162.09"/>
<polygon fill="#63b8ff" stroke="#63b8ff" points="72,-187.75 75.5,-197.75 79,-187.75 72,-187.75"/>
</a>
</g>
</g>
<!-- Node4 -->
<g id="Node000004" class="node">
<title>Node4</title>
<g id="a_Node000004"><a xlink:title=" ">
<polygon fill="white" stroke="#666666" points="136.5,-272 14.5,-272 14.5,-253 136.5,-253 136.5,-272"/>
<text text-anchor="middle" x="75.5" y="-260" font-family="Helvetica" font-size="10.00">INotifyPropertyChanged</text>
</a>
</g>
</g>
<!-- Node4&#45;&gt;Node3 -->
<g id="edge3_Node000003_Node000004" class="edge">
<title>Node4&#45;&gt;Node3</title>
<g id="a_edge3_Node000003_Node000004"><a xlink:title=" ">
<path fill="none" stroke="#63b8ff" d="M75.5,-242.66C75.5,-233.93 75.5,-223.99 75.5,-217.09"/>
<polygon fill="#63b8ff" stroke="#63b8ff" points="72,-242.75 75.5,-252.75 79,-242.75 72,-242.75"/>
</a>
</g>
</g>
</g>
</svg>
