<?xml version="1.0" encoding="UTF-8" standalone="no"?>
<!DOCTYPE svg PUBLIC "-//W3C//DTD SVG 1.1//EN"
 "http://www.w3.org/Graphics/SVG/1.1/DTD/svg11.dtd">
<!-- Generated by graphviz version 2.44.0 (0)
 -->
<!-- Title: ATAS.Indicators.IFilter Pages: 1 -->
<svg width="633pt" height="107pt"
 viewBox="0.00 0.00 633.00 106.50" xmlns="http://www.w3.org/2000/svg" xmlns:xlink="http://www.w3.org/1999/xlink">
<g id="graph0" class="graph" transform="scale(1 1) rotate(0) translate(4 102.5)">
<title>ATAS.Indicators.IFilter</title>
<!-- Node1 -->
<g id="Node000001" class="node">
<title>Node1</title>
<g id="a_Node000001"><a xlink:title="Represents a filter with common properties and functionality.">
<polygon fill="#999999" stroke="#666666" points="274,-61.5 158,-61.5 158,-42.5 274,-42.5 274,-61.5"/>
<text text-anchor="middle" x="216" y="-49.5" font-family="Helvetica" font-size="10.00">ATAS.Indicators.IFilter</text>
</a>
</g>
</g>
<!-- Node4 -->
<g id="Node000004" class="node">
<title>Node4</title>
<g id="a_Node000004"><a xlink:href="classATAS_1_1Indicators_1_1FilterBase.html" target="_top" xlink:title="Base class for filters implementing the IFilter interface.">
<polygon fill="white" stroke="#666666" points="448,-98.5 313,-98.5 313,-79.5 448,-79.5 448,-98.5"/>
<text text-anchor="middle" x="380.5" y="-86.5" font-family="Helvetica" font-size="10.00">ATAS.Indicators.FilterBase</text>
</a>
</g>
</g>
<!-- Node1&#45;&gt;Node4 -->
<g id="edge3_Node000001_Node000004" class="edge">
<title>Node1&#45;&gt;Node4</title>
<g id="a_edge3_Node000001_Node000004"><a xlink:title=" ">
<path fill="none" stroke="#63b8ff" d="M268.77,-63.79C290.96,-68.84 316.53,-74.66 337.51,-79.44"/>
<polygon fill="#63b8ff" stroke="#63b8ff" points="269.38,-60.34 258.85,-61.53 267.82,-67.16 269.38,-60.34"/>
</a>
</g>
</g>
<!-- Node6 -->
<g id="Node000006" class="node">
<title>Node6</title>
<g id="a_Node000006"><a xlink:href="interfaceATAS_1_1Indicators_1_1IFilterEnum.html" target="_top" xlink:title=" ">
<polygon fill="white" stroke="#666666" points="451,-24.5 310,-24.5 310,-5.5 451,-5.5 451,-24.5"/>
<text text-anchor="middle" x="380.5" y="-12.5" font-family="Helvetica" font-size="10.00">ATAS.Indicators.IFilterEnum</text>
</a>
</g>
</g>
<!-- Node1&#45;&gt;Node6 -->
<g id="edge5_Node000001_Node000006" class="edge">
<title>Node1&#45;&gt;Node6</title>
<g id="a_edge5_Node000001_Node000006"><a xlink:title=" ">
<path fill="none" stroke="#63b8ff" d="M268.77,-40.21C290.96,-35.16 316.53,-29.34 337.51,-24.56"/>
<polygon fill="#63b8ff" stroke="#63b8ff" points="267.82,-36.84 258.85,-42.47 269.38,-43.66 267.82,-36.84"/>
</a>
</g>
</g>
<!-- Node8 -->
<g id="Node000008" class="node">
<title>Node8</title>
<g id="a_Node000008"><a xlink:href="interfaceATAS_1_1Indicators_1_1IFilterValue.html" target="_top" xlink:title="Represents a filter with a flexible value that can hold data of any type. Inherits the properties of ...">
<polygon fill="white" stroke="#666666" points="450.5,-61.5 310.5,-61.5 310.5,-42.5 450.5,-42.5 450.5,-61.5"/>
<text text-anchor="middle" x="380.5" y="-49.5" font-family="Helvetica" font-size="10.00">ATAS.Indicators.IFilterValue</text>
</a>
</g>
</g>
<!-- Node1&#45;&gt;Node8 -->
<g id="edge7_Node000001_Node000008" class="edge">
<title>Node1&#45;&gt;Node8</title>
<g id="a_edge7_Node000001_Node000008"><a xlink:title=" ">
<path fill="none" stroke="#63b8ff" d="M284.31,-52C292.95,-52 301.8,-52 310.47,-52"/>
<polygon fill="#63b8ff" stroke="#63b8ff" points="284.29,-48.5 274.29,-52 284.29,-55.5 284.29,-48.5"/>
</a>
</g>
</g>
<!-- Node2 -->
<g id="Node000002" class="node">
<title>Node2</title>
<g id="a_Node000002"><a xlink:title=" ">
<polygon fill="white" stroke="#666666" points="122,-80.5 0,-80.5 0,-61.5 122,-61.5 122,-80.5"/>
<text text-anchor="middle" x="61" y="-68.5" font-family="Helvetica" font-size="10.00">INotifyPropertyChanged</text>
</a>
</g>
</g>
<!-- Node2&#45;&gt;Node1 -->
<g id="edge1_Node000001_Node000002" class="edge">
<title>Node2&#45;&gt;Node1</title>
<g id="a_edge1_Node000001_Node000002"><a xlink:title=" ">
<path fill="none" stroke="#63b8ff" d="M132.02,-62.3C140.6,-61.24 149.28,-60.16 157.64,-59.12"/>
<polygon fill="#63b8ff" stroke="#63b8ff" points="131.52,-58.84 122.03,-63.55 132.39,-65.79 131.52,-58.84"/>
</a>
</g>
</g>
<!-- Node3 -->
<g id="Node000003" class="node">
<title>Node3</title>
<g id="a_Node000003"><a xlink:title=" ">
<polygon fill="white" stroke="#666666" points="92.5,-43.5 29.5,-43.5 29.5,-24.5 92.5,-24.5 92.5,-43.5"/>
<text text-anchor="middle" x="61" y="-31.5" font-family="Helvetica" font-size="10.00">ICloneable</text>
</a>
</g>
</g>
<!-- Node3&#45;&gt;Node1 -->
<g id="edge2_Node000001_Node000003" class="edge">
<title>Node3&#45;&gt;Node1</title>
<g id="a_edge2_Node000001_Node000003"><a xlink:title=" ">
<path fill="none" stroke="#63b8ff" d="M102.69,-38.79C119.59,-40.78 139.51,-43.12 157.84,-45.27"/>
<polygon fill="#63b8ff" stroke="#63b8ff" points="102.93,-35.29 92.59,-37.6 102.12,-42.24 102.93,-35.29"/>
</a>
</g>
</g>
<!-- Node5 -->
<g id="Node000005" class="node">
<title>Node5</title>
<g id="a_Node000005"><a xlink:href="classATAS_1_1Indicators_1_1Filter.html" target="_top" xlink:title="Generic filter class that implements the IFilterValue interface.">
<polygon fill="white" stroke="#666666" points="612.5,-91 499.5,-91 499.5,-61 612.5,-61 612.5,-91"/>
<text text-anchor="start" x="507.5" y="-79" font-family="Helvetica" font-size="10.00">ATAS.Indicators.Filter</text>
<text text-anchor="middle" x="556" y="-68" font-family="Helvetica" font-size="10.00">&lt; TValue &gt;</text>
</a>
</g>
</g>
<!-- Node4&#45;&gt;Node5 -->
<g id="edge4_Node000004_Node000005" class="edge">
<title>Node4&#45;&gt;Node5</title>
<g id="a_edge4_Node000004_Node000005"><a xlink:title=" ">
<path fill="none" stroke="#63b8ff" d="M458.1,-83.26C471.96,-82.22 486.18,-81.16 499.31,-80.17"/>
<polygon fill="#63b8ff" stroke="#63b8ff" points="457.79,-79.77 448.08,-84.01 458.32,-86.75 457.79,-79.77"/>
</a>
</g>
</g>
<!-- Node7 -->
<g id="Node000007" class="node">
<title>Node7</title>
<g id="a_Node000007"><a xlink:href="classATAS_1_1Indicators_1_1FilterEnum.html" target="_top" xlink:title=" ">
<polygon fill="white" stroke="#666666" points="625,-30 487,-30 487,0 625,0 625,-30"/>
<text text-anchor="start" x="495" y="-18" font-family="Helvetica" font-size="10.00">ATAS.Indicators.FilterEnum</text>
<text text-anchor="middle" x="556" y="-7" font-family="Helvetica" font-size="10.00">&lt; TEnum &gt;</text>
</a>
</g>
</g>
<!-- Node6&#45;&gt;Node7 -->
<g id="edge6_Node000006_Node000007" class="edge">
<title>Node6&#45;&gt;Node7</title>
<g id="a_edge6_Node000006_Node000007"><a xlink:title=" ">
<path fill="none" stroke="#63b8ff" d="M461.1,-15C469.69,-15 478.38,-15 486.83,-15"/>
<polygon fill="#63b8ff" stroke="#63b8ff" points="461.07,-11.5 451.07,-15 461.07,-18.5 461.07,-11.5"/>
</a>
</g>
</g>
<!-- Node8&#45;&gt;Node5 -->
<g id="edge8_Node000008_Node000005" class="edge">
<title>Node8&#45;&gt;Node5</title>
<g id="a_edge8_Node000008_Node000005"><a xlink:title=" ">
<path fill="none" stroke="#63b8ff" d="M460.5,-62.93C473.58,-64.74 486.89,-66.58 499.24,-68.29"/>
<polygon fill="#63b8ff" stroke="#63b8ff" points="460.96,-59.46 450.57,-61.55 460,-66.39 460.96,-59.46"/>
</a>
</g>
</g>
</g>
</svg>
