<?xml version="1.0" encoding="UTF-8" standalone="no"?>
<!DOCTYPE svg PUBLIC "-//W3C//DTD SVG 1.1//EN"
 "http://www.w3.org/Graphics/SVG/1.1/DTD/svg11.dtd">
<!-- Generated by graphviz version 2.44.0 (0)
 -->
<!-- Title: ATAS.Indicators.INotifyPanelPropertyChanged Pages: 1 -->
<svg width="1043pt" height="126pt"
 viewBox="0.00 0.00 1043.00 126.00" xmlns="http://www.w3.org/2000/svg" xmlns:xlink="http://www.w3.org/1999/xlink">
<g id="graph0" class="graph" transform="scale(1 1) rotate(0) translate(4 122)">
<title>ATAS.Indicators.INotifyPanelPropertyChanged</title>
<!-- Node1 -->
<g id="Node000001" class="node">
<title>Node1</title>
<g id="a_Node000001"><a xlink:title="Notifies clients that a panel property value has changed.">
<polygon fill="#999999" stroke="#666666" points="145,-75 0,-75 0,-45 145,-45 145,-75"/>
<text text-anchor="start" x="8" y="-63" font-family="Helvetica" font-size="10.00">ATAS.Indicators.INotifyPanel</text>
<text text-anchor="middle" x="72.5" y="-52" font-family="Helvetica" font-size="10.00">PropertyChanged</text>
</a>
</g>
</g>
<!-- Node2 -->
<g id="Node000002" class="node">
<title>Node2</title>
<g id="a_Node000002"><a xlink:href="interfaceATAS_1_1Indicators_1_1IDataSeries.html" target="_top" xlink:title=" ">
<polygon fill="white" stroke="#666666" points="335,-118 193,-118 193,-88 335,-88 335,-118"/>
<text text-anchor="start" x="201" y="-106" font-family="Helvetica" font-size="10.00">ATAS.Indicators.IDataSeries</text>
<text text-anchor="middle" x="264" y="-95" font-family="Helvetica" font-size="10.00">&lt; decimal &gt;</text>
</a>
</g>
</g>
<!-- Node1&#45;&gt;Node2 -->
<g id="edge1_Node000001_Node000002" class="edge">
<title>Node1&#45;&gt;Node2</title>
<g id="a_edge1_Node000001_Node000002"><a xlink:title=" ">
<path fill="none" stroke="#63b8ff" d="M149.87,-77.33C165.4,-80.85 181.61,-84.53 196.76,-87.97"/>
<polygon fill="#63b8ff" stroke="#63b8ff" points="150.3,-73.84 139.78,-75.04 148.76,-80.67 150.3,-73.84"/>
</a>
</g>
</g>
<!-- Node3 -->
<g id="Node000003" class="node">
<title>Node3</title>
<g id="a_Node000003"><a xlink:href="classATAS_1_1Indicators_1_1BaseIndicator.html" target="_top" xlink:title="Base class for custom indicators in a chart.">
<polygon fill="white" stroke="#666666" points="339.5,-69.5 188.5,-69.5 188.5,-50.5 339.5,-50.5 339.5,-69.5"/>
<text text-anchor="middle" x="264" y="-57.5" font-family="Helvetica" font-size="10.00">ATAS.Indicators.BaseIndicator</text>
</a>
</g>
</g>
<!-- Node1&#45;&gt;Node3 -->
<g id="edge2_Node000001_Node000003" class="edge">
<title>Node1&#45;&gt;Node3</title>
<g id="a_edge2_Node000001_Node000003"><a xlink:title=" ">
<path fill="none" stroke="#63b8ff" d="M155.19,-60C166.23,-60 177.51,-60 188.42,-60"/>
<polygon fill="#63b8ff" stroke="#63b8ff" points="155.14,-56.5 145.14,-60 155.14,-63.5 155.14,-56.5"/>
</a>
</g>
</g>
<!-- Node8 -->
<g id="Node000008" class="node">
<title>Node8</title>
<g id="a_Node000008"><a xlink:href="interfaceATAS_1_1Indicators_1_1IDataSeries.html" target="_top" xlink:title="Interface for data series, providing essential properties and methods.">
<polygon fill="white" stroke="#666666" points="347,-29.5 181,-29.5 181,-10.5 347,-10.5 347,-29.5"/>
<text text-anchor="middle" x="264" y="-17.5" font-family="Helvetica" font-size="10.00">ATAS.Indicators.IDataSeries&lt; T &gt;</text>
</a>
</g>
</g>
<!-- Node1&#45;&gt;Node8 -->
<g id="edge7_Node000001_Node000008" class="edge">
<title>Node1&#45;&gt;Node8</title>
<g id="a_edge7_Node000001_Node000008"><a xlink:title=" ">
<path fill="none" stroke="#63b8ff" d="M154.5,-42.9C176.22,-38.32 198.93,-33.52 217.92,-29.51"/>
<polygon fill="#63b8ff" stroke="#63b8ff" points="153.66,-39.5 144.6,-44.99 155.11,-46.35 153.66,-39.5"/>
</a>
</g>
</g>
<!-- Node4 -->
<g id="Node000004" class="node">
<title>Node4</title>
<g id="a_Node000004"><a xlink:href="classATAS_1_1Indicators_1_1ExtendedIndicator.html" target="_top" xlink:title="An extended base class for custom indicators that provide additional functionality for drawing,...">
<polygon fill="white" stroke="#666666" points="516,-78 384,-78 384,-48 516,-48 516,-78"/>
<text text-anchor="start" x="392" y="-66" font-family="Helvetica" font-size="10.00">ATAS.Indicators.Extended</text>
<text text-anchor="middle" x="450" y="-55" font-family="Helvetica" font-size="10.00">Indicator</text>
</a>
</g>
</g>
<!-- Node3&#45;&gt;Node4 -->
<g id="edge3_Node000003_Node000004" class="edge">
<title>Node3&#45;&gt;Node4</title>
<g id="a_edge3_Node000003_Node000004"><a xlink:title=" ">
<path fill="none" stroke="#63b8ff" d="M349.6,-61.38C361.08,-61.57 372.72,-61.76 383.78,-61.94"/>
<polygon fill="#63b8ff" stroke="#63b8ff" points="349.63,-57.88 339.57,-61.22 349.52,-64.88 349.63,-57.88"/>
</a>
</g>
</g>
<!-- Node5 -->
<g id="Node000005" class="node">
<title>Node5</title>
<g id="a_Node000005"><a xlink:href="classATAS_1_1Indicators_1_1Indicator.html" target="_top" xlink:title="Base class for custom indicators.">
<polygon fill="white" stroke="#666666" points="681,-72.5 553,-72.5 553,-53.5 681,-53.5 681,-72.5"/>
<text text-anchor="middle" x="617" y="-60.5" font-family="Helvetica" font-size="10.00">ATAS.Indicators.Indicator</text>
</a>
</g>
</g>
<!-- Node4&#45;&gt;Node5 -->
<g id="edge4_Node000004_Node000005" class="edge">
<title>Node4&#45;&gt;Node5</title>
<g id="a_edge4_Node000004_Node000005"><a xlink:title=" ">
<path fill="none" stroke="#63b8ff" d="M526.5,-63C535.32,-63 544.25,-63 552.88,-63"/>
<polygon fill="#63b8ff" stroke="#63b8ff" points="526.21,-59.5 516.21,-63 526.21,-66.5 526.21,-59.5"/>
</a>
</g>
</g>
<!-- Node6 -->
<g id="Node000006" class="node">
<title>Node6</title>
<g id="a_Node000006"><a xlink:href="classATAS_1_1Strategies_1_1Chart_1_1ChartStrategy.html" target="_top" xlink:title="Represents an abstract class for a chart strategy that extends the functionality of an Indicator and ...">
<polygon fill="white" stroke="#666666" points="860,-78 717,-78 717,-48 860,-48 860,-78"/>
<text text-anchor="start" x="725" y="-66" font-family="Helvetica" font-size="10.00">ATAS.Strategies.Chart.Chart</text>
<text text-anchor="middle" x="788.5" y="-55" font-family="Helvetica" font-size="10.00">Strategy</text>
</a>
</g>
</g>
<!-- Node5&#45;&gt;Node6 -->
<g id="edge5_Node000005_Node000006" class="edge">
<title>Node5&#45;&gt;Node6</title>
<g id="a_edge5_Node000005_Node000006"><a xlink:title=" ">
<path fill="none" stroke="#63b8ff" d="M691.36,-63C699.84,-63 708.48,-63 716.92,-63"/>
<polygon fill="#63b8ff" stroke="#63b8ff" points="691.12,-59.5 681.12,-63 691.12,-66.5 691.12,-59.5"/>
</a>
</g>
</g>
<!-- Node7 -->
<g id="Node000007" class="node">
<title>Node7</title>
<g id="a_Node000007"><a xlink:href="classATAS_1_1Strategies_1_1Chart_1_1SmaChartStrategy.html" target="_top" xlink:title=" ">
<polygon fill="white" stroke="#666666" points="1035,-78 896,-78 896,-48 1035,-48 1035,-78"/>
<text text-anchor="start" x="904" y="-66" font-family="Helvetica" font-size="10.00">ATAS.Strategies.Chart.Sma</text>
<text text-anchor="middle" x="965.5" y="-55" font-family="Helvetica" font-size="10.00">ChartStrategy</text>
</a>
</g>
</g>
<!-- Node6&#45;&gt;Node7 -->
<g id="edge6_Node000006_Node000007" class="edge">
<title>Node6&#45;&gt;Node7</title>
<g id="a_edge6_Node000006_Node000007"><a xlink:title=" ">
<path fill="none" stroke="#63b8ff" d="M870.18,-63C878.75,-63 887.42,-63 895.83,-63"/>
<polygon fill="#63b8ff" stroke="#63b8ff" points="870.17,-59.5 860.17,-63 870.17,-66.5 870.17,-59.5"/>
</a>
</g>
</g>
<!-- Node9 -->
<g id="Node000009" class="node">
<title>Node9</title>
<g id="a_Node000009"><a xlink:href="classATAS_1_1Indicators_1_1BaseDataSeries.html" target="_top" xlink:title="Base generic data series class providing common functionality.">
<polygon fill="white" stroke="#666666" points="517,-30 383,-30 383,0 517,0 517,-30"/>
<text text-anchor="start" x="391" y="-18" font-family="Helvetica" font-size="10.00">ATAS.Indicators.BaseData</text>
<text text-anchor="middle" x="450" y="-7" font-family="Helvetica" font-size="10.00">Series&lt; T &gt;</text>
</a>
</g>
</g>
<!-- Node8&#45;&gt;Node9 -->
<g id="edge8_Node000008_Node000009" class="edge">
<title>Node8&#45;&gt;Node9</title>
<g id="a_edge8_Node000008_Node000009"><a xlink:title=" ">
<path fill="none" stroke="#63b8ff" d="M357.19,-17.49C365.84,-17.26 374.5,-17.02 382.84,-16.8"/>
<polygon fill="#63b8ff" stroke="#63b8ff" points="356.95,-14 347.04,-17.77 357.14,-21 356.95,-14"/>
</a>
</g>
</g>
</g>
</svg>
