<?xml version="1.0" encoding="UTF-8" standalone="no"?>
<!DOCTYPE svg PUBLIC "-//W3C//DTD SVG 1.1//EN"
 "http://www.w3.org/Graphics/SVG/1.1/DTD/svg11.dtd">
<!-- Generated by graphviz version 2.44.0 (0)
 -->
<!-- Title: ATAS.DataFeedsCore.ILiquidationFeed Pages: 1 -->
<svg width="195pt" height="137pt"
 viewBox="0.00 0.00 195.00 137.00" xmlns="http://www.w3.org/2000/svg" xmlns:xlink="http://www.w3.org/1999/xlink">
<g id="graph0" class="graph" transform="scale(1 1) rotate(0) translate(4 133)">
<title>ATAS.DataFeedsCore.ILiquidationFeed</title>
<!-- Node1 -->
<g id="Node000001" class="node">
<title>Node1</title>
<g id="a_Node000001"><a xlink:title="Provides liquidation orders stream for securities.">
<polygon fill="#999999" stroke="#666666" points="187,-19 0,-19 0,0 187,0 187,-19"/>
<text text-anchor="middle" x="93.5" y="-7" font-family="Helvetica" font-size="10.00">ATAS.DataFeedsCore.ILiquidationFeed</text>
</a>
</g>
</g>
<!-- Node2 -->
<g id="Node000002" class="node">
<title>Node2</title>
<g id="a_Node000002"><a xlink:href="interfaceATAS_1_1DataFeedsCore_1_1IDataFeedConnector.html" target="_top" xlink:title=" ">
<polygon fill="white" stroke="#666666" points="147,-74 40,-74 40,-55 147,-55 147,-74"/>
<text text-anchor="middle" x="93.5" y="-62" font-family="Helvetica" font-size="10.00">IDataFeedConnector</text>
</a>
</g>
</g>
<!-- Node2&#45;&gt;Node1 -->
<g id="edge1_Node000001_Node000002" class="edge">
<title>Node2&#45;&gt;Node1</title>
<g id="a_edge1_Node000001_Node000002"><a xlink:title=" ">
<path fill="none" stroke="#63b8ff" d="M93.5,-44.66C93.5,-35.93 93.5,-25.99 93.5,-19.09"/>
<polygon fill="#63b8ff" stroke="#63b8ff" points="90,-44.75 93.5,-54.75 97,-44.75 90,-44.75"/>
</a>
</g>
</g>
<!-- Node3 -->
<g id="Node000003" class="node">
<title>Node3</title>
<g id="a_Node000003"><a xlink:title=" ">
<polygon fill="white" stroke="#666666" points="133.5,-129 53.5,-129 53.5,-110 133.5,-110 133.5,-129"/>
<text text-anchor="middle" x="93.5" y="-117" font-family="Helvetica" font-size="10.00">ILoggerSource</text>
</a>
</g>
</g>
<!-- Node3&#45;&gt;Node2 -->
<g id="edge2_Node000002_Node000003" class="edge">
<title>Node3&#45;&gt;Node2</title>
<g id="a_edge2_Node000002_Node000003"><a xlink:title=" ">
<path fill="none" stroke="#63b8ff" d="M93.5,-99.66C93.5,-90.93 93.5,-80.99 93.5,-74.09"/>
<polygon fill="#63b8ff" stroke="#63b8ff" points="90,-99.75 93.5,-109.75 97,-99.75 90,-99.75"/>
</a>
</g>
</g>
</g>
</svg>
