<?xml version="1.0" encoding="UTF-8" standalone="no"?>
<!DOCTYPE svg PUBLIC "-//W3C//DTD SVG 1.1//EN"
 "http://www.w3.org/Graphics/SVG/1.1/DTD/svg11.dtd">
<!-- Generated by graphviz version 2.44.0 (0)
 -->
<!-- Title: ATAS.Indicators.IFilterValue Pages: 1 -->
<svg width="212pt" height="203pt"
 viewBox="0.00 0.00 211.50 203.00" xmlns="http://www.w3.org/2000/svg" xmlns:xlink="http://www.w3.org/1999/xlink">
<g id="graph0" class="graph" transform="scale(1 1) rotate(0) translate(4 199)">
<title>ATAS.Indicators.IFilterValue</title>
<!-- Node1 -->
<g id="Node000001" class="node">
<title>Node1</title>
<g id="a_Node000001"><a xlink:title="Represents a filter with a flexible value that can hold data of any type. Inherits the properties of ...">
<polygon fill="#999999" stroke="#666666" points="186,-85 46,-85 46,-66 186,-66 186,-85"/>
<text text-anchor="middle" x="116" y="-73" font-family="Helvetica" font-size="10.00">ATAS.Indicators.IFilterValue</text>
</a>
</g>
</g>
<!-- Node5 -->
<g id="Node000005" class="node">
<title>Node5</title>
<g id="a_Node000005"><a xlink:href="classATAS_1_1Indicators_1_1Filter.html" target="_top" xlink:title="Generic filter class that implements the IFilterValue interface.">
<polygon fill="white" stroke="#666666" points="172.5,-30 59.5,-30 59.5,0 172.5,0 172.5,-30"/>
<text text-anchor="start" x="67.5" y="-18" font-family="Helvetica" font-size="10.00">ATAS.Indicators.Filter</text>
<text text-anchor="middle" x="116" y="-7" font-family="Helvetica" font-size="10.00">&lt; TValue &gt;</text>
</a>
</g>
</g>
<!-- Node1&#45;&gt;Node5 -->
<g id="edge4_Node000001_Node000005" class="edge">
<title>Node1&#45;&gt;Node5</title>
<g id="a_edge4_Node000001_Node000005"><a xlink:title=" ">
<path fill="none" stroke="#63b8ff" d="M116,-55.65C116,-47.36 116,-37.78 116,-30.11"/>
<polygon fill="#63b8ff" stroke="#63b8ff" points="112.5,-55.87 116,-65.87 119.5,-55.87 112.5,-55.87"/>
</a>
</g>
</g>
<!-- Node2 -->
<g id="Node000002" class="node">
<title>Node2</title>
<g id="a_Node000002"><a xlink:href="interfaceATAS_1_1Indicators_1_1IFilter.html" target="_top" xlink:title="Represents a filter with common properties and functionality.">
<polygon fill="white" stroke="#666666" points="136.5,-140 95.5,-140 95.5,-121 136.5,-121 136.5,-140"/>
<text text-anchor="middle" x="116" y="-128" font-family="Helvetica" font-size="10.00">IFilter</text>
</a>
</g>
</g>
<!-- Node2&#45;&gt;Node1 -->
<g id="edge1_Node000001_Node000002" class="edge">
<title>Node2&#45;&gt;Node1</title>
<g id="a_edge1_Node000001_Node000002"><a xlink:title=" ">
<path fill="none" stroke="#63b8ff" d="M116,-110.66C116,-101.93 116,-91.99 116,-85.09"/>
<polygon fill="#63b8ff" stroke="#63b8ff" points="112.5,-110.75 116,-120.75 119.5,-110.75 112.5,-110.75"/>
</a>
</g>
</g>
<!-- Node3 -->
<g id="Node000003" class="node">
<title>Node3</title>
<g id="a_Node000003"><a xlink:title=" ">
<polygon fill="white" stroke="#666666" points="122,-195 0,-195 0,-176 122,-176 122,-195"/>
<text text-anchor="middle" x="61" y="-183" font-family="Helvetica" font-size="10.00">INotifyPropertyChanged</text>
</a>
</g>
</g>
<!-- Node3&#45;&gt;Node2 -->
<g id="edge2_Node000002_Node000003" class="edge">
<title>Node3&#45;&gt;Node2</title>
<g id="a_edge2_Node000002_Node000003"><a xlink:title=" ">
<path fill="none" stroke="#63b8ff" d="M77.29,-168.8C87.04,-159.41 99.05,-147.83 107.09,-140.09"/>
<polygon fill="#63b8ff" stroke="#63b8ff" points="74.85,-166.29 70.08,-175.75 79.71,-171.33 74.85,-166.29"/>
</a>
</g>
</g>
<!-- Node4 -->
<g id="Node000004" class="node">
<title>Node4</title>
<g id="a_Node000004"><a xlink:title=" ">
<polygon fill="white" stroke="#666666" points="203.5,-195 140.5,-195 140.5,-176 203.5,-176 203.5,-195"/>
<text text-anchor="middle" x="172" y="-183" font-family="Helvetica" font-size="10.00">ICloneable</text>
</a>
</g>
</g>
<!-- Node4&#45;&gt;Node2 -->
<g id="edge3_Node000002_Node000004" class="edge">
<title>Node4&#45;&gt;Node2</title>
<g id="a_edge3_Node000002_Node000004"><a xlink:title=" ">
<path fill="none" stroke="#63b8ff" d="M155.67,-169.04C145.74,-159.64 133.41,-147.98 125.16,-140.17"/>
<polygon fill="#63b8ff" stroke="#63b8ff" points="153.33,-171.65 163,-175.98 158.15,-166.57 153.33,-171.65"/>
</a>
</g>
</g>
</g>
</svg>
