<?xml version="1.0" encoding="UTF-8" standalone="no"?>
<!DOCTYPE svg PUBLIC "-//W3C//DTD SVG 1.1//EN"
 "http://www.w3.org/Graphics/SVG/1.1/DTD/svg11.dtd">
<!-- Generated by graphviz version 2.44.0 (0)
 -->
<!-- Title: ATAS.Indicators.IContainer Pages: 1 -->
<svg width="341pt" height="150pt"
 viewBox="0.00 0.00 341.00 149.50" xmlns="http://www.w3.org/2000/svg" xmlns:xlink="http://www.w3.org/1999/xlink">
<g id="graph0" class="graph" transform="scale(1 1) rotate(0) translate(4 145.5)">
<title>ATAS.Indicators.IContainer</title>
<!-- Node1 -->
<g id="Node000001" class="node">
<title>Node1</title>
<g id="a_Node000001"><a xlink:title="Interface for defining a container that represents a rectangular region.">
<polygon fill="#999999" stroke="#666666" points="136,-85.5 0,-85.5 0,-66.5 136,-66.5 136,-85.5"/>
<text text-anchor="middle" x="68" y="-73.5" font-family="Helvetica" font-size="10.00">ATAS.Indicators.IContainer</text>
</a>
</g>
</g>
<!-- Node2 -->
<g id="Node000002" class="node">
<title>Node2</title>
<g id="a_Node000002"><a xlink:href="classATAS_1_1Indicators_1_1Container.html" target="_top" xlink:title="Represents a container with a defined region on the chart.">
<polygon fill="white" stroke="#666666" points="319,-141.5 186,-141.5 186,-122.5 319,-122.5 319,-141.5"/>
<text text-anchor="middle" x="252.5" y="-129.5" font-family="Helvetica" font-size="10.00">ATAS.Indicators.Container</text>
</a>
</g>
</g>
<!-- Node1&#45;&gt;Node2 -->
<g id="edge1_Node000001_Node000002" class="edge">
<title>Node1&#45;&gt;Node2</title>
<g id="a_edge1_Node000001_Node000002"><a xlink:title=" ">
<path fill="none" stroke="#63b8ff" d="M101.74,-89.33C121.8,-97.18 148.13,-106.93 172,-114 182.45,-117.1 193.8,-119.96 204.57,-122.45"/>
<polygon fill="#63b8ff" stroke="#63b8ff" points="103.02,-86.07 92.43,-85.64 100.44,-92.58 103.02,-86.07"/>
</a>
</g>
</g>
<!-- Node3 -->
<g id="Node000003" class="node">
<title>Node3</title>
<g id="a_Node000003"><a xlink:href="interfaceATAS_1_1Indicators_1_1IChart.html" target="_top" xlink:title="Interface for a chart containing various chart&#45;related information and methods.">
<polygon fill="white" stroke="#666666" points="312,-104.5 193,-104.5 193,-85.5 312,-85.5 312,-104.5"/>
<text text-anchor="middle" x="252.5" y="-92.5" font-family="Helvetica" font-size="10.00">ATAS.Indicators.IChart</text>
</a>
</g>
</g>
<!-- Node1&#45;&gt;Node3 -->
<g id="edge2_Node000001_Node000003" class="edge">
<title>Node1&#45;&gt;Node3</title>
<g id="a_edge2_Node000001_Node000003"><a xlink:title=" ">
<path fill="none" stroke="#63b8ff" d="M146.32,-84.05C161.91,-85.67 178.06,-87.35 192.88,-88.9"/>
<polygon fill="#63b8ff" stroke="#63b8ff" points="146.49,-80.55 136.18,-82.99 145.76,-87.51 146.49,-80.55"/>
</a>
</g>
</g>
<!-- Node4 -->
<g id="Node000004" class="node">
<title>Node4</title>
<g id="a_Node000004"><a xlink:href="interfaceATAS_1_1Indicators_1_1IChartContainer.html" target="_top" xlink:title="Interface for a chart container that holds chart&#45;related information and methods.">
<polygon fill="white" stroke="#666666" points="333,-67.5 172,-67.5 172,-48.5 333,-48.5 333,-67.5"/>
<text text-anchor="middle" x="252.5" y="-55.5" font-family="Helvetica" font-size="10.00">ATAS.Indicators.IChartContainer</text>
</a>
</g>
</g>
<!-- Node1&#45;&gt;Node4 -->
<g id="edge3_Node000001_Node000004" class="edge">
<title>Node1&#45;&gt;Node4</title>
<g id="a_edge3_Node000001_Node000004"><a xlink:title=" ">
<path fill="none" stroke="#63b8ff" d="M146.35,-68.37C154.76,-67.54 163.34,-66.69 171.79,-65.86"/>
<polygon fill="#63b8ff" stroke="#63b8ff" points="145.79,-64.91 136.18,-69.37 146.47,-71.88 145.79,-64.91"/>
</a>
</g>
</g>
<!-- Node5 -->
<g id="Node000005" class="node">
<title>Node5</title>
<g id="a_Node000005"><a xlink:href="interfaceATAS_1_1Indicators_1_1IIndicatorContainer.html" target="_top" xlink:title="Interface for an indicator container that holds indicator&#45;related information and methods.">
<polygon fill="white" stroke="#666666" points="318,-30 187,-30 187,0 318,0 318,-30"/>
<text text-anchor="start" x="195" y="-18" font-family="Helvetica" font-size="10.00">ATAS.Indicators.IIndicator</text>
<text text-anchor="middle" x="252.5" y="-7" font-family="Helvetica" font-size="10.00">Container</text>
</a>
</g>
</g>
<!-- Node1&#45;&gt;Node5 -->
<g id="edge4_Node000001_Node000005" class="edge">
<title>Node1&#45;&gt;Node5</title>
<g id="a_edge4_Node000001_Node000005"><a xlink:title=" ">
<path fill="none" stroke="#63b8ff" d="M105.11,-63.07C124.83,-56.08 149.7,-47.4 172,-40 181.89,-36.72 192.5,-33.31 202.65,-30.09"/>
<polygon fill="#63b8ff" stroke="#63b8ff" points="103.85,-59.8 95.6,-66.44 106.19,-66.4 103.85,-59.8"/>
</a>
</g>
</g>
</g>
</svg>
