<?xml version="1.0" encoding="UTF-8" standalone="no"?>
<!DOCTYPE svg PUBLIC "-//W3C//DTD SVG 1.1//EN"
 "http://www.w3.org/Graphics/SVG/1.1/DTD/svg11.dtd">
<!-- Generated by graphviz version 2.44.0 (0)
 -->
<!-- Title: OFT.Core.IConnectorSettings Pages: 1 -->
<svg width="610pt" height="204pt"
 viewBox="0.00 0.00 610.00 204.00" xmlns="http://www.w3.org/2000/svg" xmlns:xlink="http://www.w3.org/1999/xlink">
<g id="graph0" class="graph" transform="scale(1 1) rotate(0) translate(4 200)">
<title>OFT.Core.IConnectorSettings</title>
<!-- Node1 -->
<g id="Node000001" class="node">
<title>Node1</title>
<g id="a_Node000001"><a xlink:title=" ">
<polygon fill="#999999" stroke="#666666" points="146,-96.5 0,-96.5 0,-77.5 146,-77.5 146,-96.5"/>
<text text-anchor="middle" x="73" y="-84.5" font-family="Helvetica" font-size="10.00">OFT.Core.IConnectorSettings</text>
</a>
</g>
</g>
<!-- Node2 -->
<g id="Node000002" class="node">
<title>Node2</title>
<g id="a_Node000002"><a xlink:href="classOFT_1_1Core_1_1BaseConnectorSettings.html" target="_top" xlink:title=" ">
<polygon fill="white" stroke="#666666" points="372,-163.5 182,-163.5 182,-144.5 372,-144.5 372,-163.5"/>
<text text-anchor="middle" x="277" y="-151.5" font-family="Helvetica" font-size="10.00">OFT.Core.BaseConnectorSettings&lt; T &gt;</text>
</a>
</g>
</g>
<!-- Node1&#45;&gt;Node2 -->
<g id="edge1_Node000001_Node000002" class="edge">
<title>Node1&#45;&gt;Node2</title>
<g id="a_edge1_Node000001_Node000002"><a xlink:title=" ">
<path fill="none" stroke="#63b8ff" d="M101.4,-101.19C122.85,-111.79 153.69,-125.97 182,-135 193.58,-138.69 206.2,-141.83 218.32,-144.42"/>
<polygon fill="#63b8ff" stroke="#63b8ff" points="102.75,-97.95 92.25,-96.59 99.62,-104.21 102.75,-97.95"/>
</a>
</g>
</g>
<!-- Node5 -->
<g id="Node000005" class="node">
<title>Node5</title>
<g id="a_Node000005"><a xlink:href="interfaceOFT_1_1Core_1_1IConnectorSettingsSupportInitialization.html" target="_top" xlink:title=" ">
<polygon fill="white" stroke="#666666" points="350,-126 204,-126 204,-96 350,-96 350,-126"/>
<text text-anchor="start" x="212" y="-114" font-family="Helvetica" font-size="10.00">OFT.Core.IConnectorSettings</text>
<text text-anchor="middle" x="277" y="-103" font-family="Helvetica" font-size="10.00">SupportInitialization</text>
</a>
</g>
</g>
<!-- Node1&#45;&gt;Node5 -->
<g id="edge4_Node000001_Node000005" class="edge">
<title>Node1&#45;&gt;Node5</title>
<g id="a_edge4_Node000001_Node000005"><a xlink:title=" ">
<path fill="none" stroke="#63b8ff" d="M156.33,-96.78C172.12,-98.66 188.53,-100.61 203.96,-102.44"/>
<polygon fill="#63b8ff" stroke="#63b8ff" points="156.41,-93.27 146.07,-95.56 155.59,-100.22 156.41,-93.27"/>
</a>
</g>
</g>
<!-- Node6 -->
<g id="Node000006" class="node">
<title>Node6</title>
<g id="a_Node000006"><a xlink:href="interfaceOFT_1_1Core_1_1ILoginPasswordConnectorSettings.html" target="_top" xlink:title=" ">
<polygon fill="white" stroke="#666666" points="365,-78 189,-78 189,-48 365,-48 365,-78"/>
<text text-anchor="start" x="197" y="-66" font-family="Helvetica" font-size="10.00">OFT.Core.ILoginPasswordConnector</text>
<text text-anchor="middle" x="277" y="-55" font-family="Helvetica" font-size="10.00">Settings</text>
</a>
</g>
</g>
<!-- Node1&#45;&gt;Node6 -->
<g id="edge5_Node000001_Node000006" class="edge">
<title>Node1&#45;&gt;Node6</title>
<g id="a_edge5_Node000001_Node000006"><a xlink:title=" ">
<path fill="none" stroke="#63b8ff" d="M156.24,-77.23C166.95,-75.96 177.96,-74.65 188.75,-73.37"/>
<polygon fill="#63b8ff" stroke="#63b8ff" points="155.59,-73.78 146.07,-78.44 156.41,-80.73 155.59,-73.78"/>
</a>
</g>
</g>
<!-- Node7 -->
<g id="Node000007" class="node">
<title>Node7</title>
<g id="a_Node000007"><a xlink:href="interfaceOFT_1_1Core_1_1ITypedConnectorSettings.html" target="_top" xlink:title=" ">
<polygon fill="white" stroke="#666666" points="345,-30 209,-30 209,0 345,0 345,-30"/>
<text text-anchor="start" x="217" y="-18" font-family="Helvetica" font-size="10.00">OFT.Core.ITypedConnector</text>
<text text-anchor="middle" x="277" y="-7" font-family="Helvetica" font-size="10.00">Settings</text>
</a>
</g>
</g>
<!-- Node1&#45;&gt;Node7 -->
<g id="edge6_Node000001_Node000007" class="edge">
<title>Node1&#45;&gt;Node7</title>
<g id="a_edge6_Node000001_Node000007"><a xlink:title=" ">
<path fill="none" stroke="#63b8ff" d="M102.31,-72.84C123.79,-62.49 154.26,-48.63 182,-39 191.31,-35.77 201.27,-32.76 211.1,-30.04"/>
<polygon fill="#63b8ff" stroke="#63b8ff" points="100.57,-69.8 93.11,-77.32 103.64,-76.09 100.57,-69.8"/>
</a>
</g>
</g>
<!-- Node3 -->
<g id="Node000003" class="node">
<title>Node3</title>
<g id="a_Node000003"><a xlink:href="classATAS_1_1DataFeedsCore_1_1BaseMarketDataOnlyConnectorSettings.html" target="_top" xlink:title=" ">
<polygon fill="white" stroke="#666666" points="589,-196 421,-196 421,-166 589,-166 589,-196"/>
<text text-anchor="start" x="429" y="-184" font-family="Helvetica" font-size="10.00">ATAS.DataFeedsCore.BaseMarket</text>
<text text-anchor="middle" x="505" y="-173" font-family="Helvetica" font-size="10.00">DataOnlyConnectorSettings&lt; T &gt;</text>
</a>
</g>
</g>
<!-- Node2&#45;&gt;Node3 -->
<g id="edge2_Node000002_Node000003" class="edge">
<title>Node2&#45;&gt;Node3</title>
<g id="a_edge2_Node000002_Node000003"><a xlink:title=" ">
<path fill="none" stroke="#63b8ff" d="M367.87,-164.74C385.34,-166.82 403.59,-169 420.83,-171.06"/>
<polygon fill="#63b8ff" stroke="#63b8ff" points="368.02,-161.23 357.68,-163.52 367.19,-168.18 368.02,-161.23"/>
</a>
</g>
</g>
<!-- Node4 -->
<g id="Node000004" class="node">
<title>Node4</title>
<g id="a_Node000004"><a xlink:href="classATAS_1_1DataFeedsCore_1_1BasketConnectorSettings.html" target="_top" xlink:title=" ">
<polygon fill="white" stroke="#666666" points="602,-147.5 408,-147.5 408,-106.5 602,-106.5 602,-147.5"/>
<text text-anchor="start" x="416" y="-135.5" font-family="Helvetica" font-size="10.00">ATAS.DataFeedsCore.Basket</text>
<text text-anchor="start" x="416" y="-124.5" font-family="Helvetica" font-size="10.00">ConnectorSettings&lt; TDataFeedSettings,</text>
<text text-anchor="middle" x="505" y="-113.5" font-family="Helvetica" font-size="10.00"> TTradingSettings &gt;</text>
</a>
</g>
</g>
<!-- Node2&#45;&gt;Node4 -->
<g id="edge3_Node000002_Node000004" class="edge">
<title>Node2&#45;&gt;Node4</title>
<g id="a_edge3_Node000002_Node000004"><a xlink:title=" ">
<path fill="none" stroke="#63b8ff" d="M367.7,-143.28C380.94,-141.7 394.63,-140.07 407.99,-138.47"/>
<polygon fill="#63b8ff" stroke="#63b8ff" points="367.19,-139.82 357.68,-144.48 368.02,-146.77 367.19,-139.82"/>
</a>
</g>
</g>
</g>
</svg>
