<?xml version="1.0" encoding="UTF-8" standalone="no"?>
<!DOCTYPE svg PUBLIC "-//W3C//DTD SVG 1.1//EN"
 "http://www.w3.org/Graphics/SVG/1.1/DTD/svg11.dtd">
<!-- Generated by graphviz version 2.44.0 (0)
 -->
<!-- Title: ATAS.Indicators.IFilterValue Pages: 1 -->
<svg width="212pt" height="137pt"
 viewBox="0.00 0.00 211.50 137.00" xmlns="http://www.w3.org/2000/svg" xmlns:xlink="http://www.w3.org/1999/xlink">
<g id="graph0" class="graph" transform="scale(1 1) rotate(0) translate(4 133)">
<title>ATAS.Indicators.IFilterValue</title>
<!-- Node1 -->
<g id="Node000001" class="node">
<title>Node1</title>
<g id="a_Node000001"><a xlink:title="Represents a filter with a flexible value that can hold data of any type. Inherits the properties of ...">
<polygon fill="#999999" stroke="#666666" points="186,-19 46,-19 46,0 186,0 186,-19"/>
<text text-anchor="middle" x="116" y="-7" font-family="Helvetica" font-size="10.00">ATAS.Indicators.IFilterValue</text>
</a>
</g>
</g>
<!-- Node2 -->
<g id="Node000002" class="node">
<title>Node2</title>
<g id="a_Node000002"><a xlink:href="interfaceATAS_1_1Indicators_1_1IFilter.html" target="_top" xlink:title="Represents a filter with common properties and functionality.">
<polygon fill="white" stroke="#666666" points="136.5,-74 95.5,-74 95.5,-55 136.5,-55 136.5,-74"/>
<text text-anchor="middle" x="116" y="-62" font-family="Helvetica" font-size="10.00">IFilter</text>
</a>
</g>
</g>
<!-- Node2&#45;&gt;Node1 -->
<g id="edge1_Node000001_Node000002" class="edge">
<title>Node2&#45;&gt;Node1</title>
<g id="a_edge1_Node000001_Node000002"><a xlink:title=" ">
<path fill="none" stroke="#63b8ff" d="M116,-44.66C116,-35.93 116,-25.99 116,-19.09"/>
<polygon fill="#63b8ff" stroke="#63b8ff" points="112.5,-44.75 116,-54.75 119.5,-44.75 112.5,-44.75"/>
</a>
</g>
</g>
<!-- Node3 -->
<g id="Node000003" class="node">
<title>Node3</title>
<g id="a_Node000003"><a xlink:title=" ">
<polygon fill="white" stroke="#666666" points="122,-129 0,-129 0,-110 122,-110 122,-129"/>
<text text-anchor="middle" x="61" y="-117" font-family="Helvetica" font-size="10.00">INotifyPropertyChanged</text>
</a>
</g>
</g>
<!-- Node3&#45;&gt;Node2 -->
<g id="edge2_Node000002_Node000003" class="edge">
<title>Node3&#45;&gt;Node2</title>
<g id="a_edge2_Node000002_Node000003"><a xlink:title=" ">
<path fill="none" stroke="#63b8ff" d="M77.29,-102.8C87.04,-93.41 99.05,-81.83 107.09,-74.09"/>
<polygon fill="#63b8ff" stroke="#63b8ff" points="74.85,-100.29 70.08,-109.75 79.71,-105.33 74.85,-100.29"/>
</a>
</g>
</g>
<!-- Node4 -->
<g id="Node000004" class="node">
<title>Node4</title>
<g id="a_Node000004"><a xlink:title=" ">
<polygon fill="white" stroke="#666666" points="203.5,-129 140.5,-129 140.5,-110 203.5,-110 203.5,-129"/>
<text text-anchor="middle" x="172" y="-117" font-family="Helvetica" font-size="10.00">ICloneable</text>
</a>
</g>
</g>
<!-- Node4&#45;&gt;Node2 -->
<g id="edge3_Node000002_Node000004" class="edge">
<title>Node4&#45;&gt;Node2</title>
<g id="a_edge3_Node000002_Node000004"><a xlink:title=" ">
<path fill="none" stroke="#63b8ff" d="M155.67,-103.04C145.74,-93.64 133.41,-81.98 125.16,-74.17"/>
<polygon fill="#63b8ff" stroke="#63b8ff" points="153.33,-105.65 163,-109.98 158.15,-100.57 153.33,-105.65"/>
</a>
</g>
</g>
</g>
</svg>
