<?xml version="1.0" encoding="UTF-8" standalone="no"?>
<!DOCTYPE svg PUBLIC "-//W3C//DTD SVG 1.1//EN"
 "http://www.w3.org/Graphics/SVG/1.1/DTD/svg11.dtd">
<!-- Generated by graphviz version 2.44.0 (0)
 -->
<!-- Title: ATAS.Indicators.IMarketTimeProvider Pages: 1 -->
<svg width="306pt" height="291pt"
 viewBox="0.00 0.00 305.50 291.00" xmlns="http://www.w3.org/2000/svg" xmlns:xlink="http://www.w3.org/1999/xlink">
<g id="graph0" class="graph" transform="scale(1 1) rotate(0) translate(4 287)">
<title>ATAS.Indicators.IMarketTimeProvider</title>
<!-- Node1 -->
<g id="Node000001" class="node">
<title>Node1</title>
<g id="a_Node000001"><a xlink:title=" ">
<polygon fill="#999999" stroke="#666666" points="221.5,-283 75.5,-283 75.5,-253 221.5,-253 221.5,-283"/>
<text text-anchor="start" x="83.5" y="-271" font-family="Helvetica" font-size="10.00">ATAS.Indicators.IMarketTime</text>
<text text-anchor="middle" x="148.5" y="-260" font-family="Helvetica" font-size="10.00">Provider</text>
</a>
</g>
</g>
<!-- Node2 -->
<g id="Node000002" class="node">
<title>Node2</title>
<g id="a_Node000002"><a xlink:href="classATAS_1_1Indicators_1_1ExtendedIndicator.html" target="_top" xlink:title="An extended base class for custom indicators that provide additional functionality for drawing,...">
<polygon fill="white" stroke="#666666" points="137.5,-217 5.5,-217 5.5,-187 137.5,-187 137.5,-217"/>
<text text-anchor="start" x="13.5" y="-205" font-family="Helvetica" font-size="10.00">ATAS.Indicators.Extended</text>
<text text-anchor="middle" x="71.5" y="-194" font-family="Helvetica" font-size="10.00">Indicator</text>
</a>
</g>
</g>
<!-- Node1&#45;&gt;Node2 -->
<g id="edge1_Node000001_Node000002" class="edge">
<title>Node1&#45;&gt;Node2</title>
<g id="a_edge1_Node000001_Node000002"><a xlink:title=" ">
<path fill="none" stroke="#63b8ff" d="M123.48,-246.2C112.05,-236.7 98.8,-225.69 88.54,-217.16"/>
<polygon fill="#63b8ff" stroke="#63b8ff" points="121.48,-249.1 131.41,-252.8 125.96,-243.71 121.48,-249.1"/>
</a>
</g>
</g>
<!-- Node6 -->
<g id="Node000006" class="node">
<title>Node6</title>
<g id="a_Node000006"><a xlink:href="interfaceATAS_1_1Indicators_1_1IOnlineDataProvider.html" target="_top" xlink:title="Interface for an online data provider that provides access to real&#45;time market data.">
<polygon fill="white" stroke="#666666" points="297.5,-217 155.5,-217 155.5,-187 297.5,-187 297.5,-217"/>
<text text-anchor="start" x="163.5" y="-205" font-family="Helvetica" font-size="10.00">ATAS.Indicators.IOnlineData</text>
<text text-anchor="middle" x="226.5" y="-194" font-family="Helvetica" font-size="10.00">Provider</text>
</a>
</g>
</g>
<!-- Node1&#45;&gt;Node6 -->
<g id="edge5_Node000001_Node000006" class="edge">
<title>Node1&#45;&gt;Node6</title>
<g id="a_edge5_Node000001_Node000006"><a xlink:title=" ">
<path fill="none" stroke="#63b8ff" d="M173.85,-246.2C185.43,-236.7 198.85,-225.69 209.24,-217.16"/>
<polygon fill="#63b8ff" stroke="#63b8ff" points="171.32,-243.75 165.81,-252.8 175.76,-249.16 171.32,-243.75"/>
</a>
</g>
</g>
<!-- Node3 -->
<g id="Node000003" class="node">
<title>Node3</title>
<g id="a_Node000003"><a xlink:href="classATAS_1_1Indicators_1_1Indicator.html" target="_top" xlink:title="Base class for custom indicators.">
<polygon fill="white" stroke="#666666" points="135.5,-151 7.5,-151 7.5,-132 135.5,-132 135.5,-151"/>
<text text-anchor="middle" x="71.5" y="-139" font-family="Helvetica" font-size="10.00">ATAS.Indicators.Indicator</text>
</a>
</g>
</g>
<!-- Node2&#45;&gt;Node3 -->
<g id="edge2_Node000002_Node000003" class="edge">
<title>Node2&#45;&gt;Node3</title>
<g id="a_edge2_Node000002_Node000003"><a xlink:title=" ">
<path fill="none" stroke="#63b8ff" d="M71.5,-176.75C71.5,-167.72 71.5,-158.03 71.5,-151.27"/>
<polygon fill="#63b8ff" stroke="#63b8ff" points="68,-176.84 71.5,-186.84 75,-176.84 68,-176.84"/>
</a>
</g>
</g>
<!-- Node4 -->
<g id="Node000004" class="node">
<title>Node4</title>
<g id="a_Node000004"><a xlink:href="classATAS_1_1Strategies_1_1Chart_1_1ChartStrategy.html" target="_top" xlink:title="Represents an abstract class for a chart strategy that extends the functionality of an Indicator and ...">
<polygon fill="white" stroke="#666666" points="143,-96 0,-96 0,-66 143,-66 143,-96"/>
<text text-anchor="start" x="8" y="-84" font-family="Helvetica" font-size="10.00">ATAS.Strategies.Chart.Chart</text>
<text text-anchor="middle" x="71.5" y="-73" font-family="Helvetica" font-size="10.00">Strategy</text>
</a>
</g>
</g>
<!-- Node3&#45;&gt;Node4 -->
<g id="edge3_Node000003_Node000004" class="edge">
<title>Node3&#45;&gt;Node4</title>
<g id="a_edge3_Node000003_Node000004"><a xlink:title=" ">
<path fill="none" stroke="#63b8ff" d="M71.5,-121.65C71.5,-113.36 71.5,-103.78 71.5,-96.11"/>
<polygon fill="#63b8ff" stroke="#63b8ff" points="68,-121.87 71.5,-131.87 75,-121.87 68,-121.87"/>
</a>
</g>
</g>
<!-- Node5 -->
<g id="Node000005" class="node">
<title>Node5</title>
<g id="a_Node000005"><a xlink:href="classATAS_1_1Strategies_1_1Chart_1_1SmaChartStrategy.html" target="_top" xlink:title=" ">
<polygon fill="white" stroke="#666666" points="141,-30 2,-30 2,0 141,0 141,-30"/>
<text text-anchor="start" x="10" y="-18" font-family="Helvetica" font-size="10.00">ATAS.Strategies.Chart.Sma</text>
<text text-anchor="middle" x="71.5" y="-7" font-family="Helvetica" font-size="10.00">ChartStrategy</text>
</a>
</g>
</g>
<!-- Node4&#45;&gt;Node5 -->
<g id="edge4_Node000004_Node000005" class="edge">
<title>Node4&#45;&gt;Node5</title>
<g id="a_edge4_Node000004_Node000005"><a xlink:title=" ">
<path fill="none" stroke="#63b8ff" d="M71.5,-55.54C71.5,-46.96 71.5,-37.61 71.5,-30.16"/>
<polygon fill="#63b8ff" stroke="#63b8ff" points="68,-55.8 71.5,-65.8 75,-55.8 68,-55.8"/>
</a>
</g>
</g>
</g>
</svg>
