<?xml version="1.0" encoding="UTF-8" standalone="no"?>
<!DOCTYPE svg PUBLIC "-//W3C//DTD SVG 1.1//EN"
 "http://www.w3.org/Graphics/SVG/1.1/DTD/svg11.dtd">
<!-- Generated by graphviz version 2.44.0 (0)
 -->
<!-- Title: ATAS.Indicators.IMarketByOrdersWithTradesCache Pages: 1 -->
<svg width="294pt" height="104pt"
 viewBox="0.00 0.00 293.50 104.00" xmlns="http://www.w3.org/2000/svg" xmlns:xlink="http://www.w3.org/1999/xlink">
<g id="graph0" class="graph" transform="scale(1 1) rotate(0) translate(4 100)">
<title>ATAS.Indicators.IMarketByOrdersWithTradesCache</title>
<!-- Node1 -->
<g id="Node000001" class="node">
<title>Node1</title>
<g id="a_Node000001"><a xlink:title="Interface for manager that provides access to market by orders and trades cache.">
<polygon fill="#999999" stroke="#666666" points="203.5,-30 67.5,-30 67.5,0 203.5,0 203.5,-30"/>
<text text-anchor="start" x="75.5" y="-18" font-family="Helvetica" font-size="10.00">ATAS.Indicators.IMarketBy</text>
<text text-anchor="middle" x="135.5" y="-7" font-family="Helvetica" font-size="10.00">OrdersWithTradesCache</text>
</a>
</g>
</g>
<!-- Node2 -->
<g id="Node000002" class="node">
<title>Node2</title>
<g id="a_Node000002"><a xlink:href="interfaceATAS_1_1Indicators_1_1ITimeMarketDataCache.html" target="_top" xlink:title=" ">
<polygon fill="white" stroke="#666666" points="119,-96 0,-96 0,-66 119,-66 119,-96"/>
<text text-anchor="start" x="8" y="-84" font-family="Helvetica" font-size="10.00">ITimeMarketDataCache</text>
<text text-anchor="middle" x="59.5" y="-73" font-family="Helvetica" font-size="10.00">&lt; IEntity &gt;</text>
</a>
</g>
</g>
<!-- Node2&#45;&gt;Node1 -->
<g id="edge1_Node000001_Node000002" class="edge">
<title>Node2&#45;&gt;Node1</title>
<g id="a_edge1_Node000001_Node000002"><a xlink:title=" ">
<path fill="none" stroke="#63b8ff" d="M84.2,-59.2C95.48,-49.7 108.55,-38.69 118.68,-30.16"/>
<polygon fill="#63b8ff" stroke="#63b8ff" points="81.76,-56.68 76.37,-65.8 86.27,-62.03 81.76,-56.68"/>
</a>
</g>
</g>
<!-- Node3 -->
<g id="Node000003" class="node">
<title>Node3</title>
<g id="a_Node000003"><a xlink:href="interfaceATAS_1_1Indicators_1_1IMarketByOrdersDataProvider.html" target="_top" xlink:title="Interface for manager that provides access to market by order data.">
<polygon fill="white" stroke="#666666" points="285.5,-90.5 137.5,-90.5 137.5,-71.5 285.5,-71.5 285.5,-90.5"/>
<text text-anchor="middle" x="211.5" y="-78.5" font-family="Helvetica" font-size="10.00">IMarketByOrdersDataProvider</text>
</a>
</g>
</g>
<!-- Node3&#45;&gt;Node1 -->
<g id="edge2_Node000001_Node000003" class="edge">
<title>Node3&#45;&gt;Node1</title>
<g id="a_edge2_Node000001_Node000003"><a xlink:title=" ">
<path fill="none" stroke="#63b8ff" d="M193.35,-64.71C180.87,-54.21 164.43,-40.36 152.26,-30.12"/>
<polygon fill="#63b8ff" stroke="#63b8ff" points="191.35,-67.6 201.25,-71.37 195.86,-62.25 191.35,-67.6"/>
</a>
</g>
</g>
</g>
</svg>
