<?xml version="1.0" encoding="UTF-8" standalone="no"?>
<!DOCTYPE svg PUBLIC "-//W3C//DTD SVG 1.1//EN"
 "http://www.w3.org/Graphics/SVG/1.1/DTD/svg11.dtd">
<!-- Generated by graphviz version 2.44.0 (0)
 -->
<!-- Title: ATAS.Strategies.Chart.IChartStrategy Pages: 1 -->
<svg width="154pt" height="280pt"
 viewBox="0.00 0.00 154.00 280.00" xmlns="http://www.w3.org/2000/svg" xmlns:xlink="http://www.w3.org/1999/xlink">
<g id="graph0" class="graph" transform="scale(1 1) rotate(0) translate(4 276)">
<title>ATAS.Strategies.Chart.IChartStrategy</title>
<!-- Node1 -->
<g id="Node000001" class="node">
<title>Node1</title>
<g id="a_Node000001"><a xlink:title="Represents a chart strategy that extends the basic functionality of an IStrategy with additional char...">
<polygon fill="#999999" stroke="#666666" points="146,-162 0,-162 0,-132 146,-132 146,-162"/>
<text text-anchor="start" x="8" y="-150" font-family="Helvetica" font-size="10.00">ATAS.Strategies.Chart.IChart</text>
<text text-anchor="middle" x="73" y="-139" font-family="Helvetica" font-size="10.00">Strategy</text>
</a>
</g>
</g>
<!-- Node4 -->
<g id="Node000004" class="node">
<title>Node4</title>
<g id="a_Node000004"><a xlink:href="classATAS_1_1Strategies_1_1Chart_1_1ChartStrategy.html" target="_top" xlink:title="Represents an abstract class for a chart strategy that extends the functionality of an Indicator and ...">
<polygon fill="white" stroke="#666666" points="144.5,-96 1.5,-96 1.5,-66 144.5,-66 144.5,-96"/>
<text text-anchor="start" x="9.5" y="-84" font-family="Helvetica" font-size="10.00">ATAS.Strategies.Chart.Chart</text>
<text text-anchor="middle" x="73" y="-73" font-family="Helvetica" font-size="10.00">Strategy</text>
</a>
</g>
</g>
<!-- Node1&#45;&gt;Node4 -->
<g id="edge3_Node000001_Node000004" class="edge">
<title>Node1&#45;&gt;Node4</title>
<g id="a_edge3_Node000001_Node000004"><a xlink:title=" ">
<path fill="none" stroke="#63b8ff" d="M73,-121.54C73,-112.96 73,-103.61 73,-96.16"/>
<polygon fill="#63b8ff" stroke="#63b8ff" points="69.5,-121.8 73,-131.8 76.5,-121.8 69.5,-121.8"/>
</a>
</g>
</g>
<!-- Node2 -->
<g id="Node000002" class="node">
<title>Node2</title>
<g id="a_Node000002"><a xlink:href="interfaceATAS_1_1Strategies_1_1IStrategy.html" target="_top" xlink:title="Represents a trading strategy.">
<polygon fill="white" stroke="#666666" points="101,-217 45,-217 45,-198 101,-198 101,-217"/>
<text text-anchor="middle" x="73" y="-205" font-family="Helvetica" font-size="10.00">IStrategy</text>
</a>
</g>
</g>
<!-- Node2&#45;&gt;Node1 -->
<g id="edge1_Node000001_Node000002" class="edge">
<title>Node2&#45;&gt;Node1</title>
<g id="a_edge1_Node000001_Node000002"><a xlink:title=" ">
<path fill="none" stroke="#63b8ff" d="M73,-187.65C73,-179.36 73,-169.78 73,-162.11"/>
<polygon fill="#63b8ff" stroke="#63b8ff" points="69.5,-187.87 73,-197.87 76.5,-187.87 69.5,-187.87"/>
</a>
</g>
</g>
<!-- Node3 -->
<g id="Node000003" class="node">
<title>Node3</title>
<g id="a_Node000003"><a xlink:title=" ">
<polygon fill="white" stroke="#666666" points="134,-272 12,-272 12,-253 134,-253 134,-272"/>
<text text-anchor="middle" x="73" y="-260" font-family="Helvetica" font-size="10.00">INotifyPropertyChanged</text>
</a>
</g>
</g>
<!-- Node3&#45;&gt;Node2 -->
<g id="edge2_Node000002_Node000003" class="edge">
<title>Node3&#45;&gt;Node2</title>
<g id="a_edge2_Node000002_Node000003"><a xlink:title=" ">
<path fill="none" stroke="#63b8ff" d="M73,-242.66C73,-233.93 73,-223.99 73,-217.09"/>
<polygon fill="#63b8ff" stroke="#63b8ff" points="69.5,-242.75 73,-252.75 76.5,-242.75 69.5,-242.75"/>
</a>
</g>
</g>
<!-- Node5 -->
<g id="Node000005" class="node">
<title>Node5</title>
<g id="a_Node000005"><a xlink:href="classATAS_1_1Strategies_1_1Chart_1_1SmaChartStrategy.html" target="_top" xlink:title=" ">
<polygon fill="white" stroke="#666666" points="142.5,-30 3.5,-30 3.5,0 142.5,0 142.5,-30"/>
<text text-anchor="start" x="11.5" y="-18" font-family="Helvetica" font-size="10.00">ATAS.Strategies.Chart.Sma</text>
<text text-anchor="middle" x="73" y="-7" font-family="Helvetica" font-size="10.00">ChartStrategy</text>
</a>
</g>
</g>
<!-- Node4&#45;&gt;Node5 -->
<g id="edge4_Node000004_Node000005" class="edge">
<title>Node4&#45;&gt;Node5</title>
<g id="a_edge4_Node000004_Node000005"><a xlink:title=" ">
<path fill="none" stroke="#63b8ff" d="M73,-55.54C73,-46.96 73,-37.61 73,-30.16"/>
<polygon fill="#63b8ff" stroke="#63b8ff" points="69.5,-55.8 73,-65.8 76.5,-55.8 69.5,-55.8"/>
</a>
</g>
</g>
</g>
</svg>
