<?xml version="1.0" encoding="UTF-8" standalone="no"?>
<!DOCTYPE svg PUBLIC "-//W3C//DTD SVG 1.1//EN"
 "http://www.w3.org/Graphics/SVG/1.1/DTD/svg11.dtd">
<!-- Generated by graphviz version 2.44.0 (0)
 -->
<!-- Title: ATAS.Indicators.IFilter Pages: 1 -->
<svg width="212pt" height="82pt"
 viewBox="0.00 0.00 211.50 82.00" xmlns="http://www.w3.org/2000/svg" xmlns:xlink="http://www.w3.org/1999/xlink">
<g id="graph0" class="graph" transform="scale(1 1) rotate(0) translate(4 78)">
<title>ATAS.Indicators.IFilter</title>
<!-- Node1 -->
<g id="Node000001" class="node">
<title>Node1</title>
<g id="a_Node000001"><a xlink:title="Represents a filter with common properties and functionality.">
<polygon fill="#999999" stroke="#666666" points="174,-19 58,-19 58,0 174,0 174,-19"/>
<text text-anchor="middle" x="116" y="-7" font-family="Helvetica" font-size="10.00">ATAS.Indicators.IFilter</text>
</a>
</g>
</g>
<!-- Node2 -->
<g id="Node000002" class="node">
<title>Node2</title>
<g id="a_Node000002"><a xlink:title=" ">
<polygon fill="white" stroke="#666666" points="122,-74 0,-74 0,-55 122,-55 122,-74"/>
<text text-anchor="middle" x="61" y="-62" font-family="Helvetica" font-size="10.00">INotifyPropertyChanged</text>
</a>
</g>
</g>
<!-- Node2&#45;&gt;Node1 -->
<g id="edge1_Node000001_Node000002" class="edge">
<title>Node2&#45;&gt;Node1</title>
<g id="a_edge1_Node000001_Node000002"><a xlink:title=" ">
<path fill="none" stroke="#63b8ff" d="M77.29,-47.8C87.04,-38.41 99.05,-26.83 107.09,-19.09"/>
<polygon fill="#63b8ff" stroke="#63b8ff" points="74.85,-45.29 70.08,-54.75 79.71,-50.33 74.85,-45.29"/>
</a>
</g>
</g>
<!-- Node3 -->
<g id="Node000003" class="node">
<title>Node3</title>
<g id="a_Node000003"><a xlink:title=" ">
<polygon fill="white" stroke="#666666" points="203.5,-74 140.5,-74 140.5,-55 203.5,-55 203.5,-74"/>
<text text-anchor="middle" x="172" y="-62" font-family="Helvetica" font-size="10.00">ICloneable</text>
</a>
</g>
</g>
<!-- Node3&#45;&gt;Node1 -->
<g id="edge2_Node000001_Node000003" class="edge">
<title>Node3&#45;&gt;Node1</title>
<g id="a_edge2_Node000001_Node000003"><a xlink:title=" ">
<path fill="none" stroke="#63b8ff" d="M155.67,-48.04C145.74,-38.64 133.41,-26.98 125.16,-19.17"/>
<polygon fill="#63b8ff" stroke="#63b8ff" points="153.33,-50.65 163,-54.98 158.15,-45.57 153.33,-50.65"/>
</a>
</g>
</g>
</g>
</svg>
