<?xml version="1.0" encoding="UTF-8" standalone="no"?>
<!DOCTYPE svg PUBLIC "-//W3C//DTD SVG 1.1//EN"
 "http://www.w3.org/Graphics/SVG/1.1/DTD/svg11.dtd">
<!-- Generated by graphviz version 2.44.0 (0)
 -->
<!-- Title: ATAS.DataFeedsCore.IMessageQueue&lt; TMessage &gt; Pages: 1 -->
<svg width="496pt" height="86pt"
 viewBox="0.00 0.00 496.00 86.00" xmlns="http://www.w3.org/2000/svg" xmlns:xlink="http://www.w3.org/1999/xlink">
<g id="graph0" class="graph" transform="scale(1 1) rotate(0) translate(4 82)">
<title>ATAS.DataFeedsCore.IMessageQueue&lt; TMessage &gt;</title>
<!-- Node1 -->
<g id="Node000001" class="node">
<title>Node1</title>
<g id="a_Node000001"><a xlink:title=" ">
<polygon fill="#999999" stroke="#666666" points="274,-54 116,-54 116,-24 274,-24 274,-54"/>
<text text-anchor="start" x="124" y="-42" font-family="Helvetica" font-size="10.00">ATAS.DataFeedsCore.IMessage</text>
<text text-anchor="middle" x="195" y="-31" font-family="Helvetica" font-size="10.00">Queue&lt; TMessage &gt;</text>
</a>
</g>
</g>
<!-- Node3 -->
<g id="Node000003" class="node">
<title>Node3</title>
<g id="a_Node000003"><a xlink:href="classATAS_1_1DataFeedsCore_1_1AsyncMessageQueue.html" target="_top" xlink:title=" ">
<polygon fill="white" stroke="#666666" points="473.5,-78 324.5,-78 324.5,-48 473.5,-48 473.5,-78"/>
<text text-anchor="start" x="332.5" y="-66" font-family="Helvetica" font-size="10.00">ATAS.DataFeedsCore.Async</text>
<text text-anchor="middle" x="399" y="-55" font-family="Helvetica" font-size="10.00">MessageQueue&lt; TMessage &gt;</text>
</a>
</g>
</g>
<!-- Node1&#45;&gt;Node3 -->
<g id="edge2_Node000001_Node000003" class="edge">
<title>Node1&#45;&gt;Node3</title>
<g id="a_edge2_Node000001_Node000003"><a xlink:title=" ">
<path fill="none" stroke="#63b8ff" d="M284.27,-49.49C297.67,-51.08 311.37,-52.71 324.42,-54.26"/>
<polygon fill="#63b8ff" stroke="#63b8ff" points="284.44,-45.98 274.1,-48.28 283.62,-52.93 284.44,-45.98"/>
</a>
</g>
</g>
<!-- Node4 -->
<g id="Node000004" class="node">
<title>Node4</title>
<g id="a_Node000004"><a xlink:href="classATAS_1_1DataFeedsCore_1_1BaseMessageQueue.html" target="_top" xlink:title=" ">
<polygon fill="white" stroke="#666666" points="488,-30 310,-30 310,0 488,0 488,-30"/>
<text text-anchor="start" x="318" y="-18" font-family="Helvetica" font-size="10.00">ATAS.DataFeedsCore.BaseMessage</text>
<text text-anchor="middle" x="399" y="-7" font-family="Helvetica" font-size="10.00">Queue&lt; TMessage, TItem &gt;</text>
</a>
</g>
</g>
<!-- Node1&#45;&gt;Node4 -->
<g id="edge3_Node000001_Node000004" class="edge">
<title>Node1&#45;&gt;Node4</title>
<g id="a_edge3_Node000001_Node000004"><a xlink:title=" ">
<path fill="none" stroke="#63b8ff" d="M284.3,-28.51C292.72,-27.51 301.27,-26.49 309.69,-25.49"/>
<polygon fill="#63b8ff" stroke="#63b8ff" points="283.62,-25.07 274.1,-29.72 284.44,-32.02 283.62,-25.07"/>
</a>
</g>
</g>
<!-- Node2 -->
<g id="Node000002" class="node">
<title>Node2</title>
<g id="a_Node000002"><a xlink:title=" ">
<polygon fill="white" stroke="#666666" points="80,-48.5 0,-48.5 0,-29.5 80,-29.5 80,-48.5"/>
<text text-anchor="middle" x="40" y="-36.5" font-family="Helvetica" font-size="10.00">ILoggerSource</text>
</a>
</g>
</g>
<!-- Node2&#45;&gt;Node1 -->
<g id="edge1_Node000001_Node000002" class="edge">
<title>Node2&#45;&gt;Node1</title>
<g id="a_edge1_Node000001_Node000002"><a xlink:title=" ">
<path fill="none" stroke="#63b8ff" d="M90.11,-39C98.32,-39 107.01,-39 115.74,-39"/>
<polygon fill="#63b8ff" stroke="#63b8ff" points="90,-35.5 80,-39 90,-42.5 90,-35.5"/>
</a>
</g>
</g>
</g>
</svg>
